<?xml version="1.0" encoding="UTF-8" standalone="no"?>
<!-- Created with Inkscape (http://www.inkscape.org/) -->

<svg
   xmlns:dc="http://purl.org/dc/elements/1.1/"
   xmlns:cc="http://creativecommons.org/ns#"
   xmlns:rdf="http://www.w3.org/1999/02/22-rdf-syntax-ns#"
   xmlns:svg="http://www.w3.org/2000/svg"
   xmlns="http://www.w3.org/2000/svg"
   xmlns:xlink="http://www.w3.org/1999/xlink"
   xmlns:sodipodi="http://sodipodi.sourceforge.net/DTD/sodipodi-0.dtd"
   xmlns:inkscape="http://www.inkscape.org/namespaces/inkscape"
   width="48px"
   height="48px"
   id="svg2985"
   version="1.1"
   inkscape:version="0.91 r13725"
   sodipodi:docname="konqueror.svg">
  <defs
     id="defs2987">
    <linearGradient
       id="linearGradient4535"
       inkscape:collect="always">
      <stop
         id="stop4537"
         offset="0"
         style="stop-color:#bacbcc;stop-opacity:1" />
      <stop
         id="stop4539"
         offset="1"
         style="stop-color:#f9fbfc;stop-opacity:1" />
    </linearGradient>
    <linearGradient
       inkscape:collect="always"
       id="linearGradient4458">
      <stop
         style="stop-color:#b1c4c5;stop-opacity:1"
         offset="0"
         id="stop4460" />
      <stop
         style="stop-color:#fdfeff;stop-opacity:1"
         offset="1"
         id="stop4462" />
    </linearGradient>
    <linearGradient
       id="linearGradient4501">
      <stop
         id="stop4503"
         offset="0"
         style="stop-color:#f67400;stop-opacity:1;" />
      <stop
         id="stop4505"
         offset="1"
         style="stop-color:#ed1515;stop-opacity:1;" />
    </linearGradient>
    <linearGradient
       id="linearGradient4491">
      <stop
         style="stop-color:#212329;stop-opacity:1;"
         offset="0"
         id="stop4493" />
      <stop
         style="stop-color:#31363b;stop-opacity:1;"
         offset="1"
         id="stop4495" />
    </linearGradient>
    <linearGradient
       y2="561.69012"
       x2="414.09818"
       y1="539.0874"
       x1="390.87805"
       gradientTransform="matrix(1.1713132,0,0,1.1713132,-442.46606,-613.17725)"
       gradientUnits="userSpaceOnUse"
       id="linearGradient3097"
       xlink:href="#linearGradient4227-4"
       inkscape:collect="always" />
    <linearGradient
       id="linearGradient4227-4"
       inkscape:collect="always">
      <stop
         id="stop4229-6"
         offset="0"
         style="stop-color:#292c2f;stop-opacity:1" />
      <stop
         id="stop4231-9"
         offset="1"
         style="stop-color:#000000;stop-opacity:0;" />
    </linearGradient>
    <linearGradient
       inkscape:collect="always"
       xlink:href="#linearGradient4458"
       id="linearGradient4472"
       x1="25.743328"
       y1="3.9763184"
       x2="25.789143"
       y2="43.291828"
       gradientUnits="userSpaceOnUse"
       gradientTransform="matrix(-1,0,0,-1,48,48)" />
    <linearGradient
       gradientUnits="userSpaceOnUse"
       y2="502.85028"
       x2="407.11621"
       y1="525.72217"
       x1="407.09991"
       id="linearGradient4174"
       xlink:href="#linearGradient4143"
       inkscape:collect="always"
       gradientTransform="matrix(0.65,0,0,0.65,-241.57143,-316.4687)" />
    <linearGradient
       inkscape:collect="always"
       id="linearGradient4143">
      <stop
         style="stop-color:#147ae1;stop-opacity:1"
         offset="0"
         id="stop4145" />
      <stop
         style="stop-color:#1cc8ef;stop-opacity:1"
         offset="1"
         id="stop4147" />
    </linearGradient>
    <linearGradient
       inkscape:collect="always"
       xlink:href="#linearGradient4535"
       id="linearGradient4161-1"
       x1="16.000011"
       y1="29.999973"
       x2="16.000011"
       y2="1.999974"
       gradientUnits="userSpaceOnUse"
       gradientTransform="matrix(0.98896415,0,0,0.98896415,8.1512822,8.1712564)" />
  </defs>
  <sodipodi:namedview
     id="base"
     pagecolor="#ffffff"
     bordercolor="#666666"
     borderopacity="1.0"
     inkscape:pageopacity="0.0"
     inkscape:pageshadow="2"
     inkscape:zoom="6.565"
     inkscape:cx="-11.692308"
     inkscape:cy="22.852731"
     inkscape:current-layer="g4374"
     showgrid="false"
     inkscape:grid-bbox="true"
     inkscape:document-units="px"
     inkscape:snap-global="true"
     inkscape:window-width="1366"
     inkscape:window-height="698"
     inkscape:window-x="0"
     inkscape:window-y="0"
     inkscape:window-maximized="0"
     inkscape:snap-bbox="true"
     inkscape:bbox-nodes="true"
     showguides="false">
    <inkscape:grid
       type="xygrid"
       id="grid2993" />
  </sodipodi:namedview>
  <metadata
     id="metadata2990">
    <rdf:RDF>
      <cc:Work
         rdf:about="">
        <dc:format>image/svg+xml</dc:format>
        <dc:type
           rdf:resource="http://purl.org/dc/dcmitype/StillImage" />
        <dc:title />
      </cc:Work>
    </rdf:RDF>
  </metadata>
  <g
     id="layer1"
     inkscape:label="Layer 1"
     inkscape:groupmode="layer">
    <path
       style="color:#000000;display:inline;overflow:visible;visibility:visible;opacity:1;fill:#2a6bae;fill-opacity:1;fill-rule:nonzero;stroke:none;stroke-width:3;stroke-linecap:round;stroke-linejoin:round;stroke-miterlimit:4;stroke-dasharray:none;stroke-opacity:1;marker:none;enable-background:accumulate"
       id="path4212"
       transform="matrix(-0.96592583,-0.25881905,0.25881905,-0.96592583,0,0)"
       r="13"
       cy="-16.970562"
       cx="-29.393877" />
    <g
       id="g4549"
       transform="matrix(1.1646832,0,0,1.1646832,-3.8762341,-3.8762342)">
      <path
         inkscape:connector-curvature="0"
         id="path4162"
         d="m 27.167969,43.736328 c 1.352286,-0.215111 2.678906,-0.568528 3.958984,-1.054688 l -0.34375,-3.117187 c 1.170276,-0.509278 2.279478,-1.148724 3.306641,-1.90625 l 2.521484,1.851562 c 1.06238,-0.865659 2.032974,-1.838216 2.896484,-2.902343 l -1.849609,-2.517578 c 0.762159,-1.025893 1.406202,-2.13446 1.919922,-3.304688 L 42.664062,31.125 c 0.488416,-1.28112 0.8438,-2.609067 1.060547,-3.962891 L 40.882812,25.914062 C 40.957857,25.278754 40.996982,24.639717 41,24 c -0.0071,-0.637983 -0.05016,-1.275058 -0.128906,-1.908203 l 2.865234,-1.259766 C 43.521217,19.479745 43.1678,18.153125 42.68164,16.873047 l -3.117187,0.34375 c -0.509278,-1.170276 -1.148724,-2.279478 -1.90625,-3.306641 l 1.851562,-2.521484 C 38.644106,10.326292 37.671549,9.355698 36.607422,8.4921879 L 34.089844,10.341797 C 33.063951,9.5796379 31.955384,8.9355948 30.785156,8.4218749 L 31.125,5.3359379 C 29.84388,4.8475223 28.515933,4.4921376 27.162109,4.2753909 l -1.248047,2.841797 C 25.278754,7.0421425 24.639717,7.0030176 24,6.9999999 c -0.637983,0.00713 -1.275058,0.050163 -1.908203,0.128906 l -1.259766,-2.865234 c -1.352286,0.2151106 -2.678906,0.5685269 -3.958984,1.054687 l 0.34375,3.117188 C 16.046521,8.9448248 14.937319,9.5842706 13.910156,10.341797 L 11.388672,8.4902339 c -1.06238,0.865659 -2.0329741,1.8382171 -2.8964841,2.9023441 l 1.8496091,2.517578 c -0.7621591,1.025893 -1.4062022,2.13446 -1.9199221,3.304688 L 5.3359379,16.875 c -0.4884156,1.28112 -0.8438003,2.609067 -1.060547,3.962891 l 2.841797,1.248047 C 7.0421425,22.721246 7.0030176,23.360283 6.9999999,24 c 0.00713,0.637983 0.050163,1.275058 0.128906,1.908203 l -2.865234,1.259766 c 0.2151106,1.352286 0.5685269,2.678906 1.054687,3.958984 l 3.117188,-0.34375 c 0.5092779,1.170276 1.1487237,2.279478 1.9062501,3.306641 l -1.8515631,2.521484 c 0.865659,1.06238 1.8382171,2.032974 2.9023441,2.896484 l 2.517578,-1.849609 c 1.025893,0.762159 2.13446,1.406202 3.304688,1.919922 L 16.875,42.664062 c 1.28112,0.488416 2.609067,0.8438 3.962891,1.060547 l 1.248047,-2.841797 C 22.721246,40.957857 23.360283,40.996982 24,41 c 0.637983,-0.0071 1.275058,-0.05016 1.908203,-0.128906 z"
         style="color:#000000;display:inline;overflow:visible;visibility:visible;opacity:1;fill:url(#linearGradient4472);fill-opacity:1;fill-rule:nonzero;stroke:none;stroke-width:0.42930129;stroke-linecap:round;stroke-linejoin:round;stroke-miterlimit:4;stroke-dasharray:none;stroke-opacity:1;marker:none;enable-background:accumulate"
         sodipodi:nodetypes="ccccccccccccccccccccccccccccccccccccccccccccccccccccc" />
      <g
         transform="matrix(1.0857966,0,0,1.0857966,-1.9482433,-1.9906893)"
         id="g4374">
        <rect
           style="opacity:1;fill:url(#linearGradient4174);fill-opacity:1;stroke:none;stroke-width:2.79999995;stroke-miterlimit:4;stroke-dasharray:none;stroke-opacity:0.55026455"
           id="rect4166"
           width="25.999992"
           height="25.999981"
           x="11.000007"
           y="11.000003"
           ry="12.99999" />
        <path
           inkscape:connector-curvature="0"
           style="fill:url(#linearGradient4161-1);fill-opacity:1;fill-rule:nonzero;stroke:none"
           d="m 23.999806,10.814885 c -1.662985,0 -3.245849,0.317236 -4.708622,0.874257 -0.106418,0.09778 -0.244645,0.172845 -0.354082,0.16352 -0.01486,-0.0013 -0.02998,-0.01121 -0.04507,-0.01674 -0.721049,0.30168 -1.405047,0.671316 -2.053664,1.090567 0.08433,0.136796 0.109333,0.289106 -0.06439,0.363093 -0.02911,0.01264 -0.395918,0.04948 -0.524038,0.04634 -1.844375,1.340149 -3.323898,3.14264 -4.269563,5.246823 0.01507,-0.0021 0.02826,-0.0091 0.04376,-0.01032 0.143533,-0.0019 0.350133,0.03926 0.487986,0.06825 0.127218,0.02616 0.229824,0.111456 0.339917,0.119743 0.312423,0.02372 0.387575,-0.219236 0.642493,-0.355367 0.263358,0.03725 0.43812,-0.04461 0.675972,-0.01801 0.162131,0.01792 0.279246,0.191163 0.405582,0.200861 0.106289,0.01082 0.199738,-0.09944 0.302578,-0.08368 0.09992,0.01535 0.272164,0.233265 0.288414,0.355368 0.02056,0.151986 -0.111803,0.28886 -0.06825,0.455796 0.159198,0.162153 0.448486,0.195002 0.675973,0.288417 0.148154,-0.122078 0.01959,-0.348613 0,-0.525327 -0.0019,-0.07775 0.01082,-0.1472 0,-0.218886 -0.01385,-0.121694 -0.06598,-0.233189 -0.06695,-0.337343 -0.0019,-0.481047 0.388067,-0.706186 0.710735,-0.896143 0.139664,-0.08281 0.249638,-0.227811 0.370818,-0.288415 0.171156,-0.08583 0.298631,-0.105788 0.440347,-0.185409 0.256091,-0.143851 0.475742,-0.259319 0.675971,-0.422321 0.09256,-0.218122 0.009,-0.51061 0.01674,-0.726186 0.09264,-0.05677 0.172189,0.02445 0.270389,0.01674 0.154549,-0.0321 0.16737,-0.250263 0.254937,-0.337341 0.05103,-0.04989 0.190403,-0.08565 0.25365,-0.135194 0.153991,-0.120825 0.204128,-0.30331 0.33863,-0.355368 0.04826,-0.01952 0.159588,-0.0142 0.235623,-0.03476 0.100101,-0.02649 0.242549,-0.144977 0.405584,-0.20086 0.106295,-0.03718 0.349569,-0.04433 0.390131,-0.08499 0.0499,-0.05103 -9.22e-4,-0.19405 0.01674,-0.270388 0.08195,-0.381618 0.656806,-0.462508 0.996574,-0.590991 0.238161,-0.09029 0.482543,-0.255459 0.744212,-0.204724 -0.05123,0.181362 -0.294976,0.117111 -0.25365,0.337342 0.05696,0.305632 0.466311,-0.08759 0.574254,-0.132618 0.206254,-0.08694 0.559877,-0.14002 0.830479,-0.238202 0.237283,-0.08694 0.662723,-0.219149 0.439059,-0.490561 -0.186516,-0.01082 -0.276466,0.218898 -0.439059,0.288415 -0.112261,0.01792 -0.0909,-0.09398 -0.186696,-0.103007 -0.0911,-0.01082 -0.14206,0.08405 -0.235625,0.06825 -0.09297,-0.01535 -0.223644,-0.161629 -0.238199,-0.270389 -0.03718,-0.282205 0.238485,-0.398545 0.355367,-0.609017 -0.07729,-0.255271 -0.430391,-0.05202 -0.643779,-0.151935 0.0205,-0.151973 0.177843,-0.256781 0.355368,-0.28584 0.145533,-0.02467 0.472141,-0.01205 0.558803,0.06567 0.05004,0.04272 0.0027,0.149293 0.08499,0.220174 0.0861,0.07777 0.192065,0.06974 0.303864,0.0515 0.04034,-0.192622 -0.250469,-0.144313 -0.218886,-0.271676 0.228357,-0.149382 0.599832,-0.0267 0.879408,-0.06825 0.160944,-0.02372 0.329916,-0.137343 0.472534,-0.217599 0.135643,-0.07729 0.311894,-0.211394 0.455799,-0.08499 0.03898,0.138063 -0.125314,0.183744 -0.202149,0.252363 -0.258669,0.230105 -0.525126,0.493704 -0.726184,0.76095 0.123361,0.12031 0.347527,0.06003 0.556226,0.08499 0.08161,0.01082 0.184115,0.03498 0.270389,0.05022 0.100758,0.01792 0.208203,0.01291 0.287127,0.03349 0.141999,0.0348 0.180009,0.186696 0.320603,0.186696 0.231278,-4.14e-4 0.234028,-0.250585 0.103004,-0.406868 0.04141,-0.159556 0.106238,-0.242308 0.05023,-0.354082 -0.104171,-0.208369 -0.486367,-0.01079 -0.506013,-0.270388 -0.01251,-0.168553 0.141032,-0.161021 0.202149,-0.287127 -0.02777,-0.325687 0.267136,-0.349285 0.235623,-0.641206 -0.01385,-0.122104 -0.116651,-0.123791 -0.202147,-0.2382 -0.0428,-0.0563 -0.06517,-0.164053 -0.114591,-0.212448 -0.394473,-0.0352 -0.793468,-0.05666 -1.197418,-0.05666 z m -6.803489,2.660109 0.0013,0 c 0.07873,0.01138 0.173761,0.09577 0.269102,0.103004 0.09027,0.002 0.164632,-0.04972 0.220173,-0.03476 0.141352,0.03725 0.20097,0.250734 0.06825,0.355369 -0.110535,0.01385 -0.153607,-0.04792 -0.236914,-0.03349 -0.229604,0.03898 -0.317682,0.488704 -0.489273,0.473825 -0.161816,-0.01385 -0.249393,-0.407957 -0.08499,-0.525326 0.01082,-0.102471 -0.07477,-0.118923 -0.06951,-0.220173 0.04856,-0.0623 0.187402,-0.129291 0.321892,-0.118458 z m -0.76095,0.05279 c 0.04706,0.0013 0.08245,0.0129 0.100423,0.03349 -0.02235,0.180182 -0.16344,0.168376 -0.302577,0.252363 -0.240356,0.145064 -0.379313,0.366097 -0.455798,0.675971 -0.02216,0.09029 -0.259012,0.329057 -0.373394,0.305153 -0.26807,-0.05657 0.07396,-0.550656 0.135194,-0.625756 0.06764,-0.08324 0.158486,-0.156246 0.2382,-0.252362 0.0773,-0.09309 0.127662,-0.218732 0.202146,-0.270389 0.08163,-0.05657 0.314584,-0.123875 0.455799,-0.118456 z m 2.000873,0.60773 c 0.08586,0.0013 0.163057,0.01547 0.198285,0.05022 -0.05516,0.223249 -0.536139,0.164302 -0.712023,0.08368 0.01134,-0.08418 0.142993,-0.107359 0.253651,-0.118455 0.07777,-0.002 0.174373,-0.01801 0.260087,-0.01544 z m -1.094428,0.41202 c 0.05696,-0.0013 0.115092,0.01109 0.175108,0.02702 -0.155586,0.130146 -0.323831,0.203875 -0.590993,0.288414 -0.128457,0.04047 -0.350318,0.09087 -0.372105,-0.05279 -0.02649,-0.175832 0.187856,-0.134916 0.305153,-0.150646 0.147675,-0.0205 0.309828,-0.106479 0.482837,-0.112018 z m 16.789834,1.001725 c -0.01988,0.04786 -0.03454,0.09525 -0.03218,0.141633 0.01082,0.0816 0.09979,0.160039 0.119743,0.270389 0.01082,0.0584 -0.0275,0.184859 0,0.238198 0.08141,0.157867 0.294411,0.04431 0.446785,0.05279 -0.173102,-0.238368 -0.34599,-0.477156 -0.53434,-0.703011 z m 0.863957,1.162671 c -0.02412,0.116475 -0.103408,0.268391 -0.167385,0.365667 -0.147351,0.22412 -0.347498,0.234575 -0.558802,0.354081 -0.17622,0.0999 -0.252067,0.266592 -0.355368,0.440347 -0.111924,0.187684 -0.181289,0.301058 -0.135194,0.572966 -0.151058,0.299641 -0.379778,0.483216 -0.69271,0.625757 -0.09256,0.04175 -0.218944,0.05708 -0.303865,0.118455 -0.06764,0.04859 -0.10607,0.179171 -0.202147,0.287127 -0.118564,0.131931 -0.242828,0.187611 -0.305153,0.288415 -0.04826,0.07777 -0.06535,0.232806 -0.118456,0.337341 -0.07212,0.141979 -0.225858,0.211522 -0.320602,0.355367 -0.04311,0.06651 -0.07197,0.201304 -0.119744,0.288414 -0.107074,0.194626 -0.290046,0.334844 -0.270389,0.506013 0.01952,0.165422 0.207351,0.194422 0.220173,0.338631 0.002,0.0815 -0.05384,0.131326 -0.05022,0.220172 0.002,0.12971 0.09019,0.22079 0.100424,0.320603 0.02513,0.250979 -0.08538,0.351133 -0.132621,0.522753 -0.02236,0.08196 -0.01289,0.174179 -0.03476,0.238198 -0.0414,0.125643 -0.216714,0.239019 -0.220173,0.387557 -0.0013,0.105556 0.108268,0.190447 0.117168,0.338629 0.002,0.102148 -0.05021,0.211226 -0.03218,0.305153 0.03595,0.183953 0.364319,0.397862 0.507299,0.540778 0.191243,0.191249 0.441609,0.339282 0.52404,0.540775 0.06943,0.171124 0.06879,0.393786 0.202147,0.522751 0.09861,0.09522 0.262542,0.154594 0.388844,0.25365 0.117798,0.09245 0.246172,0.172275 0.372106,0.270389 0.205746,0.160959 0.516839,0.48182 0.844641,0.457087 0.171176,-0.01251 0.346608,-0.152214 0.540778,-0.186698 0.199754,-0.0358 0.458986,-0.05424 0.66052,-0.03349 0.154361,0.01535 0.313359,0.107807 0.473825,0.100424 0.169423,-0.01082 0.363698,-0.136075 0.556226,-0.220173 0.154896,-0.06744 0.344987,-0.14213 0.553653,-0.196998 0.09569,-0.643113 0.146789,-1.301973 0.146789,-1.972543 0,-2.699693 -0.807274,-5.201965 -2.188858,-7.287612 z m -21.806187,4.430512 c -0.280812,0.01535 -0.464835,0.02814 -0.624467,0.100422 -0.365795,0.166456 -0.295089,0.660742 -0.66052,0.77769 -0.126395,0.04034 -0.299923,0.04235 -0.439061,0.06824 -0.120092,0.02196 -0.26638,0.08761 -0.390131,0.08499 -0.03463,-4.69e-4 -0.08304,-0.02626 -0.126182,-0.03992 -0.03255,0.231794 -0.0594,0.466146 -0.07983,0.701723 0.34766,0.0666 0.527067,0.527389 0.834341,0.679834 0.0842,0.04175 0.1942,0.04391 0.302578,0.06825 0.08751,0.01952 0.15391,0.05659 0.2382,0.08499 0.178789,0.0607 0.397775,0.05342 0.540776,0.117168 0.215504,0.09563 0.373485,0.500606 0.558803,0.609016 0.01082,0.109243 -0.02123,0.255895 0.01674,0.337343 0.08753,0.118714 0.21114,0.09255 0.355366,0.16996 0.172535,0.09308 0.225329,0.333411 0.388844,0.40687 0.0565,0.02506 0.197947,0.02185 0.287128,0.04892 0.224072,0.06784 0.297225,0.32705 0.489273,0.270388 0.125979,-0.03718 0.116079,-0.16671 0.136483,-0.287127 0.08323,-0.09028 0.174081,-0.233092 0.303865,-0.235623 0.210038,-0.01082 0.228733,0.217032 0.305153,0.421032 0.04305,0.115275 0.155952,0.215747 0.185408,0.337342 0.0524,0.210059 0.02627,0.838823 -0.01801,0.964386 -0.05279,0.154023 -0.261554,0.219358 -0.390131,0.390132 -0.06071,0.08007 -0.0895,0.197371 -0.135195,0.253649 -0.0828,0.100759 -0.205866,0.127163 -0.267812,0.220175 -0.03487,0.0524 -0.06883,0.164816 -0.103006,0.235623 -0.101528,0.215094 -0.237321,0.36751 -0.151933,0.625757 0.03581,0.106295 0.201733,0.177482 0.202148,0.302578 4.61e-4,0.14718 -0.313062,0.278973 -0.337342,0.440347 -0.01792,0.120046 0.09711,0.334337 0.135194,0.490562 0.0279,0.118062 0.251009,0.191854 0.320603,0.270388 0.118663,0.133224 0.213489,0.321948 0.321892,0.489274 0.21435,0.329116 0.382298,0.7305 0.590991,1.049365 0.110296,0.167016 0.265145,0.31719 0.338629,0.490562 0.0375,0.08751 0.03234,0.191768 0.06697,0.270388 0.120818,0.272671 0.654305,0.557363 0.929621,0.692709 0.128887,0.06257 0.271859,0.08516 0.390133,0.150646 0.179146,0.09991 0.534034,0.36823 0.624467,0.525326 0.08054,0.1412 0.130775,0.484905 0.169959,0.709446 0.0524,0.29673 5.87e-4,0.524562 0.01674,0.845931 0.01082,0.173774 0.06639,0.348537 0.06825,0.52275 6.59e-4,0.06096 -0.03205,0.106407 -0.03476,0.168673 -9.5e-5,0.01032 0.0024,0.02178 0.0025,0.03218 1.660481,0.751431 3.500427,1.179409 5.447721,1.179409 0.351819,0 0.699498,-0.01826 1.044213,-0.04507 0.01501,-0.02596 0.02901,-0.05288 0.04766,-0.07725 0.07933,-0.10416 0.149805,-0.195395 0.202148,-0.287128 0.0499,-0.308645 -0.123087,-0.524253 -0.05023,-0.794425 0.08069,-0.303493 0.500316,-0.488835 0.794426,-0.625757 0.101177,-0.047 0.20473,-0.123328 0.287127,-0.151932 0.203545,-0.07084 0.457675,-0.03253 0.643782,-0.100424 0.316722,-0.115904 0.349814,-0.455644 0.506013,-0.744209 0.07362,-0.13666 0.170965,-0.273489 0.185408,-0.37082 0.01251,-0.08752 -0.03206,-0.1698 -0.01801,-0.272963 0.01535,-0.102149 0.10686,-0.190384 0.135195,-0.302578 0.03718,-0.146423 0.05278,-0.360931 0.05278,-0.524038 0,-0.133871 -0.06265,-0.251341 -0.06825,-0.372108 -0.02196,-0.438467 0.158367,-0.487549 0.320603,-0.726185 0.08141,-0.118543 0.11186,-0.253674 0.168672,-0.338629 0.272349,-0.406339 0.744916,-0.602508 0.710735,-1.216749 -0.01134,-0.203253 -0.138887,-0.662592 -0.288415,-0.727473 -0.08558,-0.03725 -0.281831,-0.0021 -0.405582,-0.05023 -0.399561,-0.149052 -0.634078,-0.644341 -1.048077,-0.67597 -0.08843,-0.01082 -0.169597,0.03629 -0.269102,0.03476 -0.163878,-0.01082 -0.410858,-0.114778 -0.592279,-0.135195 -0.115266,-0.01251 -0.269423,0.03434 -0.33863,0 -0.105542,-0.05129 -0.116288,-0.245865 -0.202146,-0.303865 -0.06805,-0.04686 -0.20061,-0.06299 -0.303867,-0.103005 -0.166474,-0.06393 -0.298473,-0.138551 -0.490561,-0.151934 -0.05934,-0.0019 -0.133133,0.02851 -0.202147,0.01801 -0.106294,-0.01792 -0.19034,-0.143749 -0.288414,-0.203435 -0.122828,-0.07476 -0.23634,-0.110941 -0.287128,-0.217598 0.11101,-0.364112 -0.195749,-0.465598 -0.270388,-0.675972 -0.03579,-0.09858 -0.01924,-0.21721 -0.05023,-0.305153 -0.04409,-0.125972 -0.168626,-0.198776 -0.305153,-0.303863 -0.244615,-0.188264 -0.46158,-0.365038 -0.811165,-0.408158 -0.153694,-0.01952 -0.306176,0.04603 -0.491848,0.03475 -0.196775,-0.01251 -0.443798,-0.18457 -0.590992,-0.352792 -0.14308,-0.164229 -0.212688,-0.311625 -0.337343,-0.390132 -0.118081,-0.07592 -0.274738,-0.07373 -0.355367,-0.150647 -0.03594,-0.03343 -0.02974,-0.09099 -0.06825,-0.169955 -0.0594,-0.122963 -0.159036,-0.191306 -0.08499,-0.338631 -0.134693,-0.06921 -0.138434,0.128556 -0.285838,0.103004 -0.131398,-0.186511 -0.242389,-0.27487 -0.540778,-0.220173 -0.136639,0.02513 -0.212888,0.197856 -0.372106,0.202148 -0.130567,0.01082 -0.233134,-0.145461 -0.405583,-0.169959 -0.130158,-0.01792 -0.278162,0.03535 -0.370818,0.01801 -0.14428,-0.02887 -0.188809,-0.148954 -0.320604,-0.235623 -0.09664,-0.06354 -0.28442,-0.171685 -0.338629,-0.169958 -0.169909,0.01082 -0.291002,0.361084 -0.525325,0.236911 -0.11387,-0.144299 0.185495,-0.22035 0.05023,-0.355368 -0.102458,-0.102457 -0.188479,0.04636 -0.270388,0.103006 -0.09387,0.06488 -0.182097,0.128989 -0.285839,0.167384 -0.232209,0.08692 -0.37733,0.04138 -0.558804,0.135194 -0.168031,0.08702 -0.175175,0.232659 -0.270387,0.405581 -0.07777,0.14167 -0.255144,0.348105 -0.372106,0.356656 -0.141675,0.01082 -0.277079,-0.198084 -0.405584,-0.25365 -0.387128,-0.167689 -0.574676,0.148916 -0.896144,0.153221 -0.298343,0.01082 -0.724439,-0.481748 -0.709447,-0.762239 0.002,-0.17115 0.09842,-0.430774 0.118454,-0.642494 0.01792,-0.168394 0.133257,-0.269902 0.135194,-0.423609 0.002,-0.205325 -0.272371,-0.363198 -0.405581,-0.387557 -0.315837,-0.05807 -0.754347,0.127065 -1.116319,-0.01801 -0.06921,-0.114562 0.08093,-0.193715 0.119744,-0.305152 0.02196,-0.06341 0.0091,-0.147917 0.03218,-0.217599 0.04014,-0.10766 0.15295,-0.191086 0.203435,-0.305152 0.03764,-0.08704 0.04711,-0.212601 0.08499,-0.320604 0.0441,-0.122973 0.125689,-0.202167 0.135194,-0.288414 0.01251,-0.113877 -0.03053,-0.24551 -0.119744,-0.320603 z m 4.519351,3.578139 c 0.11458,0.01082 0.128925,0.247481 0.01159,0.266527 -0.126402,0.01958 -0.190654,-0.198245 -0.06824,-0.254938 0.02056,-0.01082 0.04063,-0.01148 0.05666,-0.01032 l 0,-0.0013 z"
           id="path34-7" />
      </g>
    </g>
  </g>
</svg>
