<?xml version="1.0" encoding="UTF-8" standalone="no"?>
<!-- Created with Inkscape (http://www.inkscape.org/) -->

<svg
   xmlns:dc="http://purl.org/dc/elements/1.1/"
   xmlns:cc="http://creativecommons.org/ns#"
   xmlns:rdf="http://www.w3.org/1999/02/22-rdf-syntax-ns#"
   xmlns:svg="http://www.w3.org/2000/svg"
   xmlns="http://www.w3.org/2000/svg"
   xmlns:xlink="http://www.w3.org/1999/xlink"
   xmlns:sodipodi="http://sodipodi.sourceforge.net/DTD/sodipodi-0.dtd"
   xmlns:inkscape="http://www.inkscape.org/namespaces/inkscape"
   width="48"
   height="48"
   id="svg5453"
   version="1.1"
   inkscape:version="0.91 r13725"
   sodipodi:docname="krename.svg">
  <defs
     id="defs5455">
    <linearGradient
       id="linearGradient4261"
       inkscape:collect="always">
      <stop
         id="stop4263"
         offset="0"
         style="stop-color:#595959;stop-opacity:1" />
      <stop
         id="stop4265"
         offset="1"
         style="stop-color:#393939;stop-opacity:1" />
    </linearGradient>
    <linearGradient
       id="linearGradient4193"
       inkscape:collect="always">
      <stop
         id="stop4195"
         offset="0"
         style="stop-color:#c61423;stop-opacity:1" />
      <stop
         id="stop4197"
         offset="1"
         style="stop-color:#ff324b;stop-opacity:1" />
    </linearGradient>
    <linearGradient
       inkscape:collect="always"
       id="linearGradient4143">
      <stop
         style="stop-color:#197cf1;stop-opacity:1"
         offset="0"
         id="stop4145" />
      <stop
         style="stop-color:#20bcfa;stop-opacity:1"
         offset="1"
         id="stop4147" />
    </linearGradient>
    <linearGradient
       inkscape:collect="always"
       xlink:href="#linearGradient4193"
       id="linearGradient4191"
       x1="375.57144"
       y1="532.79797"
       x2="375.57144"
       y2="515.79797"
       gradientUnits="userSpaceOnUse"
       gradientTransform="translate(21.843764,0.49756929)" />
    <linearGradient
       inkscape:collect="always"
       xlink:href="#linearGradient4143"
       id="linearGradient4206"
       x1="377.1871"
       y1="523.29248"
       x2="406.80722"
       y2="533.50635"
       gradientUnits="userSpaceOnUse"
       gradientTransform="matrix(0.8654602,0,0,0.8654602,-9.5721574,64.672065)" />
    <linearGradient
       inkscape:collect="always"
       xlink:href="#linearGradient4193"
       id="linearGradient4254"
       gradientUnits="userSpaceOnUse"
       gradientTransform="matrix(0.97335794,0,0,0.97335794,-2.6694445,9.1562968)"
       x1="375.57144"
       y1="532.79797"
       x2="375.57144"
       y2="515.79797" />
    <linearGradient
       id="linearGradient4298">
      <stop
         id="stop4300"
         offset="0"
         style="stop-color:#fd415a;stop-opacity:1" />
      <stop
         id="stop4302"
         offset="1"
         style="stop-color:#fc593d;stop-opacity:1" />
    </linearGradient>
    <linearGradient
       id="linearGradient4491">
      <stop
         style="stop-color:#fd3865;stop-opacity:1"
         offset="0"
         id="stop4493" />
      <stop
         style="stop-color:#fc5e37;stop-opacity:1"
         offset="1"
         id="stop4495" />
    </linearGradient>
    <linearGradient
       id="linearGradient4290-1">
      <stop
         id="stop4292-9"
         offset="0"
         style="stop-color:#a5a5a5;stop-opacity:1;" />
      <stop
         id="stop4294-1"
         offset="1"
         style="stop-color:#f5f2f5;stop-opacity:1;" />
    </linearGradient>
    <linearGradient
       inkscape:collect="always"
       id="linearGradient4602">
      <stop
         style="stop-color:#d0d2d2;stop-opacity:1"
         offset="0"
         id="stop4604" />
      <stop
         style="stop-color:#f9fafb;stop-opacity:1"
         offset="1"
         id="stop4606" />
    </linearGradient>
    <linearGradient
       gradientTransform="translate(3.0379284,-6.9750258)"
       gradientUnits="userSpaceOnUse"
       y2="322.79785"
       x2="295.20923"
       y1="437.06079"
       x1="295.20923"
       id="linearGradient4241"
       xlink:href="#linearGradient4602"
       inkscape:collect="always" />
    <linearGradient
       id="linearGradient5263">
      <stop
         offset="0"
         style="stop-color:#a0d5ff;stop-opacity:1"
         id="stop5265" />
      <stop
         offset="1"
         style="stop-color:#a0d5ff;stop-opacity:1"
         id="stop5267" />
    </linearGradient>
    <clipPath
       id="clipPath4458">
      <path
         d="m 69.626,12.145 -0.052,0 c -22.727,-0.292 -46.472,4.077 -46.709,4.122 -2.424,0.451 -4.946,2.974 -5.397,5.397 -0.044,0.237 -4.414,23.983 -4.122,46.71 -0.292,22.777 4.078,46.523 4.122,46.761 0.451,2.423 2.974,4.945 5.398,5.398 0.237,0.044 23.982,4.413 46.709,4.121 22.779,0.292 46.524,-4.077 46.761,-4.121 2.423,-0.452 4.946,-2.976 5.398,-5.399 0.044,-0.236 4.413,-23.981 4.121,-46.709 0.292,-22.777 -4.077,-46.523 -4.121,-46.761 -0.453,-2.423 -2.976,-4.946 -5.398,-5.397 -0.238,-0.045 -23.984,-4.414 -46.71,-4.122 z"
         id="use4460"
         inkscape:connector-curvature="0" />
    </clipPath>
    <linearGradient
       id="linearGradient4237">
      <stop
         offset="0"
         style="stop-color:#ff594d;stop-opacity:1"
         id="stop4239-95" />
      <stop
         offset="1"
         style="stop-color:#ff7f76;stop-opacity:1"
         id="stop4241" />
    </linearGradient>
    <linearGradient
       id="linearGradient4210">
      <stop
         id="stop4212"
         style="stop-color:#ff584c;stop-opacity:1"
         offset="0" />
      <stop
         id="stop4214"
         style="stop-color:#ff8077;stop-opacity:1"
         offset="1" />
    </linearGradient>
    <linearGradient
       id="linearGradient4179">
      <stop
         offset="0"
         style="stop-color:#ffee5e;stop-opacity:1"
         id="stop4181" />
      <stop
         offset="1"
         style="stop-color:#feff8b;stop-opacity:1"
         id="stop4183" />
    </linearGradient>
    <linearGradient
       id="linearGradient4210-3">
      <stop
         offset="0"
         style="stop-color:#ffce69;stop-opacity:1"
         id="stop4212-1" />
      <stop
         offset="1"
         style="stop-color:#ffce54;stop-opacity:1"
         id="stop4214-6" />
    </linearGradient>
    <linearGradient
       id="linearGradient4237-0">
      <stop
         id="stop4239-8"
         style="stop-color:#ffee5e;stop-opacity:1"
         offset="0" />
      <stop
         id="stop4241-9"
         style="stop-color:#feff9f;stop-opacity:1"
         offset="1" />
    </linearGradient>
    <linearGradient
       id="linearGradient4237-2">
      <stop
         id="stop4239-7"
         style="stop-color:#ffa0a6;stop-opacity:1"
         offset="0" />
      <stop
         id="stop4241-2"
         style="stop-color:#ffa0a5;stop-opacity:1"
         offset="1" />
    </linearGradient>
    <linearGradient
       id="linearGradient8311">
      <stop
         offset="0"
         style="stop-color:#ce89ff;stop-opacity:1"
         id="stop8313" />
      <stop
         offset="1"
         style="stop-color:#e898ff;stop-opacity:1"
         id="stop8315" />
    </linearGradient>
    <linearGradient
       id="linearGradient4237-8">
      <stop
         id="stop4239-2"
         style="stop-color:#cf8aff;stop-opacity:1"
         offset="0" />
      <stop
         id="stop4241-3"
         style="stop-color:#eaa0ff;stop-opacity:1"
         offset="1" />
    </linearGradient>
    <linearGradient
       id="linearGradient8311-3">
      <stop
         offset="0"
         style="stop-color:#ffcc6b;stop-opacity:1"
         id="stop8313-0" />
      <stop
         offset="1"
         style="stop-color:#ffcf98;stop-opacity:1"
         id="stop8315-1" />
    </linearGradient>
    <linearGradient
       id="linearGradient4237-3">
      <stop
         id="stop4239-0"
         style="stop-color:#ffcc6e;stop-opacity:1"
         offset="0" />
      <stop
         id="stop4241-7"
         style="stop-color:#ffe4a0;stop-opacity:1"
         offset="1" />
    </linearGradient>
    <linearGradient
       id="linearGradient8311-31">
      <stop
         offset="0"
         style="stop-color:#f089ff;stop-opacity:1"
         id="stop8313-2" />
      <stop
         offset="1"
         style="stop-color:#ffadea;stop-opacity:1"
         id="stop8315-6" />
    </linearGradient>
    <linearGradient
       id="linearGradient4237-6">
      <stop
         id="stop4239-22"
         style="stop-color:#f18bfe;stop-opacity:1"
         offset="0" />
      <stop
         id="stop4241-0"
         style="stop-color:#fcc3ff;stop-opacity:1"
         offset="1" />
    </linearGradient>
    <linearGradient
       id="linearGradient8467">
      <stop
         id="stop8469"
         style="stop-color:#b9b9b9;stop-opacity:1"
         offset="0" />
      <stop
         id="stop8471"
         style="stop-color:#d1d1d1;stop-opacity:1"
         offset="1" />
    </linearGradient>
    <linearGradient
       id="linearGradient8311-5">
      <stop
         offset="0"
         style="stop-color:#b9b9b9;stop-opacity:1"
         id="stop8313-7" />
      <stop
         offset="1"
         style="stop-color:#d2d2d2;stop-opacity:1"
         id="stop8315-3" />
    </linearGradient>
    <linearGradient
       id="linearGradient4237-4">
      <stop
         id="stop4239-9"
         style="stop-color:#bababa;stop-opacity:1"
         offset="0" />
      <stop
         id="stop4241-37"
         style="stop-color:#c8c8c8;stop-opacity:1"
         offset="1" />
    </linearGradient>
    <linearGradient
       id="linearGradient8467-7">
      <stop
         id="stop8469-4"
         style="stop-color:#3ec896;stop-opacity:1"
         offset="0" />
      <stop
         id="stop8471-7"
         style="stop-color:#66d9af;stop-opacity:1"
         offset="1" />
    </linearGradient>
    <linearGradient
       id="linearGradient8311-1">
      <stop
         offset="0"
         style="stop-color:#494949;stop-opacity:1"
         id="stop8313-9" />
      <stop
         offset="1"
         style="stop-color:#616774;stop-opacity:1"
         id="stop8315-5" />
    </linearGradient>
    <linearGradient
       id="linearGradient-1"
       y2="116.69431"
       x2="209.95714"
       y1="0"
       x1="209.95714"
       gradientTransform="scale(1.1288018,0.8858951)"
       gradientUnits="userSpaceOnUse">
      <stop
         id="stop4884"
         offset="0%"
         stop-color="#A7A7A7" />
      <stop
         id="stop4886"
         offset="100%"
         stop-color="#8D8D8D" />
    </linearGradient>
    <linearGradient
       id="linearGradient-2"
       y2="105.40025"
       x2="192.9998"
       y1="411.58424"
       x1="192.9998"
       gradientTransform="scale(1.2279807,0.81434507)"
       gradientUnits="userSpaceOnUse">
      <stop
         id="stop4889"
         offset="0%"
         stop-color="#707070" />
      <stop
         id="stop4891"
         offset="100%"
         stop-color="#ABABAB" />
    </linearGradient>
    <linearGradient
       id="linearGradient-3"
       y2="457.4228"
       x2="192.99978"
       y1="70.608888"
       x1="192.99978"
       gradientTransform="scale(1.2279807,0.81434507)"
       gradientUnits="userSpaceOnUse">
      <stop
         id="stop4894"
         offset="0%"
         stop-opacity="0"
         stop-color="#000000" />
      <stop
         id="stop4896"
         offset="100%"
         stop-opacity="0.19"
         stop-color="#000000" />
    </linearGradient>
    <linearGradient
       id="linearGradient4232">
      <stop
         style="stop-color:#333333;stop-opacity:1"
         offset="0"
         id="stop4234" />
      <stop
         style="stop-color:#353535;stop-opacity:1"
         offset="1"
         id="stop4236" />
    </linearGradient>
    <linearGradient
       id="linearGradient4172">
      <stop
         id="stop4174"
         offset="0"
         style="stop-color:#3dc796;stop-opacity:1" />
      <stop
         id="stop4176"
         offset="1"
         style="stop-color:#57d68d;stop-opacity:1" />
    </linearGradient>
    <linearGradient
       id="linearGradient4233">
      <stop
         style="stop-color:#212121;stop-opacity:1"
         offset="0"
         id="stop4235" />
      <stop
         style="stop-color:#1d2022;stop-opacity:0"
         offset="1"
         id="stop4237-9" />
    </linearGradient>
    <linearGradient
       id="linearGradient8467-6">
      <stop
         id="stop8469-5"
         style="stop-color:#56d8d1;stop-opacity:1"
         offset="0" />
      <stop
         id="stop8471-8"
         style="stop-color:#9df7ee;stop-opacity:1"
         offset="1" />
    </linearGradient>
    <linearGradient
       id="linearGradient8311-10">
      <stop
         offset="0"
         style="stop-color:#55d8d1;stop-opacity:1"
         id="stop8313-3" />
      <stop
         offset="1"
         style="stop-color:#66efe7;stop-opacity:1"
         id="stop8315-8" />
    </linearGradient>
    <linearGradient
       id="linearGradient8467-8">
      <stop
         id="stop8469-9"
         style="stop-color:#dea679;stop-opacity:1"
         offset="0" />
      <stop
         id="stop8471-2"
         style="stop-color:#f7d19d;stop-opacity:1"
         offset="1" />
    </linearGradient>
    <linearGradient
       id="linearGradient8311-0">
      <stop
         offset="0"
         style="stop-color:#dda579;stop-opacity:1"
         id="stop8313-90" />
      <stop
         offset="1"
         style="stop-color:#f3bc87;stop-opacity:1"
         id="stop8315-88" />
    </linearGradient>
    <linearGradient
       id="linearGradient8467-2">
      <stop
         id="stop8469-6"
         style="stop-color:#5fa4d5;stop-opacity:1"
         offset="0" />
      <stop
         id="stop8471-5"
         style="stop-color:#9dc9f7;stop-opacity:1"
         offset="1" />
    </linearGradient>
    <linearGradient
       id="linearGradient8311-06">
      <stop
         offset="0"
         style="stop-color:#5fa3d4;stop-opacity:1"
         id="stop8313-6" />
      <stop
         offset="1"
         style="stop-color:#6bb9ff;stop-opacity:1"
         id="stop8315-2" />
    </linearGradient>
    <clipPath
       id="clipPath4458-7">
      <path
         inkscape:connector-curvature="0"
         id="use4460-2"
         d="m 69.626,12.145 -0.052,0 c -22.727,-0.292 -46.472,4.077 -46.709,4.122 -2.424,0.451 -4.946,2.974 -5.397,5.397 -0.044,0.237 -4.414,23.983 -4.122,46.71 -0.292,22.777 4.078,46.523 4.122,46.761 0.451,2.423 2.974,4.945 5.398,5.398 0.237,0.044 23.982,4.413 46.709,4.121 22.779,0.292 46.524,-4.077 46.761,-4.121 2.423,-0.452 4.946,-2.976 5.398,-5.399 0.044,-0.236 4.413,-23.981 4.121,-46.709 0.292,-22.777 -4.077,-46.523 -4.121,-46.761 -0.453,-2.423 -2.976,-4.946 -5.398,-5.397 -0.238,-0.045 -23.984,-4.414 -46.71,-4.122 z" />
    </clipPath>
    <clipPath
       id="clipPath4458-9">
      <path
         d="m 69.626,12.145 -0.052,0 c -22.727,-0.292 -46.472,4.077 -46.709,4.122 -2.424,0.451 -4.946,2.974 -5.397,5.397 -0.044,0.237 -4.414,23.983 -4.122,46.71 -0.292,22.777 4.078,46.523 4.122,46.761 0.451,2.423 2.974,4.945 5.398,5.398 0.237,0.044 23.982,4.413 46.709,4.121 22.779,0.292 46.524,-4.077 46.761,-4.121 2.423,-0.452 4.946,-2.976 5.398,-5.399 0.044,-0.236 4.413,-23.981 4.121,-46.709 0.292,-22.777 -4.077,-46.523 -4.121,-46.761 -0.453,-2.423 -2.976,-4.946 -5.398,-5.397 -0.238,-0.045 -23.984,-4.414 -46.71,-4.122 z"
         id="use4460-27"
         inkscape:connector-curvature="0" />
    </clipPath>
    <clipPath
       id="clipPath4458-5">
      <path
         d="m 69.626,12.145 -0.052,0 c -22.727,-0.292 -46.472,4.077 -46.709,4.122 -2.424,0.451 -4.946,2.974 -5.397,5.397 -0.044,0.237 -4.414,23.983 -4.122,46.71 -0.292,22.777 4.078,46.523 4.122,46.761 0.451,2.423 2.974,4.945 5.398,5.398 0.237,0.044 23.982,4.413 46.709,4.121 22.779,0.292 46.524,-4.077 46.761,-4.121 2.423,-0.452 4.946,-2.976 5.398,-5.399 0.044,-0.236 4.413,-23.981 4.121,-46.709 0.292,-22.777 -4.077,-46.523 -4.121,-46.761 -0.453,-2.423 -2.976,-4.946 -5.398,-5.397 -0.238,-0.045 -23.984,-4.414 -46.71,-4.122 z"
         id="use4460-5"
         inkscape:connector-curvature="0" />
    </clipPath>
    <clipPath
       id="clipPath4458-2">
      <path
         inkscape:connector-curvature="0"
         id="use4460-4"
         d="m 69.626,12.145 -0.052,0 c -22.727,-0.292 -46.472,4.077 -46.709,4.122 -2.424,0.451 -4.946,2.974 -5.397,5.397 -0.044,0.237 -4.414,23.983 -4.122,46.71 -0.292,22.777 4.078,46.523 4.122,46.761 0.451,2.423 2.974,4.945 5.398,5.398 0.237,0.044 23.982,4.413 46.709,4.121 22.779,0.292 46.524,-4.077 46.761,-4.121 2.423,-0.452 4.946,-2.976 5.398,-5.399 0.044,-0.236 4.413,-23.981 4.121,-46.709 0.292,-22.777 -4.077,-46.523 -4.121,-46.761 -0.453,-2.423 -2.976,-4.946 -5.398,-5.397 -0.238,-0.045 -23.984,-4.414 -46.71,-4.122 z" />
    </clipPath>
    <clipPath
       id="clipPath4458-7-6">
      <path
         d="m 69.626,12.145 -0.052,0 c -22.727,-0.292 -46.472,4.077 -46.709,4.122 -2.424,0.451 -4.946,2.974 -5.397,5.397 -0.044,0.237 -4.414,23.983 -4.122,46.71 -0.292,22.777 4.078,46.523 4.122,46.761 0.451,2.423 2.974,4.945 5.398,5.398 0.237,0.044 23.982,4.413 46.709,4.121 22.779,0.292 46.524,-4.077 46.761,-4.121 2.423,-0.452 4.946,-2.976 5.398,-5.399 0.044,-0.236 4.413,-23.981 4.121,-46.709 0.292,-22.777 -4.077,-46.523 -4.121,-46.761 -0.453,-2.423 -2.976,-4.946 -5.398,-5.397 -0.238,-0.045 -23.984,-4.414 -46.71,-4.122 z"
         id="use4460-2-9"
         inkscape:connector-curvature="0" />
    </clipPath>
    <clipPath
       id="clipPath4458-9-1">
      <path
         inkscape:connector-curvature="0"
         id="use4460-27-5"
         d="m 69.626,12.145 -0.052,0 c -22.727,-0.292 -46.472,4.077 -46.709,4.122 -2.424,0.451 -4.946,2.974 -5.397,5.397 -0.044,0.237 -4.414,23.983 -4.122,46.71 -0.292,22.777 4.078,46.523 4.122,46.761 0.451,2.423 2.974,4.945 5.398,5.398 0.237,0.044 23.982,4.413 46.709,4.121 22.779,0.292 46.524,-4.077 46.761,-4.121 2.423,-0.452 4.946,-2.976 5.398,-5.399 0.044,-0.236 4.413,-23.981 4.121,-46.709 0.292,-22.777 -4.077,-46.523 -4.121,-46.761 -0.453,-2.423 -2.976,-4.946 -5.398,-5.397 -0.238,-0.045 -23.984,-4.414 -46.71,-4.122 z" />
    </clipPath>
    <clipPath
       id="clipPath4458-0">
      <path
         d="m 69.626,12.145 -0.052,0 c -22.727,-0.292 -46.472,4.077 -46.709,4.122 -2.424,0.451 -4.946,2.974 -5.397,5.397 -0.044,0.237 -4.414,23.983 -4.122,46.71 -0.292,22.777 4.078,46.523 4.122,46.761 0.451,2.423 2.974,4.945 5.398,5.398 0.237,0.044 23.982,4.413 46.709,4.121 22.779,0.292 46.524,-4.077 46.761,-4.121 2.423,-0.452 4.946,-2.976 5.398,-5.399 0.044,-0.236 4.413,-23.981 4.121,-46.709 0.292,-22.777 -4.077,-46.523 -4.121,-46.761 -0.453,-2.423 -2.976,-4.946 -5.398,-5.397 -0.238,-0.045 -23.984,-4.414 -46.71,-4.122 z"
         id="use4460-56"
         inkscape:connector-curvature="0" />
    </clipPath>
    <clipPath
       id="clipPath4458-7-3">
      <path
         inkscape:connector-curvature="0"
         id="use4460-2-4"
         d="m 69.626,12.145 -0.052,0 c -22.727,-0.292 -46.472,4.077 -46.709,4.122 -2.424,0.451 -4.946,2.974 -5.397,5.397 -0.044,0.237 -4.414,23.983 -4.122,46.71 -0.292,22.777 4.078,46.523 4.122,46.761 0.451,2.423 2.974,4.945 5.398,5.398 0.237,0.044 23.982,4.413 46.709,4.121 22.779,0.292 46.524,-4.077 46.761,-4.121 2.423,-0.452 4.946,-2.976 5.398,-5.399 0.044,-0.236 4.413,-23.981 4.121,-46.709 0.292,-22.777 -4.077,-46.523 -4.121,-46.761 -0.453,-2.423 -2.976,-4.946 -5.398,-5.397 -0.238,-0.045 -23.984,-4.414 -46.71,-4.122 z" />
    </clipPath>
    <clipPath
       id="clipPath4458-9-5">
      <path
         d="m 69.626,12.145 -0.052,0 c -22.727,-0.292 -46.472,4.077 -46.709,4.122 -2.424,0.451 -4.946,2.974 -5.397,5.397 -0.044,0.237 -4.414,23.983 -4.122,46.71 -0.292,22.777 4.078,46.523 4.122,46.761 0.451,2.423 2.974,4.945 5.398,5.398 0.237,0.044 23.982,4.413 46.709,4.121 22.779,0.292 46.524,-4.077 46.761,-4.121 2.423,-0.452 4.946,-2.976 5.398,-5.399 0.044,-0.236 4.413,-23.981 4.121,-46.709 0.292,-22.777 -4.077,-46.523 -4.121,-46.761 -0.453,-2.423 -2.976,-4.946 -5.398,-5.397 -0.238,-0.045 -23.984,-4.414 -46.71,-4.122 z"
         id="use4460-27-3"
         inkscape:connector-curvature="0" />
    </clipPath>
    <clipPath
       id="clipPath4458-5-5">
      <path
         d="m 69.626,12.145 -0.052,0 c -22.727,-0.292 -46.472,4.077 -46.709,4.122 -2.424,0.451 -4.946,2.974 -5.397,5.397 -0.044,0.237 -4.414,23.983 -4.122,46.71 -0.292,22.777 4.078,46.523 4.122,46.761 0.451,2.423 2.974,4.945 5.398,5.398 0.237,0.044 23.982,4.413 46.709,4.121 22.779,0.292 46.524,-4.077 46.761,-4.121 2.423,-0.452 4.946,-2.976 5.398,-5.399 0.044,-0.236 4.413,-23.981 4.121,-46.709 0.292,-22.777 -4.077,-46.523 -4.121,-46.761 -0.453,-2.423 -2.976,-4.946 -5.398,-5.397 -0.238,-0.045 -23.984,-4.414 -46.71,-4.122 z"
         id="use4460-5-3"
         inkscape:connector-curvature="0" />
    </clipPath>
    <clipPath
       id="clipPath4458-6">
      <path
         d="m 69.626,12.145 -0.052,0 c -22.727,-0.292 -46.472,4.077 -46.709,4.122 -2.424,0.451 -4.946,2.974 -5.397,5.397 -0.044,0.237 -4.414,23.983 -4.122,46.71 -0.292,22.777 4.078,46.523 4.122,46.761 0.451,2.423 2.974,4.945 5.398,5.398 0.237,0.044 23.982,4.413 46.709,4.121 22.779,0.292 46.524,-4.077 46.761,-4.121 2.423,-0.452 4.946,-2.976 5.398,-5.399 0.044,-0.236 4.413,-23.981 4.121,-46.709 0.292,-22.777 -4.077,-46.523 -4.121,-46.761 -0.453,-2.423 -2.976,-4.946 -5.398,-5.397 -0.238,-0.045 -23.984,-4.414 -46.71,-4.122 z"
         id="use4460-6"
         inkscape:connector-curvature="0" />
    </clipPath>
    <linearGradient
       inkscape:collect="always"
       xlink:href="#linearGradient4143"
       id="linearGradient4831"
       x1="218.60936"
       y1="374.82281"
       x2="376.60938"
       y2="374.82281"
       gradientUnits="userSpaceOnUse" />
    <linearGradient
       inkscape:collect="always"
       xlink:href="#linearGradient4261"
       id="linearGradient4206-0"
       x1="404.21164"
       y1="526.56451"
       x2="386.19943"
       y2="526.56451"
       gradientUnits="userSpaceOnUse"
       gradientTransform="matrix(0.97662028,0,0,0.97662028,-75.906258,4.9238271)" />
    <linearGradient
       inkscape:collect="always"
       xlink:href="#linearGradient4143"
       id="linearGradient4852"
       x1="377.1871"
       y1="523.29248"
       x2="406.80722"
       y2="533.50635"
       gradientUnits="userSpaceOnUse"
       gradientTransform="matrix(0.79387171,0,0,0.79387171,20.352652,103.98202)" />
    <linearGradient
       inkscape:collect="always"
       xlink:href="#linearGradient4143"
       id="linearGradient4206-0-0"
       x1="404.21164"
       y1="526.56451"
       x2="386.19943"
       y2="526.56451"
       gradientUnits="userSpaceOnUse"
       gradientTransform="matrix(0.85368053,0,0,0.85368052,24.55229,17.033651)" />
    <linearGradient
       inkscape:collect="always"
       xlink:href="#linearGradient4261"
       id="linearGradient4892"
       x1="404.21164"
       y1="526.56451"
       x2="386.19943"
       y2="526.56451"
       gradientUnits="userSpaceOnUse"
       gradientTransform="matrix(0.97662028,0,0,0.97662028,-75.906258,4.9238271)" />
  </defs>
  <sodipodi:namedview
     id="base"
     pagecolor="#ffffff"
     bordercolor="#666666"
     borderopacity="1.0"
     inkscape:pageopacity="0"
     inkscape:pageshadow="2"
     inkscape:zoom="6.0326076"
     inkscape:cx="9.69302"
     inkscape:cy="18.584243"
     inkscape:document-units="px"
     inkscape:current-layer="g4833"
     showgrid="true"
     fit-margin-top="0"
     fit-margin-left="0"
     fit-margin-right="0"
     fit-margin-bottom="0"
     inkscape:window-width="1366"
     inkscape:window-height="702"
     inkscape:window-x="0"
     inkscape:window-y="0"
     inkscape:window-maximized="1"
     inkscape:showpageshadow="false"
     borderlayer="true"
     showguides="true"
     inkscape:snap-bbox="true"
     inkscape:object-nodes="true"
     inkscape:snap-global="true">
    <inkscape:grid
       type="xygrid"
       id="grid4063" />
    <sodipodi:guide
       position="1.1650391e-05,47.999996"
       orientation="4,0"
       id="guide4146" />
    <sodipodi:guide
       position="1.1650391e-05,43.999996"
       orientation="0,48"
       id="guide4148" />
    <sodipodi:guide
       position="48.000012,43.999996"
       orientation="-4,0"
       id="guide4150" />
    <sodipodi:guide
       position="48.000012,47.999996"
       orientation="0,-48"
       id="guide4152" />
    <sodipodi:guide
       position="1.1650391e-05,4.0000264"
       orientation="4,0"
       id="guide4154" />
    <sodipodi:guide
       position="1.1650391e-05,2.6367188e-05"
       orientation="0,48"
       id="guide4156" />
    <sodipodi:guide
       position="48.000012,2.6367188e-05"
       orientation="-4,0"
       id="guide4158" />
    <sodipodi:guide
       position="48.000012,4.0000264"
       orientation="0,-48"
       id="guide4160" />
    <sodipodi:guide
       position="48.000012,48.000026"
       orientation="0,-4"
       id="guide4162" />
    <sodipodi:guide
       position="44.000012,48.000026"
       orientation="48,0"
       id="guide4164" />
    <sodipodi:guide
       position="44.000012,2.6367188e-05"
       orientation="0,4"
       id="guide4166" />
    <sodipodi:guide
       position="48.000012,2.6367188e-05"
       orientation="-48,0"
       id="guide4168" />
    <sodipodi:guide
       position="4.0000422,48.000026"
       orientation="0,-4"
       id="guide4170" />
    <sodipodi:guide
       position="4.2167969e-05,48.000026"
       orientation="48,0"
       id="guide4172" />
    <sodipodi:guide
       position="4.2167969e-05,2.6367188e-05"
       orientation="0,4"
       id="guide4174" />
    <sodipodi:guide
       position="4.0000422,2.6367188e-05"
       orientation="-48,0"
       id="guide4176" />
  </sodipodi:namedview>
  <metadata
     id="metadata5458">
    <rdf:RDF>
      <cc:Work
         rdf:about="">
        <dc:format>image/svg+xml</dc:format>
        <dc:type
           rdf:resource="http://purl.org/dc/dcmitype/StillImage" />
        <dc:title />
      </cc:Work>
    </rdf:RDF>
  </metadata>
  <g
     inkscape:label="Capa 1"
     inkscape:groupmode="layer"
     id="layer1"
     transform="translate(-384.57143,-499.798)">
    <g
       id="g4244"
       transform="matrix(0.97906429,0,0,0.97906429,8.6512645,11.463887)">
      <g
         id="g4267"
         transform="translate(34.73826,5.1450388)">
        <g
           id="g4833"
           transform="translate(1.8133763e-5,-0.71495139)">
          <g
             id="g4932"
             transform="matrix(0.85743591,-0.19669509,0.19669509,0.85743591,-6.9063724,134.72534)">
            <g
               inkscape:label="Capa 1"
               id="layer1-13"
               transform="matrix(1.0213834,0,0,1.0213834,-91.952912,-13.753507)">
              <g
                 id="g4682"
                 transform="translate(1.0485568,6.9570944)" />
              <g
                 id="g5653"
                 transform="matrix(0.28880751,0,0,0.28880751,321.80094,415.25033)">
                <rect
                   ry="7.974"
                   y="315.82281"
                   x="218.60936"
                   height="118"
                   width="158"
                   id="rect4233"
                   style="opacity:1;fill:url(#linearGradient4241);fill-opacity:1;stroke:url(#linearGradient4831);stroke-width:6.28914738;stroke-linecap:round;stroke-linejoin:round;stroke-miterlimit:4;stroke-dasharray:none;stroke-opacity:1" />
              </g>
            </g>
            <g
               transform="translate(0.20851269,1.3553325)"
               id="g4920">
              <text
                 sodipodi:linespacing="125%"
                 id="text4181"
                 y="528.16254"
                 x="328.5773"
                 style="font-style:normal;font-weight:normal;font-size:24.91179085px;line-height:125%;font-family:sans-serif;letter-spacing:0px;word-spacing:0px;fill:url(#linearGradient4206);fill-opacity:1;stroke:none;stroke-width:1px;stroke-linecap:butt;stroke-linejoin:miter;stroke-opacity:1"
                 xml:space="preserve"><tspan
                   style="font-style:normal;font-variant:normal;font-weight:normal;font-stretch:normal;font-family:'Product Sans';-inkscape-font-specification:'Product Sans';fill:url(#linearGradient4206);fill-opacity:1"
                   y="528.16254"
                   x="328.5773"
                   id="tspan4183"
                   sodipodi:role="line">b</tspan></text>
              <text
                 sodipodi:linespacing="125%"
                 id="text4181-1"
                 y="527.94513"
                 x="305.67526"
                 style="font-style:normal;font-weight:normal;font-size:28.11146927px;line-height:125%;font-family:sans-serif;letter-spacing:0px;word-spacing:0px;fill:url(#linearGradient4206-0);fill-opacity:1;stroke:none;stroke-width:1px;stroke-linecap:butt;stroke-linejoin:miter;stroke-opacity:1"
                 xml:space="preserve"><tspan
                   style="font-style:normal;font-variant:normal;font-weight:normal;font-stretch:normal;font-family:'Product Sans';-inkscape-font-specification:'Product Sans';fill:url(#linearGradient4206-0);fill-opacity:1"
                   y="527.94513"
                   x="305.67526"
                   id="tspan4183-4"
                   sodipodi:role="line">a</tspan></text>
              <text
                 sodipodi:linespacing="125%"
                 id="text4181-1-1"
                 y="474.2157"
                 x="358.09927"
                 style="font-style:normal;font-weight:normal;font-size:24.57271767px;line-height:125%;font-family:sans-serif;letter-spacing:0px;word-spacing:0px;fill:url(#linearGradient4206-0-0);fill-opacity:1;stroke:none;stroke-width:1px;stroke-linecap:butt;stroke-linejoin:miter;stroke-opacity:1"
                 xml:space="preserve"
                 transform="scale(0.89663258,1.115284)"><tspan
                   style="font-style:normal;font-variant:normal;font-weight:normal;font-stretch:normal;font-family:'Product Sans';-inkscape-font-specification:'Product Sans';fill:url(#linearGradient4206-0-0);fill-opacity:1"
                   y="474.2157"
                   x="358.09927"
                   id="tspan4183-4-0"
                   sodipodi:role="line">|</tspan></text>
            </g>
          </g>
        </g>
      </g>
    </g>
  </g>
</svg>
