<?xml version="1.0" encoding="UTF-8" standalone="no"?>
<!-- Created with Inkscape (http://www.inkscape.org/) -->

<svg
   xmlns:dc="http://purl.org/dc/elements/1.1/"
   xmlns:cc="http://creativecommons.org/ns#"
   xmlns:rdf="http://www.w3.org/1999/02/22-rdf-syntax-ns#"
   xmlns:svg="http://www.w3.org/2000/svg"
   xmlns="http://www.w3.org/2000/svg"
   xmlns:xlink="http://www.w3.org/1999/xlink"
   xmlns:sodipodi="http://sodipodi.sourceforge.net/DTD/sodipodi-0.dtd"
   xmlns:inkscape="http://www.inkscape.org/namespaces/inkscape"
   width="48"
   height="48"
   id="svg3018"
   version="1.1"
   inkscape:version="0.91 r13725"
   sodipodi:docname="ktip.svg">
  <defs
     id="defs3020">
    <linearGradient
       inkscape:collect="always"
       xlink:href="#linearGradient4143"
       id="linearGradient4149"
       x1="400.57144"
       y1="545.79797"
       x2="400.57144"
       y2="517.79797"
       gradientUnits="userSpaceOnUse"
       gradientTransform="matrix(0.92857108,0,0,0.92857057,28.612354,37.986142)" />
    <linearGradient
       inkscape:collect="always"
       id="linearGradient4143">
      <stop
         style="stop-color:#197cf1;stop-opacity:1"
         offset="0"
         id="stop4145" />
      <stop
         style="stop-color:#20bcfa;stop-opacity:1"
         offset="1"
         id="stop4147" />
    </linearGradient>
    <linearGradient
       inkscape:collect="always"
       id="linearGradient4290">
      <stop
         style="stop-color:#7cbaf8;stop-opacity:1"
         offset="0"
         id="stop4292" />
      <stop
         style="stop-color:#f4fcff;stop-opacity:1"
         offset="1"
         id="stop4294" />
    </linearGradient>
    <linearGradient
       inkscape:collect="always"
       xlink:href="#linearGradient4290"
       id="linearGradient3077"
       gradientUnits="userSpaceOnUse"
       gradientTransform="matrix(1.3793103,0,0,1.3793103,1.2413794,1005.6035)"
       x1="16"
       y1="29.999973"
       x2="16"
       y2="2" />
    <linearGradient
       inkscape:collect="always"
       xlink:href="#linearGradient4143"
       id="linearGradient3083"
       gradientUnits="userSpaceOnUse"
       gradientTransform="matrix(1.2807877,0,0,1.280787,-450.11598,346.31133)"
       x1="400.57144"
       y1="545.79797"
       x2="400.57144"
       y2="517.79797" />
    <linearGradient
       inkscape:collect="always"
       xlink:href="#linearGradient4290"
       id="linearGradient3870"
       gradientUnits="userSpaceOnUse"
       gradientTransform="matrix(1.3793103,0,0,1.3793103,-18.758621,1005.6035)"
       x1="16"
       y1="29.999973"
       x2="16"
       y2="2" />
    <linearGradient
       inkscape:collect="always"
       xlink:href="#linearGradient4143"
       id="linearGradient3880"
       x1="28.5"
       y1="39"
       x2="28.5"
       y2="9"
       gradientUnits="userSpaceOnUse"
       gradientTransform="matrix(1.0285714,0,0,1.2,-5.3142844,-4.8)" />
    <linearGradient
       id="linearGradient4422">
      <stop
         id="stop4424"
         offset="0"
         style="stop-color:#197ff1;stop-opacity:1" />
      <stop
         id="stop4426"
         offset="1"
         style="stop-color:#21c6fb;stop-opacity:1" />
    </linearGradient>
    <linearGradient
       id="linearGradient4256">
      <stop
         style="stop-color:#8cbdf8;stop-opacity:1;"
         offset="0"
         id="stop4258" />
      <stop
         style="stop-color:#d5e8ff;stop-opacity:1;"
         offset="1"
         id="stop4260" />
    </linearGradient>
    <linearGradient
       id="linearGradient4232">
      <stop
         style="stop-color:#3889e9;stop-opacity:1"
         offset="0"
         id="stop4234-0" />
      <stop
         style="stop-color:#5ea5fb;stop-opacity:1"
         offset="1"
         id="stop4236" />
    </linearGradient>
    <linearGradient
       gradientUnits="userSpaceOnUse"
       y2="517.79797"
       x2="399.57144"
       y1="545.79797"
       x1="399.57144"
       id="linearGradient3426"
       xlink:href="#linearGradient4232"
       inkscape:collect="always" />
    <linearGradient
       y2="518.13873"
       x2="399.9939"
       y1="545.13873"
       x1="399.9939"
       gradientUnits="userSpaceOnUse"
       id="linearGradient4181"
       xlink:href="#linearGradient4422"
       inkscape:collect="always" />
    <linearGradient
       id="linearGradient5263">
      <stop
         id="stop5265"
         style="stop-color:#a0d5ff;stop-opacity:1"
         offset="0" />
      <stop
         id="stop5267"
         style="stop-color:#a0d5ff;stop-opacity:1"
         offset="1" />
    </linearGradient>
    <clipPath
       id="clipPath4458">
      <path
         inkscape:connector-curvature="0"
         id="use4460"
         d="m 69.626,12.145 -0.052,0 c -22.727,-0.292 -46.472,4.077 -46.709,4.122 -2.424,0.451 -4.946,2.974 -5.397,5.397 -0.044,0.237 -4.414,23.983 -4.122,46.71 -0.292,22.777 4.078,46.523 4.122,46.761 0.451,2.423 2.974,4.945 5.398,5.398 0.237,0.044 23.982,4.413 46.709,4.121 22.779,0.292 46.524,-4.077 46.761,-4.121 2.423,-0.452 4.946,-2.976 5.398,-5.399 0.044,-0.236 4.413,-23.981 4.121,-46.709 0.292,-22.777 -4.077,-46.523 -4.121,-46.761 -0.453,-2.423 -2.976,-4.946 -5.398,-5.397 -0.238,-0.045 -23.984,-4.414 -46.71,-4.122 z" />
    </clipPath>
    <linearGradient
       id="linearGradient4237">
      <stop
         id="stop4239"
         style="stop-color:#ff594d;stop-opacity:1"
         offset="0" />
      <stop
         id="stop4241"
         style="stop-color:#ff7f76;stop-opacity:1"
         offset="1" />
    </linearGradient>
    <linearGradient
       id="linearGradient4210">
      <stop
         offset="0"
         style="stop-color:#ff584c;stop-opacity:1"
         id="stop4212" />
      <stop
         offset="1"
         style="stop-color:#ff8077;stop-opacity:1"
         id="stop4214" />
    </linearGradient>
    <linearGradient
       id="linearGradient4179">
      <stop
         id="stop4181"
         style="stop-color:#ffee5e;stop-opacity:1"
         offset="0" />
      <stop
         id="stop4183"
         style="stop-color:#feff8b;stop-opacity:1"
         offset="1" />
    </linearGradient>
    <linearGradient
       id="linearGradient4210-3">
      <stop
         id="stop4212-1"
         style="stop-color:#ffce69;stop-opacity:1"
         offset="0" />
      <stop
         id="stop4214-6"
         style="stop-color:#ffce54;stop-opacity:1"
         offset="1" />
    </linearGradient>
    <linearGradient
       id="linearGradient4237-0">
      <stop
         offset="0"
         style="stop-color:#ffee5e;stop-opacity:1"
         id="stop4239-8" />
      <stop
         offset="1"
         style="stop-color:#feff9f;stop-opacity:1"
         id="stop4241-9" />
    </linearGradient>
    <linearGradient
       id="linearGradient4237-2">
      <stop
         offset="0"
         style="stop-color:#ffa0a6;stop-opacity:1"
         id="stop4239-7" />
      <stop
         offset="1"
         style="stop-color:#ffa0a5;stop-opacity:1"
         id="stop4241-2" />
    </linearGradient>
    <linearGradient
       id="linearGradient8311">
      <stop
         id="stop8313"
         style="stop-color:#ce89ff;stop-opacity:1"
         offset="0" />
      <stop
         id="stop8315"
         style="stop-color:#e898ff;stop-opacity:1"
         offset="1" />
    </linearGradient>
    <linearGradient
       id="linearGradient4237-8">
      <stop
         offset="0"
         style="stop-color:#cf8aff;stop-opacity:1"
         id="stop4239-2" />
      <stop
         offset="1"
         style="stop-color:#eaa0ff;stop-opacity:1"
         id="stop4241-3" />
    </linearGradient>
    <linearGradient
       id="linearGradient8311-3">
      <stop
         id="stop8313-0"
         style="stop-color:#ffcc6b;stop-opacity:1"
         offset="0" />
      <stop
         id="stop8315-1"
         style="stop-color:#ffcf98;stop-opacity:1"
         offset="1" />
    </linearGradient>
    <linearGradient
       id="linearGradient4237-3">
      <stop
         offset="0"
         style="stop-color:#ffcc6e;stop-opacity:1"
         id="stop4239-0" />
      <stop
         offset="1"
         style="stop-color:#ffe4a0;stop-opacity:1"
         id="stop4241-7" />
    </linearGradient>
    <linearGradient
       id="linearGradient8311-31">
      <stop
         id="stop8313-2"
         style="stop-color:#f089ff;stop-opacity:1"
         offset="0" />
      <stop
         id="stop8315-6"
         style="stop-color:#ffadea;stop-opacity:1"
         offset="1" />
    </linearGradient>
    <linearGradient
       id="linearGradient4237-6">
      <stop
         offset="0"
         style="stop-color:#f18bfe;stop-opacity:1"
         id="stop4239-22" />
      <stop
         offset="1"
         style="stop-color:#fcc3ff;stop-opacity:1"
         id="stop4241-0" />
    </linearGradient>
    <linearGradient
       id="linearGradient8467">
      <stop
         offset="0"
         style="stop-color:#d3d3d3;stop-opacity:1"
         id="stop8469" />
      <stop
         offset="1"
         style="stop-color:#fcf9f9;stop-opacity:1"
         id="stop8471" />
    </linearGradient>
    <linearGradient
       id="linearGradient8311-5">
      <stop
         id="stop8313-7"
         style="stop-color:#b9b9b9;stop-opacity:1"
         offset="0" />
      <stop
         id="stop8315-3"
         style="stop-color:#d2d2d2;stop-opacity:1"
         offset="1" />
    </linearGradient>
    <linearGradient
       id="linearGradient4237-4">
      <stop
         offset="0"
         style="stop-color:#bababa;stop-opacity:1"
         id="stop4239-9" />
      <stop
         offset="1"
         style="stop-color:#c8c8c8;stop-opacity:1"
         id="stop4241-37" />
    </linearGradient>
    <linearGradient
       id="linearGradient8467-7">
      <stop
         offset="0"
         style="stop-color:#3ec896;stop-opacity:1"
         id="stop8469-4" />
      <stop
         offset="1"
         style="stop-color:#66d9af;stop-opacity:1"
         id="stop8471-7" />
    </linearGradient>
    <linearGradient
       id="linearGradient8311-1">
      <stop
         id="stop8313-9"
         style="stop-color:#494949;stop-opacity:1"
         offset="0" />
      <stop
         id="stop8315-5"
         style="stop-color:#616774;stop-opacity:1"
         offset="1" />
    </linearGradient>
    <linearGradient
       gradientUnits="userSpaceOnUse"
       gradientTransform="scale(1.1288018,0.8858951)"
       x1="209.95714"
       y1="0"
       x2="209.95714"
       y2="116.69431"
       id="linearGradient-1">
      <stop
         stop-color="#A7A7A7"
         offset="0%"
         id="stop4884" />
      <stop
         stop-color="#8D8D8D"
         offset="100%"
         id="stop4886" />
    </linearGradient>
    <linearGradient
       gradientUnits="userSpaceOnUse"
       gradientTransform="scale(1.2279807,0.81434507)"
       x1="192.9998"
       y1="411.58424"
       x2="192.9998"
       y2="105.40025"
       id="linearGradient-2">
      <stop
         stop-color="#707070"
         offset="0%"
         id="stop4889" />
      <stop
         stop-color="#ABABAB"
         offset="100%"
         id="stop4891" />
    </linearGradient>
    <linearGradient
       gradientUnits="userSpaceOnUse"
       gradientTransform="scale(1.2279807,0.81434507)"
       x1="192.99978"
       y1="70.608888"
       x2="192.99978"
       y2="457.4228"
       id="linearGradient-3">
      <stop
         stop-color="#000000"
         stop-opacity="0"
         offset="0%"
         id="stop4894" />
      <stop
         stop-color="#000000"
         stop-opacity="0.19"
         offset="100%"
         id="stop4896" />
    </linearGradient>
    <linearGradient
       id="linearGradient4232-7">
      <stop
         id="stop4234"
         offset="0"
         style="stop-color:#373a3d;stop-opacity:1" />
      <stop
         id="stop4236-2"
         offset="1"
         style="stop-color:#727273;stop-opacity:1" />
    </linearGradient>
    <linearGradient
       id="linearGradient4172">
      <stop
         style="stop-color:#3dc796;stop-opacity:1"
         offset="0"
         id="stop4174" />
      <stop
         style="stop-color:#57d68d;stop-opacity:1"
         offset="1"
         id="stop4176" />
    </linearGradient>
    <linearGradient
       id="linearGradient4233">
      <stop
         id="stop4235"
         offset="0"
         style="stop-color:#212121;stop-opacity:1" />
      <stop
         id="stop4237"
         offset="1"
         style="stop-color:#1d2022;stop-opacity:0" />
    </linearGradient>
    <linearGradient
       id="linearGradient8467-6">
      <stop
         offset="0"
         style="stop-color:#56d8d1;stop-opacity:1"
         id="stop8469-5" />
      <stop
         offset="1"
         style="stop-color:#9df7ee;stop-opacity:1"
         id="stop8471-8" />
    </linearGradient>
    <linearGradient
       id="linearGradient8311-10">
      <stop
         id="stop8313-3"
         style="stop-color:#55d8d1;stop-opacity:1"
         offset="0" />
      <stop
         id="stop8315-8"
         style="stop-color:#66efe7;stop-opacity:1"
         offset="1" />
    </linearGradient>
    <linearGradient
       id="linearGradient8467-8">
      <stop
         offset="0"
         style="stop-color:#dea679;stop-opacity:1"
         id="stop8469-9" />
      <stop
         offset="1"
         style="stop-color:#f7d19d;stop-opacity:1"
         id="stop8471-2" />
    </linearGradient>
    <linearGradient
       id="linearGradient8311-0">
      <stop
         id="stop8313-90"
         style="stop-color:#dda579;stop-opacity:1"
         offset="0" />
      <stop
         id="stop8315-88"
         style="stop-color:#f3bc87;stop-opacity:1"
         offset="1" />
    </linearGradient>
    <linearGradient
       id="linearGradient8467-2">
      <stop
         offset="0"
         style="stop-color:#5fa4d5;stop-opacity:1"
         id="stop8469-6" />
      <stop
         offset="1"
         style="stop-color:#9dc9f7;stop-opacity:1"
         id="stop8471-5" />
    </linearGradient>
    <linearGradient
       id="linearGradient8311-06">
      <stop
         id="stop8313-6"
         style="stop-color:#5fa3d4;stop-opacity:1"
         offset="0" />
      <stop
         id="stop8315-2"
         style="stop-color:#6bb9ff;stop-opacity:1"
         offset="1" />
    </linearGradient>
    <linearGradient
       id="linearGradient4422-5">
      <stop
         id="stop4424-7"
         offset="0"
         style="stop-color:#2971c3;stop-opacity:1" />
      <stop
         id="stop4426-6"
         offset="1"
         style="stop-color:#5ea5fb;stop-opacity:1" />
    </linearGradient>
    <clipPath
       id="clipPath4458-3">
      <path
         inkscape:connector-curvature="0"
         id="use4460-7"
         d="m 69.626,12.145 -0.052,0 c -22.727,-0.292 -46.472,4.077 -46.709,4.122 -2.424,0.451 -4.946,2.974 -5.397,5.397 -0.044,0.237 -4.414,23.983 -4.122,46.71 -0.292,22.777 4.078,46.523 4.122,46.761 0.451,2.423 2.974,4.945 5.398,5.398 0.237,0.044 23.982,4.413 46.709,4.121 22.779,0.292 46.524,-4.077 46.761,-4.121 2.423,-0.452 4.946,-2.976 5.398,-5.399 0.044,-0.236 4.413,-23.981 4.121,-46.709 0.292,-22.777 -4.077,-46.523 -4.121,-46.761 -0.453,-2.423 -2.976,-4.946 -5.398,-5.397 -0.238,-0.045 -23.984,-4.414 -46.71,-4.122 z" />
    </clipPath>
    <linearGradient
       id="linearGradient4232-7-6">
      <stop
         id="stop4234-8"
         offset="0"
         style="stop-color:#333333;stop-opacity:1" />
      <stop
         id="stop4236-2-8"
         offset="1"
         style="stop-color:#353535;stop-opacity:1" />
    </linearGradient>
    <linearGradient
       inkscape:collect="always"
       id="linearGradient5146">
      <stop
         style="stop-color:#d5dbff;stop-opacity:1"
         offset="0"
         id="stop5148" />
      <stop
         style="stop-color:#ebedff;stop-opacity:1"
         offset="1"
         id="stop5150" />
    </linearGradient>
    <linearGradient
       inkscape:collect="always"
       xlink:href="#linearGradient5146"
       id="linearGradient5152"
       x1="767.85718"
       y1="200.93361"
       x2="767.85718"
       y2="174.93361"
       gradientUnits="userSpaceOnUse" />
    <clipPath
       id="clipPath4458-92">
      <path
         d="m 69.626,12.145 -0.052,0 c -22.727,-0.292 -46.472,4.077 -46.709,4.122 -2.424,0.451 -4.946,2.974 -5.397,5.397 -0.044,0.237 -4.414,23.983 -4.122,46.71 -0.292,22.777 4.078,46.523 4.122,46.761 0.451,2.423 2.974,4.945 5.398,5.398 0.237,0.044 23.982,4.413 46.709,4.121 22.779,0.292 46.524,-4.077 46.761,-4.121 2.423,-0.452 4.946,-2.976 5.398,-5.399 0.044,-0.236 4.413,-23.981 4.121,-46.709 0.292,-22.777 -4.077,-46.523 -4.121,-46.761 -0.453,-2.423 -2.976,-4.946 -5.398,-5.397 -0.238,-0.045 -23.984,-4.414 -46.71,-4.122 z"
         id="use4460-8"
         inkscape:connector-curvature="0" />
    </clipPath>
    <linearGradient
       id="linearGradient8467-5">
      <stop
         id="stop8469-0"
         style="stop-color:#d0d6f8;stop-opacity:1"
         offset="0" />
      <stop
         id="stop8471-27"
         style="stop-color:#fbf8f8;stop-opacity:1"
         offset="1" />
    </linearGradient>
    <clipPath
       id="clipPath4458-7">
      <path
         inkscape:connector-curvature="0"
         id="use4460-2"
         d="m 69.626,12.145 -0.052,0 c -22.727,-0.292 -46.472,4.077 -46.709,4.122 -2.424,0.451 -4.946,2.974 -5.397,5.397 -0.044,0.237 -4.414,23.983 -4.122,46.71 -0.292,22.777 4.078,46.523 4.122,46.761 0.451,2.423 2.974,4.945 5.398,5.398 0.237,0.044 23.982,4.413 46.709,4.121 22.779,0.292 46.524,-4.077 46.761,-4.121 2.423,-0.452 4.946,-2.976 5.398,-5.399 0.044,-0.236 4.413,-23.981 4.121,-46.709 0.292,-22.777 -4.077,-46.523 -4.121,-46.761 -0.453,-2.423 -2.976,-4.946 -5.398,-5.397 -0.238,-0.045 -23.984,-4.414 -46.71,-4.122 z" />
    </clipPath>
    <clipPath
       id="clipPath4458-9">
      <path
         d="m 69.626,12.145 -0.052,0 c -22.727,-0.292 -46.472,4.077 -46.709,4.122 -2.424,0.451 -4.946,2.974 -5.397,5.397 -0.044,0.237 -4.414,23.983 -4.122,46.71 -0.292,22.777 4.078,46.523 4.122,46.761 0.451,2.423 2.974,4.945 5.398,5.398 0.237,0.044 23.982,4.413 46.709,4.121 22.779,0.292 46.524,-4.077 46.761,-4.121 2.423,-0.452 4.946,-2.976 5.398,-5.399 0.044,-0.236 4.413,-23.981 4.121,-46.709 0.292,-22.777 -4.077,-46.523 -4.121,-46.761 -0.453,-2.423 -2.976,-4.946 -5.398,-5.397 -0.238,-0.045 -23.984,-4.414 -46.71,-4.122 z"
         id="use4460-27"
         inkscape:connector-curvature="0" />
    </clipPath>
    <clipPath
       id="clipPath4458-5">
      <path
         d="m 69.626,12.145 -0.052,0 c -22.727,-0.292 -46.472,4.077 -46.709,4.122 -2.424,0.451 -4.946,2.974 -5.397,5.397 -0.044,0.237 -4.414,23.983 -4.122,46.71 -0.292,22.777 4.078,46.523 4.122,46.761 0.451,2.423 2.974,4.945 5.398,5.398 0.237,0.044 23.982,4.413 46.709,4.121 22.779,0.292 46.524,-4.077 46.761,-4.121 2.423,-0.452 4.946,-2.976 5.398,-5.399 0.044,-0.236 4.413,-23.981 4.121,-46.709 0.292,-22.777 -4.077,-46.523 -4.121,-46.761 -0.453,-2.423 -2.976,-4.946 -5.398,-5.397 -0.238,-0.045 -23.984,-4.414 -46.71,-4.122 z"
         id="use4460-5"
         inkscape:connector-curvature="0" />
    </clipPath>
    <clipPath
       id="clipPath4458-2">
      <path
         inkscape:connector-curvature="0"
         id="use4460-4"
         d="m 69.626,12.145 -0.052,0 c -22.727,-0.292 -46.472,4.077 -46.709,4.122 -2.424,0.451 -4.946,2.974 -5.397,5.397 -0.044,0.237 -4.414,23.983 -4.122,46.71 -0.292,22.777 4.078,46.523 4.122,46.761 0.451,2.423 2.974,4.945 5.398,5.398 0.237,0.044 23.982,4.413 46.709,4.121 22.779,0.292 46.524,-4.077 46.761,-4.121 2.423,-0.452 4.946,-2.976 5.398,-5.399 0.044,-0.236 4.413,-23.981 4.121,-46.709 0.292,-22.777 -4.077,-46.523 -4.121,-46.761 -0.453,-2.423 -2.976,-4.946 -5.398,-5.397 -0.238,-0.045 -23.984,-4.414 -46.71,-4.122 z" />
    </clipPath>
    <clipPath
       id="clipPath4458-7-6">
      <path
         d="m 69.626,12.145 -0.052,0 c -22.727,-0.292 -46.472,4.077 -46.709,4.122 -2.424,0.451 -4.946,2.974 -5.397,5.397 -0.044,0.237 -4.414,23.983 -4.122,46.71 -0.292,22.777 4.078,46.523 4.122,46.761 0.451,2.423 2.974,4.945 5.398,5.398 0.237,0.044 23.982,4.413 46.709,4.121 22.779,0.292 46.524,-4.077 46.761,-4.121 2.423,-0.452 4.946,-2.976 5.398,-5.399 0.044,-0.236 4.413,-23.981 4.121,-46.709 0.292,-22.777 -4.077,-46.523 -4.121,-46.761 -0.453,-2.423 -2.976,-4.946 -5.398,-5.397 -0.238,-0.045 -23.984,-4.414 -46.71,-4.122 z"
         id="use4460-2-9"
         inkscape:connector-curvature="0" />
    </clipPath>
    <clipPath
       id="clipPath4458-9-1">
      <path
         inkscape:connector-curvature="0"
         id="use4460-27-5"
         d="m 69.626,12.145 -0.052,0 c -22.727,-0.292 -46.472,4.077 -46.709,4.122 -2.424,0.451 -4.946,2.974 -5.397,5.397 -0.044,0.237 -4.414,23.983 -4.122,46.71 -0.292,22.777 4.078,46.523 4.122,46.761 0.451,2.423 2.974,4.945 5.398,5.398 0.237,0.044 23.982,4.413 46.709,4.121 22.779,0.292 46.524,-4.077 46.761,-4.121 2.423,-0.452 4.946,-2.976 5.398,-5.399 0.044,-0.236 4.413,-23.981 4.121,-46.709 0.292,-22.777 -4.077,-46.523 -4.121,-46.761 -0.453,-2.423 -2.976,-4.946 -5.398,-5.397 -0.238,-0.045 -23.984,-4.414 -46.71,-4.122 z" />
    </clipPath>
    <clipPath
       id="clipPath4458-0">
      <path
         d="m 69.626,12.145 -0.052,0 c -22.727,-0.292 -46.472,4.077 -46.709,4.122 -2.424,0.451 -4.946,2.974 -5.397,5.397 -0.044,0.237 -4.414,23.983 -4.122,46.71 -0.292,22.777 4.078,46.523 4.122,46.761 0.451,2.423 2.974,4.945 5.398,5.398 0.237,0.044 23.982,4.413 46.709,4.121 22.779,0.292 46.524,-4.077 46.761,-4.121 2.423,-0.452 4.946,-2.976 5.398,-5.399 0.044,-0.236 4.413,-23.981 4.121,-46.709 0.292,-22.777 -4.077,-46.523 -4.121,-46.761 -0.453,-2.423 -2.976,-4.946 -5.398,-5.397 -0.238,-0.045 -23.984,-4.414 -46.71,-4.122 z"
         id="use4460-56"
         inkscape:connector-curvature="0" />
    </clipPath>
    <clipPath
       id="clipPath4458-7-3">
      <path
         inkscape:connector-curvature="0"
         id="use4460-2-4"
         d="m 69.626,12.145 -0.052,0 c -22.727,-0.292 -46.472,4.077 -46.709,4.122 -2.424,0.451 -4.946,2.974 -5.397,5.397 -0.044,0.237 -4.414,23.983 -4.122,46.71 -0.292,22.777 4.078,46.523 4.122,46.761 0.451,2.423 2.974,4.945 5.398,5.398 0.237,0.044 23.982,4.413 46.709,4.121 22.779,0.292 46.524,-4.077 46.761,-4.121 2.423,-0.452 4.946,-2.976 5.398,-5.399 0.044,-0.236 4.413,-23.981 4.121,-46.709 0.292,-22.777 -4.077,-46.523 -4.121,-46.761 -0.453,-2.423 -2.976,-4.946 -5.398,-5.397 -0.238,-0.045 -23.984,-4.414 -46.71,-4.122 z" />
    </clipPath>
    <clipPath
       id="clipPath4458-9-5">
      <path
         d="m 69.626,12.145 -0.052,0 c -22.727,-0.292 -46.472,4.077 -46.709,4.122 -2.424,0.451 -4.946,2.974 -5.397,5.397 -0.044,0.237 -4.414,23.983 -4.122,46.71 -0.292,22.777 4.078,46.523 4.122,46.761 0.451,2.423 2.974,4.945 5.398,5.398 0.237,0.044 23.982,4.413 46.709,4.121 22.779,0.292 46.524,-4.077 46.761,-4.121 2.423,-0.452 4.946,-2.976 5.398,-5.399 0.044,-0.236 4.413,-23.981 4.121,-46.709 0.292,-22.777 -4.077,-46.523 -4.121,-46.761 -0.453,-2.423 -2.976,-4.946 -5.398,-5.397 -0.238,-0.045 -23.984,-4.414 -46.71,-4.122 z"
         id="use4460-27-3"
         inkscape:connector-curvature="0" />
    </clipPath>
    <clipPath
       id="clipPath4458-5-5">
      <path
         d="m 69.626,12.145 -0.052,0 c -22.727,-0.292 -46.472,4.077 -46.709,4.122 -2.424,0.451 -4.946,2.974 -5.397,5.397 -0.044,0.237 -4.414,23.983 -4.122,46.71 -0.292,22.777 4.078,46.523 4.122,46.761 0.451,2.423 2.974,4.945 5.398,5.398 0.237,0.044 23.982,4.413 46.709,4.121 22.779,0.292 46.524,-4.077 46.761,-4.121 2.423,-0.452 4.946,-2.976 5.398,-5.399 0.044,-0.236 4.413,-23.981 4.121,-46.709 0.292,-22.777 -4.077,-46.523 -4.121,-46.761 -0.453,-2.423 -2.976,-4.946 -5.398,-5.397 -0.238,-0.045 -23.984,-4.414 -46.71,-4.122 z"
         id="use4460-5-3"
         inkscape:connector-curvature="0" />
    </clipPath>
    <linearGradient
       gradientUnits="userSpaceOnUse"
       y2="1035.2268"
       x2="38.754452"
       y1="1047.2268"
       x1="38.754463"
       id="linearGradient4714"
       xlink:href="#linearGradient8467-5"
       inkscape:collect="always" />
    <linearGradient
       y2="1035.2268"
       x2="38.754452"
       y1="1047.2268"
       x1="38.754463"
       gradientUnits="userSpaceOnUse"
       id="linearGradient4730"
       xlink:href="#linearGradient5146"
       inkscape:collect="always" />
    <linearGradient
       inkscape:collect="always"
       xlink:href="#linearGradient5146"
       id="linearGradient4537"
       gradientUnits="userSpaceOnUse"
       x1="38.754463"
       y1="1047.2268"
       x2="38.754452"
       y2="1035.2268" />
    <linearGradient
       inkscape:collect="always"
       xlink:href="#linearGradient5146"
       id="linearGradient4539"
       gradientUnits="userSpaceOnUse"
       x1="38.754463"
       y1="1047.2268"
       x2="38.754452"
       y2="1035.2268" />
    <linearGradient
       inkscape:collect="always"
       xlink:href="#linearGradient5146"
       id="linearGradient4541"
       gradientUnits="userSpaceOnUse"
       x1="38.754463"
       y1="1047.2268"
       x2="38.754452"
       y2="1035.2268" />
    <linearGradient
       inkscape:collect="always"
       xlink:href="#linearGradient5146"
       id="linearGradient4543"
       gradientUnits="userSpaceOnUse"
       x1="38.754463"
       y1="1047.2268"
       x2="38.754452"
       y2="1035.2268" />
    <linearGradient
       inkscape:collect="always"
       xlink:href="#linearGradient5146"
       id="linearGradient4545"
       gradientUnits="userSpaceOnUse"
       x1="38.754463"
       y1="1047.2268"
       x2="38.754452"
       y2="1035.2268" />
    <linearGradient
       inkscape:collect="always"
       xlink:href="#linearGradient5146"
       id="linearGradient4547"
       gradientUnits="userSpaceOnUse"
       x1="38.754463"
       y1="1047.2268"
       x2="38.754452"
       y2="1035.2268" />
    <linearGradient
       inkscape:collect="always"
       xlink:href="#linearGradient5146"
       id="linearGradient4549"
       gradientUnits="userSpaceOnUse"
       x1="38.754463"
       y1="1047.2268"
       x2="38.754452"
       y2="1035.2268" />
    <linearGradient
       inkscape:collect="always"
       xlink:href="#linearGradient5146"
       id="linearGradient4551"
       gradientUnits="userSpaceOnUse"
       x1="38.754463"
       y1="1047.2268"
       x2="38.754452"
       y2="1035.2268" />
    <linearGradient
       inkscape:collect="always"
       xlink:href="#linearGradient5146"
       id="linearGradient4553"
       gradientUnits="userSpaceOnUse"
       x1="38.754463"
       y1="1047.2268"
       x2="38.754452"
       y2="1035.2268" />
    <linearGradient
       inkscape:collect="always"
       xlink:href="#linearGradient5146"
       id="linearGradient4555"
       gradientUnits="userSpaceOnUse"
       x1="38.754463"
       y1="1047.2268"
       x2="38.754452"
       y2="1035.2268" />
    <linearGradient
       inkscape:collect="always"
       xlink:href="#linearGradient5146"
       id="linearGradient4557"
       gradientUnits="userSpaceOnUse"
       x1="38.754463"
       y1="1047.2268"
       x2="38.754452"
       y2="1035.2268" />
    <linearGradient
       inkscape:collect="always"
       xlink:href="#linearGradient5146"
       id="linearGradient4559"
       gradientUnits="userSpaceOnUse"
       x1="38.754463"
       y1="1047.2268"
       x2="38.754452"
       y2="1035.2268" />
    <linearGradient
       inkscape:collect="always"
       xlink:href="#linearGradient5146"
       id="linearGradient4561"
       gradientUnits="userSpaceOnUse"
       x1="38.754463"
       y1="1047.2268"
       x2="38.754452"
       y2="1035.2268" />
    <linearGradient
       inkscape:collect="always"
       xlink:href="#linearGradient5146"
       id="linearGradient4563"
       gradientUnits="userSpaceOnUse"
       x1="38.754463"
       y1="1047.2268"
       x2="38.754452"
       y2="1035.2268" />
    <linearGradient
       inkscape:collect="always"
       xlink:href="#linearGradient5146"
       id="linearGradient4565"
       gradientUnits="userSpaceOnUse"
       x1="38.754463"
       y1="1047.2268"
       x2="38.754452"
       y2="1035.2268" />
    <linearGradient
       inkscape:collect="always"
       xlink:href="#linearGradient5146"
       id="linearGradient4567"
       gradientUnits="userSpaceOnUse"
       x1="38.754463"
       y1="1047.2268"
       x2="38.754452"
       y2="1035.2268" />
    <linearGradient
       inkscape:collect="always"
       xlink:href="#linearGradient5146"
       id="linearGradient4569"
       gradientUnits="userSpaceOnUse"
       x1="38.754463"
       y1="1047.2268"
       x2="38.754452"
       y2="1035.2268" />
    <linearGradient
       inkscape:collect="always"
       xlink:href="#linearGradient5146"
       id="linearGradient4571"
       gradientUnits="userSpaceOnUse"
       x1="38.754463"
       y1="1047.2268"
       x2="38.754452"
       y2="1035.2268" />
    <linearGradient
       inkscape:collect="always"
       xlink:href="#linearGradient5146"
       id="linearGradient4573"
       gradientUnits="userSpaceOnUse"
       x1="38.754463"
       y1="1047.2268"
       x2="38.754452"
       y2="1035.2268" />
    <linearGradient
       inkscape:collect="always"
       xlink:href="#linearGradient5146"
       id="linearGradient4575"
       gradientUnits="userSpaceOnUse"
       x1="38.754463"
       y1="1047.2268"
       x2="38.754452"
       y2="1035.2268" />
    <linearGradient
       inkscape:collect="always"
       xlink:href="#linearGradient5146"
       id="linearGradient4577"
       gradientUnits="userSpaceOnUse"
       x1="38.754463"
       y1="1047.2268"
       x2="38.754452"
       y2="1035.2268" />
  </defs>
  <sodipodi:namedview
     id="base"
     pagecolor="#ffffff"
     bordercolor="#666666"
     borderopacity="1.0"
     inkscape:pageopacity="0.0"
     inkscape:pageshadow="2"
     inkscape:zoom="7.74"
     inkscape:cx="14.298615"
     inkscape:cy="20.303181"
     inkscape:document-units="px"
     inkscape:current-layer="layer1"
     showgrid="true"
     inkscape:snap-bbox="true"
     inkscape:window-width="1366"
     inkscape:window-height="702"
     inkscape:window-x="0"
     inkscape:window-y="0"
     inkscape:window-maximized="1">
    <inkscape:grid
       type="xygrid"
       id="grid3026"
       empspacing="5"
       visible="true"
       enabled="true"
       snapvisiblegridlinesonly="true" />
  </sodipodi:namedview>
  <metadata
     id="metadata3023">
    <rdf:RDF>
      <cc:Work
         rdf:about="">
        <dc:format>image/svg+xml</dc:format>
        <dc:type
           rdf:resource="http://purl.org/dc/dcmitype/StillImage" />
        <dc:title />
      </cc:Work>
    </rdf:RDF>
  </metadata>
  <g
     inkscape:label="Layer 1"
     inkscape:groupmode="layer"
     id="layer1"
     transform="translate(0,-1004.3622)">
    <g
       transform="matrix(1.6782951,0,0,1.6782951,-648.25122,135.72394)"
       id="layer1-6"
       inkscape:label="Capa 1">
      <g
         style="stroke:none"
         transform="translate(-0.11123528,0.03124873)"
         inkscape:label="Capa 1"
         id="layer1-39">
        <g
           id="layer1-3"
           inkscape:label="Capa 1"
           transform="translate(0.13524268,0.04517549)"
           style="stroke:none;stroke-width:1.29999995;stroke-miterlimit:4;stroke-dasharray:none;stroke-opacity:1">
          <circle
             r="13.999958"
             cy="531.79791"
             cx="400.57138"
             id="path3377"
             style="opacity:1;fill:url(#linearGradient4181);fill-opacity:1;stroke:none;stroke-width:1.29999995;stroke-miterlimit:4;stroke-dasharray:none;stroke-dashoffset:0;stroke-opacity:1" />
          <circle
             style="opacity:1;fill:#5ea5fb;fill-opacity:0;stroke:none;stroke-width:1.29999995;stroke-miterlimit:4;stroke-dasharray:none;stroke-dashoffset:0;stroke-opacity:1"
             id="circle4174"
             cx="400.57144"
             cy="531.79797"
             r="13.999958" />
          <circle
             style="opacity:1;fill:url(#linearGradient3426);fill-opacity:1;stroke:none;stroke-width:1.29999995;stroke-miterlimit:4;stroke-dasharray:none;stroke-dashoffset:0;stroke-opacity:1"
             id="ellipse4233"
             cx="400.57138"
             cy="531.79791"
             r="0" />
        </g>
      </g>
      <g
         style="fill:url(#linearGradient4714);fill-opacity:1"
         inkscape:label="Capa 1"
         id="layer1-31"
         transform="matrix(1.1883825,0,0,1.1883825,354.48616,-705.17925)">
        <g
           transform="matrix(1.2821203,0,0,1.2821203,-418.17441,341.10436)"
           id="layer1-7"
           inkscape:label="Capa 1"
           style="fill:url(#linearGradient4730);fill-opacity:1;stroke:#4d4d4d;stroke-width:0.30000001;stroke-miterlimit:4;stroke-dasharray:none;stroke-opacity:1">
          <g
             style="fill:url(#linearGradient4577);fill-opacity:1;stroke:none;stroke-width:0.97011769;stroke-miterlimit:4;stroke-dasharray:none;stroke-opacity:1"
             inkscape:label="Layer 1"
             id="layer1-9"
             transform="matrix(0.30924083,0,0,0.30924083,99.330471,486.10014)">
            <g
               id="g5257"
               transform="matrix(1.219356,0,0,1.219356,779.29263,166.4101)"
               style="fill:url(#linearGradient4575);fill-opacity:1;stroke:none;stroke-width:0.79559839;stroke-miterlimit:4;stroke-dasharray:none;stroke-opacity:1">
              <g
                 id="g5211"
                 transform="matrix(0.86821297,0,0,0.86821297,22.89117,3.3794412)"
                 style="fill:url(#linearGradient4543);fill-opacity:1;stroke:none;stroke-width:0.91636318;stroke-miterlimit:4;stroke-dasharray:none;stroke-opacity:1">
                <g
                   id="g5213"
                   style="fill:url(#linearGradient4541);fill-opacity:1;stroke:none;stroke-width:0.91636318;stroke-miterlimit:4;stroke-dasharray:none;stroke-opacity:1">
                  <path
                     id="path5215"
                     d="m 22.683,16.977 c -2.028,0 -3.465,1.646 -3.465,3.672 l 0,12.485 c 0,2.028 1.437,3.671 3.465,3.671 2.027,0 3.463,-1.643 3.463,-3.671 l 0,-12.485 c 0,-2.028 -1.436,-3.672 -3.463,-3.672 z"
                     inkscape:connector-curvature="0"
                     style="fill:url(#linearGradient4537);fill-opacity:1;stroke:none;stroke-width:0.91636318;stroke-miterlimit:4;stroke-dasharray:none;stroke-opacity:1" />
                  <path
                     id="path5217"
                     d="m 22.698,7.432 c -2.095,0 -3.795,1.699 -3.795,3.795 0,2.095 1.7,3.793 3.795,3.793 2.093,0 3.793,-1.698 3.793,-3.793 0,-2.096 -1.7,-3.795 -3.793,-3.795 z"
                     inkscape:connector-curvature="0"
                     style="fill:url(#linearGradient4539);fill-opacity:1;stroke:none;stroke-width:0.91636318;stroke-miterlimit:4;stroke-dasharray:none;stroke-opacity:1" />
                </g>
              </g>
              <g
                 id="g5221"
                 style="fill:url(#linearGradient4545);fill-opacity:1;stroke:none;stroke-width:0.79559839;stroke-miterlimit:4;stroke-dasharray:none;stroke-opacity:1" />
              <g
                 id="g5223"
                 style="fill:url(#linearGradient4547);fill-opacity:1;stroke:none;stroke-width:0.79559839;stroke-miterlimit:4;stroke-dasharray:none;stroke-opacity:1" />
              <g
                 id="g5225"
                 style="fill:url(#linearGradient4549);fill-opacity:1;stroke:none;stroke-width:0.79559839;stroke-miterlimit:4;stroke-dasharray:none;stroke-opacity:1" />
              <g
                 id="g5227"
                 style="fill:url(#linearGradient4551);fill-opacity:1;stroke:none;stroke-width:0.79559839;stroke-miterlimit:4;stroke-dasharray:none;stroke-opacity:1" />
              <g
                 id="g5229"
                 style="fill:url(#linearGradient4553);fill-opacity:1;stroke:none;stroke-width:0.79559839;stroke-miterlimit:4;stroke-dasharray:none;stroke-opacity:1" />
              <g
                 id="g5231"
                 style="fill:url(#linearGradient4555);fill-opacity:1;stroke:none;stroke-width:0.79559839;stroke-miterlimit:4;stroke-dasharray:none;stroke-opacity:1" />
              <g
                 id="g5233"
                 style="fill:url(#linearGradient4557);fill-opacity:1;stroke:none;stroke-width:0.79559839;stroke-miterlimit:4;stroke-dasharray:none;stroke-opacity:1" />
              <g
                 id="g5235"
                 style="fill:url(#linearGradient4559);fill-opacity:1;stroke:none;stroke-width:0.79559839;stroke-miterlimit:4;stroke-dasharray:none;stroke-opacity:1" />
              <g
                 id="g5237"
                 style="fill:url(#linearGradient4561);fill-opacity:1;stroke:none;stroke-width:0.79559839;stroke-miterlimit:4;stroke-dasharray:none;stroke-opacity:1" />
              <g
                 id="g5239"
                 style="fill:url(#linearGradient4563);fill-opacity:1;stroke:none;stroke-width:0.79559839;stroke-miterlimit:4;stroke-dasharray:none;stroke-opacity:1" />
              <g
                 id="g5241"
                 style="fill:url(#linearGradient4565);fill-opacity:1;stroke:none;stroke-width:0.79559839;stroke-miterlimit:4;stroke-dasharray:none;stroke-opacity:1" />
              <g
                 id="g5243"
                 style="fill:url(#linearGradient4567);fill-opacity:1;stroke:none;stroke-width:0.79559839;stroke-miterlimit:4;stroke-dasharray:none;stroke-opacity:1" />
              <g
                 id="g5245"
                 style="fill:url(#linearGradient4569);fill-opacity:1;stroke:none;stroke-width:0.79559839;stroke-miterlimit:4;stroke-dasharray:none;stroke-opacity:1" />
              <g
                 id="g5247"
                 style="fill:url(#linearGradient4571);fill-opacity:1;stroke:none;stroke-width:0.79559839;stroke-miterlimit:4;stroke-dasharray:none;stroke-opacity:1" />
              <g
                 id="g5249"
                 style="fill:url(#linearGradient4573);fill-opacity:1;stroke:none;stroke-width:0.79559839;stroke-miterlimit:4;stroke-dasharray:none;stroke-opacity:1" />
            </g>
          </g>
        </g>
      </g>
    </g>
  </g>
</svg>
