<?xml version="1.0" encoding="UTF-8" standalone="no"?>
<!-- Created with Inkscape (http://www.inkscape.org/) -->

<svg
   xmlns:dc="http://purl.org/dc/elements/1.1/"
   xmlns:cc="http://creativecommons.org/ns#"
   xmlns:rdf="http://www.w3.org/1999/02/22-rdf-syntax-ns#"
   xmlns:svg="http://www.w3.org/2000/svg"
   xmlns="http://www.w3.org/2000/svg"
   xmlns:xlink="http://www.w3.org/1999/xlink"
   xmlns:sodipodi="http://sodipodi.sourceforge.net/DTD/sodipodi-0.dtd"
   xmlns:inkscape="http://www.inkscape.org/namespaces/inkscape"
   width="48"
   height="48"
   id="svg5453"
   version="1.1"
   inkscape:version="0.91 r13725"
   sodipodi:docname="skrooge-black.svg">
  <defs
     id="defs5455">
    <linearGradient
       id="linearGradient4143"
       inkscape:collect="always">
      <stop
         id="stop4145"
         offset="0"
         style="stop-color:#faae2a;stop-opacity:1" />
      <stop
         id="stop4147"
         offset="1"
         style="stop-color:#ffc35a;stop-opacity:1" />
    </linearGradient>
    <linearGradient
       inkscape:collect="always"
       id="linearGradient4300-7">
      <stop
         style="stop-color:#f39c12;stop-opacity:1"
         offset="0"
         id="stop4302-4" />
      <stop
         style="stop-color:#ffc35a;stop-opacity:1"
         offset="1"
         id="stop4304-1" />
    </linearGradient>
    <linearGradient
       inkscape:collect="always"
       xlink:href="#linearGradient4271"
       id="linearGradient4489"
       x1="408.57144"
       y1="542.79797"
       x2="408.57144"
       y2="503.798"
       gradientUnits="userSpaceOnUse" />
    <linearGradient
       inkscape:collect="always"
       xlink:href="#linearGradient4143"
       id="linearGradient4514"
       gradientUnits="userSpaceOnUse"
       x1="428.57144"
       y1="543.79797"
       x2="388.57144"
       y2="503.798" />
    <linearGradient
       inkscape:collect="always"
       xlink:href="#linearGradient4303"
       id="linearGradient4570"
       x1="24.145554"
       y1="45.800697"
       x2="23.500895"
       y2="-0.98267978"
       gradientUnits="userSpaceOnUse" />
    <linearGradient
       inkscape:collect="always"
       xlink:href="#linearGradient4271"
       id="linearGradient4418"
       x1="428.57144"
       y1="543.79797"
       x2="388.57144"
       y2="503.798"
       gradientUnits="userSpaceOnUse" />
    <linearGradient
       inkscape:collect="always"
       xlink:href="#linearGradient4300-7"
       id="linearGradient4426"
       x1="391.57144"
       y1="506.798"
       x2="425.57144"
       y2="540.79797"
       gradientUnits="userSpaceOnUse" />
    <linearGradient
       inkscape:collect="always"
       xlink:href="#linearGradient4271"
       id="linearGradient4209"
       x1="391.57144"
       y1="523.79797"
       x2="461.19644"
       y2="523.79797"
       gradientUnits="userSpaceOnUse"
       gradientTransform="translate(250.71329,-442.32051)" />
    <linearGradient
       inkscape:collect="always"
       id="linearGradient4271">
      <stop
         style="stop-color:#2a2c2f;stop-opacity:1"
         offset="0"
         id="stop4273" />
      <stop
         style="stop-color:#424649;stop-opacity:1"
         offset="1"
         id="stop4275" />
    </linearGradient>
    <linearGradient
       id="linearGradient4303"
       inkscape:collect="always">
      <stop
         id="stop4305"
         offset="0"
         style="stop-color:#989a9b;stop-opacity:1" />
      <stop
         id="stop4307"
         offset="1"
         style="stop-color:#f6f6f7;stop-opacity:1" />
    </linearGradient>
  </defs>
  <sodipodi:namedview
     id="base"
     pagecolor="#ffffff"
     bordercolor="#666666"
     borderopacity="1.0"
     inkscape:pageopacity="0"
     inkscape:pageshadow="2"
     inkscape:zoom="11.313708"
     inkscape:cx="19.965368"
     inkscape:cy="7.2753128"
     inkscape:document-units="px"
     inkscape:current-layer="layer1"
     showgrid="false"
     fit-margin-top="0"
     fit-margin-left="0"
     fit-margin-right="0"
     fit-margin-bottom="0"
     inkscape:window-width="1366"
     inkscape:window-height="702"
     inkscape:window-x="0"
     inkscape:window-y="0"
     inkscape:window-maximized="1"
     inkscape:showpageshadow="false"
     borderlayer="true"
     showguides="false"
     inkscape:snap-bbox="true"
     inkscape:bbox-nodes="true"
     inkscape:snap-smooth-nodes="true"
     inkscape:snap-center="true">
    <inkscape:grid
       type="xygrid"
       id="grid4063" />
    <sodipodi:guide
       position="1.1650391e-05,47.999996"
       orientation="4,0"
       id="guide4146" />
    <sodipodi:guide
       position="1.1650391e-05,43.999996"
       orientation="0,48"
       id="guide4148" />
    <sodipodi:guide
       position="48.000012,43.999996"
       orientation="-4,0"
       id="guide4150" />
    <sodipodi:guide
       position="48.000012,47.999996"
       orientation="0,-48"
       id="guide4152" />
    <sodipodi:guide
       position="1.1650391e-05,4.0000264"
       orientation="4,0"
       id="guide4154" />
    <sodipodi:guide
       position="1.1650391e-05,2.6367188e-05"
       orientation="0,48"
       id="guide4156" />
    <sodipodi:guide
       position="48.000012,2.6367188e-05"
       orientation="-4,0"
       id="guide4158" />
    <sodipodi:guide
       position="48.000012,4.0000264"
       orientation="0,-48"
       id="guide4160" />
    <sodipodi:guide
       position="48.000012,48.000026"
       orientation="0,-4"
       id="guide4162" />
    <sodipodi:guide
       position="44.000012,48.000026"
       orientation="48,0"
       id="guide4164" />
    <sodipodi:guide
       position="44.000012,2.6367188e-05"
       orientation="0,4"
       id="guide4166" />
    <sodipodi:guide
       position="48.000012,2.6367188e-05"
       orientation="-48,0"
       id="guide4168" />
    <sodipodi:guide
       position="4.0000422,48.000026"
       orientation="0,-4"
       id="guide4170" />
    <sodipodi:guide
       position="4.2167969e-05,48.000026"
       orientation="48,0"
       id="guide4172" />
    <sodipodi:guide
       position="4.2167969e-05,2.6367188e-05"
       orientation="0,4"
       id="guide4174" />
    <sodipodi:guide
       position="4.0000422,2.6367188e-05"
       orientation="-48,0"
       id="guide4176" />
    <sodipodi:guide
       position="4.0000422,43.999996"
       orientation="39.999969,0"
       id="guide4175" />
    <sodipodi:guide
       position="4.0000422,4.0000264"
       orientation="0,20"
       id="guide4177" />
    <sodipodi:guide
       position="24.000042,4.0000264"
       orientation="-39.999969,0"
       id="guide4179" />
    <sodipodi:guide
       position="24.000042,43.999996"
       orientation="0,-20"
       id="guide4181" />
    <sodipodi:guide
       position="4.0000422,23.999843"
       orientation="20,0"
       id="guide4185" />
    <sodipodi:guide
       position="44.000012,3.9998433"
       orientation="-20,0"
       id="guide4189" />
    <sodipodi:guide
       position="44.000012,23.999843"
       orientation="0,-39.999969"
       id="guide4191" />
  </sodipodi:namedview>
  <metadata
     id="metadata5458">
    <rdf:RDF>
      <cc:Work
         rdf:about="">
        <dc:format>image/svg+xml</dc:format>
        <dc:type
           rdf:resource="http://purl.org/dc/dcmitype/StillImage" />
        <dc:title />
      </cc:Work>
    </rdf:RDF>
  </metadata>
  <g
     inkscape:label="Capa 1"
     inkscape:groupmode="layer"
     id="layer1"
     transform="translate(-384.57143,-499.798)">
    <path
       style="opacity:1;fill:url(#linearGradient4426);fill-opacity:1;stroke:none;stroke-width:0.5;stroke-linecap:butt;stroke-linejoin:round;stroke-miterlimit:4;stroke-dasharray:none;stroke-opacity:1"
       id="path4173-2"
       r="16.999989"
       cy="523.79797"
       cx="408.57144" />
    <circle
       style="opacity:1;fill:url(#linearGradient4514);fill-opacity:1;stroke:none;stroke-width:0.5;stroke-linecap:butt;stroke-linejoin:round;stroke-miterlimit:4;stroke-dasharray:none;stroke-opacity:1"
       id="path4173-0"
       cx="408.57144"
       cy="523.79797"
       r="0" />
    <g
       id="g4189"
       transform="matrix(1.1701475,0,0,1.1701475,-69.450464,-89.078736)">
      <circle
         r="20.000006"
         cy="523.79797"
         cx="408.57144"
         id="path4173"
         style="opacity:1;fill:url(#linearGradient4489);fill-opacity:1;stroke:none;stroke-width:0.5;stroke-linecap:butt;stroke-linejoin:round;stroke-miterlimit:4;stroke-dasharray:none;stroke-opacity:1" />
      <circle
         transform="matrix(0.70710678,0.70710678,-0.70710678,0.70710678,0,0)"
         r="17"
         cy="81.477463"
         cx="659.28473"
         id="path4201"
         style="opacity:1;fill:url(#linearGradient4209);fill-opacity:1;stroke:none;stroke-width:2;stroke-linecap:round;stroke-linejoin:bevel;stroke-miterlimit:4;stroke-dasharray:none;stroke-opacity:1" />
      <path
         inkscape:connector-curvature="0"
         id="path4733"
         d="m 407.60268,534.2355 -7.625,-11.0625 -0.40625,-5.25 5.34375,-0.625 3.75,-5.03125 4.1875,5.65625 4.84375,0.65625 -2.28125,7.90625 -6.09375,7.71875 z"
         style="fill:url(#linearGradient4418);fill-opacity:1;fill-rule:evenodd;stroke:none;stroke-width:1px;stroke-linecap:butt;stroke-linejoin:miter;stroke-opacity:1" />
      <path
         id="path4173-3"
         transform="translate(384.57143,499.798)"
         d="M 24,6 A 17.999973,17.999973 0 0 0 6,24 17.999973,17.999973 0 0 0 24,42 17.999973,17.999973 0 0 0 42,24 17.999973,17.999973 0 0 0 24,6 Z m 0,2 A 15.999989,15.999989 0 0 1 39.705078,21 L 36,21 c -0.554,0 -1,0.446 -1,1 0,0.554 0.446,1 1,1 l 3.962891,0 A 15.999989,15.999989 0 0 1 40,24 15.999989,15.999989 0 0 1 39.949219,25 L 36,25 c -0.554,0 -1,0.446 -1,1 0,0.554 0.446,1 1,1 l 3.708984,0 A 15.999989,15.999989 0 0 1 24,40 15.999989,15.999989 0 0 1 8.2949219,27 L 12,27 c 0.554,0 1,-0.446 1,-1 0,-0.554 -0.446,-1 -1,-1 L 8.0371094,25 A 15.999989,15.999989 0 0 1 8,24 15.999989,15.999989 0 0 1 8.0507812,23 L 12,23 c 0.554,0 1,-0.446 1,-1 0,-0.554 -0.446,-1 -1,-1 L 8.2910156,21 A 15.999989,15.999989 0 0 1 24,8 Z m 0,4 c -0.66666,0 -1.291455,0.187719 -1.765625,0.537109 -0.47418,0.34938 -0.776646,0.811125 -1.003906,1.265625 -0.45452,0.90901 -0.68462,1.86925 -1.125,2.75 -0.16055,0.32112 -0.212523,0.31681 -0.320313,0.34961 -0.10779,0.0328 -0.371631,0.03932 -0.769531,-0.01758 -0.7958,-0.11368 -2.105121,-0.458187 -3.462891,0.220703 -0.76833,0.38416 -1.273838,1.111993 -1.486328,1.876953 -0.21249,0.76496 -0.194094,1.58389 -0.05273,2.43164 0.28258,1.695502 1.083187,3.533946 2.154297,5.140626 0.95734,1.435978 2.21586,3.698789 3.5,5.625 0.64208,0.9631 1.288024,1.844593 1.958984,2.533203 C 22.297893,35.401501 23,36 24,36 c 1,0 1.700144,-0.598499 2.371094,-1.287109 0.67095,-0.68861 1.318867,-1.570105 1.960937,-2.533203 1.28412,-1.92621 2.54267,-4.189011 3.5,-5.625 1.07111,-1.60668 1.871717,-3.445124 2.154297,-5.140626 0.1413,-0.84775 0.157823,-1.66668 -0.05469,-2.43164 -0.21249,-0.76496 -0.716045,-1.492793 -1.484375,-1.876953 -1.35777,-0.67889 -2.669044,-0.334383 -3.464844,-0.220703 -0.3979,0.0569 -0.661741,0.05038 -0.769531,0.01758 -0.1078,-0.0328 -0.15781,-0.0285 -0.31836,-0.34961 -0.44037,-0.88074 -0.67051,-1.84099 -1.125,-2.75 -0.22725,-0.4545 -0.531699,-0.916235 -1.005859,-1.265625 C 25.289502,12.187719 24.66666,12 24,12 Z m 0,10 c 0.554,0 1,0.446 1,1 l 0,6 c 0,0.554 -0.446,1 -1,1 -0.554,0 -1,-0.446 -1,-1 l 0,-6 c 0,-0.554 0.446,-1 1,-1 z"
         style="opacity:1;fill:url(#linearGradient4570);fill-opacity:1;stroke:none;stroke-width:0.5;stroke-linecap:butt;stroke-linejoin:round;stroke-miterlimit:4;stroke-dasharray:none;stroke-opacity:1"
         inkscape:connector-curvature="0" />
    </g>
  </g>
</svg>
