<?xml version="1.0" encoding="UTF-8" standalone="no"?>
<!-- Created with Inkscape (http://www.inkscape.org/) -->

<svg
   xmlns:sketch="http://www.bohemiancoding.com/sketch/ns"
   xmlns:dc="http://purl.org/dc/elements/1.1/"
   xmlns:cc="http://creativecommons.org/ns#"
   xmlns:rdf="http://www.w3.org/1999/02/22-rdf-syntax-ns#"
   xmlns:svg="http://www.w3.org/2000/svg"
   xmlns="http://www.w3.org/2000/svg"
   xmlns:sodipodi="http://sodipodi.sourceforge.net/DTD/sodipodi-0.dtd"
   xmlns:inkscape="http://www.inkscape.org/namespaces/inkscape"
   width="22"
   height="22"
   id="svg3760"
   version="1.1"
   inkscape:version="0.91 r13725"
   sodipodi:docname="gtk-convert.svg">
  <defs
     id="defs3762" />
  <sodipodi:namedview
     id="base"
     pagecolor="#ffffff"
     bordercolor="#666666"
     borderopacity="1.0"
     inkscape:pageopacity="0.0"
     inkscape:pageshadow="2"
     inkscape:zoom="11.759966"
     inkscape:cx="6.4388185"
     inkscape:cy="12.059176"
     inkscape:document-units="px"
     inkscape:current-layer="layer1-1"
     showgrid="true"
     fit-margin-top="0"
     fit-margin-left="0"
     fit-margin-right="0"
     fit-margin-bottom="0"
     inkscape:window-width="1366"
     inkscape:window-height="702"
     inkscape:window-x="0"
     inkscape:window-y="0"
     inkscape:window-maximized="1"
     inkscape:showpageshadow="false"
     showguides="true"
     inkscape:object-nodes="true"
     inkscape:snap-bbox="true"
     inkscape:snap-global="false">
    <sodipodi:guide
       position="4.1796875e-06,21.999997"
       orientation="22,0"
       id="guide4116" />
    <sodipodi:guide
       position="4.1796875e-06,-2.6953124e-06"
       orientation="0,22"
       id="guide4118" />
    <sodipodi:guide
       position="22.000004,-2.6953124e-06"
       orientation="-22,0"
       id="guide4120" />
    <sodipodi:guide
       position="22.000004,21.999997"
       orientation="0,-22"
       id="guide4122" />
    <sodipodi:guide
       position="2.0000042,19.999997"
       orientation="18,0"
       id="guide4124" />
    <sodipodi:guide
       position="20.000004,1.9999973"
       orientation="-18,0"
       id="guide4128" />
    <sodipodi:guide
       position="20.000004,19.999997"
       orientation="0,-18"
       id="guide4130" />
    <sodipodi:guide
       position="3.0000042,18.999997"
       orientation="16,0"
       id="guide4132" />
    <sodipodi:guide
       position="3.0000042,2.9999973"
       orientation="0,16"
       id="guide4134" />
    <sodipodi:guide
       position="19.000004,2.9999973"
       orientation="-16,0"
       id="guide4136" />
    <sodipodi:guide
       position="19.000004,18.999997"
       orientation="0,-16"
       id="guide4138" />
    <inkscape:grid
       type="xygrid"
       id="grid4140" />
  </sodipodi:namedview>
  <metadata
     id="metadata3765">
    <rdf:RDF>
      <cc:Work
         rdf:about="">
        <dc:format>image/svg+xml</dc:format>
        <dc:type
           rdf:resource="http://purl.org/dc/dcmitype/StillImage" />
        <dc:title />
      </cc:Work>
    </rdf:RDF>
  </metadata>
  <g
     inkscape:label="Capa 1"
     inkscape:groupmode="layer"
     id="layer1"
     transform="translate(-553.72253,-583.11926)">
    <g
       transform="translate(553.72253,-447.24294)"
       id="layer1-1"
       inkscape:label="Capa 1">
      <g
         transform="matrix(1.3897404,0,0,1.3897404,0.05991307,-410.29044)"
         id="layer1-6"
         inkscape:label="Capa 1"
         style="fill:#4d4d4d;fill-opacity:1">
        <g
           style="fill:#4d4d4d;fill-opacity:1"
           transform="matrix(0.09589183,0,0,0.09589183,1.9618624,1038.3162)"
           sketch:type="MSLayerGroup"
           id="refresh36">
          <g
             style="fill:#4d4d4d;fill-opacity:1"
             sketch:type="MSShapeGroup"
             id="g1011">
            <path
               style="fill:#4d4d4d;fill-opacity:1"
               inkscape:connector-curvature="0"
               id="path1013"
               d="m 124.023,7.191 c -1.031,-1.031 -2.254,-1.548 -3.666,-1.548 -1.412,0 -2.633,0.517 -3.666,1.548 L 106.1,17.702 C 100.288,12.216 93.634,7.965 86.139,4.951 78.645,1.937 70.93,0.43 63,0.43 48.063,0.43 35.028,4.951 23.893,13.995 12.758,23.038 5.426,34.837 1.895,49.394 l 0,0.57 c 0,0.706 0.258,1.317 0.774,1.833 0.516,0.516 1.127,0.774 1.833,0.774 l 16.213,0 c 1.195,0 2.009,-0.625 2.444,-1.874 2.281,-5.431 3.72,-8.608 4.318,-9.532 3.802,-6.192 8.853,-11.053 15.154,-14.584 6.301,-3.53 13.09,-5.296 20.368,-5.296 10.918,0 20.396,3.721 28.435,11.162 L 80.189,43.69 c -1.03,1.032 -1.547,2.255 -1.547,3.667 0,1.412 0.517,2.634 1.547,3.666 1.033,1.032 2.256,1.548 3.668,1.548 l 36.5,0 c 1.412,0 2.634,-0.516 3.666,-1.548 1.031,-1.032 1.547,-2.254 1.547,-3.666 l 0,-36.5 c 0,-1.412 -0.513,-2.634 -1.547,-3.666 l 0,0 z" />
            <path
               style="fill:#4d4d4d;fill-opacity:1"
               inkscape:connector-curvature="0"
               id="path1015"
               d="m 120.926,73.429 -15.644,0 c -1.194,0 -2.009,0.624 -2.443,1.874 -2.28,5.432 -3.72,8.608 -4.317,9.532 -3.803,6.19 -8.854,11.053 -15.154,14.583 -6.301,3.531 -13.09,5.296 -20.368,5.296 -5.268,0 -10.347,-0.977 -15.235,-2.933 -4.888,-1.956 -9.261,-4.727 -13.117,-8.312 L 45.81,82.308 c 1.032,-1.031 1.548,-2.255 1.548,-3.666 0,-1.412 -0.516,-2.635 -1.548,-3.666 -1.032,-1.033 -2.254,-1.549 -3.666,-1.549 l -36.5,0 c -1.413,0 -2.635,0.516 -3.667,1.549 -1.032,1.031 -1.548,2.254 -1.548,3.666 l 0,36.5 c 0,1.411 0.516,2.635 1.548,3.666 1.033,1.031 2.255,1.549 3.667,1.549 1.412,0 2.634,-0.518 3.666,-1.549 l 10.51,-10.511 c 5.812,5.54 12.425,9.804 19.839,12.791 7.414,2.988 15.086,4.481 23.016,4.481 14.883,0 27.864,-4.521 38.944,-13.565 11.08,-9.043 18.358,-20.843 21.835,-35.399 0.055,-0.108 0.081,-0.299 0.081,-0.57 0,-0.706 -0.259,-1.316 -0.775,-1.833 -0.517,-0.514 -1.128,-0.773 -1.834,-0.773 l 0,0 z" />
          </g>
        </g>
      </g>
    </g>
  </g>
</svg>
