<?xml version="1.0" encoding="UTF-8" standalone="no"?>
<!-- Created with Inkscape (http://www.inkscape.org/) -->

<svg
   xmlns:sketch="http://www.bohemiancoding.com/sketch/ns"
   xmlns:dc="http://purl.org/dc/elements/1.1/"
   xmlns:cc="http://creativecommons.org/ns#"
   xmlns:rdf="http://www.w3.org/1999/02/22-rdf-syntax-ns#"
   xmlns:svg="http://www.w3.org/2000/svg"
   xmlns="http://www.w3.org/2000/svg"
   xmlns:sodipodi="http://sodipodi.sourceforge.net/DTD/sodipodi-0.dtd"
   xmlns:inkscape="http://www.inkscape.org/namespaces/inkscape"
   width="22"
   height="22"
   id="svg2"
   version="1.1"
   inkscape:version="0.91 r13725"
   viewBox="0 0 22 22"
   sodipodi:docname="preferences-desktop-font.svg">
  <defs
     id="defs4">
    <linearGradient
       id="linearGradient5263">
      <stop
         id="stop5265"
         style="stop-color:#a0d5ff;stop-opacity:1"
         offset="0" />
      <stop
         id="stop5267"
         style="stop-color:#a0d5ff;stop-opacity:1"
         offset="1" />
    </linearGradient>
  </defs>
  <sodipodi:namedview
     id="base"
     pagecolor="#ffffff"
     bordercolor="#666666"
     borderopacity="1.0"
     inkscape:pageopacity="0.0"
     inkscape:pageshadow="2"
     inkscape:zoom="12.606046"
     inkscape:cx="12.509749"
     inkscape:cy="12.750799"
     inkscape:document-units="px"
     inkscape:current-layer="layer1"
     showgrid="true"
     units="px"
     inkscape:showpageshadow="false"
     inkscape:window-width="1366"
     inkscape:window-height="702"
     inkscape:window-x="0"
     inkscape:window-y="0"
     inkscape:window-maximized="1"
     showguides="true">
    <inkscape:grid
       type="xygrid"
       id="grid4101" />
    <sodipodi:guide
       position="2,20.000017"
       orientation="18,0"
       id="guide4107" />
    <sodipodi:guide
       position="2,2.0000174"
       orientation="0,18"
       id="guide4109" />
    <sodipodi:guide
       position="20,2.0000174"
       orientation="-18,0"
       id="guide4111" />
    <sodipodi:guide
       position="20,20.000017"
       orientation="0,-18"
       id="guide4113" />
    <sodipodi:guide
       position="3,19.000017"
       orientation="16,0"
       id="guide4115" />
    <sodipodi:guide
       position="3,3.0000174"
       orientation="0,16"
       id="guide4117" />
    <sodipodi:guide
       position="19,3.0000174"
       orientation="-16,0"
       id="guide4119" />
    <sodipodi:guide
       position="19,19.000017"
       orientation="0,-16"
       id="guide4121" />
  </sodipodi:namedview>
  <metadata
     id="metadata7">
    <rdf:RDF>
      <cc:Work
         rdf:about="">
        <dc:format>image/svg+xml</dc:format>
        <dc:type
           rdf:resource="http://purl.org/dc/dcmitype/StillImage" />
        <dc:title />
      </cc:Work>
    </rdf:RDF>
  </metadata>
  <g
     inkscape:label="Capa 1"
     inkscape:groupmode="layer"
     id="layer1"
     transform="translate(0,-1030.3622)">
    <text
       xml:space="preserve"
       style="font-style:normal;font-weight:normal;font-size:11.43947887px;line-height:125%;font-family:sans-serif;letter-spacing:0px;word-spacing:0px;fill:#4d4d4d;fill-opacity:1;stroke:none;stroke-width:1px;stroke-linecap:butt;stroke-linejoin:miter;stroke-opacity:1"
       x="0.17867064"
       y="1043.0143"
       id="text4144"
       sodipodi:linespacing="125%"><tspan
         sodipodi:role="line"
         id="tspan4146"
         x="0.17867064"
         y="1043.0143"
         style="font-style:normal;font-variant:normal;font-weight:normal;font-stretch:normal;font-family:'Product Sans';-inkscape-font-specification:'Product Sans';fill:#4d4d4d;fill-opacity:1">OTF</tspan></text>
    <g
       id="layer1-7"
       inkscape:label="Capa 1"
       transform="matrix(0.4009224,0,0,0.4009224,6.7119932,629.72668)">
      <g
         style="fill:#4d4d4d;fill-opacity:1"
         transform="matrix(0.12485916,0,0,0.12485916,3.0932607,1033.6287)"
         sketch:type="MSLayerGroup"
         id="cog2">
        <path
           style="fill:#4d4d4d;fill-opacity:1"
           inkscape:connector-curvature="0"
           sketch:type="MSShapeGroup"
           id="path4463"
           d="m 124.918,52.205 c -0.436,-0.571 -1.005,-0.911 -1.711,-1.019 l -14.909,-2.281 c -0.815,-2.607 -1.929,-5.268 -3.341,-7.984 0.977,-1.358 2.443,-3.272 4.398,-5.744 1.955,-2.472 3.34,-4.277 4.155,-5.418 0.435,-0.598 0.651,-1.222 0.651,-1.874 0,-0.76 -0.189,-1.357 -0.57,-1.792 -1.955,-2.771 -6.436,-7.387 -13.443,-13.851 -0.65,-0.543 -1.33,-0.814 -2.035,-0.814 -0.815,0 -1.467,0.244 -1.956,0.732 L 84.589,20.878 C 82.361,19.737 79.917,18.732 77.256,17.863 L 74.975,2.873 C 74.921,2.167 74.608,1.583 74.038,1.121 73.467,0.659 72.803,0.429 72.041,0.429 l -18.086,0 c -1.575,0 -2.553,0.76 -2.933,2.281 -0.706,2.715 -1.494,7.766 -2.363,15.153 -2.553,0.816 -5.024,1.848 -7.414,3.097 L 30.002,12.242 c -0.706,-0.543 -1.412,-0.814 -2.118,-0.814 -1.195,0 -3.761,1.941 -7.699,5.825 -3.938,3.884 -6.612,6.803 -8.025,8.758 -0.489,0.706 -0.733,1.331 -0.733,1.874 0,0.652 0.271,1.304 0.814,1.955 3.639,4.4 6.545,8.147 8.718,11.244 -1.358,2.498 -2.417,4.997 -3.177,7.495 L 2.628,50.86 C 2.031,50.969 1.515,51.322 1.08,51.92 0.645,52.517 0.428,53.142 0.428,53.793 l 0,18.087 c 0,0.707 0.217,1.344 0.652,1.914 0.435,0.571 1.005,0.912 1.711,1.02 l 14.91,2.2 c 0.76,2.661 1.873,5.349 3.34,8.064 -0.977,1.358 -2.444,3.272 -4.399,5.744 -1.955,2.472 -3.341,4.277 -4.155,5.418 -0.435,0.599 -0.652,1.222 -0.652,1.874 0,0.706 0.19,1.33 0.57,1.873 2.118,2.934 6.599,7.497 13.443,13.688 0.598,0.598 1.277,0.896 2.037,0.896 0.815,0 1.494,-0.244 2.037,-0.732 L 41.41,105.12 c 2.228,1.141 4.672,2.146 7.333,3.016 l 2.281,14.99 c 0.055,0.706 0.367,1.29 0.937,1.752 0.57,0.463 1.236,0.692 1.996,0.692 l 18.087,0 c 1.577,0 2.554,-0.76 2.935,-2.281 0.705,-2.716 1.492,-7.766 2.361,-15.153 2.553,-0.815 5.025,-1.848 7.414,-3.097 l 11.244,8.8 c 0.76,0.488 1.467,0.732 2.118,0.732 1.194,0 3.747,-1.927 7.657,-5.784 3.912,-3.856 6.6,-6.79 8.065,-8.8 0.489,-0.543 0.734,-1.167 0.734,-1.873 0,-0.706 -0.271,-1.387 -0.815,-2.037 -3.91,-4.78 -6.816,-8.527 -8.718,-11.243 1.086,-2.01 2.146,-4.481 3.178,-7.414 l 15.072,-2.28 c 0.651,-0.109 1.196,-0.463 1.63,-1.061 0.434,-0.598 0.65,-1.223 0.65,-1.874 l 0,-18.086 c 10e-4,-0.706 -0.215,-1.343 -0.651,-1.914 l 0,0 z M 77.747,77.746 C 73.674,81.82 68.758,83.857 63,83.857 57.242,83.857 52.327,81.82 48.253,77.746 44.18,73.673 42.143,68.758 42.143,63 c 0,-5.758 2.036,-10.673 6.11,-14.747 4.074,-4.073 8.99,-6.11 14.747,-6.11 5.758,0 10.674,2.037 14.747,6.11 4.073,4.074 6.11,8.989 6.11,14.747 0,5.758 -2.037,10.673 -6.11,14.746 l 0,0 z" />
      </g>
    </g>
  </g>
</svg>
