<?xml version="1.0" encoding="UTF-8" standalone="no"?>
<!-- Created with Inkscape (http://www.inkscape.org/) -->

<svg
   xmlns:dc="http://purl.org/dc/elements/1.1/"
   xmlns:cc="http://creativecommons.org/ns#"
   xmlns:rdf="http://www.w3.org/1999/02/22-rdf-syntax-ns#"
   xmlns:svg="http://www.w3.org/2000/svg"
   xmlns="http://www.w3.org/2000/svg"
   xmlns:sodipodi="http://sodipodi.sourceforge.net/DTD/sodipodi-0.dtd"
   xmlns:inkscape="http://www.inkscape.org/namespaces/inkscape"
   width="22"
   height="22"
   id="svg2"
   version="1.1"
   inkscape:version="0.91 r13725"
   sodipodi:docname="help-contents.svg">
  <defs
     id="defs4" />
  <sodipodi:namedview
     id="base"
     pagecolor="#ffffff"
     bordercolor="#666666"
     borderopacity="1.0"
     inkscape:pageopacity="0.0"
     inkscape:pageshadow="2"
     inkscape:zoom="13.085735"
     inkscape:cx="-12.533214"
     inkscape:cy="13.477617"
     inkscape:document-units="px"
     inkscape:current-layer="g846"
     showgrid="true"
     inkscape:window-width="1366"
     inkscape:window-height="702"
     inkscape:window-x="0"
     inkscape:window-y="0"
     inkscape:window-maximized="1"
     inkscape:showpageshadow="false"
     showguides="true">
    <inkscape:grid
       type="xygrid"
       id="grid4108" />
    <sodipodi:guide
       position="1.9999987,20.000051"
       orientation="18,0"
       id="guide4114" />
    <sodipodi:guide
       position="1.9999987,2.0000511"
       orientation="0,18"
       id="guide4116" />
    <sodipodi:guide
       position="19.999999,2.0000511"
       orientation="-18,0"
       id="guide4118" />
    <sodipodi:guide
       position="19.999999,20.000051"
       orientation="0,-18"
       id="guide4120" />
    <sodipodi:guide
       position="2.9999987,19.000051"
       orientation="16,0"
       id="guide4122" />
    <sodipodi:guide
       position="9,3"
       orientation="0,16"
       id="guide4124" />
    <sodipodi:guide
       position="18.999999,3.0000511"
       orientation="-16,0"
       id="guide4126" />
    <sodipodi:guide
       position="18.999999,19.000051"
       orientation="0,-16"
       id="guide4128" />
    <sodipodi:guide
       position="3.0001595,6.0074575"
       orientation="0.70710678,0.70710678"
       id="guide4293" />
    <sodipodi:guide
       position="13.000084,14.593168"
       orientation="-0.70710678,-0.70710678"
       id="guide4297" />
    <sodipodi:guide
       position="13.59239,14"
       orientation="9.2928177,-9.2928177"
       id="guide4303" />
    <sodipodi:guide
       position="5.0070239,3.99973"
       orientation="-9.2928177,9.2928177"
       id="guide4307" />
    <sodipodi:guide
       position="14.299842,13.292548"
       orientation="-0.70710678,-0.70710678"
       id="guide4309" />
    <sodipodi:guide
       position="12.292977,15.300275"
       orientation="9.2928177,-9.2928177"
       id="guide4313" />
    <sodipodi:guide
       position="3.0001595,6.0074575"
       orientation="0.70710678,0.70710678"
       id="guide4315" />
    <sodipodi:guide
       position="3.7072663,5.3003507"
       orientation="-9.2928177,9.2928177"
       id="guide4317" />
    <sodipodi:guide
       position="13.000084,14.593168"
       orientation="-0.70710678,-0.70710678"
       id="guide4319" />
    <sodipodi:guide
       position="1.9999987,4.0001732"
       orientation="1.0001221,0"
       id="guide4342" />
    <sodipodi:guide
       position="1.9999987,3.0000511"
       orientation="0,3.0074539"
       id="guide4344" />
    <sodipodi:guide
       position="5.0074526,3.0000511"
       orientation="-1.0001221,0"
       id="guide4346" />
    <sodipodi:guide
       position="5.0074526,4.0001732"
       orientation="0,-3.0074539"
       id="guide4348" />
  </sodipodi:namedview>
  <metadata
     id="metadata7">
    <rdf:RDF>
      <cc:Work
         rdf:about="">
        <dc:format>image/svg+xml</dc:format>
        <dc:type
           rdf:resource="http://purl.org/dc/dcmitype/StillImage" />
        <dc:title />
      </cc:Work>
    </rdf:RDF>
  </metadata>
  <g
     inkscape:label="Capa 1"
     inkscape:groupmode="layer"
     id="layer1"
     transform="translate(0,-1030.3622)">
    <g
       id="g846"
       transform="translate(-61.043672,-14.648105)">
      <g
         id="g3"
         transform="matrix(0.50736938,0,0,0.50736938,63.940813,1047.9788)"
         style="fill:#4d4d4d;fill-opacity:1">
        <path
           d="M 26.943,4.654 C 20.81,-1.521 10.832,-1.556 4.654,4.579 c -6.177,6.134 -6.209,16.112 -0.077,22.289 6.135,6.176 16.113,6.21 22.291,0.076 6.176,-6.134 6.209,-16.112 0.075,-22.29 z M 22.588,3.923 19.245,7.243 C 17.037,6.341 14.549,6.332 12.335,7.219 L 9.015,3.876 C 13.216,1.495 18.403,1.512 22.588,3.923 Z M 7.221,19.187 3.878,22.506 C 1.495,18.305 1.513,13.118 3.925,8.933 l 3.321,3.343 c -0.904,2.207 -0.912,4.696 -0.025,6.911 z m 1.713,8.412 3.344,-3.32 c 2.207,0.901 4.696,0.911 6.909,0.023 l 3.32,3.344 c -4.2,2.381 -9.389,2.364 -13.573,-0.047 z m 11.842,-6.787 c -2.785,2.766 -7.301,2.75 -10.068,-0.035 -2.766,-2.785 -2.75,-7.301 0.036,-10.067 2.786,-2.766 7.301,-2.751 10.067,0.034 2.767,2.785 2.751,7.301 -0.035,10.068 z m 3.5,-1.567 c 0.902,-2.208 0.912,-4.696 0.024,-6.91 l 3.343,-3.32 c 2.382,4.2 2.365,9.388 -0.047,13.573 l -3.32,-3.343 z"
           id="path5"
           inkscape:connector-curvature="0"
           style="fill:#4d4d4d;fill-opacity:1" />
      </g>
    </g>
  </g>
</svg>
