<?xml version="1.0" encoding="UTF-8" standalone="no"?>
<!-- Created with Inkscape (http://www.inkscape.org/) -->

<svg
   xmlns:dc="http://purl.org/dc/elements/1.1/"
   xmlns:cc="http://creativecommons.org/ns#"
   xmlns:rdf="http://www.w3.org/1999/02/22-rdf-syntax-ns#"
   xmlns:svg="http://www.w3.org/2000/svg"
   xmlns="http://www.w3.org/2000/svg"
   xmlns:xlink="http://www.w3.org/1999/xlink"
   xmlns:sodipodi="http://sodipodi.sourceforge.net/DTD/sodipodi-0.dtd"
   xmlns:inkscape="http://www.inkscape.org/namespaces/inkscape"
   width="32"
   height="32"
   id="svg5453"
   version="1.1"
   inkscape:version="0.91 r13725"
   sodipodi:docname="preferences-system-bluetooth.svg">
  <defs
     id="defs5455">
    <linearGradient
       inkscape:collect="always"
       id="linearGradient4143">
      <stop
         style="stop-color:#197cf1;stop-opacity:1"
         offset="0"
         id="stop4145" />
      <stop
         style="stop-color:#20bcfa;stop-opacity:1"
         offset="1"
         id="stop4147" />
    </linearGradient>
    <linearGradient
       inkscape:collect="always"
       xlink:href="#linearGradient4143"
       id="linearGradient4149"
       x1="400.57144"
       y1="545.79797"
       x2="400.57144"
       y2="517.79797"
       gradientUnits="userSpaceOnUse" />
    <linearGradient
       inkscape:collect="always"
       id="linearGradient4290">
      <stop
         style="stop-color:#d3d8f8;stop-opacity:1"
         offset="0"
         id="stop4292" />
      <stop
         style="stop-color:#f9f7f8;stop-opacity:1"
         offset="1"
         id="stop4294" />
    </linearGradient>
    <linearGradient
       inkscape:collect="always"
       xlink:href="#linearGradient4290"
       id="linearGradient4397"
       x1="400.57147"
       y1="538.79816"
       x2="400.57147"
       y2="524.79797"
       gradientUnits="userSpaceOnUse" />
    <linearGradient
       id="linearGradient4422">
      <stop
         id="stop4424"
         offset="0"
         style="stop-color:#197ff1;stop-opacity:1" />
      <stop
         id="stop4426"
         offset="1"
         style="stop-color:#21c6fb;stop-opacity:1" />
    </linearGradient>
    <linearGradient
       id="linearGradient4256">
      <stop
         style="stop-color:#8cbdf8;stop-opacity:1;"
         offset="0"
         id="stop4258" />
      <stop
         style="stop-color:#d5e8ff;stop-opacity:1;"
         offset="1"
         id="stop4260" />
    </linearGradient>
    <linearGradient
       id="linearGradient4232">
      <stop
         style="stop-color:#3889e9;stop-opacity:1"
         offset="0"
         id="stop4234-0" />
      <stop
         style="stop-color:#5ea5fb;stop-opacity:1"
         offset="1"
         id="stop4236" />
    </linearGradient>
    <linearGradient
       id="linearGradient5263">
      <stop
         id="stop5265"
         style="stop-color:#a0d5ff;stop-opacity:1"
         offset="0" />
      <stop
         id="stop5267"
         style="stop-color:#a0d5ff;stop-opacity:1"
         offset="1" />
    </linearGradient>
    <clipPath
       id="clipPath4458">
      <path
         inkscape:connector-curvature="0"
         id="use4460"
         d="m 69.626,12.145 -0.052,0 c -22.727,-0.292 -46.472,4.077 -46.709,4.122 -2.424,0.451 -4.946,2.974 -5.397,5.397 -0.044,0.237 -4.414,23.983 -4.122,46.71 -0.292,22.777 4.078,46.523 4.122,46.761 0.451,2.423 2.974,4.945 5.398,5.398 0.237,0.044 23.982,4.413 46.709,4.121 22.779,0.292 46.524,-4.077 46.761,-4.121 2.423,-0.452 4.946,-2.976 5.398,-5.399 0.044,-0.236 4.413,-23.981 4.121,-46.709 0.292,-22.777 -4.077,-46.523 -4.121,-46.761 -0.453,-2.423 -2.976,-4.946 -5.398,-5.397 -0.238,-0.045 -23.984,-4.414 -46.71,-4.122 z" />
    </clipPath>
    <linearGradient
       id="linearGradient4237">
      <stop
         id="stop4239"
         style="stop-color:#ff594d;stop-opacity:1"
         offset="0" />
      <stop
         id="stop4241"
         style="stop-color:#ff7f76;stop-opacity:1"
         offset="1" />
    </linearGradient>
    <linearGradient
       id="linearGradient4210">
      <stop
         offset="0"
         style="stop-color:#ff584c;stop-opacity:1"
         id="stop4212" />
      <stop
         offset="1"
         style="stop-color:#ff8077;stop-opacity:1"
         id="stop4214" />
    </linearGradient>
    <linearGradient
       id="linearGradient4179">
      <stop
         id="stop4181"
         style="stop-color:#ffee5e;stop-opacity:1"
         offset="0" />
      <stop
         id="stop4183"
         style="stop-color:#feff8b;stop-opacity:1"
         offset="1" />
    </linearGradient>
    <linearGradient
       id="linearGradient4210-3">
      <stop
         id="stop4212-1"
         style="stop-color:#ffce69;stop-opacity:1"
         offset="0" />
      <stop
         id="stop4214-6"
         style="stop-color:#ffce54;stop-opacity:1"
         offset="1" />
    </linearGradient>
    <linearGradient
       id="linearGradient4237-0">
      <stop
         offset="0"
         style="stop-color:#ffee5e;stop-opacity:1"
         id="stop4239-8" />
      <stop
         offset="1"
         style="stop-color:#feff9f;stop-opacity:1"
         id="stop4241-9" />
    </linearGradient>
    <linearGradient
       id="linearGradient4237-2">
      <stop
         offset="0"
         style="stop-color:#ffa0a6;stop-opacity:1"
         id="stop4239-7" />
      <stop
         offset="1"
         style="stop-color:#ffa0a5;stop-opacity:1"
         id="stop4241-2" />
    </linearGradient>
    <linearGradient
       id="linearGradient8311">
      <stop
         id="stop8313"
         style="stop-color:#ce89ff;stop-opacity:1"
         offset="0" />
      <stop
         id="stop8315"
         style="stop-color:#e898ff;stop-opacity:1"
         offset="1" />
    </linearGradient>
    <linearGradient
       id="linearGradient4237-8">
      <stop
         offset="0"
         style="stop-color:#cf8aff;stop-opacity:1"
         id="stop4239-2" />
      <stop
         offset="1"
         style="stop-color:#eaa0ff;stop-opacity:1"
         id="stop4241-3" />
    </linearGradient>
    <linearGradient
       id="linearGradient8311-3">
      <stop
         id="stop8313-0"
         style="stop-color:#ffcc6b;stop-opacity:1"
         offset="0" />
      <stop
         id="stop8315-1"
         style="stop-color:#ffcf98;stop-opacity:1"
         offset="1" />
    </linearGradient>
    <linearGradient
       id="linearGradient4237-3">
      <stop
         offset="0"
         style="stop-color:#ffcc6e;stop-opacity:1"
         id="stop4239-0" />
      <stop
         offset="1"
         style="stop-color:#ffe4a0;stop-opacity:1"
         id="stop4241-7" />
    </linearGradient>
    <linearGradient
       id="linearGradient8311-31">
      <stop
         id="stop8313-2"
         style="stop-color:#f089ff;stop-opacity:1"
         offset="0" />
      <stop
         id="stop8315-6"
         style="stop-color:#ffadea;stop-opacity:1"
         offset="1" />
    </linearGradient>
    <linearGradient
       id="linearGradient4237-6">
      <stop
         offset="0"
         style="stop-color:#f18bfe;stop-opacity:1"
         id="stop4239-22" />
      <stop
         offset="1"
         style="stop-color:#fcc3ff;stop-opacity:1"
         id="stop4241-0" />
    </linearGradient>
    <linearGradient
       id="linearGradient8467">
      <stop
         offset="0"
         style="stop-color:#d3d3d3;stop-opacity:1"
         id="stop8469" />
      <stop
         offset="1"
         style="stop-color:#fcf9f9;stop-opacity:1"
         id="stop8471" />
    </linearGradient>
    <linearGradient
       id="linearGradient8311-5">
      <stop
         id="stop8313-7"
         style="stop-color:#b9b9b9;stop-opacity:1"
         offset="0" />
      <stop
         id="stop8315-3"
         style="stop-color:#d2d2d2;stop-opacity:1"
         offset="1" />
    </linearGradient>
    <linearGradient
       id="linearGradient4237-4">
      <stop
         offset="0"
         style="stop-color:#bababa;stop-opacity:1"
         id="stop4239-9" />
      <stop
         offset="1"
         style="stop-color:#c8c8c8;stop-opacity:1"
         id="stop4241-37" />
    </linearGradient>
    <linearGradient
       id="linearGradient8467-7">
      <stop
         offset="0"
         style="stop-color:#3ec896;stop-opacity:1"
         id="stop8469-4" />
      <stop
         offset="1"
         style="stop-color:#66d9af;stop-opacity:1"
         id="stop8471-7" />
    </linearGradient>
    <linearGradient
       id="linearGradient8311-1">
      <stop
         id="stop8313-9"
         style="stop-color:#494949;stop-opacity:1"
         offset="0" />
      <stop
         id="stop8315-5"
         style="stop-color:#616774;stop-opacity:1"
         offset="1" />
    </linearGradient>
    <linearGradient
       gradientUnits="userSpaceOnUse"
       gradientTransform="scale(1.1288018,0.8858951)"
       x1="209.95714"
       y1="0"
       x2="209.95714"
       y2="116.69431"
       id="linearGradient-1">
      <stop
         stop-color="#A7A7A7"
         offset="0%"
         id="stop4884" />
      <stop
         stop-color="#8D8D8D"
         offset="100%"
         id="stop4886" />
    </linearGradient>
    <linearGradient
       gradientUnits="userSpaceOnUse"
       gradientTransform="scale(1.2279807,0.81434507)"
       x1="192.9998"
       y1="411.58424"
       x2="192.9998"
       y2="105.40025"
       id="linearGradient-2">
      <stop
         stop-color="#707070"
         offset="0%"
         id="stop4889" />
      <stop
         stop-color="#ABABAB"
         offset="100%"
         id="stop4891" />
    </linearGradient>
    <linearGradient
       gradientUnits="userSpaceOnUse"
       gradientTransform="scale(1.2279807,0.81434507)"
       x1="192.99978"
       y1="70.608888"
       x2="192.99978"
       y2="457.4228"
       id="linearGradient-3">
      <stop
         stop-color="#000000"
         stop-opacity="0"
         offset="0%"
         id="stop4894" />
      <stop
         stop-color="#000000"
         stop-opacity="0.19"
         offset="100%"
         id="stop4896" />
    </linearGradient>
    <linearGradient
       id="linearGradient4232-7">
      <stop
         id="stop4234"
         offset="0"
         style="stop-color:#373a3d;stop-opacity:1" />
      <stop
         id="stop4236-2"
         offset="1"
         style="stop-color:#727273;stop-opacity:1" />
    </linearGradient>
    <linearGradient
       id="linearGradient4172">
      <stop
         style="stop-color:#3dc796;stop-opacity:1"
         offset="0"
         id="stop4174" />
      <stop
         style="stop-color:#57d68d;stop-opacity:1"
         offset="1"
         id="stop4176" />
    </linearGradient>
    <linearGradient
       id="linearGradient4233">
      <stop
         id="stop4235"
         offset="0"
         style="stop-color:#212121;stop-opacity:1" />
      <stop
         id="stop4237"
         offset="1"
         style="stop-color:#1d2022;stop-opacity:0" />
    </linearGradient>
    <linearGradient
       id="linearGradient8467-6">
      <stop
         offset="0"
         style="stop-color:#56d8d1;stop-opacity:1"
         id="stop8469-5" />
      <stop
         offset="1"
         style="stop-color:#9df7ee;stop-opacity:1"
         id="stop8471-8" />
    </linearGradient>
    <linearGradient
       id="linearGradient8311-10">
      <stop
         id="stop8313-3"
         style="stop-color:#55d8d1;stop-opacity:1"
         offset="0" />
      <stop
         id="stop8315-8"
         style="stop-color:#66efe7;stop-opacity:1"
         offset="1" />
    </linearGradient>
    <linearGradient
       id="linearGradient8467-8">
      <stop
         offset="0"
         style="stop-color:#dea679;stop-opacity:1"
         id="stop8469-9" />
      <stop
         offset="1"
         style="stop-color:#f7d19d;stop-opacity:1"
         id="stop8471-2" />
    </linearGradient>
    <linearGradient
       id="linearGradient8311-0">
      <stop
         id="stop8313-90"
         style="stop-color:#dda579;stop-opacity:1"
         offset="0" />
      <stop
         id="stop8315-88"
         style="stop-color:#f3bc87;stop-opacity:1"
         offset="1" />
    </linearGradient>
    <linearGradient
       id="linearGradient8467-2">
      <stop
         offset="0"
         style="stop-color:#5fa4d5;stop-opacity:1"
         id="stop8469-6" />
      <stop
         offset="1"
         style="stop-color:#9dc9f7;stop-opacity:1"
         id="stop8471-5" />
    </linearGradient>
    <linearGradient
       id="linearGradient8311-06">
      <stop
         id="stop8313-6"
         style="stop-color:#5fa3d4;stop-opacity:1"
         offset="0" />
      <stop
         id="stop8315-2"
         style="stop-color:#6bb9ff;stop-opacity:1"
         offset="1" />
    </linearGradient>
    <linearGradient
       id="linearGradient4422-5">
      <stop
         id="stop4424-7"
         offset="0"
         style="stop-color:#2971c3;stop-opacity:1" />
      <stop
         id="stop4426-6"
         offset="1"
         style="stop-color:#5ea5fb;stop-opacity:1" />
    </linearGradient>
    <clipPath
       id="clipPath4458-3">
      <path
         inkscape:connector-curvature="0"
         id="use4460-7"
         d="m 69.626,12.145 -0.052,0 c -22.727,-0.292 -46.472,4.077 -46.709,4.122 -2.424,0.451 -4.946,2.974 -5.397,5.397 -0.044,0.237 -4.414,23.983 -4.122,46.71 -0.292,22.777 4.078,46.523 4.122,46.761 0.451,2.423 2.974,4.945 5.398,5.398 0.237,0.044 23.982,4.413 46.709,4.121 22.779,0.292 46.524,-4.077 46.761,-4.121 2.423,-0.452 4.946,-2.976 5.398,-5.399 0.044,-0.236 4.413,-23.981 4.121,-46.709 0.292,-22.777 -4.077,-46.523 -4.121,-46.761 -0.453,-2.423 -2.976,-4.946 -5.398,-5.397 -0.238,-0.045 -23.984,-4.414 -46.71,-4.122 z" />
    </clipPath>
    <linearGradient
       id="linearGradient4232-7-6">
      <stop
         id="stop4234-8"
         offset="0"
         style="stop-color:#333333;stop-opacity:1" />
      <stop
         id="stop4236-2-8"
         offset="1"
         style="stop-color:#353535;stop-opacity:1" />
    </linearGradient>
    <linearGradient
       inkscape:collect="always"
       id="linearGradient5146">
      <stop
         style="stop-color:#d5dbff;stop-opacity:1"
         offset="0"
         id="stop5148" />
      <stop
         style="stop-color:#ebedff;stop-opacity:1"
         offset="1"
         id="stop5150" />
    </linearGradient>
    <linearGradient
       inkscape:collect="always"
       xlink:href="#linearGradient5146"
       id="linearGradient5152"
       x1="767.85718"
       y1="200.93361"
       x2="767.85718"
       y2="174.93361"
       gradientUnits="userSpaceOnUse" />
    <clipPath
       id="clipPath4458-92">
      <path
         d="m 69.626,12.145 -0.052,0 c -22.727,-0.292 -46.472,4.077 -46.709,4.122 -2.424,0.451 -4.946,2.974 -5.397,5.397 -0.044,0.237 -4.414,23.983 -4.122,46.71 -0.292,22.777 4.078,46.523 4.122,46.761 0.451,2.423 2.974,4.945 5.398,5.398 0.237,0.044 23.982,4.413 46.709,4.121 22.779,0.292 46.524,-4.077 46.761,-4.121 2.423,-0.452 4.946,-2.976 5.398,-5.399 0.044,-0.236 4.413,-23.981 4.121,-46.709 0.292,-22.777 -4.077,-46.523 -4.121,-46.761 -0.453,-2.423 -2.976,-4.946 -5.398,-5.397 -0.238,-0.045 -23.984,-4.414 -46.71,-4.122 z"
         id="use4460-8"
         inkscape:connector-curvature="0" />
    </clipPath>
    <linearGradient
       id="linearGradient8467-5">
      <stop
         id="stop8469-0"
         style="stop-color:#d0d6f8;stop-opacity:1"
         offset="0" />
      <stop
         id="stop8471-27"
         style="stop-color:#fbf8f8;stop-opacity:1"
         offset="1" />
    </linearGradient>
    <clipPath
       id="clipPath4458-7">
      <path
         inkscape:connector-curvature="0"
         id="use4460-2"
         d="m 69.626,12.145 -0.052,0 c -22.727,-0.292 -46.472,4.077 -46.709,4.122 -2.424,0.451 -4.946,2.974 -5.397,5.397 -0.044,0.237 -4.414,23.983 -4.122,46.71 -0.292,22.777 4.078,46.523 4.122,46.761 0.451,2.423 2.974,4.945 5.398,5.398 0.237,0.044 23.982,4.413 46.709,4.121 22.779,0.292 46.524,-4.077 46.761,-4.121 2.423,-0.452 4.946,-2.976 5.398,-5.399 0.044,-0.236 4.413,-23.981 4.121,-46.709 0.292,-22.777 -4.077,-46.523 -4.121,-46.761 -0.453,-2.423 -2.976,-4.946 -5.398,-5.397 -0.238,-0.045 -23.984,-4.414 -46.71,-4.122 z" />
    </clipPath>
    <clipPath
       id="clipPath4458-9">
      <path
         d="m 69.626,12.145 -0.052,0 c -22.727,-0.292 -46.472,4.077 -46.709,4.122 -2.424,0.451 -4.946,2.974 -5.397,5.397 -0.044,0.237 -4.414,23.983 -4.122,46.71 -0.292,22.777 4.078,46.523 4.122,46.761 0.451,2.423 2.974,4.945 5.398,5.398 0.237,0.044 23.982,4.413 46.709,4.121 22.779,0.292 46.524,-4.077 46.761,-4.121 2.423,-0.452 4.946,-2.976 5.398,-5.399 0.044,-0.236 4.413,-23.981 4.121,-46.709 0.292,-22.777 -4.077,-46.523 -4.121,-46.761 -0.453,-2.423 -2.976,-4.946 -5.398,-5.397 -0.238,-0.045 -23.984,-4.414 -46.71,-4.122 z"
         id="use4460-27"
         inkscape:connector-curvature="0" />
    </clipPath>
    <clipPath
       id="clipPath4458-5">
      <path
         d="m 69.626,12.145 -0.052,0 c -22.727,-0.292 -46.472,4.077 -46.709,4.122 -2.424,0.451 -4.946,2.974 -5.397,5.397 -0.044,0.237 -4.414,23.983 -4.122,46.71 -0.292,22.777 4.078,46.523 4.122,46.761 0.451,2.423 2.974,4.945 5.398,5.398 0.237,0.044 23.982,4.413 46.709,4.121 22.779,0.292 46.524,-4.077 46.761,-4.121 2.423,-0.452 4.946,-2.976 5.398,-5.399 0.044,-0.236 4.413,-23.981 4.121,-46.709 0.292,-22.777 -4.077,-46.523 -4.121,-46.761 -0.453,-2.423 -2.976,-4.946 -5.398,-5.397 -0.238,-0.045 -23.984,-4.414 -46.71,-4.122 z"
         id="use4460-5"
         inkscape:connector-curvature="0" />
    </clipPath>
    <clipPath
       id="clipPath4458-2">
      <path
         inkscape:connector-curvature="0"
         id="use4460-4"
         d="m 69.626,12.145 -0.052,0 c -22.727,-0.292 -46.472,4.077 -46.709,4.122 -2.424,0.451 -4.946,2.974 -5.397,5.397 -0.044,0.237 -4.414,23.983 -4.122,46.71 -0.292,22.777 4.078,46.523 4.122,46.761 0.451,2.423 2.974,4.945 5.398,5.398 0.237,0.044 23.982,4.413 46.709,4.121 22.779,0.292 46.524,-4.077 46.761,-4.121 2.423,-0.452 4.946,-2.976 5.398,-5.399 0.044,-0.236 4.413,-23.981 4.121,-46.709 0.292,-22.777 -4.077,-46.523 -4.121,-46.761 -0.453,-2.423 -2.976,-4.946 -5.398,-5.397 -0.238,-0.045 -23.984,-4.414 -46.71,-4.122 z" />
    </clipPath>
    <clipPath
       id="clipPath4458-7-6">
      <path
         d="m 69.626,12.145 -0.052,0 c -22.727,-0.292 -46.472,4.077 -46.709,4.122 -2.424,0.451 -4.946,2.974 -5.397,5.397 -0.044,0.237 -4.414,23.983 -4.122,46.71 -0.292,22.777 4.078,46.523 4.122,46.761 0.451,2.423 2.974,4.945 5.398,5.398 0.237,0.044 23.982,4.413 46.709,4.121 22.779,0.292 46.524,-4.077 46.761,-4.121 2.423,-0.452 4.946,-2.976 5.398,-5.399 0.044,-0.236 4.413,-23.981 4.121,-46.709 0.292,-22.777 -4.077,-46.523 -4.121,-46.761 -0.453,-2.423 -2.976,-4.946 -5.398,-5.397 -0.238,-0.045 -23.984,-4.414 -46.71,-4.122 z"
         id="use4460-2-9"
         inkscape:connector-curvature="0" />
    </clipPath>
    <clipPath
       id="clipPath4458-9-1">
      <path
         inkscape:connector-curvature="0"
         id="use4460-27-5"
         d="m 69.626,12.145 -0.052,0 c -22.727,-0.292 -46.472,4.077 -46.709,4.122 -2.424,0.451 -4.946,2.974 -5.397,5.397 -0.044,0.237 -4.414,23.983 -4.122,46.71 -0.292,22.777 4.078,46.523 4.122,46.761 0.451,2.423 2.974,4.945 5.398,5.398 0.237,0.044 23.982,4.413 46.709,4.121 22.779,0.292 46.524,-4.077 46.761,-4.121 2.423,-0.452 4.946,-2.976 5.398,-5.399 0.044,-0.236 4.413,-23.981 4.121,-46.709 0.292,-22.777 -4.077,-46.523 -4.121,-46.761 -0.453,-2.423 -2.976,-4.946 -5.398,-5.397 -0.238,-0.045 -23.984,-4.414 -46.71,-4.122 z" />
    </clipPath>
    <clipPath
       id="clipPath4458-0">
      <path
         d="m 69.626,12.145 -0.052,0 c -22.727,-0.292 -46.472,4.077 -46.709,4.122 -2.424,0.451 -4.946,2.974 -5.397,5.397 -0.044,0.237 -4.414,23.983 -4.122,46.71 -0.292,22.777 4.078,46.523 4.122,46.761 0.451,2.423 2.974,4.945 5.398,5.398 0.237,0.044 23.982,4.413 46.709,4.121 22.779,0.292 46.524,-4.077 46.761,-4.121 2.423,-0.452 4.946,-2.976 5.398,-5.399 0.044,-0.236 4.413,-23.981 4.121,-46.709 0.292,-22.777 -4.077,-46.523 -4.121,-46.761 -0.453,-2.423 -2.976,-4.946 -5.398,-5.397 -0.238,-0.045 -23.984,-4.414 -46.71,-4.122 z"
         id="use4460-56"
         inkscape:connector-curvature="0" />
    </clipPath>
    <clipPath
       id="clipPath4458-7-3">
      <path
         inkscape:connector-curvature="0"
         id="use4460-2-4"
         d="m 69.626,12.145 -0.052,0 c -22.727,-0.292 -46.472,4.077 -46.709,4.122 -2.424,0.451 -4.946,2.974 -5.397,5.397 -0.044,0.237 -4.414,23.983 -4.122,46.71 -0.292,22.777 4.078,46.523 4.122,46.761 0.451,2.423 2.974,4.945 5.398,5.398 0.237,0.044 23.982,4.413 46.709,4.121 22.779,0.292 46.524,-4.077 46.761,-4.121 2.423,-0.452 4.946,-2.976 5.398,-5.399 0.044,-0.236 4.413,-23.981 4.121,-46.709 0.292,-22.777 -4.077,-46.523 -4.121,-46.761 -0.453,-2.423 -2.976,-4.946 -5.398,-5.397 -0.238,-0.045 -23.984,-4.414 -46.71,-4.122 z" />
    </clipPath>
    <clipPath
       id="clipPath4458-9-5">
      <path
         d="m 69.626,12.145 -0.052,0 c -22.727,-0.292 -46.472,4.077 -46.709,4.122 -2.424,0.451 -4.946,2.974 -5.397,5.397 -0.044,0.237 -4.414,23.983 -4.122,46.71 -0.292,22.777 4.078,46.523 4.122,46.761 0.451,2.423 2.974,4.945 5.398,5.398 0.237,0.044 23.982,4.413 46.709,4.121 22.779,0.292 46.524,-4.077 46.761,-4.121 2.423,-0.452 4.946,-2.976 5.398,-5.399 0.044,-0.236 4.413,-23.981 4.121,-46.709 0.292,-22.777 -4.077,-46.523 -4.121,-46.761 -0.453,-2.423 -2.976,-4.946 -5.398,-5.397 -0.238,-0.045 -23.984,-4.414 -46.71,-4.122 z"
         id="use4460-27-3"
         inkscape:connector-curvature="0" />
    </clipPath>
    <clipPath
       id="clipPath4458-5-5">
      <path
         d="m 69.626,12.145 -0.052,0 c -22.727,-0.292 -46.472,4.077 -46.709,4.122 -2.424,0.451 -4.946,2.974 -5.397,5.397 -0.044,0.237 -4.414,23.983 -4.122,46.71 -0.292,22.777 4.078,46.523 4.122,46.761 0.451,2.423 2.974,4.945 5.398,5.398 0.237,0.044 23.982,4.413 46.709,4.121 22.779,0.292 46.524,-4.077 46.761,-4.121 2.423,-0.452 4.946,-2.976 5.398,-5.399 0.044,-0.236 4.413,-23.981 4.121,-46.709 0.292,-22.777 -4.077,-46.523 -4.121,-46.761 -0.453,-2.423 -2.976,-4.946 -5.398,-5.397 -0.238,-0.045 -23.984,-4.414 -46.71,-4.122 z"
         id="use4460-5-3"
         inkscape:connector-curvature="0" />
    </clipPath>
  </defs>
  <sodipodi:namedview
     id="base"
     pagecolor="#ffffff"
     bordercolor="#666666"
     borderopacity="1.0"
     inkscape:pageopacity="0"
     inkscape:pageshadow="2"
     inkscape:zoom="14.930232"
     inkscape:cx="-0.51867977"
     inkscape:cy="14.907906"
     inkscape:document-units="px"
     inkscape:current-layer="layer1"
     showgrid="false"
     fit-margin-top="0"
     fit-margin-left="0"
     fit-margin-right="0"
     fit-margin-bottom="0"
     inkscape:window-width="1366"
     inkscape:window-height="702"
     inkscape:window-x="0"
     inkscape:window-y="0"
     inkscape:window-maximized="1"
     inkscape:showpageshadow="false"
     borderlayer="true"
     showguides="true">
    <inkscape:grid
       type="xygrid"
       id="grid4063" />
    <sodipodi:guide
       position="1.1650391e-05,32.000026"
       orientation="32,0"
       id="guide4157" />
    <sodipodi:guide
       position="1.1650391e-05,2.6367188e-05"
       orientation="0,32"
       id="guide4159" />
    <sodipodi:guide
       position="32.000012,2.6367188e-05"
       orientation="-32,0"
       id="guide4161" />
    <sodipodi:guide
       position="32.000012,32.000026"
       orientation="0,-32"
       id="guide4163" />
    <sodipodi:guide
       position="2.0000117,30.000026"
       orientation="28,0"
       id="guide4167" />
    <sodipodi:guide
       position="2.0000117,2.0000264"
       orientation="0,28"
       id="guide4169" />
    <sodipodi:guide
       position="30.000012,2.0000264"
       orientation="-28,0"
       id="guide4171" />
    <sodipodi:guide
       position="30.000012,30.000026"
       orientation="0,-28"
       id="guide4173" />
    <sodipodi:guide
       position="2.0000117,30.000026"
       orientation="28,0"
       id="guide4181" />
    <sodipodi:guide
       position="2.0000117,2.0000264"
       orientation="0,14"
       id="guide4183" />
    <sodipodi:guide
       position="16.000012,2.0000264"
       orientation="-28,0"
       id="guide4185" />
    <sodipodi:guide
       position="16.000012,30.000026"
       orientation="0,-14"
       id="guide4187" />
    <sodipodi:guide
       position="9.0000117,23.000026"
       orientation="14,0"
       id="guide4193" />
    <sodipodi:guide
       position="9.0000117,9.0000264"
       orientation="0,14.000031"
       id="guide4195" />
    <sodipodi:guide
       position="23.000042,9.0000264"
       orientation="-14,0"
       id="guide4197" />
    <sodipodi:guide
       position="23.000042,23.000026"
       orientation="0,-14.000031"
       id="guide4199" />
    <sodipodi:guide
       position="15,17.00195"
       orientation="1.00195,0"
       id="guide4225" />
    <sodipodi:guide
       position="16.00198,23.00014"
       orientation="0,-0.002"
       id="guide4254" />
    <sodipodi:guide
       position="15.99998,23.00014"
       orientation="0,-1"
       id="guide4256" />
    <sodipodi:guide
       position="14.99998,23.00014"
       orientation="0.41211,0"
       id="guide4258" />
    <sodipodi:guide
       position="14.99998,22.58803"
       orientation="4.58203,0"
       id="guide4260" />
    <sodipodi:guide
       position="14.99998,16.59389"
       orientation="0.006,0"
       id="guide4268" />
    <sodipodi:guide
       position="14.99998,16.58789"
       orientation="1.17578,0"
       id="guide4270" />
    <sodipodi:guide
       position="14.99998,15.41211"
       orientation="0.006,0"
       id="guide4272" />
    <sodipodi:guide
       position="14.99998,13.994"
       orientation="4.58203,0"
       id="guide4280" />
    <sodipodi:guide
       position="14.99998,9.41197"
       orientation="0.41211,0"
       id="guide4282" />
    <sodipodi:guide
       position="14.99998,8.99986"
       orientation="0,1"
       id="guide4284" />
    <sodipodi:guide
       position="15.99998,8.99986"
       orientation="0,0.002"
       id="guide4286" />
    <sodipodi:guide
       position="20.00003,12.99791"
       orientation="-0.002,0"
       id="guide4290" />
    <sodipodi:guide
       position="20.00003,12.99991"
       orientation="-0.002,0"
       id="guide4292" />
    <sodipodi:guide
       position="20.00003,18.99801"
       orientation="-0.002,0"
       id="guide4298" />
    <sodipodi:guide
       position="20.00003,19.00001"
       orientation="-0.002,0"
       id="guide4300" />
    <sodipodi:guide
       position="20.00003,19.00201"
       orientation="-8e-05,0"
       id="guide4302" />
    <sodipodi:guide
       position="16.00003,17.00595"
       orientation="-4.58203,0"
       id="guide4308" />
    <sodipodi:guide
       position="18.58792,19.00009"
       orientation="0,0"
       id="guide4312" />
    <sodipodi:guide
       position="16.00003,10.4122"
       orientation="-4.58203,0"
       id="guide4316" />
    <sodipodi:guide
       position="18.58791,13.00009"
       orientation="0,1e-05"
       id="guide4322" />
  </sodipodi:namedview>
  <metadata
     id="metadata5458">
    <rdf:RDF>
      <cc:Work
         rdf:about="">
        <dc:format>image/svg+xml</dc:format>
        <dc:type
           rdf:resource="http://purl.org/dc/dcmitype/StillImage" />
        <dc:title />
      </cc:Work>
    </rdf:RDF>
  </metadata>
  <g
     inkscape:label="Capa 1"
     inkscape:groupmode="layer"
     id="layer1"
     transform="translate(-384.57143,-515.798)">
    <rect
       style="opacity:1;fill:url(#linearGradient4149);fill-opacity:1;stroke:none"
       id="rect4130"
       width="28.000011"
       height="28.000027"
       x="386.57144"
       y="517.79797"
       ry="14.000006" />
    <path
       style="opacity:1;fill:url(#linearGradient4397);fill-opacity:1;stroke:none;stroke-opacity:1"
       d="m 404.57146,528.79591 -3.99805,-3.99805 -0.002,0 -1,0 0,0.41211 0,4.58203 -3.29298,-3.29492 -0.70702,0.70703 4,4 0,0.006 0,1.17578 0,0.006 -4,4 0.70702,0.70703 3.29298,-3.29492 0,4.58203 0,0.41211 1,0 0.002,0 3.99805,-3.99805 0,-0.002 0,-0.002 -2.99805,-2.99805 2.99805,-2.99805 0,-0.002 0,-0.002 z m -1.41211,0.002 -2.29101,2.29102 -0.29688,-0.29688 0,-4.58203 2.58789,2.58789 z m 0,6 -2.58789,2.58789 0,-4.58203 0.29687,-0.29688 2.29101,2.29102 z"
       id="rect4191"
       inkscape:connector-curvature="0" />
  </g>
</svg>
