<?xml version="1.0" encoding="UTF-8" standalone="no"?>
<!-- Created with Inkscape (http://www.inkscape.org/) -->

<svg
   xmlns:dc="http://purl.org/dc/elements/1.1/"
   xmlns:cc="http://creativecommons.org/ns#"
   xmlns:rdf="http://www.w3.org/1999/02/22-rdf-syntax-ns#"
   xmlns:svg="http://www.w3.org/2000/svg"
   xmlns="http://www.w3.org/2000/svg"
   xmlns:sodipodi="http://sodipodi.sourceforge.net/DTD/sodipodi-0.dtd"
   xmlns:inkscape="http://www.inkscape.org/namespaces/inkscape"
   width="16"
   height="16"
   id="svg2"
   version="1.1"
   inkscape:version="0.91 r13725"
   viewBox="0 0 16 16"
   sodipodi:docname="folder-owncloud.svg">
  <defs
     id="defs4" />
  <sodipodi:namedview
     id="base"
     pagecolor="#ffffff"
     bordercolor="#666666"
     borderopacity="1.0"
     inkscape:pageopacity="0.0"
     inkscape:pageshadow="2"
     inkscape:zoom="15.839192"
     inkscape:cx="-16.439566"
     inkscape:cy="10.957393"
     inkscape:document-units="px"
     inkscape:current-layer="layer1"
     showgrid="true"
     inkscape:showpageshadow="false"
     borderlayer="true"
     units="px"
     inkscape:window-width="1366"
     inkscape:window-height="702"
     inkscape:window-x="0"
     inkscape:window-y="0"
     inkscape:window-maximized="1"
     inkscape:snap-global="false"
     inkscape:snap-bbox="true"
     inkscape:object-nodes="true">
    <inkscape:grid
       type="xygrid"
       id="grid4062" />
    <sodipodi:guide
       position="2,14.000017"
       orientation="12,0"
       id="guide4066" />
    <sodipodi:guide
       position="2,2.0000174"
       orientation="0,12"
       id="guide4068" />
    <sodipodi:guide
       position="14,2.0000174"
       orientation="-12,0"
       id="guide4070" />
    <sodipodi:guide
       position="14,14.000017"
       orientation="0,-12"
       id="guide4072" />
  </sodipodi:namedview>
  <metadata
     id="metadata7">
    <rdf:RDF>
      <cc:Work
         rdf:about="">
        <dc:format>image/svg+xml</dc:format>
        <dc:type
           rdf:resource="http://purl.org/dc/dcmitype/StillImage" />
        <dc:title />
      </cc:Work>
    </rdf:RDF>
  </metadata>
  <g
     inkscape:label="Capa 1"
     inkscape:groupmode="layer"
     id="layer1"
     transform="translate(0,-1036.3622)">
    <path
       inkscape:connector-curvature="0"
       style="color:#000000;text-indent:0;text-transform:none;block-progression:tb;fill:#4d4d4d;fill-opacity:1;enable-background:accumulate"
       d="m 7.3148994,1040.3621 c -0.9636616,0 -1.7422219,0.7785 -1.7422219,1.742 0,0.3971 0.1322732,0.7626 0.3552802,1.0553 0.4837955,-0.5599 1.1977912,-0.9154 1.9950373,-0.9154 0.3900397,0 0.7599166,0.086 1.0931782,0.2391 0.026973,-0.122 0.040999,-0.2489 0.040999,-0.379 0,-0.9635 -0.7785603,-1.742 -1.7422231,-1.742 z m -2.275173,0.8061 c -0.5018782,0 -0.9052695,0.4067 -0.9052695,0.9086 0,0.1623 0.041916,0.3158 0.1161499,0.4472 0.3028393,-0.1707 0.6529709,-0.2698 1.0248578,-0.2698 0.035896,0 0.070453,0 0.1059067,0 -0.00399,-0.051 -0.0068,-0.1025 -0.0068,-0.1536 0,-0.2794 0.060711,-0.5453 0.1673909,-0.7855 -0.1436364,-0.097 -0.315726,-0.1503 -0.5021792,-0.1503 z m 4.2975296,0.6251 c -0.037082,0 -0.072816,0 -0.1093203,0.012 0.015795,0.099 0.027318,0.1999 0.027318,0.3039 0,0.1616 -0.020575,0.3178 -0.058067,0.4679 0.4396441,0.2432 0.8047983,0.6072 1.0453583,1.0486 0.249519,-0.13 0.527859,-0.2126 0.823314,-0.2323 -0.07614,-0.8927 -0.815848,-1.595 -1.7285845,-1.595 z m -1.4142686,0.6488 c -1.3484546,0 -2.4391286,1.0906 -2.4391286,2.4388 0,1.3482 1.0905877,2.4387 2.4391286,2.4387 1.3485387,0 2.4391286,-1.0905 2.4391286,-2.4387 0,-1.3484 -1.0906762,-2.4388 -2.4391286,-2.4388 z m -2.6475346,0.012 c -1.0461795,0 -1.892539,0.8463 -1.892539,1.8922 0,0.6158 0.2934312,1.1609 0.7481326,1.5062 0.1916979,-0.3695 0.5767131,-0.6215 1.0214496,-0.6215 0.053741,0 0.1053348,0.012 0.1571455,0.014 -0.016259,-0.1183 -0.02392,-0.2393 -0.02392,-0.3621 0,-0.5867 0.1910441,-1.1293 0.5158168,-1.5676 -0.19442,-0.2433 -0.3335551,-0.5356 -0.3928579,-0.854 -0.043955,0 -0.088493,-0.012 -0.1332313,-0.012 z m 5.9302612,1.1272 c -0.317666,0 -0.61521,0.081 -0.877953,0.2184 0.149183,0.3306 0.2323,0.697 0.2323,1.0829 0,0.7223 -0.290459,1.3781 -0.7618146,1.8546 0.3462646,0.3842 0.8486466,0.625 1.4074496,0.625 1.046179,0 1.892539,-0.8462 1.892539,-1.8921 0,-1.046 -0.846403,-1.8888 -1.892539,-1.8888 z m -8.0074279,0.2493 c -0.9633164,-4e-4 -1.7452861,0.7745 -1.7452861,1.7382 0,0.9633 0.7819697,1.7452 1.7456745,1.7452 0.3667998,0 0.7065727,-0.1139 0.9872684,-0.3074 -0.1159859,-0.1801 -0.1844724,-0.3956 -0.1844724,-0.6251 0,-0.1191 0.017576,-0.2335 0.051238,-0.3415 -0.5254838,-0.3797 -0.867722,-0.9974 -0.867722,-1.6941 0,-0.177 0.023326,-0.3481 0.064908,-0.5123 -0.017263,-4e-4 -0.033857,0 -0.051249,0 z m 10.2451389,1.496 c -0.05141,0 -0.101159,0.012 -0.150308,0.014 0.0028,0.044 0.0035,0.085 0.0035,0.1299 0,0.5553 -0.21925,1.0597 -0.573908,1.4344 0.174484,0.2028 0.43078,0.3313 0.720815,0.3313 0.528289,0 0.956541,-0.4247 0.956541,-0.953 0,-0.5282 -0.42823,-0.9563 -0.956541,-0.9563 z m -8.2909711,0.1025 c -0.5282469,0 -0.9530882,0.4247 -0.9530882,0.9528 0,0.5282 0.424837,0.9564 0.9530882,0.9564 0.4049245,0 0.7486085,-0.2526 0.8881795,-0.6079 -0.3405681,-0.3468 -0.5853444,-0.7893 -0.6934962,-1.2807 -0.063289,-0.013 -0.1275217,-0.021 -0.1947221,-0.021 z"
       id="path4145-6" />
  </g>
</svg>
