<?xml version="1.0" encoding="UTF-8" standalone="no"?>
<!-- Created with Inkscape (http://www.inkscape.org/) -->

<svg
   xmlns:dc="http://purl.org/dc/elements/1.1/"
   xmlns:cc="http://creativecommons.org/ns#"
   xmlns:rdf="http://www.w3.org/1999/02/22-rdf-syntax-ns#"
   xmlns:svg="http://www.w3.org/2000/svg"
   xmlns="http://www.w3.org/2000/svg"
   xmlns:sodipodi="http://sodipodi.sourceforge.net/DTD/sodipodi-0.dtd"
   xmlns:inkscape="http://www.inkscape.org/namespaces/inkscape"
   width="24"
   height="24"
   id="svg3760"
   version="1.1"
   inkscape:version="0.91 r13725"
   sodipodi:docname="kmouth-phresebook-new.svg">
  <defs
     id="defs3762" />
  <sodipodi:namedview
     id="base"
     pagecolor="#ffffff"
     bordercolor="#666666"
     borderopacity="1.0"
     inkscape:pageopacity="0.0"
     inkscape:pageshadow="2"
     inkscape:zoom="23.704737"
     inkscape:cx="22.418462"
     inkscape:cy="12.562256"
     inkscape:document-units="px"
     inkscape:current-layer="layer1"
     showgrid="true"
     fit-margin-top="0"
     fit-margin-left="0"
     fit-margin-right="0"
     fit-margin-bottom="0"
     inkscape:window-width="1366"
     inkscape:window-height="702"
     inkscape:window-x="0"
     inkscape:window-y="0"
     inkscape:window-maximized="1"
     inkscape:showpageshadow="false"
     showguides="true"
     inkscape:snap-bbox="true"
     inkscape:object-nodes="true">
    <inkscape:grid
       type="xygrid"
       id="grid4106"
       originx="1.8863594e-05px"
       originy="-1.7016406e-05px" />
    <sodipodi:guide
       position="3.0000144,20.999978"
       orientation="0,18"
       id="guide4229" />
    <sodipodi:guide
       position="21.000014,20.999978"
       orientation="18,0"
       id="guide4231" />
    <sodipodi:guide
       position="21.000014,2.9999782"
       orientation="0,-18"
       id="guide4233" />
    <sodipodi:guide
       position="3.0000144,2.9999782"
       orientation="-18,0"
       id="guide4235" />
    <sodipodi:guide
       position="20.000014,3.9999782"
       orientation="0,-16"
       id="guide4241" />
    <sodipodi:guide
       position="4,20"
       orientation="6,0"
       id="guide4155" />
    <sodipodi:guide
       position="20,14"
       orientation="-6,0"
       id="guide4167" />
    <sodipodi:guide
       position="20,20"
       orientation="0,-6"
       id="guide4169" />
  </sodipodi:namedview>
  <metadata
     id="metadata3765">
    <rdf:RDF>
      <cc:Work
         rdf:about="">
        <dc:format>image/svg+xml</dc:format>
        <dc:type
           rdf:resource="http://purl.org/dc/dcmitype/StillImage" />
        <dc:title />
      </cc:Work>
    </rdf:RDF>
  </metadata>
  <g
     inkscape:label="Capa 1"
     inkscape:groupmode="layer"
     id="layer1"
     transform="translate(-550.28571,-606.64789)">
    <path
       style="fill:#4d4d4d;fill-opacity:1;stroke:none;stroke-opacity:1"
       d="m 567.48573,623.24791 0,1.6 -1.6,0 0,0.8 1.6,0 0,1.6 0.8,0 0,-1.6 1.6,0 0,-0.8 -1.6,0 0,-1.6 -0.8,0 z"
       id="path4147"
       inkscape:connector-curvature="0" />
    <g
       transform="translate(-17.520581,0.43994868)"
       id="layer1-5"
       inkscape:label="Capa 1"
       style="fill:#ffffff;fill-opacity:1;stroke-width:1.5;stroke-miterlimit:4;stroke-dasharray:none;stroke:#4d4d4d;stroke-opacity:1">
      <g
         inkscape:label="Capa 1"
         id="layer1-8"
         transform="matrix(1.5487774,0,0,1.5487774,24.395438,-228.26756)"
         style="fill:#ffffff;fill-opacity:1;stroke-width:0.96850587;stroke-miterlimit:4;stroke-dasharray:none;stroke:#4d4d4d;stroke-opacity:1">
        <g
           transform="matrix(0.30924083,0,0,0.30924083,99.690447,488.51198)"
           id="layer1-9"
           inkscape:label="Layer 1"
           style="fill:#ffffff;fill-opacity:1;stroke:#4d4d4d;stroke-opacity:1;stroke-width:3.13188225;stroke-miterlimit:4;stroke-dasharray:none">
          <path
             style="fill:#ffffff;fill-opacity:1;stroke:#4d4d4d;stroke-width:3.13188225;stroke-miterlimit:4;stroke-dasharray:none;stroke-opacity:1"
             sodipodi:nodetypes="ssssccscccs"
             inkscape:connector-curvature="0"
             id="path7"
             d="m 816.30404,186.52841 c 0,-6.44215 6.24974,-11.68314 13.93135,-11.68314 7.68184,0 13.93152,5.24104 13.93152,11.68314 0,6.44211 -6.24968,11.68316 -13.93152,11.68316 -0.64587,0 -1.294,-0.0374 -1.93119,-0.11124 -2.95879,1.87962 -5.143,2.90842 -6.49676,3.05881 -0.0471,0.005 -0.0945,0.008 -0.1409,0.008 -0.43483,0 -0.83731,-0.2167 -1.07697,-0.58007 -0.2679,-0.40649 -0.28537,-0.92218 -0.0467,-1.34322 0.0111,-0.0201 1.05582,-1.92615 0.75442,-3.74688 -3.1784,-2.22425 -4.9932,-5.47472 -4.9932,-8.96831 z" />
        </g>
      </g>
    </g>
    <g
       transform="matrix(-1,0,0,1,1141.4916,-2.5600511)"
       id="layer1-5-4"
       inkscape:label="Capa 1"
       style="fill:#ffffff;fill-opacity:1;stroke-width:1.5;stroke-miterlimit:4;stroke-dasharray:none;stroke:#4d4d4d;stroke-opacity:1">
      <g
         inkscape:label="Capa 1"
         id="layer1-8-5"
         transform="matrix(1.5487774,0,0,1.5487774,24.395438,-228.26756)"
         style="fill:#ffffff;fill-opacity:1;stroke-width:0.96850587;stroke-miterlimit:4;stroke-dasharray:none;stroke:#4d4d4d;stroke-opacity:1">
        <g
           transform="matrix(0.30924083,0,0,0.30924083,99.690447,488.51198)"
           id="layer1-9-9"
           inkscape:label="Layer 1"
           style="fill:#ffffff;fill-opacity:1;stroke:#4d4d4d;stroke-opacity:1;stroke-width:3.13188225;stroke-miterlimit:4;stroke-dasharray:none">
          <path
             style="fill:#ffffff;fill-opacity:1;stroke:#4d4d4d;stroke-width:3.13188225;stroke-miterlimit:4;stroke-dasharray:none;stroke-opacity:1"
             sodipodi:nodetypes="ssssccscccs"
             inkscape:connector-curvature="0"
             id="path7-0"
             d="m 816.30404,186.52841 c 0,-6.44215 6.24974,-11.68314 13.93135,-11.68314 7.68184,0 13.93152,5.24104 13.93152,11.68314 0,6.44211 -6.24968,11.68316 -13.93152,11.68316 -0.64587,0 -1.294,-0.0374 -1.93119,-0.11124 -2.95879,1.87962 -5.143,2.90842 -6.49676,3.05881 -0.0471,0.005 -0.0945,0.008 -0.1409,0.008 -0.43483,0 -0.83731,-0.2167 -1.07697,-0.58007 -0.2679,-0.40649 -0.28537,-0.92218 -0.0467,-1.34322 0.0111,-0.0201 1.05582,-1.92615 0.75442,-3.74688 -3.1784,-2.22425 -4.9932,-5.47472 -4.9932,-8.96831 z" />
        </g>
      </g>
    </g>
  </g>
</svg>
