<?xml version="1.0" encoding="UTF-8" standalone="no"?>
<!-- Created with Inkscape (http://www.inkscape.org/) -->

<svg
   xmlns:dc="http://purl.org/dc/elements/1.1/"
   xmlns:cc="http://creativecommons.org/ns#"
   xmlns:rdf="http://www.w3.org/1999/02/22-rdf-syntax-ns#"
   xmlns:svg="http://www.w3.org/2000/svg"
   xmlns="http://www.w3.org/2000/svg"
   xmlns:sodipodi="http://sodipodi.sourceforge.net/DTD/sodipodi-0.dtd"
   xmlns:inkscape="http://www.inkscape.org/namespaces/inkscape"
   width="22"
   height="22"
   id="svg2"
   version="1.1"
   inkscape:version="0.91 r13725"
   viewBox="0 0 22 22"
   sodipodi:docname="kt-magnet.svg">
  <defs
     id="defs4" />
  <sodipodi:namedview
     id="base"
     pagecolor="#ffffff"
     bordercolor="#666666"
     borderopacity="1.0"
     inkscape:pageopacity="0.0"
     inkscape:pageshadow="2"
     inkscape:zoom="15.839192"
     inkscape:cx="0.22053262"
     inkscape:cy="17.221244"
     inkscape:document-units="px"
     inkscape:current-layer="layer1"
     showgrid="true"
     inkscape:showpageshadow="false"
     borderlayer="true"
     inkscape:window-width="1366"
     inkscape:window-height="702"
     inkscape:window-x="0"
     inkscape:window-y="0"
     inkscape:window-maximized="1"
     units="px"
     inkscape:snap-bbox="true"
     inkscape:object-nodes="true">
    <sodipodi:guide
       position="2,20.000017"
       orientation="18,0"
       id="guide4085" />
    <sodipodi:guide
       position="2,2.0000174"
       orientation="0,18"
       id="guide4087" />
    <sodipodi:guide
       position="20,2.0000174"
       orientation="-18,0"
       id="guide4089" />
    <sodipodi:guide
       position="20,20.000017"
       orientation="0,-18"
       id="guide4091" />
    <sodipodi:guide
       position="3,19.000017"
       orientation="16,0"
       id="guide4093" />
    <sodipodi:guide
       position="3,3.0000174"
       orientation="0,16"
       id="guide4095" />
    <sodipodi:guide
       position="19,3.0000174"
       orientation="-16,0"
       id="guide4097" />
    <sodipodi:guide
       position="19,19.000017"
       orientation="0,-16"
       id="guide4099" />
    <inkscape:grid
       type="xygrid"
       id="grid4101" />
  </sodipodi:namedview>
  <metadata
     id="metadata7">
    <rdf:RDF>
      <cc:Work
         rdf:about="">
        <dc:format>image/svg+xml</dc:format>
        <dc:type
           rdf:resource="http://purl.org/dc/dcmitype/StillImage" />
        <dc:title />
      </cc:Work>
    </rdf:RDF>
  </metadata>
  <g
     inkscape:label="Capa 1"
     inkscape:groupmode="layer"
     id="layer1"
     transform="translate(0,-1030.3622)">
    <g
       id="g3"
       transform="matrix(0.02804637,0,0,0.02804637,1.9520541,1033.2457)"
       style="fill:#4d4d4d;fill-opacity:1">
      <g
         id="g5"
         style="fill:#4d4d4d;fill-opacity:1">
        <path
           d="m 73.02,538.981 c 24.914,24.914 54.26,43.899 87.221,56.427 28.997,11.022 59.574,16.592 91.009,16.592 2.676,0 5.359,-0.04 8.047,-0.121 33.813,-1.017 66.894,-8.39 98.324,-21.916 32.29,-13.895 61.423,-33.701 86.59,-58.869 l 93.818,-93.818 -54.452,-54.452 -38.765,-38.765 -15.687,-15.688 -93.819,93.819 c -44.462,44.461 -113.269,48 -153.383,7.887 C 141.81,389.963 145.347,321.156 189.81,276.694 L 283.628,182.876 229.176,128.424 174.724,73.971 80.907,167.79 c -25.167,25.167 -44.973,54.3 -58.869,86.59 -13.527,31.43 -20.9,64.511 -21.917,98.324 -1.03,34.263 4.511,67.59 16.471,99.056 12.528,32.962 31.513,62.307 56.428,87.221 z"
           id="path7"
           inkscape:connector-curvature="0"
           style="fill:#4d4d4d;fill-opacity:1" />
        <path
           d="M 241.325,6.499 197.857,49.967 307.632,159.742 351.1,116.274 c 8.665,-8.665 8.665,-22.714 0,-31.379 L 272.704,6.499 c -8.665,-8.665 -22.714,-8.665 -31.379,0 z"
           id="path9"
           inkscape:connector-curvature="0"
           style="fill:#4d4d4d;fill-opacity:1" />
        <path
           d="m 495.726,260.9 -43.468,43.468 109.776,109.775 43.468,-43.468 c 8.665,-8.665 8.665,-22.714 0,-31.379 L 527.105,260.9 c -8.666,-8.665 -22.715,-8.665 -31.379,0 z"
           id="path11"
           inkscape:connector-curvature="0"
           style="fill:#4d4d4d;fill-opacity:1" />
      </g>
    </g>
  </g>
</svg>
