<?xml version="1.0" encoding="UTF-8" standalone="no"?>
<!-- Created with Inkscape (http://www.inkscape.org/) -->

<svg
   xmlns:dc="http://purl.org/dc/elements/1.1/"
   xmlns:cc="http://creativecommons.org/ns#"
   xmlns:rdf="http://www.w3.org/1999/02/22-rdf-syntax-ns#"
   xmlns:svg="http://www.w3.org/2000/svg"
   xmlns="http://www.w3.org/2000/svg"
   xmlns:sodipodi="http://sodipodi.sourceforge.net/DTD/sodipodi-0.dtd"
   xmlns:inkscape="http://www.inkscape.org/namespaces/inkscape"
   width="22"
   height="22"
   id="svg3813"
   version="1.1"
   inkscape:version="0.91 r13725"
   sodipodi:docname="call-start.svg">
  <defs
     id="defs3815" />
  <sodipodi:namedview
     id="base"
     pagecolor="#ffffff"
     bordercolor="#666666"
     borderopacity="1.0"
     inkscape:pageopacity="0.0"
     inkscape:pageshadow="2"
     inkscape:zoom="23.069359"
     inkscape:cx="-6.0144159"
     inkscape:cy="10.871914"
     inkscape:document-units="px"
     inkscape:current-layer="layer1"
     showgrid="true"
     fit-margin-top="0"
     fit-margin-left="0"
     fit-margin-right="0"
     fit-margin-bottom="0"
     inkscape:window-width="1366"
     inkscape:window-height="702"
     inkscape:window-x="0"
     inkscape:window-y="0"
     inkscape:window-maximized="1"
     inkscape:showpageshadow="false"
     showguides="true">
    <inkscape:grid
       type="xygrid"
       id="grid4109" />
    <sodipodi:guide
       position="2.0000072,19.999993"
       orientation="18,0"
       id="guide4115" />
    <sodipodi:guide
       position="2.0000072,1.9999929"
       orientation="0,18"
       id="guide4117" />
    <sodipodi:guide
       position="20.000007,1.9999929"
       orientation="-18,0"
       id="guide4119" />
    <sodipodi:guide
       position="20.000007,19.999993"
       orientation="0,-18"
       id="guide4121" />
    <sodipodi:guide
       position="3.0000072,18.999993"
       orientation="16,0"
       id="guide4123" />
    <sodipodi:guide
       position="3.0000072,2.9999929"
       orientation="0,16"
       id="guide4125" />
    <sodipodi:guide
       position="19.000007,2.9999929"
       orientation="-16,0"
       id="guide4127" />
    <sodipodi:guide
       position="19.000007,18.999993"
       orientation="0,-16"
       id="guide4129" />
    <sodipodi:guide
       position="10.000007,2.9999929"
       orientation="0,1"
       id="guide4112" />
    <sodipodi:guide
       position="11.000007,2.9999929"
       orientation="-8,0"
       id="guide4114" />
    <sodipodi:guide
       position="11.000007,10.999993"
       orientation="0,-1"
       id="guide4116" />
    <sodipodi:guide
       position="7.0000072,18.999993"
       orientation="16,0"
       id="guide4183" />
    <sodipodi:guide
       position="7.0000072,2.9999929"
       orientation="0,8"
       id="guide4185" />
    <sodipodi:guide
       position="15.000007,2.9999929"
       orientation="-16,0"
       id="guide4187" />
    <sodipodi:guide
       position="15.000007,18.999993"
       orientation="0,-8"
       id="guide4189" />
  </sodipodi:namedview>
  <metadata
     id="metadata3818">
    <rdf:RDF>
      <cc:Work
         rdf:about="">
        <dc:format>image/svg+xml</dc:format>
        <dc:type
           rdf:resource="http://purl.org/dc/dcmitype/StillImage" />
        <dc:title />
      </cc:Work>
    </rdf:RDF>
  </metadata>
  <g
     inkscape:label="Capa 1"
     inkscape:groupmode="layer"
     id="layer1"
     transform="translate(-378.85714,-540.07647)">
    <g
       id="g7"
       style="fill:#4d4d4d;fill-opacity:1"
       transform="matrix(0.04309396,0,0,0.04309396,382.20184,543.65936)">
      <path
         d="M 340.273,275.083 286.518,221.322 C 275.811,210.658 258.08,210.982 247,222.066 l -27.082,27.076 c -1.711,-0.943 -3.482,-1.928 -5.344,-2.973 -17.102,-9.476 -40.509,-22.464 -65.14,-47.113 -24.704,-24.701 -37.704,-48.144 -47.209,-65.257 -1.003,-1.813 -1.964,-3.561 -2.913,-5.221 l 18.176,-18.149 8.936,-8.947 c 11.097,-11.1 11.403,-28.826 0.721,-39.521 L 73.39,8.194 C 62.708,-2.486 44.969,-2.162 33.872,8.938 l -15.15,15.237 0.414,0.411 C 14.056,31.068 9.811,38.544 6.652,46.606 3.74,54.28 1.927,61.603 1.098,68.941 -6,127.785 20.89,181.564 93.866,254.541 c 100.875,100.868 182.167,93.248 185.674,92.876 7.638,-0.913 14.958,-2.738 22.397,-5.627 7.992,-3.122 15.463,-7.361 21.941,-12.43 l 0.331,0.294 15.348,-15.029 c 11.074,-11.098 11.393,-28.83 0.716,-39.542 z"
         id="path9"
         style="fill:#4d4d4d;fill-opacity:1"
         inkscape:connector-curvature="0" />
    </g>
  </g>
</svg>
