<?xml version="1.0" encoding="UTF-8" standalone="no"?>
<!-- Created with Inkscape (http://www.inkscape.org/) -->

<svg
   xmlns:dc="http://purl.org/dc/elements/1.1/"
   xmlns:cc="http://creativecommons.org/ns#"
   xmlns:rdf="http://www.w3.org/1999/02/22-rdf-syntax-ns#"
   xmlns:svg="http://www.w3.org/2000/svg"
   xmlns="http://www.w3.org/2000/svg"
   xmlns:sodipodi="http://sodipodi.sourceforge.net/DTD/sodipodi-0.dtd"
   xmlns:inkscape="http://www.inkscape.org/namespaces/inkscape"
   width="22"
   height="22"
   id="svg2"
   version="1.1"
   inkscape:version="0.91 r13725"
   viewBox="0 0 22 22"
   sodipodi:docname="document-edit-sign-encrypt.svg">
  <defs
     id="defs4" />
  <sodipodi:namedview
     id="base"
     pagecolor="#ffffff"
     bordercolor="#666666"
     borderopacity="1.0"
     inkscape:pageopacity="0.0"
     inkscape:pageshadow="2"
     inkscape:zoom="23.738301"
     inkscape:cx="44.884145"
     inkscape:cy="10.886122"
     inkscape:document-units="px"
     inkscape:current-layer="layer1"
     showgrid="true"
     inkscape:showpageshadow="false"
     borderlayer="true"
     inkscape:window-width="1366"
     inkscape:window-height="702"
     inkscape:window-x="0"
     inkscape:window-y="0"
     inkscape:window-maximized="1"
     units="px">
    <sodipodi:guide
       position="2,20.000017"
       orientation="18,0"
       id="guide4085" />
    <sodipodi:guide
       position="2,2.0000174"
       orientation="0,18"
       id="guide4087" />
    <sodipodi:guide
       position="20,2.0000174"
       orientation="-18,0"
       id="guide4089" />
    <sodipodi:guide
       position="20,20.000017"
       orientation="0,-18"
       id="guide4091" />
    <sodipodi:guide
       position="3,19.000017"
       orientation="16,0"
       id="guide4093" />
    <sodipodi:guide
       position="3,3.0000174"
       orientation="0,16"
       id="guide4095" />
    <sodipodi:guide
       position="19,3.0000174"
       orientation="-16,0"
       id="guide4097" />
    <sodipodi:guide
       position="19,19.000017"
       orientation="0,-16"
       id="guide4099" />
    <inkscape:grid
       type="xygrid"
       id="grid4101" />
    <sodipodi:guide
       position="3,19.000017"
       orientation="16,0"
       id="guide4123" />
    <sodipodi:guide
       position="3,3.0000174"
       orientation="0,2.000001"
       id="guide4125" />
    <sodipodi:guide
       position="4,19.000017"
       orientation="-16,0"
       id="guide4127" />
    <sodipodi:guide
       position="5.000001,19.000017"
       orientation="0,-2.000001"
       id="guide4129" />
    <sodipodi:guide
       position="18,19.000017"
       orientation="16,0"
       id="guide4131" />
    <sodipodi:guide
       position="17,3.0000174"
       orientation="0,2"
       id="guide4133" />
    <sodipodi:guide
       position="19,3.0000174"
       orientation="-16,0"
       id="guide4135" />
    <sodipodi:guide
       position="19,19.000017"
       orientation="0,-2"
       id="guide4137" />
  </sodipodi:namedview>
  <metadata
     id="metadata7">
    <rdf:RDF>
      <cc:Work
         rdf:about="">
        <dc:format>image/svg+xml</dc:format>
        <dc:type
           rdf:resource="http://purl.org/dc/dcmitype/StillImage" />
        <dc:title />
      </cc:Work>
    </rdf:RDF>
  </metadata>
  <g
     inkscape:label="Capa 1"
     inkscape:groupmode="layer"
     id="layer1"
     transform="translate(0,-1030.3622)">
    <path
       style="fill:#4d4d4d;fill-opacity:1;stroke:none"
       d="m 4,3 0,1 0,7 0,2 2,0 0,-2 -1,0 0,-7 12,0 0,7 1,0 0,-8 -13,0 z m 4,8 0,2 2,0 0,-2 z m -2,3 0,2 2,0 0,-2 z m -2,3 0,2 1,0 1,0 0,-2 z m 4,0 0,2 2,0 0,-2 z"
       transform="translate(0,1030.3622)"
       id="path3339"
       inkscape:connector-curvature="0"
       sodipodi:nodetypes="ccccccccccccccccccccccccccccccccccc" />
    <path
       d="m 17.14085,1044.5351 0,-1.0307 c 0,-1.3986 -1.137935,-2.5367 -2.536665,-2.5367 -1.39873,0 -2.536664,1.1381 -2.536664,2.5367 l 0,1.0307 c -0.199904,0.042 -0.350521,0.2195 -0.350521,0.4318 l 0,3.8619 c 0,0.2433 0.197939,0.4412 0.441239,0.4412 l 4.89187,0 c 0.2433,0 0.44124,-0.1979 0.44124,-0.4412 l 0,-3.8619 c 0,-0.2123 -0.150596,-0.3899 -0.350499,-0.4318 z m -4.770883,4.2558 c -0.153307,0 -0.277604,-0.1236 -0.277604,-0.2775 0,-0.1534 0.124281,-0.2777 0.277604,-0.2777 0.153332,0 0.277608,0.1236 0.277608,0.2777 0,0.1532 -0.124296,0.2775 -0.277608,0.2775 z m 0,-3.231 c -0.153307,0 -0.277604,-0.1236 -0.277604,-0.2777 0,-0.1534 0.124281,-0.2775 0.277604,-0.2775 0.153332,0 0.277608,0.1237 0.277608,0.2775 0,0.1534 -0.124296,0.2777 -0.277608,0.2777 z m 2.826847,2.2672 c 0.0089,0.048 -0.02333,0.087 -0.07188,0.087 l -1.029786,0 c -0.04853,0 -0.08088,-0.04 -0.07188,-0.087 l 0.163965,-0.869 c -0.124118,-0.1126 -0.202022,-0.2761 -0.202022,-0.4574 0,-0.3418 0.277121,-0.619 0.618971,-0.619 0.341851,0 0.618971,0.2772 0.618971,0.619 0,0.1764 -0.07382,0.3352 -0.192093,0.448 l 0.165751,0.8784 z m 1.061558,-3.3015 -3.308371,0 0,-1.021 c 0,-0.9122 0.742054,-1.6543 1.654184,-1.6543 0.912131,0 1.654187,0.7421 1.654187,1.6543 l 0,1.021 z m 0.580031,4.2653 c -0.15331,0 -0.277606,-0.1236 -0.277606,-0.2775 0,-0.1534 0.124281,-0.2777 0.277606,-0.2777 0.15333,0 0.277606,0.1236 0.277606,0.2777 0,0.1532 -0.124296,0.2775 -0.277606,0.2775 z m 0,-3.231 c -0.15331,0 -0.277606,-0.1236 -0.277606,-0.2777 0,-0.1534 0.124281,-0.2775 0.277606,-0.2775 0.15333,0 0.277606,0.1237 0.277606,0.2775 0,0.1534 -0.124296,0.2777 -0.277606,0.2777 z"
       id="path3"
       inkscape:connector-curvature="0"
       style="fill:#4d4d4d;fill-opacity:1" />
  </g>
</svg>
