<?xml version="1.0" encoding="UTF-8" standalone="no"?>
<!-- Created with Inkscape (http://www.inkscape.org/) -->

<svg
   xmlns:dc="http://purl.org/dc/elements/1.1/"
   xmlns:cc="http://creativecommons.org/ns#"
   xmlns:rdf="http://www.w3.org/1999/02/22-rdf-syntax-ns#"
   xmlns:svg="http://www.w3.org/2000/svg"
   xmlns="http://www.w3.org/2000/svg"
   xmlns:sodipodi="http://sodipodi.sourceforge.net/DTD/sodipodi-0.dtd"
   xmlns:inkscape="http://www.inkscape.org/namespaces/inkscape"
   width="22"
   height="22"
   id="svg2"
   version="1.1"
   inkscape:version="0.91 r13725"
   viewBox="0 0 22 22"
   sodipodi:docname="edit-bomb.svg">
  <defs
     id="defs4" />
  <sodipodi:namedview
     id="base"
     pagecolor="#ffffff"
     bordercolor="#666666"
     borderopacity="1.0"
     inkscape:pageopacity="0.0"
     inkscape:pageshadow="2"
     inkscape:zoom="11.534679"
     inkscape:cx="-4.0315302"
     inkscape:cy="10.86538"
     inkscape:document-units="px"
     inkscape:current-layer="layer1"
     showgrid="true"
     units="px"
     borderlayer="true"
     inkscape:showpageshadow="false"
     inkscape:window-width="1366"
     inkscape:window-height="702"
     inkscape:window-x="0"
     inkscape:window-y="0"
     inkscape:window-maximized="1"
     showguides="true"
     inkscape:guide-bbox="true">
    <sodipodi:guide
       position="2,20.000017"
       orientation="18,0"
       id="guide4066" />
    <sodipodi:guide
       position="2,2.0000174"
       orientation="0,18"
       id="guide4068" />
    <sodipodi:guide
       position="20,2.0000174"
       orientation="-18,0"
       id="guide4070" />
    <sodipodi:guide
       position="20,20.000017"
       orientation="0,-18"
       id="guide4072" />
    <sodipodi:guide
       position="3,19.000017"
       orientation="16,0"
       id="guide4074" />
    <sodipodi:guide
       position="3,3.0000174"
       orientation="0,16"
       id="guide4076" />
    <sodipodi:guide
       position="19,3.0000174"
       orientation="-16,0"
       id="guide4078" />
    <sodipodi:guide
       position="19,19.000017"
       orientation="0,-16"
       id="guide4080" />
    <inkscape:grid
       type="xygrid"
       id="grid4101" />
    <sodipodi:guide
       position="8,19.000017"
       orientation="0,-5"
       id="guide4124" />
    <sodipodi:guide
       position="11,3.0000174"
       orientation="0,4"
       id="guide4241" />
    <sodipodi:guide
       position="14,2.0000174"
       orientation="0,1"
       id="guide4167" />
  </sodipodi:namedview>
  <metadata
     id="metadata7">
    <rdf:RDF>
      <cc:Work
         rdf:about="">
        <dc:format>image/svg+xml</dc:format>
        <dc:type
           rdf:resource="http://purl.org/dc/dcmitype/StillImage" />
        <dc:title />
      </cc:Work>
    </rdf:RDF>
  </metadata>
  <g
     inkscape:label="Capa 1"
     inkscape:groupmode="layer"
     id="layer1"
     transform="translate(0,-1030.3622)">
    <g
       id="g4196"
       transform="matrix(0.20549806,0,0,0.20549806,1.8809754,1030.7915)"
       style="fill:#4d4d4d;fill-opacity:1">
      <g
         id="g4146"
         style="fill:#4d4d4d;fill-opacity:1">
        <g
           id="g4148"
           style="fill:#4d4d4d;fill-opacity:1">
          <path
             id="path4150"
             d="m 76.17,21.449 c -7.803,-1.021 -7.188,6.1 -8.719,11.448 -0.799,2.797 -4.264,1.256 -6.268,1.079 -1.664,-0.148 -3.312,-0.009 -4.754,0.725 C 50.451,29.637 42.725,26.576 34.281,26.576 15.349,26.576 0,41.924 0,60.857 c 0,18.934 15.35,34.281 34.281,34.281 18.931,0 34.281,-15.349 34.281,-34.281 0,-8.524 -3.119,-16.315 -8.269,-22.312 0.779,-0.081 1.688,-0.041 2.783,0.168 2.683,0.511 5.267,0.126 7.142,-1.957 1.469,-1.632 1.817,-3.988 2.088,-6.077 0.375,-2.903 0.309,-5.336 3.862,-4.872 2.783,0.364 2.748,-3.999 0.002,-4.358 z M 22.98,47.736 c -4.586,3.271 -7.322,8.581 -7.322,14.204 0,2.209 -1.791,4 -4,4 -2.209,0 -4,-1.791 -4,-4 0,-8.202 3.99,-15.947 10.676,-20.717 1.795,-1.282 4.295,-0.868 5.578,0.933 1.283,1.799 0.867,4.297 -0.932,5.58 z"
             inkscape:connector-curvature="0"
             style="fill:#4d4d4d;fill-opacity:1" />
          <path
             id="path4152"
             d="m 61.131,15.369 c 0.504,1.093 1.801,1.57 2.893,1.066 1.091,-0.502 1.568,-1.799 1.066,-2.892 L 60.436,3.453 C 59.932,2.36 58.637,1.883 57.542,2.387 57.186,2.552 56.893,2.804 56.678,3.106 56.243,3.721 56.141,4.544 56.479,5.277 l 4.652,10.092 z"
             inkscape:connector-curvature="0"
             style="fill:#4d4d4d;fill-opacity:1" />
          <path
             id="path4154"
             d="m 75.166,16.482 c 1.088,0.513 2.385,0.046 2.9,-1.042 L 82.805,5.39 C 83.319,4.301 82.854,3.002 81.764,2.49 80.792,2.032 79.655,2.353 79.055,3.2 78.985,3.303 78.919,3.413 78.864,3.531 l -4.74,10.051 c -0.513,1.088 -0.048,2.387 1.042,2.9 z"
             inkscape:connector-curvature="0"
             style="fill:#4d4d4d;fill-opacity:1" />
          <path
             id="path4156"
             d="m 97.252,21.11 c -0.307,-1.165 -1.498,-1.859 -2.66,-1.553 l -10.748,2.829 c -0.516,0.136 -0.938,0.446 -1.223,0.85 -0.361,0.507 -0.5,1.166 -0.33,1.813 0.307,1.164 1.498,1.858 2.664,1.552 L 95.699,23.77 c 1.164,-0.304 1.86,-1.497 1.553,-2.66 z"
             inkscape:connector-curvature="0"
             style="fill:#4d4d4d;fill-opacity:1" />
          <path
             id="path4158"
             d="m 92.422,41.906 -9.074,-6.413 c -0.983,-0.694 -2.344,-0.461 -3.037,0.521 -0.694,0.983 -0.461,2.343 0.523,3.037 l 9.074,6.413 c 0.982,0.695 2.342,0.461 3.037,-0.521 0.694,-0.984 0.461,-2.343 -0.523,-3.037 z"
             inkscape:connector-curvature="0"
             style="fill:#4d4d4d;fill-opacity:1" />
        </g>
      </g>
      <g
         id="g4160"
         style="fill:#4d4d4d;fill-opacity:1" />
      <g
         id="g4162"
         style="fill:#4d4d4d;fill-opacity:1" />
      <g
         id="g4164"
         style="fill:#4d4d4d;fill-opacity:1" />
      <g
         id="g4166"
         style="fill:#4d4d4d;fill-opacity:1" />
      <g
         id="g4168"
         style="fill:#4d4d4d;fill-opacity:1" />
      <g
         id="g4170"
         style="fill:#4d4d4d;fill-opacity:1" />
      <g
         id="g4172"
         style="fill:#4d4d4d;fill-opacity:1" />
      <g
         id="g4174"
         style="fill:#4d4d4d;fill-opacity:1" />
      <g
         id="g4176"
         style="fill:#4d4d4d;fill-opacity:1" />
      <g
         id="g4178"
         style="fill:#4d4d4d;fill-opacity:1" />
      <g
         id="g4180"
         style="fill:#4d4d4d;fill-opacity:1" />
      <g
         id="g4182"
         style="fill:#4d4d4d;fill-opacity:1" />
      <g
         id="g4184"
         style="fill:#4d4d4d;fill-opacity:1" />
      <g
         id="g4186"
         style="fill:#4d4d4d;fill-opacity:1" />
      <g
         id="g4188"
         style="fill:#4d4d4d;fill-opacity:1" />
    </g>
  </g>
</svg>
