<?xml version="1.0" encoding="UTF-8" standalone="no"?>
<!-- Created with Inkscape (http://www.inkscape.org/) -->

<svg
   xmlns:sketch="http://www.bohemiancoding.com/sketch/ns"
   xmlns:dc="http://purl.org/dc/elements/1.1/"
   xmlns:cc="http://creativecommons.org/ns#"
   xmlns:rdf="http://www.w3.org/1999/02/22-rdf-syntax-ns#"
   xmlns:svg="http://www.w3.org/2000/svg"
   xmlns="http://www.w3.org/2000/svg"
   xmlns:sodipodi="http://sodipodi.sourceforge.net/DTD/sodipodi-0.dtd"
   xmlns:inkscape="http://www.inkscape.org/namespaces/inkscape"
   width="22"
   height="22"
   id="svg952"
   version="1.1"
   inkscape:version="0.91 r13725"
   sodipodi:docname="edit-find-replace.svg">
  <defs
     id="defs954" />
  <sodipodi:namedview
     id="base"
     pagecolor="#ffffff"
     bordercolor="#666666"
     borderopacity="1.0"
     inkscape:pageopacity="0.0"
     inkscape:pageshadow="2"
     inkscape:zoom="19.71"
     inkscape:cx="-4.5386462"
     inkscape:cy="9.3444362"
     inkscape:document-units="px"
     inkscape:current-layer="layer1"
     showgrid="true"
     inkscape:window-width="1366"
     inkscape:window-height="702"
     inkscape:window-x="0"
     inkscape:window-y="0"
     inkscape:window-maximized="1"
     showguides="true"
     inkscape:guide-bbox="true"
     inkscape:showpageshadow="false"
     borderlayer="true">
    <inkscape:grid
       type="xygrid"
       id="grid4063" />
    <sodipodi:guide
       position="2,20.000017"
       orientation="18,0"
       id="guide4077" />
    <sodipodi:guide
       position="2,2.0000174"
       orientation="0,18"
       id="guide4079" />
    <sodipodi:guide
       position="20,2.0000174"
       orientation="-18,0"
       id="guide4081" />
    <sodipodi:guide
       position="20,20.000017"
       orientation="0,-18"
       id="guide4083" />
    <sodipodi:guide
       position="3,19.000017"
       orientation="16,0"
       id="guide4085" />
    <sodipodi:guide
       position="3,3.0000174"
       orientation="0,16"
       id="guide4087" />
    <sodipodi:guide
       position="19,3.0000174"
       orientation="-16,0"
       id="guide4089" />
    <sodipodi:guide
       position="19,19.000017"
       orientation="0,-16"
       id="guide4091" />
    <sodipodi:guide
       position="3,19.000017"
       orientation="12,0"
       id="guide4099" />
    <sodipodi:guide
       position="3,7.0000174"
       orientation="0,12.000017"
       id="guide4101" />
    <sodipodi:guide
       position="15.000017,7.0000174"
       orientation="-12,0"
       id="guide4103" />
    <sodipodi:guide
       position="15.000017,19.000017"
       orientation="0,-12.000017"
       id="guide4105" />
    <sodipodi:guide
       position="14,9.0000174"
       orientation="6,0"
       id="guide4114" />
    <sodipodi:guide
       position="14,3.0000174"
       orientation="0,6"
       id="guide4116" />
    <sodipodi:guide
       position="20,3.0000174"
       orientation="-6,0"
       id="guide4118" />
    <sodipodi:guide
       position="20,9.0000174"
       orientation="0,-6"
       id="guide4120" />
    <sodipodi:guide
       position="13.707315,8.9997763"
       orientation="0.70710678,-0.70710678"
       id="guide4138" />
    <sodipodi:guide
       position="13.000208,8.2926696"
       orientation="5.2926839,5.2926839"
       id="guide4140" />
    <sodipodi:guide
       position="18.292892,2.9999857"
       orientation="-0.70710678,0.70710678"
       id="guide4142" />
    <sodipodi:guide
       position="18.999999,3.7070925"
       orientation="-5.2926839,-5.2926839"
       id="guide4144" />
  </sodipodi:namedview>
  <metadata
     id="metadata957">
    <rdf:RDF>
      <cc:Work
         rdf:about="">
        <dc:format>image/svg+xml</dc:format>
        <dc:type
           rdf:resource="http://purl.org/dc/dcmitype/StillImage" />
        <dc:title />
      </cc:Work>
    </rdf:RDF>
  </metadata>
  <g
     inkscape:label="Capa 1"
     inkscape:groupmode="layer"
     id="layer1"
     transform="translate(0,-1030.3622)">
    <rect
       style="opacity:1;fill:#4d4d4d;fill-opacity:1;stroke:none"
       id="rect4121"
       width="1.9999826"
       height="1.9999826"
       x="3"
       y="1047.3622"
       ry="0.9999913" />
    <rect
       ry="0.9999913"
       y="1047.3622"
       x="7"
       height="1.9999826"
       width="1.9999826"
       id="rect4123"
       style="opacity:1;fill:#4d4d4d;fill-opacity:1;stroke:none" />
    <rect
       style="opacity:1;fill:#4d4d4d;fill-opacity:1;stroke:none"
       id="rect4125"
       width="1.9999826"
       height="1.9999826"
       x="11"
       y="1047.3622"
       ry="0.9999913" />
    <g
       id="search19"
       sketch:type="MSLayerGroup"
       transform="matrix(0.10046736,0,0,0.10046736,3.20958,1033.5569)"
       style="fill:#4d4d4d;fill-opacity:1">
      <path
         d="M 132.77,118.025 104.825,90.08 c 6.735,-9.722 10.104,-20.559 10.104,-32.508 0,-7.767 -1.508,-15.195 -4.523,-22.283 C 107.392,28.2 103.318,22.09 98.185,16.957 93.052,11.824 86.943,7.75 79.855,4.736 72.765,1.721 65.337,0.214 57.57,0.214 49.803,0.214 42.375,1.721 35.287,4.736 28.198,7.75 22.088,11.824 16.955,16.957 11.822,22.09 7.748,28.201 4.734,35.289 1.719,42.378 0.212,49.805 0.212,57.572 c 0,7.767 1.507,15.193 4.522,22.283 3.014,7.088 7.088,13.197 12.221,18.33 5.133,5.134 11.244,9.207 18.332,12.222 7.089,3.015 14.516,4.522 22.283,4.522 11.951,0 22.787,-3.369 32.509,-10.104 l 27.945,27.863 c 1.955,2.064 4.397,3.096 7.332,3.096 2.824,0 5.27,-1.032 7.332,-3.096 2.064,-2.063 3.096,-4.508 3.096,-7.332 0.001,-2.877 -1.003,-5.322 -3.014,-7.331 l 0,0 z M 83.357,83.357 C 76.214,90.5 67.619,94.071 57.57,94.071 47.522,94.071 38.927,90.499 31.784,83.357 24.641,76.214 21.07,67.62 21.07,57.571 c 0,-10.048 3.572,-18.644 10.714,-25.786 7.142,-7.143 15.738,-10.714 25.786,-10.714 10.048,0 18.643,3.572 25.787,10.714 7.143,7.142 10.715,15.738 10.715,25.786 0,10.049 -3.573,18.643 -10.715,25.786 l 0,0 z"
         id="path1074"
         sketch:type="MSShapeGroup"
         inkscape:connector-curvature="0"
         style="fill:#4d4d4d;fill-opacity:1" />
    </g>
  </g>
</svg>
