<?xml version="1.0" encoding="UTF-8" standalone="no"?>
<!-- Created with Inkscape (http://www.inkscape.org/) -->

<svg
   xmlns:dc="http://purl.org/dc/elements/1.1/"
   xmlns:cc="http://creativecommons.org/ns#"
   xmlns:rdf="http://www.w3.org/1999/02/22-rdf-syntax-ns#"
   xmlns:svg="http://www.w3.org/2000/svg"
   xmlns="http://www.w3.org/2000/svg"
   xmlns:sodipodi="http://sodipodi.sourceforge.net/DTD/sodipodi-0.dtd"
   xmlns:inkscape="http://www.inkscape.org/namespaces/inkscape"
   width="22"
   height="22"
   id="svg3760"
   version="1.1"
   inkscape:version="0.91 r13725"
   sodipodi:docname="games-highscores.svg">
  <defs
     id="defs3762" />
  <sodipodi:namedview
     id="base"
     pagecolor="#ffffff"
     bordercolor="#666666"
     borderopacity="1.0"
     inkscape:pageopacity="0.0"
     inkscape:pageshadow="2"
     inkscape:zoom="16"
     inkscape:cx="-0.1875"
     inkscape:cy="11.76155"
     inkscape:document-units="px"
     inkscape:current-layer="layer1"
     showgrid="true"
     fit-margin-top="0"
     fit-margin-left="0"
     fit-margin-right="0"
     fit-margin-bottom="0"
     inkscape:window-width="1366"
     inkscape:window-height="702"
     inkscape:window-x="0"
     inkscape:window-y="0"
     inkscape:window-maximized="1"
     inkscape:showpageshadow="false">
    <sodipodi:guide
       position="2,2"
       orientation="0,18"
       id="guide4125" />
    <sodipodi:guide
       position="20,2"
       orientation="-18,0"
       id="guide4127" />
    <sodipodi:guide
       position="20,20"
       orientation="0,-18"
       id="guide4129" />
    <sodipodi:guide
       position="3,19"
       orientation="16,0"
       id="guide4131" />
    <sodipodi:guide
       position="3,3"
       orientation="0,16"
       id="guide4133" />
    <sodipodi:guide
       position="19,3"
       orientation="-16,0"
       id="guide4135" />
    <sodipodi:guide
       position="19,19"
       orientation="0,-16"
       id="guide4137" />
    <inkscape:grid
       type="xygrid"
       id="grid4139"
       originx="-0.99998557"
       originy="-1.0000118" />
  </sodipodi:namedview>
  <metadata
     id="metadata3765">
    <rdf:RDF>
      <cc:Work
         rdf:about="">
        <dc:format>image/svg+xml</dc:format>
        <dc:type
           rdf:resource="http://purl.org/dc/dcmitype/StillImage" />
        <dc:title />
      </cc:Work>
    </rdf:RDF>
  </metadata>
  <g
     inkscape:label="Capa 1"
     inkscape:groupmode="layer"
     id="layer1"
     transform="translate(-551.28571,-607.64789)">
    <g
       id="g4219"
       transform="matrix(0.69593665,0,0,0.69593665,553.98433,610.59312)"
       style="fill:#4d4d4d;fill-opacity:1">
      <g
         id="g4143"
         style="fill:#4d4d4d;fill-opacity:1">
        <path
           id="path4145"
           d="m 14.58,15.181 c 0.438,-0.732 1.082,-1.107 1.936,-1.117 0.854,-0.01 1.285,-0.445 1.299,-1.301 0.012,-0.852 0.383,-1.496 1.115,-1.932 0.734,-0.438 0.893,-1.027 0.475,-1.773 -0.416,-0.744 -0.416,-1.488 0,-2.234 C 19.823,6.08 19.665,5.492 18.93,5.054 18.198,4.615 17.826,3.972 17.815,3.116 17.801,2.264 17.37,1.829 16.516,1.819 15.662,1.807 15.018,1.434 14.58,0.702 14.142,-0.032 13.553,-0.191 12.809,0.227 c -0.744,0.416 -1.49,0.416 -2.234,0 C 9.83,-0.19 9.241,-0.032 8.803,0.702 8.366,1.435 7.721,1.808 6.868,1.819 6.016,1.829 5.583,2.264 5.571,3.116 5.557,3.972 5.186,4.614 4.454,5.054 3.72,5.492 3.559,6.079 3.979,6.824 c 0.418,0.746 0.418,1.49 0,2.234 -0.42,0.746 -0.26,1.336 0.475,1.773 0.732,0.436 1.104,1.08 1.117,1.932 0.012,0.855 0.445,1.291 1.297,1.301 0.854,0.01 1.498,0.385 1.936,1.117 0.438,0.734 1.027,0.893 1.771,0.473 0.744,-0.412 1.49,-0.412 2.234,0 0.744,0.419 1.334,0.261 1.771,-0.473 z m -2.886,-2.567 c -2.582,0 -4.674,-2.092 -4.674,-4.674 0,-2.58 2.092,-4.672 4.674,-4.672 2.58,0 4.672,2.092 4.672,4.672 0,2.582 -2.092,4.674 -4.672,4.674 z"
           inkscape:connector-curvature="0"
           style="fill:#4d4d4d;fill-opacity:1" />
        <path
           id="path4147"
           d="m 6.793,14.749 c -0.898,0 -1.018,-0.418 -1.018,-0.418 l -3.507,6.893 2.812,-0.316 1.555,2.34 c 0,0 3.24,-6.76 3.24,-6.715 C 8.196,16.491 8.864,14.794 6.793,14.749 Z"
           inkscape:connector-curvature="0"
           style="fill:#4d4d4d;fill-opacity:1" />
        <path
           id="path4149"
           d="m 17.563,14.601 c -2.562,0.268 -2.041,0.904 -2.627,1.398 -0.674,0.719 -1.516,0.578 -1.516,0.578 l 3.955,6.805 0.973,-2.52 2.766,0.361 -3.551,-6.622 z"
           inkscape:connector-curvature="0"
           style="fill:#4d4d4d;fill-opacity:1" />
        <polygon
           id="polygon4151"
           points="11.692,9.925 13.651,10.954 13.278,8.772 14.86,7.229 12.67,6.909 11.692,4.929 10.713,6.909 8.524,7.229 10.106,8.772 9.733,10.954 "
           style="fill:#4d4d4d;fill-opacity:1" />
        <g
           id="g4153"
           style="fill:#4d4d4d;fill-opacity:1" />
        <g
           id="g4155"
           style="fill:#4d4d4d;fill-opacity:1" />
        <g
           id="g4157"
           style="fill:#4d4d4d;fill-opacity:1" />
        <g
           id="g4159"
           style="fill:#4d4d4d;fill-opacity:1" />
        <g
           id="g4161"
           style="fill:#4d4d4d;fill-opacity:1" />
        <g
           id="g4163"
           style="fill:#4d4d4d;fill-opacity:1" />
        <g
           id="g4165"
           style="fill:#4d4d4d;fill-opacity:1" />
        <g
           id="g4167"
           style="fill:#4d4d4d;fill-opacity:1" />
        <g
           id="g4169"
           style="fill:#4d4d4d;fill-opacity:1" />
        <g
           id="g4171"
           style="fill:#4d4d4d;fill-opacity:1" />
        <g
           id="g4173"
           style="fill:#4d4d4d;fill-opacity:1" />
        <g
           id="g4175"
           style="fill:#4d4d4d;fill-opacity:1" />
        <g
           id="g4177"
           style="fill:#4d4d4d;fill-opacity:1" />
        <g
           id="g4179"
           style="fill:#4d4d4d;fill-opacity:1" />
        <g
           id="g4181"
           style="fill:#4d4d4d;fill-opacity:1" />
      </g>
      <g
         id="g4183"
         style="fill:#4d4d4d;fill-opacity:1" />
      <g
         id="g4185"
         style="fill:#4d4d4d;fill-opacity:1" />
      <g
         id="g4187"
         style="fill:#4d4d4d;fill-opacity:1" />
      <g
         id="g4189"
         style="fill:#4d4d4d;fill-opacity:1" />
      <g
         id="g4191"
         style="fill:#4d4d4d;fill-opacity:1" />
      <g
         id="g4193"
         style="fill:#4d4d4d;fill-opacity:1" />
      <g
         id="g4195"
         style="fill:#4d4d4d;fill-opacity:1" />
      <g
         id="g4197"
         style="fill:#4d4d4d;fill-opacity:1" />
      <g
         id="g4199"
         style="fill:#4d4d4d;fill-opacity:1" />
      <g
         id="g4201"
         style="fill:#4d4d4d;fill-opacity:1" />
      <g
         id="g4203"
         style="fill:#4d4d4d;fill-opacity:1" />
      <g
         id="g4205"
         style="fill:#4d4d4d;fill-opacity:1" />
      <g
         id="g4207"
         style="fill:#4d4d4d;fill-opacity:1" />
      <g
         id="g4209"
         style="fill:#4d4d4d;fill-opacity:1" />
      <g
         id="g4211"
         style="fill:#4d4d4d;fill-opacity:1" />
    </g>
  </g>
</svg>
