<?xml version="1.0" encoding="UTF-8" standalone="no"?>
<!-- Created with Inkscape (http://www.inkscape.org/) -->

<svg
   xmlns:sketch="http://www.bohemiancoding.com/sketch/ns"
   xmlns:dc="http://purl.org/dc/elements/1.1/"
   xmlns:cc="http://creativecommons.org/ns#"
   xmlns:rdf="http://www.w3.org/1999/02/22-rdf-syntax-ns#"
   xmlns:svg="http://www.w3.org/2000/svg"
   xmlns="http://www.w3.org/2000/svg"
   xmlns:sodipodi="http://sodipodi.sourceforge.net/DTD/sodipodi-0.dtd"
   xmlns:inkscape="http://www.inkscape.org/namespaces/inkscape"
   width="22"
   height="22"
   id="svg3049"
   version="1.1"
   inkscape:version="0.91 r13725"
   sodipodi:docname="help-donate.svg"
   inkscape:export-filename="/home/uri/.kde/share/icons/NITRUX-KDE/16x16/actions/view-right-new.png"
   inkscape:export-xdpi="30"
   inkscape:export-ydpi="30">
  <defs
     id="defs3051" />
  <sodipodi:namedview
     id="base"
     pagecolor="#ffffff"
     bordercolor="#666666"
     borderopacity="1.0"
     inkscape:pageopacity="0.0"
     inkscape:pageshadow="2"
     inkscape:zoom="16.503906"
     inkscape:cx="-6.3355362"
     inkscape:cy="16.141185"
     inkscape:document-units="px"
     inkscape:current-layer="layer1"
     showgrid="true"
     fit-margin-top="0"
     fit-margin-left="0"
     fit-margin-right="0"
     fit-margin-bottom="0"
     inkscape:window-width="1366"
     inkscape:window-height="702"
     inkscape:window-x="0"
     inkscape:window-y="0"
     inkscape:window-maximized="1"
     inkscape:showpageshadow="false"
     borderlayer="true">
    <sodipodi:guide
       position="2.0000044,20.00003"
       orientation="18,0"
       id="guide4067" />
    <sodipodi:guide
       position="2.0000044,2.0000296"
       orientation="0,18"
       id="guide4069" />
    <sodipodi:guide
       position="20.000004,2.0000296"
       orientation="-18,0"
       id="guide4071" />
    <sodipodi:guide
       position="20.000004,20.00003"
       orientation="0,-18"
       id="guide4073" />
    <sodipodi:guide
       position="3.0000044,19.00003"
       orientation="16,0"
       id="guide4077" />
    <sodipodi:guide
       position="3.0000044,3.0000296"
       orientation="0,16"
       id="guide4079" />
    <sodipodi:guide
       position="19.000004,3.0000296"
       orientation="-16,0"
       id="guide4081" />
    <sodipodi:guide
       position="19.000004,19.00003"
       orientation="0,-16"
       id="guide4083" />
    <inkscape:grid
       type="xygrid"
       id="grid4085" />
  </sodipodi:namedview>
  <metadata
     id="metadata3054">
    <rdf:RDF>
      <cc:Work
         rdf:about="">
        <dc:format>image/svg+xml</dc:format>
        <dc:type
           rdf:resource="http://purl.org/dc/dcmitype/StillImage" />
        <dc:title />
      </cc:Work>
    </rdf:RDF>
  </metadata>
  <g
     inkscape:label="Capa 1"
     inkscape:groupmode="layer"
     id="layer1"
     transform="translate(-421.71429,-525.79074)">
    <path
       style="opacity:1;fill:#4d4d4d;fill-opacity:1;stroke:none;stroke-width:2.79999995;stroke-miterlimit:4;stroke-dasharray:none;stroke-opacity:1"
       d="m 432.66429,534.09074 c -1.5235,0 -2.75,1.2265 -2.75,2.75 0,1.5235 1.2265,2.75 2.75,2.75 1.5235,0 2.75,-1.2265 2.75,-2.75 0,-1.5235 -1.2265,-2.75 -2.75,-2.75 z m 0,0.91665 c 1.01565,0 1.83335,0.8177 1.83335,1.83335 0,1.01565 -0.8177,1.83335 -1.83335,1.83335 -1.01565,0 -1.83335,-0.8177 -1.83335,-1.83335 0,-1.01565 0.8177,-1.83335 1.83335,-1.83335 z"
       id="rect4144"
       inkscape:connector-curvature="0"
       sodipodi:nodetypes="ssssssssss" />
    <g
       id="money10"
       sketch:type="MSLayerGroup"
       transform="matrix(0.10441104,0,0,0.08833627,433.14258,529.0825)"
       style="fill:#4d4d4d;fill-opacity:1">
      <g
         id="g876"
         sketch:type="MSShapeGroup"
         style="fill:#4d4d4d;fill-opacity:1">
        <path
           d="m 73.421332,33.069373 c -1.031,-1.106666 -2.254,-1.659999 -3.666,-1.659999 l -146,0 c -1.412,0 -2.635,0.553333 -3.667,1.659999 -1.031,1.106667 -1.548,2.41708 -1.548,3.93124 l 0,100.646587 c 0,1.51416 0.517,2.82565 1.548,3.93124 1.032,1.10667 2.255,1.66107 3.667,1.66107 l 146,0 c 1.412,0 2.635,-0.5544 3.666,-1.66107 1.032,-1.10559 1.549,-2.41708 1.549,-3.93124 l 0,-100.646587 c 0,-1.51416 -0.517,-2.823501 -1.549,-3.93124 l 0,0 z m -8.881,76.621637 c -5.758,0 -10.672,2.18438 -14.747,6.55099 -4.074,4.36769 -6.11,9.63937 -6.11,15.81289 l -93.857,0 c 0,-6.17352 -2.037,-11.4452 -6.11,-15.81289 -4.074,-4.36876 -8.989,-6.55099 -14.747,-6.55099 l 0,-44.733132 c 5.758,0 10.673,-2.18438 14.747,-6.552066 4.073,-4.367685 6.11,-9.639363 6.11,-15.813961 l 93.859,0 c 0,6.174598 2.035,11.446276 6.109,15.813961 4.074,4.367686 8.988,6.552066 14.746,6.552066 l 0,44.733132 0,0 z"
           id="path878"
           inkscape:connector-curvature="0"
           style="fill:#4d4d4d;fill-opacity:1" />
      </g>
    </g>
    <circle
       style="opacity:1;fill:#4d4d4d;fill-opacity:1;stroke:none;stroke-width:0.40000001;stroke-linecap:round;stroke-linejoin:round;stroke-miterlimit:4;stroke-dasharray:none;stroke-opacity:1"
       id="path4146"
       cx="432.75348"
       cy="536.92719"
       r="2.5" />
  </g>
</svg>
