<?xml version="1.0" encoding="UTF-8" standalone="no"?>
<!-- Created with Inkscape (http://www.inkscape.org/) -->

<svg
   xmlns:sketch="http://www.bohemiancoding.com/sketch/ns"
   xmlns:dc="http://purl.org/dc/elements/1.1/"
   xmlns:cc="http://creativecommons.org/ns#"
   xmlns:rdf="http://www.w3.org/1999/02/22-rdf-syntax-ns#"
   xmlns:svg="http://www.w3.org/2000/svg"
   xmlns="http://www.w3.org/2000/svg"
   xmlns:xlink="http://www.w3.org/1999/xlink"
   xmlns:sodipodi="http://sodipodi.sourceforge.net/DTD/sodipodi-0.dtd"
   xmlns:inkscape="http://www.inkscape.org/namespaces/inkscape"
   width="22"
   height="22"
   id="svg3760"
   version="1.1"
   inkscape:version="0.91 r13725"
   sodipodi:docname="text-speak.svg">
  <defs
     id="defs3762">
    <linearGradient
       id="linearGradient5263">
      <stop
         id="stop5265"
         style="stop-color:#a0d5ff;stop-opacity:1"
         offset="0" />
      <stop
         id="stop5267"
         style="stop-color:#a0d5ff;stop-opacity:1"
         offset="1" />
    </linearGradient>
    <clipPath
       id="clipPath4458">
      <path
         inkscape:connector-curvature="0"
         id="use4460"
         d="m 69.626,12.145 -0.052,0 c -22.727,-0.292 -46.472,4.077 -46.709,4.122 -2.424,0.451 -4.946,2.974 -5.397,5.397 -0.044,0.237 -4.414,23.983 -4.122,46.71 -0.292,22.777 4.078,46.523 4.122,46.761 0.451,2.423 2.974,4.945 5.398,5.398 0.237,0.044 23.982,4.413 46.709,4.121 22.779,0.292 46.524,-4.077 46.761,-4.121 2.423,-0.452 4.946,-2.976 5.398,-5.399 0.044,-0.236 4.413,-23.981 4.121,-46.709 0.292,-22.777 -4.077,-46.523 -4.121,-46.761 -0.453,-2.423 -2.976,-4.946 -5.398,-5.397 -0.238,-0.045 -23.984,-4.414 -46.71,-4.122 z" />
    </clipPath>
    <linearGradient
       id="linearGradient4237">
      <stop
         id="stop4239"
         style="stop-color:#ff594d;stop-opacity:1"
         offset="0" />
      <stop
         id="stop4241"
         style="stop-color:#ff7f76;stop-opacity:1"
         offset="1" />
    </linearGradient>
    <linearGradient
       id="linearGradient4210">
      <stop
         offset="0"
         style="stop-color:#ff584c;stop-opacity:1"
         id="stop4212" />
      <stop
         offset="1"
         style="stop-color:#ff8077;stop-opacity:1"
         id="stop4214" />
    </linearGradient>
    <linearGradient
       id="linearGradient4179">
      <stop
         id="stop4181"
         style="stop-color:#ffee5e;stop-opacity:1"
         offset="0" />
      <stop
         id="stop4183"
         style="stop-color:#feff8b;stop-opacity:1"
         offset="1" />
    </linearGradient>
    <linearGradient
       id="linearGradient4210-3">
      <stop
         id="stop4212-1"
         style="stop-color:#ffce69;stop-opacity:1"
         offset="0" />
      <stop
         id="stop4214-6"
         style="stop-color:#ffce54;stop-opacity:1"
         offset="1" />
    </linearGradient>
    <linearGradient
       id="linearGradient4237-0">
      <stop
         offset="0"
         style="stop-color:#ffee5e;stop-opacity:1"
         id="stop4239-8" />
      <stop
         offset="1"
         style="stop-color:#feff9f;stop-opacity:1"
         id="stop4241-9" />
    </linearGradient>
    <linearGradient
       id="linearGradient4237-2">
      <stop
         offset="0"
         style="stop-color:#ffa0a6;stop-opacity:1"
         id="stop4239-7" />
      <stop
         offset="1"
         style="stop-color:#ffa0a5;stop-opacity:1"
         id="stop4241-2" />
    </linearGradient>
    <linearGradient
       id="linearGradient8311">
      <stop
         id="stop8313"
         style="stop-color:#ce89ff;stop-opacity:1"
         offset="0" />
      <stop
         id="stop8315"
         style="stop-color:#e898ff;stop-opacity:1"
         offset="1" />
    </linearGradient>
    <linearGradient
       id="linearGradient4237-8">
      <stop
         offset="0"
         style="stop-color:#cf8aff;stop-opacity:1"
         id="stop4239-2" />
      <stop
         offset="1"
         style="stop-color:#eaa0ff;stop-opacity:1"
         id="stop4241-3" />
    </linearGradient>
    <linearGradient
       id="linearGradient8311-3">
      <stop
         id="stop8313-0"
         style="stop-color:#ffcc6b;stop-opacity:1"
         offset="0" />
      <stop
         id="stop8315-1"
         style="stop-color:#ffcf98;stop-opacity:1"
         offset="1" />
    </linearGradient>
    <linearGradient
       id="linearGradient4237-3">
      <stop
         offset="0"
         style="stop-color:#ffcc6e;stop-opacity:1"
         id="stop4239-0" />
      <stop
         offset="1"
         style="stop-color:#ffe4a0;stop-opacity:1"
         id="stop4241-7" />
    </linearGradient>
    <linearGradient
       id="linearGradient8311-31">
      <stop
         id="stop8313-2"
         style="stop-color:#f089ff;stop-opacity:1"
         offset="0" />
      <stop
         id="stop8315-6"
         style="stop-color:#ffadea;stop-opacity:1"
         offset="1" />
    </linearGradient>
    <linearGradient
       id="linearGradient4237-6">
      <stop
         offset="0"
         style="stop-color:#f18bfe;stop-opacity:1"
         id="stop4239-22" />
      <stop
         offset="1"
         style="stop-color:#fcc3ff;stop-opacity:1"
         id="stop4241-0" />
    </linearGradient>
    <linearGradient
       id="linearGradient8467">
      <stop
         offset="0"
         style="stop-color:#b9b9b9;stop-opacity:1"
         id="stop8469" />
      <stop
         offset="1"
         style="stop-color:#d1d1d1;stop-opacity:1"
         id="stop8471" />
    </linearGradient>
    <linearGradient
       id="linearGradient8311-5">
      <stop
         id="stop8313-7"
         style="stop-color:#b9b9b9;stop-opacity:1"
         offset="0" />
      <stop
         id="stop8315-3"
         style="stop-color:#d2d2d2;stop-opacity:1"
         offset="1" />
    </linearGradient>
    <linearGradient
       id="linearGradient4237-4">
      <stop
         offset="0"
         style="stop-color:#bababa;stop-opacity:1"
         id="stop4239-9" />
      <stop
         offset="1"
         style="stop-color:#c8c8c8;stop-opacity:1"
         id="stop4241-37" />
    </linearGradient>
    <linearGradient
       id="linearGradient8467-7">
      <stop
         offset="0"
         style="stop-color:#3ec896;stop-opacity:1"
         id="stop8469-4" />
      <stop
         offset="1"
         style="stop-color:#66d9af;stop-opacity:1"
         id="stop8471-7" />
    </linearGradient>
    <linearGradient
       id="linearGradient8311-1">
      <stop
         id="stop8313-9"
         style="stop-color:#494949;stop-opacity:1"
         offset="0" />
      <stop
         id="stop8315-5"
         style="stop-color:#616774;stop-opacity:1"
         offset="1" />
    </linearGradient>
    <linearGradient
       gradientUnits="userSpaceOnUse"
       gradientTransform="scale(1.1288018,0.8858951)"
       x1="209.95714"
       y1="0"
       x2="209.95714"
       y2="116.69431"
       id="linearGradient-1">
      <stop
         stop-color="#A7A7A7"
         offset="0%"
         id="stop4884" />
      <stop
         stop-color="#8D8D8D"
         offset="100%"
         id="stop4886" />
    </linearGradient>
    <linearGradient
       gradientUnits="userSpaceOnUse"
       gradientTransform="scale(1.2279807,0.81434507)"
       x1="192.9998"
       y1="411.58424"
       x2="192.9998"
       y2="105.40025"
       id="linearGradient-2">
      <stop
         stop-color="#707070"
         offset="0%"
         id="stop4889" />
      <stop
         stop-color="#ABABAB"
         offset="100%"
         id="stop4891" />
    </linearGradient>
    <linearGradient
       gradientUnits="userSpaceOnUse"
       gradientTransform="scale(1.2279807,0.81434507)"
       x1="192.99978"
       y1="70.608888"
       x2="192.99978"
       y2="457.4228"
       id="linearGradient-3">
      <stop
         stop-color="#000000"
         stop-opacity="0"
         offset="0%"
         id="stop4894" />
      <stop
         stop-color="#000000"
         stop-opacity="0.19"
         offset="100%"
         id="stop4896" />
    </linearGradient>
    <linearGradient
       id="linearGradient4232">
      <stop
         id="stop4234"
         offset="0"
         style="stop-color:#333333;stop-opacity:1" />
      <stop
         id="stop4236"
         offset="1"
         style="stop-color:#353535;stop-opacity:1" />
    </linearGradient>
    <linearGradient
       id="linearGradient4172">
      <stop
         style="stop-color:#3dc796;stop-opacity:1"
         offset="0"
         id="stop4174" />
      <stop
         style="stop-color:#57d68d;stop-opacity:1"
         offset="1"
         id="stop4176" />
    </linearGradient>
    <linearGradient
       id="linearGradient4233">
      <stop
         id="stop4235"
         offset="0"
         style="stop-color:#212121;stop-opacity:1" />
      <stop
         id="stop4237"
         offset="1"
         style="stop-color:#1d2022;stop-opacity:0" />
    </linearGradient>
    <linearGradient
       id="linearGradient8467-6">
      <stop
         offset="0"
         style="stop-color:#56d8d1;stop-opacity:1"
         id="stop8469-5" />
      <stop
         offset="1"
         style="stop-color:#9df7ee;stop-opacity:1"
         id="stop8471-8" />
    </linearGradient>
    <linearGradient
       id="linearGradient8311-10">
      <stop
         id="stop8313-3"
         style="stop-color:#55d8d1;stop-opacity:1"
         offset="0" />
      <stop
         id="stop8315-8"
         style="stop-color:#66efe7;stop-opacity:1"
         offset="1" />
    </linearGradient>
    <linearGradient
       id="linearGradient8467-8">
      <stop
         offset="0"
         style="stop-color:#dea679;stop-opacity:1"
         id="stop8469-9" />
      <stop
         offset="1"
         style="stop-color:#f7d19d;stop-opacity:1"
         id="stop8471-2" />
    </linearGradient>
    <linearGradient
       id="linearGradient8311-0">
      <stop
         id="stop8313-90"
         style="stop-color:#dda579;stop-opacity:1"
         offset="0" />
      <stop
         id="stop8315-88"
         style="stop-color:#f3bc87;stop-opacity:1"
         offset="1" />
    </linearGradient>
    <linearGradient
       id="linearGradient8467-2">
      <stop
         offset="0"
         style="stop-color:#5fa4d5;stop-opacity:1"
         id="stop8469-6" />
      <stop
         offset="1"
         style="stop-color:#9dc9f7;stop-opacity:1"
         id="stop8471-5" />
    </linearGradient>
    <linearGradient
       id="linearGradient8311-06">
      <stop
         id="stop8313-6"
         style="stop-color:#5fa3d4;stop-opacity:1"
         offset="0" />
      <stop
         id="stop8315-2"
         style="stop-color:#6bb9ff;stop-opacity:1"
         offset="1" />
    </linearGradient>
    <clipPath
       id="clipPath4458-7">
      <path
         d="m 69.626,12.145 -0.052,0 c -22.727,-0.292 -46.472,4.077 -46.709,4.122 -2.424,0.451 -4.946,2.974 -5.397,5.397 -0.044,0.237 -4.414,23.983 -4.122,46.71 -0.292,22.777 4.078,46.523 4.122,46.761 0.451,2.423 2.974,4.945 5.398,5.398 0.237,0.044 23.982,4.413 46.709,4.121 22.779,0.292 46.524,-4.077 46.761,-4.121 2.423,-0.452 4.946,-2.976 5.398,-5.399 0.044,-0.236 4.413,-23.981 4.121,-46.709 0.292,-22.777 -4.077,-46.523 -4.121,-46.761 -0.453,-2.423 -2.976,-4.946 -5.398,-5.397 -0.238,-0.045 -23.984,-4.414 -46.71,-4.122 z"
         id="use4460-2"
         inkscape:connector-curvature="0" />
    </clipPath>
    <clipPath
       id="clipPath4458-9">
      <path
         inkscape:connector-curvature="0"
         id="use4460-27"
         d="m 69.626,12.145 -0.052,0 c -22.727,-0.292 -46.472,4.077 -46.709,4.122 -2.424,0.451 -4.946,2.974 -5.397,5.397 -0.044,0.237 -4.414,23.983 -4.122,46.71 -0.292,22.777 4.078,46.523 4.122,46.761 0.451,2.423 2.974,4.945 5.398,5.398 0.237,0.044 23.982,4.413 46.709,4.121 22.779,0.292 46.524,-4.077 46.761,-4.121 2.423,-0.452 4.946,-2.976 5.398,-5.399 0.044,-0.236 4.413,-23.981 4.121,-46.709 0.292,-22.777 -4.077,-46.523 -4.121,-46.761 -0.453,-2.423 -2.976,-4.946 -5.398,-5.397 -0.238,-0.045 -23.984,-4.414 -46.71,-4.122 z" />
    </clipPath>
    <clipPath
       id="clipPath4458-5">
      <path
         inkscape:connector-curvature="0"
         id="use4460-5"
         d="m 69.626,12.145 -0.052,0 c -22.727,-0.292 -46.472,4.077 -46.709,4.122 -2.424,0.451 -4.946,2.974 -5.397,5.397 -0.044,0.237 -4.414,23.983 -4.122,46.71 -0.292,22.777 4.078,46.523 4.122,46.761 0.451,2.423 2.974,4.945 5.398,5.398 0.237,0.044 23.982,4.413 46.709,4.121 22.779,0.292 46.524,-4.077 46.761,-4.121 2.423,-0.452 4.946,-2.976 5.398,-5.399 0.044,-0.236 4.413,-23.981 4.121,-46.709 0.292,-22.777 -4.077,-46.523 -4.121,-46.761 -0.453,-2.423 -2.976,-4.946 -5.398,-5.397 -0.238,-0.045 -23.984,-4.414 -46.71,-4.122 z" />
    </clipPath>
    <clipPath
       id="clipPath4458-2">
      <path
         d="m 69.626,12.145 -0.052,0 c -22.727,-0.292 -46.472,4.077 -46.709,4.122 -2.424,0.451 -4.946,2.974 -5.397,5.397 -0.044,0.237 -4.414,23.983 -4.122,46.71 -0.292,22.777 4.078,46.523 4.122,46.761 0.451,2.423 2.974,4.945 5.398,5.398 0.237,0.044 23.982,4.413 46.709,4.121 22.779,0.292 46.524,-4.077 46.761,-4.121 2.423,-0.452 4.946,-2.976 5.398,-5.399 0.044,-0.236 4.413,-23.981 4.121,-46.709 0.292,-22.777 -4.077,-46.523 -4.121,-46.761 -0.453,-2.423 -2.976,-4.946 -5.398,-5.397 -0.238,-0.045 -23.984,-4.414 -46.71,-4.122 z"
         id="use4460-4"
         inkscape:connector-curvature="0" />
    </clipPath>
    <clipPath
       id="clipPath4458-7-6">
      <path
         inkscape:connector-curvature="0"
         id="use4460-2-9"
         d="m 69.626,12.145 -0.052,0 c -22.727,-0.292 -46.472,4.077 -46.709,4.122 -2.424,0.451 -4.946,2.974 -5.397,5.397 -0.044,0.237 -4.414,23.983 -4.122,46.71 -0.292,22.777 4.078,46.523 4.122,46.761 0.451,2.423 2.974,4.945 5.398,5.398 0.237,0.044 23.982,4.413 46.709,4.121 22.779,0.292 46.524,-4.077 46.761,-4.121 2.423,-0.452 4.946,-2.976 5.398,-5.399 0.044,-0.236 4.413,-23.981 4.121,-46.709 0.292,-22.777 -4.077,-46.523 -4.121,-46.761 -0.453,-2.423 -2.976,-4.946 -5.398,-5.397 -0.238,-0.045 -23.984,-4.414 -46.71,-4.122 z" />
    </clipPath>
    <clipPath
       id="clipPath4458-9-1">
      <path
         d="m 69.626,12.145 -0.052,0 c -22.727,-0.292 -46.472,4.077 -46.709,4.122 -2.424,0.451 -4.946,2.974 -5.397,5.397 -0.044,0.237 -4.414,23.983 -4.122,46.71 -0.292,22.777 4.078,46.523 4.122,46.761 0.451,2.423 2.974,4.945 5.398,5.398 0.237,0.044 23.982,4.413 46.709,4.121 22.779,0.292 46.524,-4.077 46.761,-4.121 2.423,-0.452 4.946,-2.976 5.398,-5.399 0.044,-0.236 4.413,-23.981 4.121,-46.709 0.292,-22.777 -4.077,-46.523 -4.121,-46.761 -0.453,-2.423 -2.976,-4.946 -5.398,-5.397 -0.238,-0.045 -23.984,-4.414 -46.71,-4.122 z"
         id="use4460-27-5"
         inkscape:connector-curvature="0" />
    </clipPath>
    <clipPath
       id="clipPath4458-0">
      <path
         inkscape:connector-curvature="0"
         id="use4460-56"
         d="m 69.626,12.145 -0.052,0 c -22.727,-0.292 -46.472,4.077 -46.709,4.122 -2.424,0.451 -4.946,2.974 -5.397,5.397 -0.044,0.237 -4.414,23.983 -4.122,46.71 -0.292,22.777 4.078,46.523 4.122,46.761 0.451,2.423 2.974,4.945 5.398,5.398 0.237,0.044 23.982,4.413 46.709,4.121 22.779,0.292 46.524,-4.077 46.761,-4.121 2.423,-0.452 4.946,-2.976 5.398,-5.399 0.044,-0.236 4.413,-23.981 4.121,-46.709 0.292,-22.777 -4.077,-46.523 -4.121,-46.761 -0.453,-2.423 -2.976,-4.946 -5.398,-5.397 -0.238,-0.045 -23.984,-4.414 -46.71,-4.122 z" />
    </clipPath>
    <clipPath
       id="clipPath4458-7-3">
      <path
         d="m 69.626,12.145 -0.052,0 c -22.727,-0.292 -46.472,4.077 -46.709,4.122 -2.424,0.451 -4.946,2.974 -5.397,5.397 -0.044,0.237 -4.414,23.983 -4.122,46.71 -0.292,22.777 4.078,46.523 4.122,46.761 0.451,2.423 2.974,4.945 5.398,5.398 0.237,0.044 23.982,4.413 46.709,4.121 22.779,0.292 46.524,-4.077 46.761,-4.121 2.423,-0.452 4.946,-2.976 5.398,-5.399 0.044,-0.236 4.413,-23.981 4.121,-46.709 0.292,-22.777 -4.077,-46.523 -4.121,-46.761 -0.453,-2.423 -2.976,-4.946 -5.398,-5.397 -0.238,-0.045 -23.984,-4.414 -46.71,-4.122 z"
         id="use4460-2-4"
         inkscape:connector-curvature="0" />
    </clipPath>
    <clipPath
       id="clipPath4458-9-5">
      <path
         inkscape:connector-curvature="0"
         id="use4460-27-3"
         d="m 69.626,12.145 -0.052,0 c -22.727,-0.292 -46.472,4.077 -46.709,4.122 -2.424,0.451 -4.946,2.974 -5.397,5.397 -0.044,0.237 -4.414,23.983 -4.122,46.71 -0.292,22.777 4.078,46.523 4.122,46.761 0.451,2.423 2.974,4.945 5.398,5.398 0.237,0.044 23.982,4.413 46.709,4.121 22.779,0.292 46.524,-4.077 46.761,-4.121 2.423,-0.452 4.946,-2.976 5.398,-5.399 0.044,-0.236 4.413,-23.981 4.121,-46.709 0.292,-22.777 -4.077,-46.523 -4.121,-46.761 -0.453,-2.423 -2.976,-4.946 -5.398,-5.397 -0.238,-0.045 -23.984,-4.414 -46.71,-4.122 z" />
    </clipPath>
    <clipPath
       id="clipPath4458-5-5">
      <path
         inkscape:connector-curvature="0"
         id="use4460-5-3"
         d="m 69.626,12.145 -0.052,0 c -22.727,-0.292 -46.472,4.077 -46.709,4.122 -2.424,0.451 -4.946,2.974 -5.397,5.397 -0.044,0.237 -4.414,23.983 -4.122,46.71 -0.292,22.777 4.078,46.523 4.122,46.761 0.451,2.423 2.974,4.945 5.398,5.398 0.237,0.044 23.982,4.413 46.709,4.121 22.779,0.292 46.524,-4.077 46.761,-4.121 2.423,-0.452 4.946,-2.976 5.398,-5.399 0.044,-0.236 4.413,-23.981 4.121,-46.709 0.292,-22.777 -4.077,-46.523 -4.121,-46.761 -0.453,-2.423 -2.976,-4.946 -5.398,-5.397 -0.238,-0.045 -23.984,-4.414 -46.71,-4.122 z" />
    </clipPath>
    <linearGradient
       inkscape:collect="always"
       id="linearGradient5146">
      <stop
         style="stop-color:#d5dbff;stop-opacity:1"
         offset="0"
         id="stop5148" />
      <stop
         style="stop-color:#ebedff;stop-opacity:1"
         offset="1"
         id="stop5150" />
    </linearGradient>
    <linearGradient
       inkscape:collect="always"
       xlink:href="#linearGradient5146"
       id="linearGradient5152"
       x1="767.85718"
       y1="200.93361"
       x2="767.85718"
       y2="174.93361"
       gradientUnits="userSpaceOnUse" />
    <clipPath
       id="clipPath4458-4">
      <path
         d="m 69.626,12.145 -0.052,0 c -22.727,-0.292 -46.472,4.077 -46.709,4.122 -2.424,0.451 -4.946,2.974 -5.397,5.397 -0.044,0.237 -4.414,23.983 -4.122,46.71 -0.292,22.777 4.078,46.523 4.122,46.761 0.451,2.423 2.974,4.945 5.398,5.398 0.237,0.044 23.982,4.413 46.709,4.121 22.779,0.292 46.524,-4.077 46.761,-4.121 2.423,-0.452 4.946,-2.976 5.398,-5.399 0.044,-0.236 4.413,-23.981 4.121,-46.709 0.292,-22.777 -4.077,-46.523 -4.121,-46.761 -0.453,-2.423 -2.976,-4.946 -5.398,-5.397 -0.238,-0.045 -23.984,-4.414 -46.71,-4.122 z"
         id="use4460-6"
         inkscape:connector-curvature="0" />
    </clipPath>
    <clipPath
       id="clipPath4458-7-8">
      <path
         inkscape:connector-curvature="0"
         id="use4460-2-6"
         d="m 69.626,12.145 -0.052,0 c -22.727,-0.292 -46.472,4.077 -46.709,4.122 -2.424,0.451 -4.946,2.974 -5.397,5.397 -0.044,0.237 -4.414,23.983 -4.122,46.71 -0.292,22.777 4.078,46.523 4.122,46.761 0.451,2.423 2.974,4.945 5.398,5.398 0.237,0.044 23.982,4.413 46.709,4.121 22.779,0.292 46.524,-4.077 46.761,-4.121 2.423,-0.452 4.946,-2.976 5.398,-5.399 0.044,-0.236 4.413,-23.981 4.121,-46.709 0.292,-22.777 -4.077,-46.523 -4.121,-46.761 -0.453,-2.423 -2.976,-4.946 -5.398,-5.397 -0.238,-0.045 -23.984,-4.414 -46.71,-4.122 z" />
    </clipPath>
    <clipPath
       id="clipPath4458-9-56">
      <path
         d="m 69.626,12.145 -0.052,0 c -22.727,-0.292 -46.472,4.077 -46.709,4.122 -2.424,0.451 -4.946,2.974 -5.397,5.397 -0.044,0.237 -4.414,23.983 -4.122,46.71 -0.292,22.777 4.078,46.523 4.122,46.761 0.451,2.423 2.974,4.945 5.398,5.398 0.237,0.044 23.982,4.413 46.709,4.121 22.779,0.292 46.524,-4.077 46.761,-4.121 2.423,-0.452 4.946,-2.976 5.398,-5.399 0.044,-0.236 4.413,-23.981 4.121,-46.709 0.292,-22.777 -4.077,-46.523 -4.121,-46.761 -0.453,-2.423 -2.976,-4.946 -5.398,-5.397 -0.238,-0.045 -23.984,-4.414 -46.71,-4.122 z"
         id="use4460-27-7"
         inkscape:connector-curvature="0" />
    </clipPath>
    <clipPath
       id="clipPath4458-5-1">
      <path
         d="m 69.626,12.145 -0.052,0 c -22.727,-0.292 -46.472,4.077 -46.709,4.122 -2.424,0.451 -4.946,2.974 -5.397,5.397 -0.044,0.237 -4.414,23.983 -4.122,46.71 -0.292,22.777 4.078,46.523 4.122,46.761 0.451,2.423 2.974,4.945 5.398,5.398 0.237,0.044 23.982,4.413 46.709,4.121 22.779,0.292 46.524,-4.077 46.761,-4.121 2.423,-0.452 4.946,-2.976 5.398,-5.399 0.044,-0.236 4.413,-23.981 4.121,-46.709 0.292,-22.777 -4.077,-46.523 -4.121,-46.761 -0.453,-2.423 -2.976,-4.946 -5.398,-5.397 -0.238,-0.045 -23.984,-4.414 -46.71,-4.122 z"
         id="use4460-5-7"
         inkscape:connector-curvature="0" />
    </clipPath>
    <clipPath
       id="clipPath4458-2-4">
      <path
         inkscape:connector-curvature="0"
         id="use4460-4-5"
         d="m 69.626,12.145 -0.052,0 c -22.727,-0.292 -46.472,4.077 -46.709,4.122 -2.424,0.451 -4.946,2.974 -5.397,5.397 -0.044,0.237 -4.414,23.983 -4.122,46.71 -0.292,22.777 4.078,46.523 4.122,46.761 0.451,2.423 2.974,4.945 5.398,5.398 0.237,0.044 23.982,4.413 46.709,4.121 22.779,0.292 46.524,-4.077 46.761,-4.121 2.423,-0.452 4.946,-2.976 5.398,-5.399 0.044,-0.236 4.413,-23.981 4.121,-46.709 0.292,-22.777 -4.077,-46.523 -4.121,-46.761 -0.453,-2.423 -2.976,-4.946 -5.398,-5.397 -0.238,-0.045 -23.984,-4.414 -46.71,-4.122 z" />
    </clipPath>
    <clipPath
       id="clipPath4458-7-6-9">
      <path
         d="m 69.626,12.145 -0.052,0 c -22.727,-0.292 -46.472,4.077 -46.709,4.122 -2.424,0.451 -4.946,2.974 -5.397,5.397 -0.044,0.237 -4.414,23.983 -4.122,46.71 -0.292,22.777 4.078,46.523 4.122,46.761 0.451,2.423 2.974,4.945 5.398,5.398 0.237,0.044 23.982,4.413 46.709,4.121 22.779,0.292 46.524,-4.077 46.761,-4.121 2.423,-0.452 4.946,-2.976 5.398,-5.399 0.044,-0.236 4.413,-23.981 4.121,-46.709 0.292,-22.777 -4.077,-46.523 -4.121,-46.761 -0.453,-2.423 -2.976,-4.946 -5.398,-5.397 -0.238,-0.045 -23.984,-4.414 -46.71,-4.122 z"
         id="use4460-2-9-9"
         inkscape:connector-curvature="0" />
    </clipPath>
    <clipPath
       id="clipPath4458-9-1-1">
      <path
         inkscape:connector-curvature="0"
         id="use4460-27-5-3"
         d="m 69.626,12.145 -0.052,0 c -22.727,-0.292 -46.472,4.077 -46.709,4.122 -2.424,0.451 -4.946,2.974 -5.397,5.397 -0.044,0.237 -4.414,23.983 -4.122,46.71 -0.292,22.777 4.078,46.523 4.122,46.761 0.451,2.423 2.974,4.945 5.398,5.398 0.237,0.044 23.982,4.413 46.709,4.121 22.779,0.292 46.524,-4.077 46.761,-4.121 2.423,-0.452 4.946,-2.976 5.398,-5.399 0.044,-0.236 4.413,-23.981 4.121,-46.709 0.292,-22.777 -4.077,-46.523 -4.121,-46.761 -0.453,-2.423 -2.976,-4.946 -5.398,-5.397 -0.238,-0.045 -23.984,-4.414 -46.71,-4.122 z" />
    </clipPath>
    <clipPath
       id="clipPath4458-0-3">
      <path
         d="m 69.626,12.145 -0.052,0 c -22.727,-0.292 -46.472,4.077 -46.709,4.122 -2.424,0.451 -4.946,2.974 -5.397,5.397 -0.044,0.237 -4.414,23.983 -4.122,46.71 -0.292,22.777 4.078,46.523 4.122,46.761 0.451,2.423 2.974,4.945 5.398,5.398 0.237,0.044 23.982,4.413 46.709,4.121 22.779,0.292 46.524,-4.077 46.761,-4.121 2.423,-0.452 4.946,-2.976 5.398,-5.399 0.044,-0.236 4.413,-23.981 4.121,-46.709 0.292,-22.777 -4.077,-46.523 -4.121,-46.761 -0.453,-2.423 -2.976,-4.946 -5.398,-5.397 -0.238,-0.045 -23.984,-4.414 -46.71,-4.122 z"
         id="use4460-56-9"
         inkscape:connector-curvature="0" />
    </clipPath>
    <clipPath
       id="clipPath4458-7-3-3">
      <path
         inkscape:connector-curvature="0"
         id="use4460-2-4-4"
         d="m 69.626,12.145 -0.052,0 c -22.727,-0.292 -46.472,4.077 -46.709,4.122 -2.424,0.451 -4.946,2.974 -5.397,5.397 -0.044,0.237 -4.414,23.983 -4.122,46.71 -0.292,22.777 4.078,46.523 4.122,46.761 0.451,2.423 2.974,4.945 5.398,5.398 0.237,0.044 23.982,4.413 46.709,4.121 22.779,0.292 46.524,-4.077 46.761,-4.121 2.423,-0.452 4.946,-2.976 5.398,-5.399 0.044,-0.236 4.413,-23.981 4.121,-46.709 0.292,-22.777 -4.077,-46.523 -4.121,-46.761 -0.453,-2.423 -2.976,-4.946 -5.398,-5.397 -0.238,-0.045 -23.984,-4.414 -46.71,-4.122 z" />
    </clipPath>
    <clipPath
       id="clipPath4458-9-5-8">
      <path
         d="m 69.626,12.145 -0.052,0 c -22.727,-0.292 -46.472,4.077 -46.709,4.122 -2.424,0.451 -4.946,2.974 -5.397,5.397 -0.044,0.237 -4.414,23.983 -4.122,46.71 -0.292,22.777 4.078,46.523 4.122,46.761 0.451,2.423 2.974,4.945 5.398,5.398 0.237,0.044 23.982,4.413 46.709,4.121 22.779,0.292 46.524,-4.077 46.761,-4.121 2.423,-0.452 4.946,-2.976 5.398,-5.399 0.044,-0.236 4.413,-23.981 4.121,-46.709 0.292,-22.777 -4.077,-46.523 -4.121,-46.761 -0.453,-2.423 -2.976,-4.946 -5.398,-5.397 -0.238,-0.045 -23.984,-4.414 -46.71,-4.122 z"
         id="use4460-27-3-0"
         inkscape:connector-curvature="0" />
    </clipPath>
    <clipPath
       id="clipPath4458-5-5-1">
      <path
         d="m 69.626,12.145 -0.052,0 c -22.727,-0.292 -46.472,4.077 -46.709,4.122 -2.424,0.451 -4.946,2.974 -5.397,5.397 -0.044,0.237 -4.414,23.983 -4.122,46.71 -0.292,22.777 4.078,46.523 4.122,46.761 0.451,2.423 2.974,4.945 5.398,5.398 0.237,0.044 23.982,4.413 46.709,4.121 22.779,0.292 46.524,-4.077 46.761,-4.121 2.423,-0.452 4.946,-2.976 5.398,-5.399 0.044,-0.236 4.413,-23.981 4.121,-46.709 0.292,-22.777 -4.077,-46.523 -4.121,-46.761 -0.453,-2.423 -2.976,-4.946 -5.398,-5.397 -0.238,-0.045 -23.984,-4.414 -46.71,-4.122 z"
         id="use4460-5-3-9"
         inkscape:connector-curvature="0" />
    </clipPath>
  </defs>
  <sodipodi:namedview
     id="base"
     pagecolor="#ffffff"
     bordercolor="#666666"
     borderopacity="1.0"
     inkscape:pageopacity="0.0"
     inkscape:pageshadow="2"
     inkscape:zoom="23.704737"
     inkscape:cx="5.4231188"
     inkscape:cy="10.540705"
     inkscape:document-units="px"
     inkscape:current-layer="layer1"
     showgrid="true"
     fit-margin-top="0"
     fit-margin-left="0"
     fit-margin-right="0"
     fit-margin-bottom="0"
     inkscape:window-width="1366"
     inkscape:window-height="702"
     inkscape:window-x="0"
     inkscape:window-y="0"
     inkscape:window-maximized="1"
     inkscape:showpageshadow="false"
     showguides="true">
    <inkscape:grid
       type="xygrid"
       id="grid4106"
       originx="-0.99998557px"
       originy="-1.0000252px" />
    <sodipodi:guide
       position="2.00001,19.99997"
       orientation="0,18"
       id="guide4229" />
    <sodipodi:guide
       position="20.00001,19.99997"
       orientation="18,0"
       id="guide4231" />
    <sodipodi:guide
       position="20.00001,1.99997"
       orientation="0,-18"
       id="guide4233" />
    <sodipodi:guide
       position="2.00001,1.99997"
       orientation="-18,0"
       id="guide4235" />
    <sodipodi:guide
       position="19.00001,2.99997"
       orientation="0,-16"
       id="guide4241" />
    <sodipodi:guide
       position="2.9999956,18.999992"
       orientation="6,0"
       id="guide4155" />
    <sodipodi:guide
       position="18.999996,12.999992"
       orientation="-6,0"
       id="guide4167" />
    <sodipodi:guide
       position="18.999996,18.999992"
       orientation="0,-6"
       id="guide4169" />
  </sodipodi:namedview>
  <metadata
     id="metadata3765">
    <rdf:RDF>
      <cc:Work
         rdf:about="">
        <dc:format>image/svg+xml</dc:format>
        <dc:type
           rdf:resource="http://purl.org/dc/dcmitype/StillImage" />
        <dc:title />
      </cc:Work>
    </rdf:RDF>
  </metadata>
  <g
     inkscape:label="Capa 1"
     inkscape:groupmode="layer"
     id="layer1"
     transform="translate(-551.28571,-607.64788)">
    <g
       id="layer1-6"
       inkscape:label="Capa 1"
       transform="matrix(1.171903,0,0,1.171903,-116.16044,-108.37257)"
       style="fill:#4d4d4d;fill-opacity:1">
      <g
         style="fill:#4d4d4d;fill-opacity:1"
         transform="matrix(0.14300539,0,0,0.14300539,554.04072,610.29161)"
         sketch:type="MSShapeGroup"
         id="g5548">
        <path
           style="fill:#4d4d4d;fill-opacity:1"
           inkscape:connector-curvature="0"
           id="path5550"
           d="m 157.40256,61.833559 c -0.73966,0 -1.37979,0.270825 -1.92039,0.810903 l -14.21228,14.212277 -11.18187,0 c -0.74018,0 -1.38032,0.270825 -1.92092,0.810903 -0.5406,0.540602 -0.8109,1.181257 -0.8109,1.920918 l 0,16.388304 c 0,0.73966 0.2703,1.380316 0.8109,1.920394 0.54113,0.540602 1.18126,0.811426 1.92092,0.811426 l 11.18135,0 14.21227,14.212276 c 0.5406,0.54008 1.18074,0.8109 1.9204,0.8109 0.74018,0 1.38031,-0.27082 1.92091,-0.8109 0.54061,-0.54008 0.81091,-1.18074 0.81091,-1.9204 l 0,-46.43518 c 0,-0.739661 -0.2703,-1.380316 -0.81038,-1.920918 -0.54113,-0.540078 -1.18074,-0.810903 -1.92092,-0.810903 l 0,0 z" />
      </g>
    </g>
    <g
       transform="matrix(1.171903,0,0,1.171903,147.42204,-24.961826)"
       id="layer1-8"
       inkscape:label="Capa 1"
       style="stroke:#4d4d4d;stroke-opacity:1">
      <g
         style="fill:none;fill-opacity:1;stroke:#4d4d4d;stroke-opacity:1;stroke-width:2.9304615;stroke-miterlimit:4;stroke-dasharray:none"
         inkscape:label="Layer 1"
         id="layer1-9"
         transform="matrix(0.30924083,0,0,0.30924083,99.690447,488.51198)">
        <path
           d="m 816.30404,186.52841 c 0,-6.44215 6.24974,-11.68314 13.93135,-11.68314 7.68184,0 13.93152,5.24104 13.93152,11.68314 0,6.44211 -6.24968,11.68316 -13.93152,11.68316 -0.64587,0 -1.294,-0.0374 -1.93119,-0.11124 -2.95879,1.87962 -5.143,2.90842 -6.49676,3.05881 -0.0471,0.005 -0.0945,0.008 -0.1409,0.008 -0.43483,0 -0.83731,-0.2167 -1.07697,-0.58007 -0.2679,-0.40649 -0.28537,-0.92218 -0.0467,-1.34322 0.0111,-0.0201 1.05582,-1.92615 0.75442,-3.74688 -3.1784,-2.22425 -4.9932,-5.47472 -4.9932,-8.96831 z"
           id="path7"
           inkscape:connector-curvature="0"
           sodipodi:nodetypes="ssssccscccs"
           style="fill:none;fill-opacity:1;stroke:#4d4d4d;stroke-width:2.9304615;stroke-miterlimit:4;stroke-dasharray:none;stroke-opacity:1" />
      </g>
    </g>
  </g>
</svg>
