<?xml version="1.0" encoding="UTF-8" standalone="no"?>
<!-- Created with Inkscape (http://www.inkscape.org/) -->

<svg
   xmlns:sketch="http://www.bohemiancoding.com/sketch/ns"
   xmlns:dc="http://purl.org/dc/elements/1.1/"
   xmlns:cc="http://creativecommons.org/ns#"
   xmlns:rdf="http://www.w3.org/1999/02/22-rdf-syntax-ns#"
   xmlns:svg="http://www.w3.org/2000/svg"
   xmlns="http://www.w3.org/2000/svg"
   xmlns:sodipodi="http://sodipodi.sourceforge.net/DTD/sodipodi-0.dtd"
   xmlns:inkscape="http://www.inkscape.org/namespaces/inkscape"
   width="22"
   height="22"
   id="svg3049"
   version="1.1"
   inkscape:version="0.91 r13725"
   sodipodi:docname="view-left-close.svg"
   inkscape:export-filename="/home/uri/.kde/share/icons/NITRUX-KDE/16x16/actions/view-right-new.png"
   inkscape:export-xdpi="30"
   inkscape:export-ydpi="30">
  <defs
     id="defs3051">
    <linearGradient
       id="linearGradient5263">
      <stop
         offset="0"
         style="stop-color:#a0d5ff;stop-opacity:1"
         id="stop5265" />
      <stop
         offset="1"
         style="stop-color:#a0d5ff;stop-opacity:1"
         id="stop5267" />
    </linearGradient>
    <clipPath
       id="clipPath4458">
      <path
         d="m 69.626,12.145 -0.052,0 c -22.727,-0.292 -46.472,4.077 -46.709,4.122 -2.424,0.451 -4.946,2.974 -5.397,5.397 -0.044,0.237 -4.414,23.983 -4.122,46.71 -0.292,22.777 4.078,46.523 4.122,46.761 0.451,2.423 2.974,4.945 5.398,5.398 0.237,0.044 23.982,4.413 46.709,4.121 22.779,0.292 46.524,-4.077 46.761,-4.121 2.423,-0.452 4.946,-2.976 5.398,-5.399 0.044,-0.236 4.413,-23.981 4.121,-46.709 0.292,-22.777 -4.077,-46.523 -4.121,-46.761 -0.453,-2.423 -2.976,-4.946 -5.398,-5.397 -0.238,-0.045 -23.984,-4.414 -46.71,-4.122 z"
         id="use4460"
         inkscape:connector-curvature="0" />
    </clipPath>
    <linearGradient
       id="linearGradient4237">
      <stop
         offset="0"
         style="stop-color:#ff594d;stop-opacity:1"
         id="stop4239" />
      <stop
         offset="1"
         style="stop-color:#ff7f76;stop-opacity:1"
         id="stop4241" />
    </linearGradient>
    <linearGradient
       id="linearGradient4210">
      <stop
         id="stop4212"
         style="stop-color:#ff584c;stop-opacity:1"
         offset="0" />
      <stop
         id="stop4214"
         style="stop-color:#ff8077;stop-opacity:1"
         offset="1" />
    </linearGradient>
    <linearGradient
       id="linearGradient4179">
      <stop
         offset="0"
         style="stop-color:#ffee5e;stop-opacity:1"
         id="stop4181" />
      <stop
         offset="1"
         style="stop-color:#feff8b;stop-opacity:1"
         id="stop4183" />
    </linearGradient>
    <linearGradient
       id="linearGradient4210-3">
      <stop
         offset="0"
         style="stop-color:#ffce69;stop-opacity:1"
         id="stop4212-1" />
      <stop
         offset="1"
         style="stop-color:#ffce54;stop-opacity:1"
         id="stop4214-6" />
    </linearGradient>
    <linearGradient
       id="linearGradient4237-0">
      <stop
         id="stop4239-8"
         style="stop-color:#ffee5e;stop-opacity:1"
         offset="0" />
      <stop
         id="stop4241-9"
         style="stop-color:#feff9f;stop-opacity:1"
         offset="1" />
    </linearGradient>
    <linearGradient
       id="linearGradient4237-2">
      <stop
         id="stop4239-7"
         style="stop-color:#ffa0a6;stop-opacity:1"
         offset="0" />
      <stop
         id="stop4241-2"
         style="stop-color:#ffa0a5;stop-opacity:1"
         offset="1" />
    </linearGradient>
    <linearGradient
       id="linearGradient8311">
      <stop
         offset="0"
         style="stop-color:#ce89ff;stop-opacity:1"
         id="stop8313" />
      <stop
         offset="1"
         style="stop-color:#e898ff;stop-opacity:1"
         id="stop8315" />
    </linearGradient>
    <linearGradient
       id="linearGradient4237-8">
      <stop
         id="stop4239-2"
         style="stop-color:#cf8aff;stop-opacity:1"
         offset="0" />
      <stop
         id="stop4241-3"
         style="stop-color:#eaa0ff;stop-opacity:1"
         offset="1" />
    </linearGradient>
    <linearGradient
       id="linearGradient8311-3">
      <stop
         offset="0"
         style="stop-color:#ffcc6b;stop-opacity:1"
         id="stop8313-0" />
      <stop
         offset="1"
         style="stop-color:#ffcf98;stop-opacity:1"
         id="stop8315-1" />
    </linearGradient>
    <linearGradient
       id="linearGradient4237-3">
      <stop
         id="stop4239-0"
         style="stop-color:#ffcc6e;stop-opacity:1"
         offset="0" />
      <stop
         id="stop4241-7"
         style="stop-color:#ffe4a0;stop-opacity:1"
         offset="1" />
    </linearGradient>
    <linearGradient
       id="linearGradient8311-31">
      <stop
         offset="0"
         style="stop-color:#f089ff;stop-opacity:1"
         id="stop8313-2" />
      <stop
         offset="1"
         style="stop-color:#ffadea;stop-opacity:1"
         id="stop8315-6" />
    </linearGradient>
    <linearGradient
       id="linearGradient4237-6">
      <stop
         id="stop4239-22"
         style="stop-color:#f18bfe;stop-opacity:1"
         offset="0" />
      <stop
         id="stop4241-0"
         style="stop-color:#fcc3ff;stop-opacity:1"
         offset="1" />
    </linearGradient>
    <linearGradient
       id="linearGradient8467">
      <stop
         id="stop8469"
         style="stop-color:#b9b9b9;stop-opacity:1"
         offset="0" />
      <stop
         id="stop8471"
         style="stop-color:#d1d1d1;stop-opacity:1"
         offset="1" />
    </linearGradient>
    <linearGradient
       id="linearGradient8311-5">
      <stop
         offset="0"
         style="stop-color:#b9b9b9;stop-opacity:1"
         id="stop8313-7" />
      <stop
         offset="1"
         style="stop-color:#d2d2d2;stop-opacity:1"
         id="stop8315-3" />
    </linearGradient>
    <linearGradient
       id="linearGradient4237-4">
      <stop
         id="stop4239-9"
         style="stop-color:#bababa;stop-opacity:1"
         offset="0" />
      <stop
         id="stop4241-37"
         style="stop-color:#c8c8c8;stop-opacity:1"
         offset="1" />
    </linearGradient>
    <linearGradient
       id="linearGradient8467-7">
      <stop
         id="stop8469-4"
         style="stop-color:#3ec896;stop-opacity:1"
         offset="0" />
      <stop
         id="stop8471-7"
         style="stop-color:#66d9af;stop-opacity:1"
         offset="1" />
    </linearGradient>
    <linearGradient
       id="linearGradient8311-1">
      <stop
         offset="0"
         style="stop-color:#494949;stop-opacity:1"
         id="stop8313-9" />
      <stop
         offset="1"
         style="stop-color:#616774;stop-opacity:1"
         id="stop8315-5" />
    </linearGradient>
    <linearGradient
       id="linearGradient-1"
       y2="116.69431"
       x2="209.95714"
       y1="0"
       x1="209.95714"
       gradientTransform="scale(1.1288018,0.8858951)"
       gradientUnits="userSpaceOnUse">
      <stop
         id="stop4884"
         offset="0%"
         stop-color="#A7A7A7" />
      <stop
         id="stop4886"
         offset="100%"
         stop-color="#8D8D8D" />
    </linearGradient>
    <linearGradient
       id="linearGradient-2"
       y2="105.40025"
       x2="192.9998"
       y1="411.58424"
       x1="192.9998"
       gradientTransform="scale(1.2279807,0.81434507)"
       gradientUnits="userSpaceOnUse">
      <stop
         id="stop4889"
         offset="0%"
         stop-color="#707070" />
      <stop
         id="stop4891"
         offset="100%"
         stop-color="#ABABAB" />
    </linearGradient>
    <linearGradient
       id="linearGradient-3"
       y2="457.4228"
       x2="192.99978"
       y1="70.608888"
       x1="192.99978"
       gradientTransform="scale(1.2279807,0.81434507)"
       gradientUnits="userSpaceOnUse">
      <stop
         id="stop4894"
         offset="0%"
         stop-opacity="0"
         stop-color="#000000" />
      <stop
         id="stop4896"
         offset="100%"
         stop-opacity="0.19"
         stop-color="#000000" />
    </linearGradient>
    <linearGradient
       id="linearGradient4232">
      <stop
         style="stop-color:#333333;stop-opacity:1"
         offset="0"
         id="stop4234" />
      <stop
         style="stop-color:#353535;stop-opacity:1"
         offset="1"
         id="stop4236" />
    </linearGradient>
    <linearGradient
       id="linearGradient4172">
      <stop
         id="stop4174"
         offset="0"
         style="stop-color:#3dc796;stop-opacity:1" />
      <stop
         id="stop4176"
         offset="1"
         style="stop-color:#57d68d;stop-opacity:1" />
    </linearGradient>
    <linearGradient
       id="linearGradient4233">
      <stop
         style="stop-color:#212121;stop-opacity:1"
         offset="0"
         id="stop4235" />
      <stop
         style="stop-color:#1d2022;stop-opacity:0"
         offset="1"
         id="stop4237" />
    </linearGradient>
    <linearGradient
       id="linearGradient8467-6">
      <stop
         id="stop8469-5"
         style="stop-color:#56d8d1;stop-opacity:1"
         offset="0" />
      <stop
         id="stop8471-8"
         style="stop-color:#9df7ee;stop-opacity:1"
         offset="1" />
    </linearGradient>
    <linearGradient
       id="linearGradient8311-10">
      <stop
         offset="0"
         style="stop-color:#55d8d1;stop-opacity:1"
         id="stop8313-3" />
      <stop
         offset="1"
         style="stop-color:#66efe7;stop-opacity:1"
         id="stop8315-8" />
    </linearGradient>
    <linearGradient
       id="linearGradient8467-8">
      <stop
         id="stop8469-9"
         style="stop-color:#dea679;stop-opacity:1"
         offset="0" />
      <stop
         id="stop8471-2"
         style="stop-color:#f7d19d;stop-opacity:1"
         offset="1" />
    </linearGradient>
    <linearGradient
       id="linearGradient8311-0">
      <stop
         offset="0"
         style="stop-color:#dda579;stop-opacity:1"
         id="stop8313-90" />
      <stop
         offset="1"
         style="stop-color:#f3bc87;stop-opacity:1"
         id="stop8315-88" />
    </linearGradient>
    <linearGradient
       id="linearGradient8467-2">
      <stop
         id="stop8469-6"
         style="stop-color:#5fa4d5;stop-opacity:1"
         offset="0" />
      <stop
         id="stop8471-5"
         style="stop-color:#9dc9f7;stop-opacity:1"
         offset="1" />
    </linearGradient>
    <linearGradient
       id="linearGradient8311-06">
      <stop
         offset="0"
         style="stop-color:#5fa3d4;stop-opacity:1"
         id="stop8313-6" />
      <stop
         offset="1"
         style="stop-color:#6bb9ff;stop-opacity:1"
         id="stop8315-2" />
    </linearGradient>
    <clipPath
       id="clipPath4458-7">
      <path
         inkscape:connector-curvature="0"
         id="use4460-2"
         d="m 69.626,12.145 -0.052,0 c -22.727,-0.292 -46.472,4.077 -46.709,4.122 -2.424,0.451 -4.946,2.974 -5.397,5.397 -0.044,0.237 -4.414,23.983 -4.122,46.71 -0.292,22.777 4.078,46.523 4.122,46.761 0.451,2.423 2.974,4.945 5.398,5.398 0.237,0.044 23.982,4.413 46.709,4.121 22.779,0.292 46.524,-4.077 46.761,-4.121 2.423,-0.452 4.946,-2.976 5.398,-5.399 0.044,-0.236 4.413,-23.981 4.121,-46.709 0.292,-22.777 -4.077,-46.523 -4.121,-46.761 -0.453,-2.423 -2.976,-4.946 -5.398,-5.397 -0.238,-0.045 -23.984,-4.414 -46.71,-4.122 z" />
    </clipPath>
    <clipPath
       id="clipPath4458-9">
      <path
         d="m 69.626,12.145 -0.052,0 c -22.727,-0.292 -46.472,4.077 -46.709,4.122 -2.424,0.451 -4.946,2.974 -5.397,5.397 -0.044,0.237 -4.414,23.983 -4.122,46.71 -0.292,22.777 4.078,46.523 4.122,46.761 0.451,2.423 2.974,4.945 5.398,5.398 0.237,0.044 23.982,4.413 46.709,4.121 22.779,0.292 46.524,-4.077 46.761,-4.121 2.423,-0.452 4.946,-2.976 5.398,-5.399 0.044,-0.236 4.413,-23.981 4.121,-46.709 0.292,-22.777 -4.077,-46.523 -4.121,-46.761 -0.453,-2.423 -2.976,-4.946 -5.398,-5.397 -0.238,-0.045 -23.984,-4.414 -46.71,-4.122 z"
         id="use4460-27"
         inkscape:connector-curvature="0" />
    </clipPath>
    <clipPath
       id="clipPath4458-5">
      <path
         d="m 69.626,12.145 -0.052,0 c -22.727,-0.292 -46.472,4.077 -46.709,4.122 -2.424,0.451 -4.946,2.974 -5.397,5.397 -0.044,0.237 -4.414,23.983 -4.122,46.71 -0.292,22.777 4.078,46.523 4.122,46.761 0.451,2.423 2.974,4.945 5.398,5.398 0.237,0.044 23.982,4.413 46.709,4.121 22.779,0.292 46.524,-4.077 46.761,-4.121 2.423,-0.452 4.946,-2.976 5.398,-5.399 0.044,-0.236 4.413,-23.981 4.121,-46.709 0.292,-22.777 -4.077,-46.523 -4.121,-46.761 -0.453,-2.423 -2.976,-4.946 -5.398,-5.397 -0.238,-0.045 -23.984,-4.414 -46.71,-4.122 z"
         id="use4460-5"
         inkscape:connector-curvature="0" />
    </clipPath>
    <clipPath
       id="clipPath4458-2">
      <path
         inkscape:connector-curvature="0"
         id="use4460-4"
         d="m 69.626,12.145 -0.052,0 c -22.727,-0.292 -46.472,4.077 -46.709,4.122 -2.424,0.451 -4.946,2.974 -5.397,5.397 -0.044,0.237 -4.414,23.983 -4.122,46.71 -0.292,22.777 4.078,46.523 4.122,46.761 0.451,2.423 2.974,4.945 5.398,5.398 0.237,0.044 23.982,4.413 46.709,4.121 22.779,0.292 46.524,-4.077 46.761,-4.121 2.423,-0.452 4.946,-2.976 5.398,-5.399 0.044,-0.236 4.413,-23.981 4.121,-46.709 0.292,-22.777 -4.077,-46.523 -4.121,-46.761 -0.453,-2.423 -2.976,-4.946 -5.398,-5.397 -0.238,-0.045 -23.984,-4.414 -46.71,-4.122 z" />
    </clipPath>
    <clipPath
       id="clipPath4458-7-6">
      <path
         d="m 69.626,12.145 -0.052,0 c -22.727,-0.292 -46.472,4.077 -46.709,4.122 -2.424,0.451 -4.946,2.974 -5.397,5.397 -0.044,0.237 -4.414,23.983 -4.122,46.71 -0.292,22.777 4.078,46.523 4.122,46.761 0.451,2.423 2.974,4.945 5.398,5.398 0.237,0.044 23.982,4.413 46.709,4.121 22.779,0.292 46.524,-4.077 46.761,-4.121 2.423,-0.452 4.946,-2.976 5.398,-5.399 0.044,-0.236 4.413,-23.981 4.121,-46.709 0.292,-22.777 -4.077,-46.523 -4.121,-46.761 -0.453,-2.423 -2.976,-4.946 -5.398,-5.397 -0.238,-0.045 -23.984,-4.414 -46.71,-4.122 z"
         id="use4460-2-9"
         inkscape:connector-curvature="0" />
    </clipPath>
    <clipPath
       id="clipPath4458-9-1">
      <path
         inkscape:connector-curvature="0"
         id="use4460-27-5"
         d="m 69.626,12.145 -0.052,0 c -22.727,-0.292 -46.472,4.077 -46.709,4.122 -2.424,0.451 -4.946,2.974 -5.397,5.397 -0.044,0.237 -4.414,23.983 -4.122,46.71 -0.292,22.777 4.078,46.523 4.122,46.761 0.451,2.423 2.974,4.945 5.398,5.398 0.237,0.044 23.982,4.413 46.709,4.121 22.779,0.292 46.524,-4.077 46.761,-4.121 2.423,-0.452 4.946,-2.976 5.398,-5.399 0.044,-0.236 4.413,-23.981 4.121,-46.709 0.292,-22.777 -4.077,-46.523 -4.121,-46.761 -0.453,-2.423 -2.976,-4.946 -5.398,-5.397 -0.238,-0.045 -23.984,-4.414 -46.71,-4.122 z" />
    </clipPath>
    <clipPath
       id="clipPath4458-0">
      <path
         d="m 69.626,12.145 -0.052,0 c -22.727,-0.292 -46.472,4.077 -46.709,4.122 -2.424,0.451 -4.946,2.974 -5.397,5.397 -0.044,0.237 -4.414,23.983 -4.122,46.71 -0.292,22.777 4.078,46.523 4.122,46.761 0.451,2.423 2.974,4.945 5.398,5.398 0.237,0.044 23.982,4.413 46.709,4.121 22.779,0.292 46.524,-4.077 46.761,-4.121 2.423,-0.452 4.946,-2.976 5.398,-5.399 0.044,-0.236 4.413,-23.981 4.121,-46.709 0.292,-22.777 -4.077,-46.523 -4.121,-46.761 -0.453,-2.423 -2.976,-4.946 -5.398,-5.397 -0.238,-0.045 -23.984,-4.414 -46.71,-4.122 z"
         id="use4460-56"
         inkscape:connector-curvature="0" />
    </clipPath>
    <clipPath
       id="clipPath4458-7-3">
      <path
         inkscape:connector-curvature="0"
         id="use4460-2-4"
         d="m 69.626,12.145 -0.052,0 c -22.727,-0.292 -46.472,4.077 -46.709,4.122 -2.424,0.451 -4.946,2.974 -5.397,5.397 -0.044,0.237 -4.414,23.983 -4.122,46.71 -0.292,22.777 4.078,46.523 4.122,46.761 0.451,2.423 2.974,4.945 5.398,5.398 0.237,0.044 23.982,4.413 46.709,4.121 22.779,0.292 46.524,-4.077 46.761,-4.121 2.423,-0.452 4.946,-2.976 5.398,-5.399 0.044,-0.236 4.413,-23.981 4.121,-46.709 0.292,-22.777 -4.077,-46.523 -4.121,-46.761 -0.453,-2.423 -2.976,-4.946 -5.398,-5.397 -0.238,-0.045 -23.984,-4.414 -46.71,-4.122 z" />
    </clipPath>
    <clipPath
       id="clipPath4458-9-5">
      <path
         d="m 69.626,12.145 -0.052,0 c -22.727,-0.292 -46.472,4.077 -46.709,4.122 -2.424,0.451 -4.946,2.974 -5.397,5.397 -0.044,0.237 -4.414,23.983 -4.122,46.71 -0.292,22.777 4.078,46.523 4.122,46.761 0.451,2.423 2.974,4.945 5.398,5.398 0.237,0.044 23.982,4.413 46.709,4.121 22.779,0.292 46.524,-4.077 46.761,-4.121 2.423,-0.452 4.946,-2.976 5.398,-5.399 0.044,-0.236 4.413,-23.981 4.121,-46.709 0.292,-22.777 -4.077,-46.523 -4.121,-46.761 -0.453,-2.423 -2.976,-4.946 -5.398,-5.397 -0.238,-0.045 -23.984,-4.414 -46.71,-4.122 z"
         id="use4460-27-3"
         inkscape:connector-curvature="0" />
    </clipPath>
    <clipPath
       id="clipPath4458-5-5">
      <path
         d="m 69.626,12.145 -0.052,0 c -22.727,-0.292 -46.472,4.077 -46.709,4.122 -2.424,0.451 -4.946,2.974 -5.397,5.397 -0.044,0.237 -4.414,23.983 -4.122,46.71 -0.292,22.777 4.078,46.523 4.122,46.761 0.451,2.423 2.974,4.945 5.398,5.398 0.237,0.044 23.982,4.413 46.709,4.121 22.779,0.292 46.524,-4.077 46.761,-4.121 2.423,-0.452 4.946,-2.976 5.398,-5.399 0.044,-0.236 4.413,-23.981 4.121,-46.709 0.292,-22.777 -4.077,-46.523 -4.121,-46.761 -0.453,-2.423 -2.976,-4.946 -5.398,-5.397 -0.238,-0.045 -23.984,-4.414 -46.71,-4.122 z"
         id="use4460-5-3"
         inkscape:connector-curvature="0" />
    </clipPath>
  </defs>
  <sodipodi:namedview
     id="base"
     pagecolor="#ffffff"
     bordercolor="#666666"
     borderopacity="1.0"
     inkscape:pageopacity="0.0"
     inkscape:pageshadow="2"
     inkscape:zoom="17.2614"
     inkscape:cx="-6.6621711"
     inkscape:cy="10.010909"
     inkscape:document-units="px"
     inkscape:current-layer="layer1"
     showgrid="true"
     fit-margin-top="0"
     fit-margin-left="0"
     fit-margin-right="0"
     fit-margin-bottom="0"
     inkscape:window-width="1366"
     inkscape:window-height="702"
     inkscape:window-x="0"
     inkscape:window-y="0"
     inkscape:window-maximized="1"
     inkscape:showpageshadow="false"
     borderlayer="true">
    <sodipodi:guide
       position="2.0000044,20.00003"
       orientation="18,0"
       id="guide4067" />
    <sodipodi:guide
       position="2.0000044,2.0000296"
       orientation="0,18"
       id="guide4069" />
    <sodipodi:guide
       position="20.000004,2.0000296"
       orientation="-18,0"
       id="guide4071" />
    <sodipodi:guide
       position="20.000004,20.00003"
       orientation="0,-18"
       id="guide4073" />
    <sodipodi:guide
       position="3.0000044,19.00003"
       orientation="16,0"
       id="guide4077" />
    <sodipodi:guide
       position="3.0000044,3.0000296"
       orientation="0,16"
       id="guide4079" />
    <sodipodi:guide
       position="19.000004,3.0000296"
       orientation="-16,0"
       id="guide4081" />
    <sodipodi:guide
       position="19.000004,19.00003"
       orientation="0,-16"
       id="guide4083" />
    <inkscape:grid
       type="xygrid"
       id="grid4085" />
  </sodipodi:namedview>
  <metadata
     id="metadata3054">
    <rdf:RDF>
      <cc:Work
         rdf:about="">
        <dc:format>image/svg+xml</dc:format>
        <dc:type
           rdf:resource="http://purl.org/dc/dcmitype/StillImage" />
        <dc:title />
      </cc:Work>
    </rdf:RDF>
  </metadata>
  <g
     inkscape:label="Capa 1"
     inkscape:groupmode="layer"
     id="layer1"
     transform="translate(-421.71429,-525.79074)">
    <path
       style="fill:#4d4d4d;fill-opacity:1;stroke:none"
       d="M 3 3 L 3 19 L 13 19 L 14 19 L 19 19 L 19 3 L 14 3 L 13 3 L 3 3 z M 4 7 L 13 7 L 13 18 L 4 18 L 4 7 z M 14 7 L 18 7 L 18 18 L 14 18 L 14 7 z "
       transform="translate(421.71429,525.79074)"
       id="rect4089" />
    <g
       id="layer1-7"
       inkscape:label="Capa 1"
       transform="matrix(1.2571307,0,0,1.2571307,-137.79634,-141.49421)"
       style="fill:#da4453;fill-opacity:1">
      <g
         inkscape:label="Capa 1"
         id="layer1-8"
         transform="matrix(0.74468982,0,0,0.74468982,25.466035,80.662479)"
         style="fill:#da4453;fill-opacity:1">
        <g
           id="g5548"
           sketch:type="MSShapeGroup"
           transform="matrix(0.14300539,0,0,0.14300539,554.04072,610.29161)"
           style="fill:#da4453;fill-opacity:1">
          <g
             transform="matrix(5.8601665,0,0,5.8601665,-4424.2405,-1089.9756)"
             id="layer1-9"
             inkscape:label="Layer 1"
             style="fill:#da4453;fill-opacity:1">
            <g
               inkscape:label="Capa 1"
               id="layer1-2"
               transform="matrix(0.37907185,0,0,0.37907185,615.60988,-10.010196)"
               style="fill:#da4453;fill-opacity:1">
              <g
                 style="fill:#da4453;fill-opacity:1"
                 transform="matrix(0.20663505,0,0,0.20663505,416.2249,531.51293)"
                 sketch:type="MSLayerGroup"
                 id="remove11">
                <path
                   style="fill:#da4453;fill-opacity:1"
                   inkscape:connector-curvature="0"
                   sketch:type="MSShapeGroup"
                   id="path1028"
                   d="m 68.988857,47.999993 23.953,-23.953 c 1.521,-1.52 2.281,-3.367 2.281,-5.54 0,-2.173 -0.761,-4.019 -2.281,-5.54 l -11.08,-11.0809998 c -1.521,-1.52099998 -3.367,-2.28099998 -5.539,-2.28099998 -2.174,0 -4.02,0.76 -5.541,2.28099998 l -23.953,23.9529998 -23.953,-23.9529998 c -1.52,-1.52099998 -3.367,-2.28099998 -5.54,-2.28099998 -2.172,0 -4.019,0.76 -5.54,2.28099998 L 0.7148571,12.966993 c -1.51999992,1.52 -2.2809999,3.367 -2.2809999,5.54 0,2.173 0.75999998,4.019 2.2809999,5.54 l 23.9529999,23.953 -23.9529999,23.953 c -1.51999992,1.521 -2.2809999,3.367 -2.2809999,5.54 0,2.173 0.75999998,4.019 2.2809999,5.54 l 11.0809999,11.08 c 1.521,1.521 3.368,2.281 5.54,2.281 2.173,0 4.019,-0.761 5.54,-2.281 l 23.953,-23.953 23.954,23.953 c 1.521,1.521 3.366,2.281 5.541,2.281 2.172,0 4.019,-0.761 5.539,-2.281 l 11.079,-11.08 c 1.521,-1.52 2.281,-3.367 2.281,-5.54 0,-2.173 -0.76,-4.019 -2.281,-5.54 l -23.953,-23.953 0,0 z" />
              </g>
            </g>
          </g>
        </g>
      </g>
    </g>
  </g>
</svg>
