<?xml version="1.0" encoding="UTF-8" standalone="no"?>
<!-- Created with Inkscape (http://www.inkscape.org/) -->

<svg
   xmlns:dc="http://purl.org/dc/elements/1.1/"
   xmlns:cc="http://creativecommons.org/ns#"
   xmlns:rdf="http://www.w3.org/1999/02/22-rdf-syntax-ns#"
   xmlns:svg="http://www.w3.org/2000/svg"
   xmlns="http://www.w3.org/2000/svg"
   xmlns:sodipodi="http://sodipodi.sourceforge.net/DTD/sodipodi-0.dtd"
   xmlns:inkscape="http://www.inkscape.org/namespaces/inkscape"
   width="22"
   height="22"
   id="svg3813"
   version="1.1"
   inkscape:version="0.91 r13725"
   sodipodi:docname="chronometer-lap.svg">
  <defs
     id="defs3815" />
  <sodipodi:namedview
     id="base"
     pagecolor="#ffffff"
     bordercolor="#666666"
     borderopacity="1.0"
     inkscape:pageopacity="0.0"
     inkscape:pageshadow="2"
     inkscape:zoom="23.069359"
     inkscape:cx="0.0081940743"
     inkscape:cy="9.9699845"
     inkscape:document-units="px"
     inkscape:current-layer="g4149"
     showgrid="true"
     fit-margin-top="0"
     fit-margin-left="0"
     fit-margin-right="0"
     fit-margin-bottom="0"
     inkscape:window-width="1366"
     inkscape:window-height="702"
     inkscape:window-x="0"
     inkscape:window-y="0"
     inkscape:window-maximized="1"
     inkscape:showpageshadow="false">
    <inkscape:grid
       type="xygrid"
       id="grid4109" />
    <sodipodi:guide
       position="2.0000072,19.999993"
       orientation="18,0"
       id="guide4115" />
    <sodipodi:guide
       position="2.0000072,1.9999929"
       orientation="0,18"
       id="guide4117" />
    <sodipodi:guide
       position="20.000007,1.9999929"
       orientation="-18,0"
       id="guide4119" />
    <sodipodi:guide
       position="20.000007,19.999993"
       orientation="0,-18"
       id="guide4121" />
    <sodipodi:guide
       position="3.0000072,18.999993"
       orientation="16,0"
       id="guide4123" />
    <sodipodi:guide
       position="3.0000072,2.9999929"
       orientation="0,16"
       id="guide4125" />
    <sodipodi:guide
       position="19.000007,2.9999929"
       orientation="-16,0"
       id="guide4127" />
    <sodipodi:guide
       position="19.000007,18.999993"
       orientation="0,-16"
       id="guide4129" />
  </sodipodi:namedview>
  <metadata
     id="metadata3818">
    <rdf:RDF>
      <cc:Work
         rdf:about="">
        <dc:format>image/svg+xml</dc:format>
        <dc:type
           rdf:resource="http://purl.org/dc/dcmitype/StillImage" />
        <dc:title />
      </cc:Work>
    </rdf:RDF>
  </metadata>
  <g
     inkscape:label="Capa 1"
     inkscape:groupmode="layer"
     id="layer1"
     transform="translate(-378.85714,-540.07647)">
    <g
       id="g4149"
       transform="translate(0.34678033,1.8205967)">
      <path
         style="fill:#4d4d4d;fill-opacity:1"
         sodipodi:nodetypes="ccscccsccccccscssssccsscc"
         inkscape:connector-curvature="0"
         id="path3"
         d="m 394.30423,545.8413 0.19912,-0.19911 c 0.11709,0.058 0.24664,0.089 0.37943,0.089 0.24523,0 0.47902,-0.10527 0.64139,-0.28878 0.31288,-0.35354 0.27981,-0.89569 -0.0737,-1.20862 l -0.79689,-0.7053 c -0.15668,-0.13868 -0.35815,-0.21506 -0.56722,-0.21506 -0.24523,0 -0.47902,0.10527 -0.64139,0.28878 -0.15158,0.17126 -0.22742,0.39132 -0.21349,0.61957 0.01,0.16482 0.0666,0.31934 0.16145,0.44973 l -0.25789,0.25788 c -0.82318,-0.50703 -1.76366,-0.84109 -2.77051,-0.95152 l 0,-0.48063 0.0178,0 c 0.6123,0 1.1105,-0.49815 1.1105,-1.1105 -5e-5,-0.6123 -0.4982,-1.11045 -1.11055,-1.11045 l -1.50721,0 c -0.6123,0 -1.1105,0.49815 -1.1105,1.1105 0,0.6123 0.49816,1.1105 1.1105,1.1105 l 0.0178,0 0,0.48064 c -3.35254,0.36761 -5.96976,3.21622 -5.96976,6.66506 0,3.6975 3.00813,6.70559 6.70559,6.70559 3.6975,0 6.70558,-3.00813 6.70558,-6.70559 5e-5,-1.88075 -0.77854,-3.58281 -2.02993,-4.80167 z" />
      <path
         sodipodi:nodetypes="ccccc"
         inkscape:connector-curvature="0"
         id="rect4120"
         d="m 390.16057,544.86575 0,4 c 0.554,0 1,0.446 1,1 l 4,0 c 0,-2.77 -2.23,-5 -5,-5 z"
         style="opacity:1;fill:#ffffff;fill-opacity:1;stroke:none" />
    </g>
  </g>
</svg>
