<?xml version="1.0" encoding="UTF-8" standalone="no"?>
<!-- Created with Inkscape (http://www.inkscape.org/) -->

<svg
   xmlns:dc="http://purl.org/dc/elements/1.1/"
   xmlns:cc="http://creativecommons.org/ns#"
   xmlns:rdf="http://www.w3.org/1999/02/22-rdf-syntax-ns#"
   xmlns:svg="http://www.w3.org/2000/svg"
   xmlns="http://www.w3.org/2000/svg"
   xmlns:sodipodi="http://sodipodi.sourceforge.net/DTD/sodipodi-0.dtd"
   xmlns:inkscape="http://www.inkscape.org/namespaces/inkscape"
   width="22"
   height="22"
   id="svg3979"
   version="1.1"
   inkscape:version="0.91 r13725"
   sodipodi:docname="edit-image-face-show.svg">
  <defs
     id="defs3981" />
  <sodipodi:namedview
     id="base"
     pagecolor="#ffffff"
     bordercolor="#666666"
     borderopacity="1.0"
     inkscape:pageopacity="0.0"
     inkscape:pageshadow="2"
     inkscape:zoom="32"
     inkscape:cx="-0.2209"
     inkscape:cy="11.047465"
     inkscape:document-units="px"
     inkscape:current-layer="layer1"
     showgrid="true"
     fit-margin-top="0"
     fit-margin-left="0"
     fit-margin-right="0"
     fit-margin-bottom="0"
     inkscape:window-width="1366"
     inkscape:window-height="702"
     inkscape:window-x="0"
     inkscape:window-y="0"
     inkscape:window-maximized="1"
     inkscape:showpageshadow="false"
     showguides="true">
    <inkscape:grid
       type="xygrid"
       id="grid4125" />
    <sodipodi:guide
       position="2.0000144,19.99997"
       orientation="18,0"
       id="guide4131" />
    <sodipodi:guide
       position="2.0000144,1.9999696"
       orientation="0,18"
       id="guide4133" />
    <sodipodi:guide
       position="20.000014,1.9999696"
       orientation="-18,0"
       id="guide4135" />
    <sodipodi:guide
       position="20.000014,19.99997"
       orientation="0,-18"
       id="guide4137" />
    <sodipodi:guide
       position="3.0000144,18.99997"
       orientation="16,0"
       id="guide4139" />
    <sodipodi:guide
       position="3.0000144,2.9999696"
       orientation="0,16"
       id="guide4141" />
    <sodipodi:guide
       position="19.000014,2.9999696"
       orientation="-16,0"
       id="guide4143" />
    <sodipodi:guide
       position="19.000014,18.99997"
       orientation="0,-16"
       id="guide4145" />
  </sodipodi:namedview>
  <metadata
     id="metadata3984">
    <rdf:RDF>
      <cc:Work
         rdf:about="">
        <dc:format>image/svg+xml</dc:format>
        <dc:type
           rdf:resource="http://purl.org/dc/dcmitype/StillImage" />
        <dc:title />
      </cc:Work>
    </rdf:RDF>
  </metadata>
  <g
     inkscape:label="Capa 1"
     inkscape:groupmode="layer"
     id="layer1"
     transform="translate(-601.71428,-517.21933)">
    <path
       style="opacity:1;fill:#4d4d4d;fill-opacity:1;stroke:none"
       d="m 3,3 0,1 0,15 1,0 15,0 0,-1 0,-15 z M 4,4 18,4 18,18 4,18 Z M 5,5 5,6 5,7 6,7 6,6 7,6 7,5 Z m 10,0 0,1 1,0 0,1 1,0 0,-2 z m -10,4 0,1 0,1 2,0 0,-1 -1,0 0,-1 z m 11,0 0,1 -1,0 0,1 2,0 0,-1 0,-1 z"
       transform="translate(601.71428,517.21933)"
       id="path4131"
       inkscape:connector-curvature="0"
       sodipodi:nodetypes="cccccccccccccccccccccccccccccccccccccccccccc" />
    <g
       id="g4184"
       transform="translate(434.04834,534.39974)"
       inkscape:transform-center-x="13.65625"
       inkscape:transform-center-y="0.15625"
       style="fill:#4d4d4d;fill-opacity:1">
      <g
         id="g4144"
         style="fill:#4d4d4d;fill-opacity:1">
        <path
           id="path4146"
           d="m 178.6098,-7.441627 c 1.25649,0 2.27488,-1.0185802 2.27488,-2.2748679 0,-1.2562881 -1.01859,-2.2746751 -2.27488,-2.2746751 -1.25628,0 -2.27524,1.018581 -2.27524,2.2748687 0,1.2562877 1.01896,2.2746743 2.27524,2.2746743 z m 0.96496,0.1550519 -1.9303,0 c -1.60607,0 -2.91269,1.3068102 -2.91269,2.9128838 l 0,2.3606207 0.006,0.036972 0.1626,0.05091 c 1.53272,0.4788992 2.86431,0.6385968 3.96031,0.6385968 2.14072,0 3.38153,-0.6103351 3.45799,-0.6492433 l 0.15196,-0.076849 0.0163,0 0,-2.3610078 c 5.8e-4,-1.6060737 -1.30603,-2.9128838 -2.91211,-2.9128838 z"
           inkscape:connector-curvature="0"
           sodipodi:nodetypes="sssssssscccsccccs"
           style="fill:#4d4d4d;fill-opacity:1" />
      </g>
      <g
         id="g4148"
         style="fill:#4d4d4d;fill-opacity:1" />
      <g
         id="g4150"
         style="fill:#4d4d4d;fill-opacity:1" />
      <g
         id="g4152"
         style="fill:#4d4d4d;fill-opacity:1" />
      <g
         id="g4154"
         style="fill:#4d4d4d;fill-opacity:1" />
      <g
         id="g4156"
         style="fill:#4d4d4d;fill-opacity:1" />
      <g
         id="g4158"
         style="fill:#4d4d4d;fill-opacity:1" />
      <g
         id="g4160"
         style="fill:#4d4d4d;fill-opacity:1" />
      <g
         id="g4162"
         style="fill:#4d4d4d;fill-opacity:1" />
      <g
         id="g4164"
         style="fill:#4d4d4d;fill-opacity:1" />
      <g
         id="g4166"
         style="fill:#4d4d4d;fill-opacity:1" />
      <g
         id="g4168"
         style="fill:#4d4d4d;fill-opacity:1" />
      <g
         id="g4170"
         style="fill:#4d4d4d;fill-opacity:1" />
      <g
         id="g4172"
         style="fill:#4d4d4d;fill-opacity:1" />
      <g
         id="g4174"
         style="fill:#4d4d4d;fill-opacity:1" />
      <g
         id="g4176"
         style="fill:#4d4d4d;fill-opacity:1" />
    </g>
  </g>
</svg>
