<?xml version="1.0" encoding="UTF-8" standalone="no"?>
<!-- Created with Inkscape (http://www.inkscape.org/) -->

<svg
   xmlns:dc="http://purl.org/dc/elements/1.1/"
   xmlns:cc="http://creativecommons.org/ns#"
   xmlns:rdf="http://www.w3.org/1999/02/22-rdf-syntax-ns#"
   xmlns:svg="http://www.w3.org/2000/svg"
   xmlns="http://www.w3.org/2000/svg"
   xmlns:sodipodi="http://sodipodi.sourceforge.net/DTD/sodipodi-0.dtd"
   xmlns:inkscape="http://www.inkscape.org/namespaces/inkscape"
   width="22"
   height="22"
   id="svg3760"
   version="1.1"
   inkscape:version="0.91 r13725"
   sodipodi:docname="games-hint.svg">
  <defs
     id="defs3762" />
  <sodipodi:namedview
     id="base"
     pagecolor="#ffffff"
     bordercolor="#666666"
     borderopacity="1.0"
     inkscape:pageopacity="0.0"
     inkscape:pageshadow="2"
     inkscape:zoom="16"
     inkscape:cx="-1.355543"
     inkscape:cy="11.349913"
     inkscape:document-units="px"
     inkscape:current-layer="layer1"
     showgrid="true"
     fit-margin-top="0"
     fit-margin-left="0"
     fit-margin-right="0"
     fit-margin-bottom="0"
     inkscape:window-width="1366"
     inkscape:window-height="702"
     inkscape:window-x="0"
     inkscape:window-y="0"
     inkscape:window-maximized="1"
     inkscape:showpageshadow="false">
    <sodipodi:guide
       position="2,2"
       orientation="0,18"
       id="guide4125" />
    <sodipodi:guide
       position="20,2"
       orientation="-18,0"
       id="guide4127" />
    <sodipodi:guide
       position="20,20"
       orientation="0,-18"
       id="guide4129" />
    <sodipodi:guide
       position="3,19"
       orientation="16,0"
       id="guide4131" />
    <sodipodi:guide
       position="3,3"
       orientation="0,16"
       id="guide4133" />
    <sodipodi:guide
       position="19,3"
       orientation="-16,0"
       id="guide4135" />
    <sodipodi:guide
       position="19,19"
       orientation="0,-16"
       id="guide4137" />
    <inkscape:grid
       type="xygrid"
       id="grid4139"
       originx="-0.99998557"
       originy="-1.0000118" />
  </sodipodi:namedview>
  <metadata
     id="metadata3765">
    <rdf:RDF>
      <cc:Work
         rdf:about="">
        <dc:format>image/svg+xml</dc:format>
        <dc:type
           rdf:resource="http://purl.org/dc/dcmitype/StillImage" />
        <dc:title />
      </cc:Work>
    </rdf:RDF>
  </metadata>
  <g
     inkscape:label="Capa 1"
     inkscape:groupmode="layer"
     id="layer1"
     transform="translate(-551.28571,-607.64789)">
    <g
       id="g4169"
       transform="matrix(0.67578122,0,0,0.67578122,501.71832,294.52677)"
       style="fill:#4d4d4d;fill-opacity:1">
      <g
         transform="matrix(0.04871899,0,0,0.04871899,77.58743,467.58791)"
         id="g3"
         style="fill:#4d4d4d;fill-opacity:1">
        <g
           id="g5"
           style="fill:#4d4d4d;fill-opacity:1">
          <g
             id="Icons_9_"
             style="fill:#4d4d4d;fill-opacity:1">
            <g
               id="g8"
               style="fill:#4d4d4d;fill-opacity:1">
              <path
                 inkscape:connector-curvature="0"
                 id="path10"
                 d="m 306.545,367.594 -121.542,0 c -9.041,0 -16.382,7.338 -16.382,16.385 0,9.05 7.341,16.384 16.382,16.384 l 121.542,0 c 9.041,0 16.389,-7.334 16.389,-16.384 0,-9.047 -7.348,-16.385 -16.389,-16.385 z"
                 style="fill:#4d4d4d;fill-opacity:1" />
              <path
                 inkscape:connector-curvature="0"
                 id="path12"
                 d="m 213.917,464.367 0,8.926 c 0,10.076 8.157,18.242 18.239,18.242 l 27.233,0 c 10.062,0 18.239,-8.166 18.239,-18.242 l 0,-8.926 c 20.642,-1.467 36.981,-18.498 36.981,-39.506 l -137.689,0 c 0.001,21.008 16.357,38.039 36.997,39.506 z"
                 style="fill:#4d4d4d;fill-opacity:1" />
              <path
                 inkscape:connector-curvature="0"
                 id="path14"
                 d="M 245.777,0 C 155.084,0 81.561,73.516 81.561,164.207 c 0,38.268 13.164,73.396 35.152,101.287 19.444,24.647 37.874,51.592 53.76,78.688 l 150.583,0 c 16.049,-27.353 34.146,-53.793 53.78,-78.707 21.968,-27.878 35.139,-63.011 35.139,-101.27 C 409.975,73.517 336.451,0 245.777,0 Z m 0.273,56.971 c -58.297,0 -105.702,47.412 -105.702,105.692 0,9.048 -7.327,16.385 -16.389,16.385 -9.056,0 -16.383,-7.337 -16.383,-16.385 0,-76.346 62.114,-138.46 138.474,-138.46 9.034,0 16.383,7.334 16.383,16.382 0,9.048 -7.349,16.386 -16.383,16.386 z"
                 style="fill:#4d4d4d;fill-opacity:1" />
            </g>
          </g>
        </g>
      </g>
      <g
         id="g16"
         style="fill:#4d4d4d;fill-opacity:1" />
      <g
         id="g18"
         style="fill:#4d4d4d;fill-opacity:1" />
      <g
         id="g20"
         style="fill:#4d4d4d;fill-opacity:1" />
      <g
         id="g22"
         style="fill:#4d4d4d;fill-opacity:1" />
      <g
         id="g24"
         style="fill:#4d4d4d;fill-opacity:1" />
      <g
         id="g26"
         style="fill:#4d4d4d;fill-opacity:1" />
      <g
         id="g28"
         style="fill:#4d4d4d;fill-opacity:1" />
      <g
         id="g30"
         style="fill:#4d4d4d;fill-opacity:1" />
      <g
         id="g32"
         style="fill:#4d4d4d;fill-opacity:1" />
      <g
         id="g34"
         style="fill:#4d4d4d;fill-opacity:1" />
      <g
         id="g36"
         style="fill:#4d4d4d;fill-opacity:1" />
      <g
         id="g38"
         style="fill:#4d4d4d;fill-opacity:1" />
      <g
         id="g40"
         style="fill:#4d4d4d;fill-opacity:1" />
      <g
         id="g42"
         style="fill:#4d4d4d;fill-opacity:1" />
      <g
         id="g44"
         style="fill:#4d4d4d;fill-opacity:1" />
    </g>
  </g>
</svg>
