<?xml version="1.0" encoding="UTF-8" standalone="no"?>
<!-- Created with Inkscape (http://www.inkscape.org/) -->

<svg
   xmlns:sketch="http://www.bohemiancoding.com/sketch/ns"
   xmlns:dc="http://purl.org/dc/elements/1.1/"
   xmlns:cc="http://creativecommons.org/ns#"
   xmlns:rdf="http://www.w3.org/1999/02/22-rdf-syntax-ns#"
   xmlns:svg="http://www.w3.org/2000/svg"
   xmlns="http://www.w3.org/2000/svg"
   xmlns:sodipodi="http://sodipodi.sourceforge.net/DTD/sodipodi-0.dtd"
   xmlns:inkscape="http://www.inkscape.org/namespaces/inkscape"
   width="22"
   height="22"
   id="svg3760"
   version="1.1"
   inkscape:version="0.91 r13725"
   sodipodi:docname="insert-image.svg">
  <defs
     id="defs3762">
    <linearGradient
       id="linearGradient5263">
      <stop
         id="stop5265"
         style="stop-color:#a0d5ff;stop-opacity:1"
         offset="0" />
      <stop
         id="stop5267"
         style="stop-color:#a0d5ff;stop-opacity:1"
         offset="1" />
    </linearGradient>
  </defs>
  <sodipodi:namedview
     id="base"
     pagecolor="#ffffff"
     bordercolor="#666666"
     borderopacity="1.0"
     inkscape:pageopacity="0.0"
     inkscape:pageshadow="2"
     inkscape:zoom="16.631104"
     inkscape:cx="-4.7572872"
     inkscape:cy="12.270818"
     inkscape:document-units="px"
     inkscape:current-layer="layer1"
     showgrid="true"
     fit-margin-top="0"
     fit-margin-left="0"
     fit-margin-right="0"
     fit-margin-bottom="0"
     inkscape:window-width="1366"
     inkscape:window-height="702"
     inkscape:window-x="0"
     inkscape:window-y="0"
     inkscape:window-maximized="1"
     inkscape:showpageshadow="false">
    <sodipodi:guide
       position="4.1796875e-06,21.999997"
       orientation="22,0"
       id="guide4116" />
    <sodipodi:guide
       position="4.1796875e-06,-2.6953124e-06"
       orientation="0,22"
       id="guide4118" />
    <sodipodi:guide
       position="22.000004,-2.6953124e-06"
       orientation="-22,0"
       id="guide4120" />
    <sodipodi:guide
       position="22.000004,21.999997"
       orientation="0,-22"
       id="guide4122" />
    <sodipodi:guide
       position="2.0000042,19.999997"
       orientation="18,0"
       id="guide4124" />
    <sodipodi:guide
       position="20.000004,1.9999973"
       orientation="-18,0"
       id="guide4128" />
    <sodipodi:guide
       position="20.000004,19.999997"
       orientation="0,-18"
       id="guide4130" />
    <sodipodi:guide
       position="3.0000042,18.999997"
       orientation="16,0"
       id="guide4132" />
    <sodipodi:guide
       position="3.0000042,2.9999973"
       orientation="0,16"
       id="guide4134" />
    <sodipodi:guide
       position="19.000004,2.9999973"
       orientation="-16,0"
       id="guide4136" />
    <sodipodi:guide
       position="19.000004,18.999997"
       orientation="0,-16"
       id="guide4138" />
    <inkscape:grid
       type="xygrid"
       id="grid4140" />
  </sodipodi:namedview>
  <metadata
     id="metadata3765">
    <rdf:RDF>
      <cc:Work
         rdf:about="">
        <dc:format>image/svg+xml</dc:format>
        <dc:type
           rdf:resource="http://purl.org/dc/dcmitype/StillImage" />
        <dc:title />
      </cc:Work>
    </rdf:RDF>
  </metadata>
  <g
     inkscape:label="Capa 1"
     inkscape:groupmode="layer"
     id="layer1"
     transform="translate(-553.72253,-583.11926)">
    <g
       id="g4187"
       transform="matrix(1.003758,0,0,1.003758,553.65462,583.2849)">
      <path
         sodipodi:nodetypes="cccccccccc"
         inkscape:connector-curvature="0"
         id="rect4082"
         d="M 3,3 3,19 19,19 19,3 Z M 4,4 18,4 18,18 4,18 Z"
         style="fill:#4d4d4d;fill-opacity:1;stroke:none" />
      <g
         style="fill:#4d4d4d;fill-opacity:1"
         transform="matrix(0.08240772,0,0,0.08240772,-10.588552,6.4243192)"
         sketch:type="MSLayerGroup"
         id="picture13">
        <path
           style="fill:#4d4d4d;fill-opacity:1"
           d="m 213.76544,35.82395 c 6.62651,0 12.25737,-2.317602 16.89562,-6.955854 4.63673,-4.638252 6.95585,-10.269108 6.95585,-16.894093 0,-6.6265105 -2.32065,-12.25736651 -6.95585,-16.8956185 -4.63825,-4.636727 -10.26911,-6.9558535 -16.89562,-6.9558535 -6.62498,0 -12.25584,2.3191265 -16.89409,6.9558535 -4.63673,4.63825199 -6.95585,10.269108 -6.95585,16.8956185 0,6.624985 2.3176,12.257366 6.95585,16.894093 4.63825,4.636728 10.26911,6.955854 16.89409,6.955854 l 0,0 z"
           id="path936"
           inkscape:connector-curvature="0" />
        <path
           style="fill:#4d4d4d;fill-opacity:1"
           d="m 233.34104,98.974248 -19.87648,-19.874956 -39.75144,39.751438 0,23.85147 174.90876,0 0,-55.652926 -51.67641,-51.677934 -63.60443,63.602908 z"
           id="path938"
           inkscape:connector-curvature="0" />
      </g>
    </g>
    <g
       transform="translate(532.71105,-454.91495)"
       id="layer1-5"
       inkscape:label="Capa 1">
      <g
         inkscape:label="Capa 1"
         id="layer1-1"
         transform="matrix(1.192368,0,0,1.192368,1.312296,-203.65482)">
        <g
           transform="matrix(0.19796953,0,0,0.19796953,27.758388,1053.4341)"
           id="g3">
          <g
             inkscape:label="Capa 1"
             id="layer1-2"
             transform="matrix(2.1621621,0,0,2.1621621,-60.105498,-2251.0913)">
            <path
               style="opacity:1;fill:#ffffff;fill-opacity:1;stroke:none"
               d="m 30.909515,1041.2419 0,2.8 -2.8,0 0,1.4 2.8,0 0,2.8 1.4,0 0,-2.8 2.8,0 0,-1.4 -2.8,0 0,-2.8 z"
               id="rect4182"
               inkscape:connector-curvature="0"
               sodipodi:nodetypes="ccccccccccccc" />
          </g>
        </g>
      </g>
    </g>
  </g>
</svg>
