<?xml version="1.0" encoding="UTF-8" standalone="no"?>
<!-- Created with Inkscape (http://www.inkscape.org/) -->

<svg
   xmlns:sketch="http://www.bohemiancoding.com/sketch/ns"
   xmlns:dc="http://purl.org/dc/elements/1.1/"
   xmlns:cc="http://creativecommons.org/ns#"
   xmlns:rdf="http://www.w3.org/1999/02/22-rdf-syntax-ns#"
   xmlns:svg="http://www.w3.org/2000/svg"
   xmlns="http://www.w3.org/2000/svg"
   xmlns:sodipodi="http://sodipodi.sourceforge.net/DTD/sodipodi-0.dtd"
   xmlns:inkscape="http://www.inkscape.org/namespaces/inkscape"
   width="22"
   height="22"
   id="svg3049"
   version="1.1"
   inkscape:version="0.91 r13725"
   sodipodi:docname="resource-calendar-insert.svg"
   inkscape:export-filename="/home/uri/.kde/share/icons/NITRUX-KDE/16x16/actions/view-right-new.png"
   inkscape:export-xdpi="30"
   inkscape:export-ydpi="30">
  <defs
     id="defs3051">
    <linearGradient
       id="linearGradient5263">
      <stop
         offset="0"
         style="stop-color:#a0d5ff;stop-opacity:1"
         id="stop5265" />
      <stop
         offset="1"
         style="stop-color:#a0d5ff;stop-opacity:1"
         id="stop5267" />
    </linearGradient>
  </defs>
  <sodipodi:namedview
     id="base"
     pagecolor="#ffffff"
     bordercolor="#666666"
     borderopacity="1.0"
     inkscape:pageopacity="0.0"
     inkscape:pageshadow="2"
     inkscape:zoom="23.704737"
     inkscape:cx="-5.6428161"
     inkscape:cy="12.848073"
     inkscape:document-units="px"
     inkscape:current-layer="layer1"
     showgrid="true"
     fit-margin-top="0"
     fit-margin-left="0"
     fit-margin-right="0"
     fit-margin-bottom="0"
     inkscape:window-width="1366"
     inkscape:window-height="702"
     inkscape:window-x="0"
     inkscape:window-y="0"
     inkscape:window-maximized="1"
     inkscape:showpageshadow="false"
     borderlayer="true">
    <sodipodi:guide
       position="2.0000044,20.00003"
       orientation="18,0"
       id="guide4067" />
    <sodipodi:guide
       position="2.0000044,2.0000296"
       orientation="0,18"
       id="guide4069" />
    <sodipodi:guide
       position="20.000004,2.0000296"
       orientation="-18,0"
       id="guide4071" />
    <sodipodi:guide
       position="20.000004,20.00003"
       orientation="0,-18"
       id="guide4073" />
    <sodipodi:guide
       position="3.0000044,19.00003"
       orientation="16,0"
       id="guide4077" />
    <sodipodi:guide
       position="3.0000044,3.0000296"
       orientation="0,16"
       id="guide4079" />
    <sodipodi:guide
       position="19.000004,3.0000296"
       orientation="-16,0"
       id="guide4081" />
    <sodipodi:guide
       position="19.000004,19.00003"
       orientation="0,-16"
       id="guide4083" />
    <inkscape:grid
       type="xygrid"
       id="grid4085" />
  </sodipodi:namedview>
  <metadata
     id="metadata3054">
    <rdf:RDF>
      <cc:Work
         rdf:about="">
        <dc:format>image/svg+xml</dc:format>
        <dc:type
           rdf:resource="http://purl.org/dc/dcmitype/StillImage" />
        <dc:title />
      </cc:Work>
    </rdf:RDF>
  </metadata>
  <g
     inkscape:label="Capa 1"
     inkscape:groupmode="layer"
     id="layer1"
     transform="translate(-421.71429,-525.79074)">
    <g
       id="calendar51"
       sketch:type="MSLayerGroup"
       transform="matrix(0.11064313,0,0,0.11064313,425.01962,528.68135)"
       style="fill:#4d4d4d;fill-opacity:1">
      <path
         d="m 132.691,23.953 c -2.062,-2.064 -4.508,-3.096 -7.332,-3.096 l -10.428,0 0,-7.822 c 0,-3.584 -1.277,-6.653 -3.83,-9.206 -2.554,-2.553 -5.621,-3.83 -9.207,-3.83 l -5.213,0 c -3.586,0 -6.654,1.277 -9.207,3.83 -2.554,2.553 -3.83,5.622 -3.83,9.206 l 0,7.822 -31.285,0 0,-7.822 c 0,-3.584 -1.277,-6.653 -3.83,-9.206 -2.553,-2.553 -5.622,-3.83 -9.207,-3.83 l -5.214,0 c -3.585,0 -6.654,1.277 -9.207,3.83 -2.553,2.553 -3.83,5.622 -3.83,9.206 l 0,7.822 -10.428,0 c -2.825,0 -5.269,1.032 -7.333,3.096 -2.064,2.064 -3.096,4.509 -3.096,7.333 l 0,104.287 c 0,2.823 1.032,5.267 3.096,7.332 2.064,2.064 4.508,3.096 7.333,3.096 l 114.714,0 c 2.824,0 5.27,-1.032 7.332,-3.096 2.064,-2.064 3.096,-4.509 3.096,-7.332 l 0,-104.287 c 0,-2.825 -1.031,-5.269 -3.094,-7.333 l 0,0 z M 94.073,13.036 c 0,-0.761 0.243,-1.386 0.731,-1.874 0.488,-0.488 1.113,-0.733 1.875,-0.733 l 5.213,0 c 0.762,0 1.385,0.244 1.875,0.733 0.488,0.489 0.732,1.114 0.732,1.874 l 0,23.464 c 0,0.761 -0.244,1.385 -0.732,1.874 -0.49,0.488 -1.113,0.733 -1.875,0.733 l -5.213,0 c -0.762,0 -1.387,-0.244 -1.875,-0.733 -0.488,-0.489 -0.731,-1.113 -0.731,-1.874 l 0,-23.464 0,0 z m -62.572,0 c 0,-0.761 0.244,-1.386 0.733,-1.874 0.489,-0.488 1.113,-0.733 1.874,-0.733 l 5.214,0 c 0.761,0 1.386,0.244 1.874,0.733 0.488,0.489 0.733,1.114 0.733,1.874 l 0,23.464 c 0,0.761 -0.244,1.386 -0.733,1.874 -0.489,0.488 -1.113,0.733 -1.874,0.733 l -5.214,0 c -0.761,0 -1.386,-0.244 -1.874,-0.733 -0.488,-0.489 -0.733,-1.113 -0.733,-1.874 l 0,-23.464 0,0 z m 93.856,122.536 -114.714,0 0,-83.429 114.714,0 0,83.429 0,0 z"
         id="path233"
         sketch:type="MSShapeGroup"
         inkscape:connector-curvature="0"
         style="fill:#4d4d4d;fill-opacity:1" />
    </g>
    <g
       transform="translate(405.82678,-511.10401)"
       id="layer1-5"
       inkscape:label="Capa 1">
      <path
         sodipodi:nodetypes="ccccccccccccc"
         inkscape:connector-curvature="0"
         id="rect4182"
         d="m 26.155577,1047.8148 0,2 -2,0 0,1 2,0 0,2 1,0 0,-2 2,0 0,-1 -2,0 0,-2 z"
         style="opacity:1;fill:#4d4d4d;fill-opacity:1;stroke:none" />
    </g>
  </g>
</svg>
