<?xml version="1.0" encoding="UTF-8" standalone="no"?>
<!-- Created with Inkscape (http://www.inkscape.org/) -->

<svg
   xmlns:sketch="http://www.bohemiancoding.com/sketch/ns"
   xmlns:dc="http://purl.org/dc/elements/1.1/"
   xmlns:cc="http://creativecommons.org/ns#"
   xmlns:rdf="http://www.w3.org/1999/02/22-rdf-syntax-ns#"
   xmlns:svg="http://www.w3.org/2000/svg"
   xmlns="http://www.w3.org/2000/svg"
   xmlns:sodipodi="http://sodipodi.sourceforge.net/DTD/sodipodi-0.dtd"
   xmlns:inkscape="http://www.inkscape.org/namespaces/inkscape"
   width="22"
   height="22"
   id="svg3760"
   version="1.1"
   inkscape:version="0.91 r13725"
   sodipodi:docname="system-shutdown.svg">
  <defs
     id="defs3762" />
  <sodipodi:namedview
     id="base"
     pagecolor="#ffffff"
     bordercolor="#666666"
     borderopacity="1.0"
     inkscape:pageopacity="0.0"
     inkscape:pageshadow="2"
     inkscape:zoom="21.263198"
     inkscape:cx="-2.0925779"
     inkscape:cy="11.957224"
     inkscape:document-units="px"
     inkscape:current-layer="layer1"
     showgrid="true"
     fit-margin-top="0"
     fit-margin-left="0"
     fit-margin-right="0"
     fit-margin-bottom="0"
     inkscape:window-width="1366"
     inkscape:window-height="702"
     inkscape:window-x="0"
     inkscape:window-y="0"
     inkscape:window-maximized="1"
     inkscape:showpageshadow="false"
     showguides="true">
    <sodipodi:guide
       position="4.1796875e-06,21.999997"
       orientation="22,0"
       id="guide4116" />
    <sodipodi:guide
       position="4.1796875e-06,-2.6953124e-06"
       orientation="0,22"
       id="guide4118" />
    <sodipodi:guide
       position="22.000004,-2.6953124e-06"
       orientation="-22,0"
       id="guide4120" />
    <sodipodi:guide
       position="22.000004,21.999997"
       orientation="0,-22"
       id="guide4122" />
    <sodipodi:guide
       position="2.0000042,19.999997"
       orientation="18,0"
       id="guide4124" />
    <sodipodi:guide
       position="2.0000042,1.9999973"
       orientation="0,18"
       id="guide4126" />
    <sodipodi:guide
       position="20.000004,1.9999973"
       orientation="-18,0"
       id="guide4128" />
    <sodipodi:guide
       position="20.000004,19.999997"
       orientation="0,-18"
       id="guide4130" />
    <sodipodi:guide
       position="3.0000042,18.999997"
       orientation="16,0"
       id="guide4132" />
    <sodipodi:guide
       position="3.0000042,2.9999973"
       orientation="0,16"
       id="guide4134" />
    <sodipodi:guide
       position="19.000004,2.9999973"
       orientation="-16,0"
       id="guide4136" />
    <sodipodi:guide
       position="19.000004,18.999997"
       orientation="0,-16"
       id="guide4138" />
    <inkscape:grid
       type="xygrid"
       id="grid4140" />
  </sodipodi:namedview>
  <metadata
     id="metadata3765">
    <rdf:RDF>
      <cc:Work
         rdf:about="">
        <dc:format>image/svg+xml</dc:format>
        <dc:type
           rdf:resource="http://purl.org/dc/dcmitype/StillImage" />
        <dc:title />
      </cc:Work>
    </rdf:RDF>
  </metadata>
  <g
     inkscape:label="Capa 1"
     inkscape:groupmode="layer"
     id="layer1"
     transform="translate(-553.72253,-583.11926)">
    <g
       id="power27"
       sketch:type="MSLayerGroup"
       transform="matrix(0.12676497,0,0,0.12676497,556.71721,584.86309)"
       style="fill:#4d4d4d;fill-opacity:1">
      <g
         id="g953"
         sketch:type="MSShapeGroup"
         style="fill:#4d4d4d;fill-opacity:1">
        <path
           d="m 63,73.215 c 2.824,0 5.27,-1.031 7.332,-3.096 2.064,-2.063 3.098,-4.508 3.098,-7.332 l 0,-52.144 C 73.43,7.818 72.397,5.374 70.332,3.311 68.27,1.246 65.825,0.214 63,0.214 c -2.825,0 -5.269,1.033 -7.333,3.097 -2.064,2.063 -3.096,4.508 -3.096,7.332 l 0,52.144 c 0,2.824 1.032,5.269 3.096,7.332 2.064,2.065 4.509,3.096 7.333,3.096 l 0,0 z"
           id="path955"
           inkscape:connector-curvature="0"
           style="fill:#4d4d4d;fill-opacity:1" />
        <path
           d="M 119.014,45.269 C 114.641,36.525 108.491,29.192 100.561,23.272 98.28,21.534 95.7,20.855 92.821,21.235 c -2.879,0.38 -5.16,1.738 -6.844,4.073 -1.738,2.281 -2.403,4.847 -1.996,7.699 0.406,2.853 1.752,5.147 4.033,6.885 5.321,4.019 9.438,8.935 12.342,14.747 2.906,5.811 4.358,12.004 4.358,18.575 0,5.65 -1.1,11.04 -3.299,16.173 -2.2,5.133 -5.174,9.573 -8.922,13.321 -3.748,3.747 -8.187,6.721 -13.32,8.921 -5.133,2.2 -10.524,3.301 -16.173,3.301 -5.648,0 -11.039,-1.101 -16.172,-3.301 -5.133,-2.2 -9.573,-5.174 -13.321,-8.921 -3.747,-3.748 -6.721,-8.188 -8.921,-13.321 -2.2,-5.133 -3.3,-10.523 -3.3,-16.173 0,-6.571 1.453,-12.763 4.359,-18.575 2.906,-5.811 7.02,-10.727 12.343,-14.747 2.281,-1.739 3.625,-4.033 4.033,-6.885 0.407,-2.851 -0.258,-5.418 -1.996,-7.699 -1.684,-2.335 -3.951,-3.693 -6.803,-4.073 -2.852,-0.38 -5.446,0.299 -7.781,2.037 -7.931,5.92 -14.081,13.253 -18.454,21.997 -4.373,8.745 -6.559,18.06 -6.559,27.945 0,8.474 1.657,16.566 4.97,24.279 3.314,7.713 7.767,14.366 13.362,19.961 5.594,5.594 12.248,10.049 19.961,13.36 7.713,3.314 15.806,4.972 24.279,4.972 8.473,0 16.566,-1.658 24.279,-4.972 7.713,-3.312 14.367,-7.766 19.961,-13.36 5.594,-5.594 10.047,-12.248 13.361,-19.961 3.313,-7.713 4.969,-15.806 4.969,-24.279 0,-9.885 -2.183,-19.2 -6.556,-27.945 l 0,0 z"
           id="path957"
           inkscape:connector-curvature="0"
           style="fill:#4d4d4d;fill-opacity:1" />
      </g>
    </g>
  </g>
</svg>
