<?xml version="1.0" encoding="UTF-8" standalone="no"?>
<!-- Created with Inkscape (http://www.inkscape.org/) -->

<svg
   xmlns:osb="http://www.openswatchbook.org/uri/2009/osb"
   xmlns:dc="http://purl.org/dc/elements/1.1/"
   xmlns:cc="http://creativecommons.org/ns#"
   xmlns:rdf="http://www.w3.org/1999/02/22-rdf-syntax-ns#"
   xmlns:svg="http://www.w3.org/2000/svg"
   xmlns="http://www.w3.org/2000/svg"
   xmlns:xlink="http://www.w3.org/1999/xlink"
   xmlns:sodipodi="http://sodipodi.sourceforge.net/DTD/sodipodi-0.dtd"
   xmlns:inkscape="http://www.inkscape.org/namespaces/inkscape"
   width="32"
   height="32"
   id="svg5453"
   version="1.1"
   inkscape:version="0.91 r13725"
   sodipodi:docname="application-x-kexiproject-shortcut.svg">
  <defs
     id="defs5455">
    <linearGradient
       inkscape:collect="always"
       id="linearGradient4307">
      <stop
         style="stop-color:#9150ad;stop-opacity:1"
         offset="0"
         id="stop4309" />
      <stop
         style="stop-color:#c06fe2;stop-opacity:1"
         offset="1"
         id="stop4311" />
    </linearGradient>
    <linearGradient
       gradientTransform="matrix(1.0646823,0,0,1.0824016,51.990004,-31.819073)"
       gradientUnits="userSpaceOnUse"
       y2="517.79797"
       x2="375.57144"
       y1="543.79797"
       x1="375.57144"
       id="linearGradient4190-9"
       xlink:href="#linearGradient4307"
       inkscape:collect="always" />
    <linearGradient
       id="linearGradient4207"
       osb:paint="gradient">
      <stop
         style="stop-color:#3498db;stop-opacity:1;"
         offset="0"
         id="stop3371" />
      <stop
         style="stop-color:#3498db;stop-opacity:0;"
         offset="1"
         id="stop3373" />
    </linearGradient>
  </defs>
  <sodipodi:namedview
     id="base"
     pagecolor="#ffffff"
     bordercolor="#666666"
     borderopacity="1.0"
     inkscape:pageopacity="0"
     inkscape:pageshadow="2"
     inkscape:zoom="9.6544057"
     inkscape:cx="-45.794433"
     inkscape:cy="12.785085"
     inkscape:document-units="px"
     inkscape:current-layer="layer1-78"
     showgrid="true"
     fit-margin-top="0"
     fit-margin-left="0"
     fit-margin-right="0"
     fit-margin-bottom="0"
     inkscape:window-width="1366"
     inkscape:window-height="702"
     inkscape:window-x="0"
     inkscape:window-y="0"
     inkscape:window-maximized="1"
     inkscape:showpageshadow="false"
     borderlayer="true"
     showguides="true"
     inkscape:guide-bbox="true"
     inkscape:object-nodes="true"
     inkscape:snap-bbox="true">
    <inkscape:grid
       type="xygrid"
       id="grid4063" />
    <sodipodi:guide
       position="2.0000117,30.000026"
       orientation="28,0"
       id="guide4167" />
    <sodipodi:guide
       position="17,5"
       orientation="0,28"
       id="guide4169" />
    <sodipodi:guide
       position="30.000012,2.0000264"
       orientation="-28,0"
       id="guide4171" />
    <sodipodi:guide
       position="30.000012,30.000026"
       orientation="0,-28"
       id="guide4173" />
    <sodipodi:guide
       position="2.0000117,30.000026"
       orientation="28,0"
       id="guide4181" />
    <sodipodi:guide
       position="16.000012,30.000026"
       orientation="0,-14"
       id="guide4187" />
    <sodipodi:guide
       position="5.0000117,30.000026"
       orientation="28,0"
       id="guide4143" />
    <sodipodi:guide
       position="5.0000117,2.0000264"
       orientation="0,22"
       id="guide4145" />
    <sodipodi:guide
       position="27.000012,2.0000264"
       orientation="-28,0"
       id="guide4147" />
    <sodipodi:guide
       position="27.000012,30.000026"
       orientation="0,-22"
       id="guide4149" />
    <sodipodi:guide
       position="27,30"
       orientation="0,-7"
       id="guide4155" />
    <sodipodi:guide
       position="27.00001,23"
       orientation="-7,-1e-05"
       id="guide4162" />
    <sodipodi:guide
       position="24,27"
       orientation="0,1"
       id="guide3378" />
  </sodipodi:namedview>
  <metadata
     id="metadata5458">
    <rdf:RDF>
      <cc:Work
         rdf:about="">
        <dc:format>image/svg+xml</dc:format>
        <dc:type
           rdf:resource="http://purl.org/dc/dcmitype/StillImage" />
        <dc:title />
      </cc:Work>
    </rdf:RDF>
  </metadata>
  <g
     inkscape:label="Capa 1"
     inkscape:groupmode="layer"
     id="layer1"
     transform="translate(-384.57143,-515.798)">
    <g
       transform="translate(392.57143,-514.5642)"
       id="layer1-7"
       inkscape:label="Capa 1"
       style="fill:#ffffff;fill-opacity:1" />
    <g
       id="g4240"
       transform="translate(341.79698,500.25245)">
      <g
         inkscape:transform-center-y="-9.4924686"
         inkscape:transform-center-x="5.4653607"
         inkscape:label="Capa 1"
         id="layer1-1"
         transform="translate(-392.98822,-511.27795)">
        <g
           id="layer1-3"
           inkscape:label="Capa 1"
           transform="translate(0.41988239,0.03484499)">
          <rect
             ry="0.83437711"
             y="528.64618"
             x="440.14279"
             height="28.142445"
             width="22.35833"
             id="rect4182-2"
             style="opacity:0.997;fill:url(#linearGradient4190-9);fill-opacity:1;stroke:none;stroke-width:0.104;stroke-linecap:round;stroke-linejoin:round;stroke-miterlimit:4;stroke-dasharray:none;stroke-opacity:1" />
          <g
             id="g4611"
             transform="translate(382.34279,511.78866)">
            <rect
               y="3"
               x="10"
               height="1"
               width="44"
               id="rect4236-8-2"
               style="opacity:1;fill:#ffffff;fill-opacity:0.40983605;stroke:none" />
            <g
               id="g5046"
               transform="translate(1.7514779,-0.67379255)">
              <rect
                 y="3"
                 x="10"
                 height="1"
                 width="44"
                 id="rect4236-8-3"
                 style="opacity:1;fill:#ffffff;fill-opacity:0.40983605;stroke:none" />
              <g
                 id="g5686"
                 transform="translate(-3.9698942,4.8847507)">
                <rect
                   y="3"
                   x="10"
                   height="1"
                   width="44"
                   id="rect4236-8-9"
                   style="opacity:1;fill:#ffffff;fill-opacity:0.40983605;stroke:none" />
                <g
                   inkscape:transform-center-y="-9.4924686"
                   inkscape:transform-center-x="5.4653607"
                   inkscape:label="Capa 1"
                   id="layer1-31"
                   transform="translate(-392.98822,-511.27795)" />
              </g>
              <g
                 id="g6289"
                 transform="translate(-2.1496533,3.4906341)">
                <g
                   inkscape:transform-center-y="-9.4924686"
                   inkscape:transform-center-x="5.4653607"
                   inkscape:label="Capa 1"
                   id="layer1-77"
                   transform="translate(-392.98822,-511.27795)" />
              </g>
              <g
                 id="g11001"
                 transform="translate(-14.097555,-1.1995785)">
                <g
                   inkscape:transform-center-y="-9.4924686"
                   inkscape:transform-center-x="5.4653607"
                   inkscape:label="Capa 1"
                   id="layer1-34"
                   transform="translate(-392.98822,-511.27795)">
                  <g
                     id="layer1-3-2"
                     inkscape:label="Capa 1"
                     transform="translate(0.41988239,0.03484499)" />
                </g>
              </g>
            </g>
          </g>
        </g>
      </g>
      <g
         id="g15209"
         transform="translate(-19.057982,-5.554605)">
        <rect
           y="3"
           x="10"
           height="1"
           width="44"
           id="rect4236-8"
           style="opacity:1;fill:#ffffff;fill-opacity:0.40983605;stroke:none" />
        <g
           inkscape:transform-center-y="-9.4924686"
           inkscape:transform-center-x="5.4653607"
           inkscape:label="Capa 1"
           id="layer1-72"
           transform="translate(-392.98822,-511.27795)">
          <g
             id="g19280"
             transform="translate(391.23463,518.32854)">
            <rect
               y="3"
               x="10"
               height="1"
               width="44"
               id="rect4236-8-4"
               style="opacity:1;fill:#ffffff;fill-opacity:0.40983605;stroke:none" />
            <g
               inkscape:transform-center-y="-9.4924686"
               inkscape:transform-center-x="5.4653607"
               inkscape:label="Capa 1"
               id="layer1-78"
               transform="translate(-392.98822,-511.27795)">
              <g
                 style="fill:#3e1f4c;fill-opacity:0.99215686"
                 inkscape:label="Capa 1"
                 id="layer1-8"
                 transform="matrix(0.63581352,0,0,0.63581352,166.91211,203.78928)">
                <g
                   style="fill:#3e1f4c;fill-opacity:0.99215686"
                   id="g4231"
                   transform="matrix(1.5263052,0,0,1.5263052,376.31698,-1040.1258)">
                  <path
                     style="fill:#3e1f4c;fill-opacity:0.99215686"
                     inkscape:connector-curvature="0"
                     id="path11"
                     d="m 74.319489,1024.9433 c 0.0389,-0.1073 0.06639,-0.2164 0.06639,-0.3323 3e-6,-1.4221 -3.072802,-2.1892 -5.964686,-2.1892 -2.889022,0 -5.961006,0.7671 -5.961006,2.1892 0,0.1167 0.02697,0.226 0.06629,0.3333 l -0.01539,0.028 c -0.132182,0.2397 -0.197528,0.4817 -0.197528,0.7199 l 0,1.7595 c 0,0.271 0.08523,0.531 0.236377,0.7769 l -0.01974,0.034 c -0.144118,0.25 -0.216512,0.5031 -0.216512,0.7534 l 0,1.759 c 0,0.2623 0.08045,0.5141 0.223376,0.7532 l -0.0072,0.015 c -0.144118,0.2495 -0.216512,0.5031 -0.216512,0.7528 l 0,1.7593 c 0,1.5639 2.682906,2.7884 6.107666,2.7884 3.428455,0 6.111351,-1.2245 6.111351,-2.7884 l 0,-1.7593 c 0,-0.2501 -0.0725,-0.5041 -0.218305,-0.7532 l -0.006,-0.015 c 0.141834,-0.2395 0.224281,-0.4911 0.224281,-0.754 l 0,-1.7593 c 0,-0.2502 -0.0725,-0.5044 -0.218304,-0.7539 l -0.01894,-0.033 c 0.151002,-0.2462 0.237202,-0.5059 0.237202,-0.7777 l 0,-1.7594 c 0,-0.2381 -0.06639,-0.4808 -0.197532,-0.7207 l -0.01557,-0.028 z m -0.441599,9.1067 c 0,1.0102 -2.239507,2.1343 -5.4566,2.1343 -3.214062,0 -5.453974,-1.1241 -5.453974,-2.1343 l 0,-1.6546 c 1.003035,0.9185 3.066596,1.5047 5.453974,1.5047 2.390657,0 4.454136,-0.5864 5.4566,-1.5057 l 0,1.6556 z m 0,-3.2759 c 0,1.0092 -2.239507,2.1341 -5.4566,2.1341 -3.214062,0 -5.453974,-1.1249 -5.453974,-2.1341 l 0,-1.6551 c 1.003035,0.9182 3.066596,1.5047 5.453974,1.5047 2.390657,0 4.454136,-0.5865 5.4566,-1.5057 l 0,1.6561 z m 0,-3.3235 c 0,1.0093 -2.239507,2.1342 -5.4566,2.1342 -3.214062,0 -5.453974,-1.1243 -5.453974,-2.1342 l 0,-1.4641 c 0.980215,0.8308 3.253079,1.2615 5.453974,1.2615 2.203835,0 4.475734,-0.4307 5.4566,-1.2615 l 0,1.4641 z" />
                </g>
              </g>
            </g>
          </g>
        </g>
      </g>
    </g>
  </g>
</svg>
