<?xml version="1.0" encoding="UTF-8" standalone="no"?>
<!-- Created with Inkscape (http://www.inkscape.org/) -->

<svg
   xmlns:osb="http://www.openswatchbook.org/uri/2009/osb"
   xmlns:dc="http://purl.org/dc/elements/1.1/"
   xmlns:cc="http://creativecommons.org/ns#"
   xmlns:rdf="http://www.w3.org/1999/02/22-rdf-syntax-ns#"
   xmlns:svg="http://www.w3.org/2000/svg"
   xmlns="http://www.w3.org/2000/svg"
   xmlns:xlink="http://www.w3.org/1999/xlink"
   xmlns:sodipodi="http://sodipodi.sourceforge.net/DTD/sodipodi-0.dtd"
   xmlns:inkscape="http://www.inkscape.org/namespaces/inkscape"
   width="32"
   height="32"
   id="svg5453"
   version="1.1"
   inkscape:version="0.91 r13725"
   sodipodi:docname="application-x-java.svg">
  <defs
     id="defs5455">
    <linearGradient
       inkscape:collect="always"
       id="linearGradient4307">
      <stop
         style="stop-color:#e17844;stop-opacity:1"
         offset="0"
         id="stop4309" />
      <stop
         style="stop-color:#ff8f65;stop-opacity:1"
         offset="1"
         id="stop4311" />
    </linearGradient>
    <linearGradient
       gradientTransform="matrix(1.0646823,0,0,1.0824016,51.990004,-31.819073)"
       gradientUnits="userSpaceOnUse"
       y2="517.79797"
       x2="375.57144"
       y1="543.79797"
       x1="375.57144"
       id="linearGradient4190-9"
       xlink:href="#linearGradient4307"
       inkscape:collect="always" />
    <linearGradient
       id="linearGradient4207"
       osb:paint="gradient">
      <stop
         style="stop-color:#3498db;stop-opacity:1;"
         offset="0"
         id="stop3371" />
      <stop
         style="stop-color:#3498db;stop-opacity:0;"
         offset="1"
         id="stop3373" />
    </linearGradient>
  </defs>
  <sodipodi:namedview
     id="base"
     pagecolor="#ffffff"
     bordercolor="#666666"
     borderopacity="1.0"
     inkscape:pageopacity="0"
     inkscape:pageshadow="2"
     inkscape:zoom="9.6544057"
     inkscape:cx="-27.823363"
     inkscape:cy="12.785085"
     inkscape:document-units="px"
     inkscape:current-layer="g4240"
     showgrid="true"
     fit-margin-top="0"
     fit-margin-left="0"
     fit-margin-right="0"
     fit-margin-bottom="0"
     inkscape:window-width="1366"
     inkscape:window-height="702"
     inkscape:window-x="0"
     inkscape:window-y="0"
     inkscape:window-maximized="1"
     inkscape:showpageshadow="false"
     borderlayer="true"
     showguides="true"
     inkscape:guide-bbox="true"
     inkscape:object-nodes="true"
     inkscape:snap-bbox="true">
    <inkscape:grid
       type="xygrid"
       id="grid4063" />
    <sodipodi:guide
       position="2.0000117,30.000026"
       orientation="28,0"
       id="guide4167" />
    <sodipodi:guide
       position="-17,7"
       orientation="0,28"
       id="guide4169" />
    <sodipodi:guide
       position="30.000012,2.0000264"
       orientation="-28,0"
       id="guide4171" />
    <sodipodi:guide
       position="30.000012,30.000026"
       orientation="0,-28"
       id="guide4173" />
    <sodipodi:guide
       position="2.0000117,30.000026"
       orientation="28,0"
       id="guide4181" />
    <sodipodi:guide
       position="16.000012,30.000026"
       orientation="0,-14"
       id="guide4187" />
    <sodipodi:guide
       position="5.0000117,30.000026"
       orientation="28,0"
       id="guide4143" />
    <sodipodi:guide
       position="5.0000117,2.0000264"
       orientation="0,22"
       id="guide4145" />
    <sodipodi:guide
       position="27.000012,2.0000264"
       orientation="-28,0"
       id="guide4147" />
    <sodipodi:guide
       position="27.000012,30.000026"
       orientation="0,-22"
       id="guide4149" />
    <sodipodi:guide
       position="27,30"
       orientation="0,-7"
       id="guide4155" />
    <sodipodi:guide
       position="27.00001,23"
       orientation="-7,-1e-05"
       id="guide4162" />
    <sodipodi:guide
       position="24,27"
       orientation="0,1"
       id="guide3378" />
  </sodipodi:namedview>
  <metadata
     id="metadata5458">
    <rdf:RDF>
      <cc:Work
         rdf:about="">
        <dc:format>image/svg+xml</dc:format>
        <dc:type
           rdf:resource="http://purl.org/dc/dcmitype/StillImage" />
        <dc:title />
      </cc:Work>
    </rdf:RDF>
  </metadata>
  <g
     inkscape:label="Capa 1"
     inkscape:groupmode="layer"
     id="layer1"
     transform="translate(-384.57143,-515.798)">
    <g
       transform="translate(392.57143,-514.5642)"
       id="layer1-7"
       inkscape:label="Capa 1"
       style="fill:#ffffff;fill-opacity:1" />
    <g
       id="g4240"
       transform="translate(341.79698,500.25245)">
      <g
         inkscape:transform-center-y="-9.4924686"
         inkscape:transform-center-x="5.4653607"
         inkscape:label="Capa 1"
         id="layer1-1"
         transform="translate(-392.98822,-511.27795)">
        <g
           id="layer1-3"
           inkscape:label="Capa 1"
           transform="translate(0.41988239,0.03484499)">
          <rect
             ry="0.83437711"
             y="528.64618"
             x="440.14279"
             height="28.142445"
             width="22.35833"
             id="rect4182-2"
             style="opacity:0.997;fill:url(#linearGradient4190-9);fill-opacity:1;stroke:none;stroke-width:0.104;stroke-linecap:round;stroke-linejoin:round;stroke-miterlimit:4;stroke-dasharray:none;stroke-opacity:1" />
          <g
             id="g4611"
             transform="translate(382.34279,511.78866)">
            <rect
               y="3"
               x="10"
               height="1"
               width="44"
               id="rect4236-8-2"
               style="opacity:1;fill:#ffffff;fill-opacity:0.40983605;stroke:none" />
            <g
               id="g5046"
               transform="translate(1.7514779,-0.67379255)">
              <rect
                 y="3"
                 x="10"
                 height="1"
                 width="44"
                 id="rect4236-8-3"
                 style="opacity:1;fill:#ffffff;fill-opacity:0.40983605;stroke:none" />
              <g
                 id="g5686"
                 transform="translate(-3.9698942,4.8847507)">
                <rect
                   y="3"
                   x="10"
                   height="1"
                   width="44"
                   id="rect4236-8-9"
                   style="opacity:1;fill:#ffffff;fill-opacity:0.40983605;stroke:none" />
                <g
                   inkscape:transform-center-y="-9.4924686"
                   inkscape:transform-center-x="5.4653607"
                   inkscape:label="Capa 1"
                   id="layer1-31"
                   transform="translate(-392.98822,-511.27795)" />
              </g>
              <g
                 id="g6289"
                 transform="translate(-2.1496533,3.4906341)">
                <g
                   inkscape:transform-center-y="-9.4924686"
                   inkscape:transform-center-x="5.4653607"
                   inkscape:label="Capa 1"
                   id="layer1-77"
                   transform="translate(-392.98822,-511.27795)" />
              </g>
              <g
                 id="g11001"
                 transform="translate(-14.097555,-1.1995785)">
                <g
                   inkscape:transform-center-y="-9.4924686"
                   inkscape:transform-center-x="5.4653607"
                   inkscape:label="Capa 1"
                   id="layer1-34"
                   transform="translate(-392.98822,-511.27795)">
                  <g
                     id="layer1-3-2"
                     inkscape:label="Capa 1"
                     transform="translate(0.41988239,0.03484499)" />
                </g>
              </g>
            </g>
          </g>
        </g>
      </g>
      <path
         inkscape:connector-curvature="0"
         d="m 63.657346,33.107248 c 0.03203,5.53e-4 0.06115,0.0017 0.10699,0.0017 0.623525,0 2.168221,-0.111452 3.048547,-1.143644 1.127271,-1.322122 1.313468,-2.951663 0.424781,-3.71 C 66.95129,28.011049 66.580546,27.88208 66.1657,27.88208 c -0.336075,0 -0.694101,0.08977 -1.049504,0.248446 -0.808646,-1.439014 -5.811328,-1.518552 -6.885004,-1.518552 -1.169053,3.3e-5 -6.998671,0.09323 -6.999742,1.932829 l 0,2.98e-4 c 0,0 0,0 0,3.04e-4 l 0,3.04e-4 c 0,2.148113 0.921673,4.074697 2.372101,5.397592 -1.345818,0.359296 -2.367136,0.934661 -2.367136,1.826905 0,1.854461 4.399937,2.349481 6.999714,2.349481 2.599639,0 6.999101,-0.49502 6.999101,-2.349481 0,-0.892244 -1.021384,-1.467609 -2.36713,-1.826905 0.283082,-0.258049 0.549625,-0.534521 0.789246,-0.836197 z M 66.505,29.113829 c 0.343795,0.292719 0.181261,1.26158 -0.550293,2.119624 -0.381889,0.44703 -1.027525,0.626612 -1.537549,0.699038 0.403834,-0.779852 0.671481,-1.644374 0.773474,-2.560646 0.368463,-0.245662 0.721685,-0.361278 0.975101,-0.361278 0.144819,0 0.258723,0.03468 0.339267,0.103262 z m -8.273874,-1.373363 c 3.194536,0 5.159683,0.47753 5.743535,0.805084 -0.583819,0.32725 -2.548966,0.804786 -5.743535,0.804786 -3.195277,0 -5.160252,-0.477536 -5.744138,-0.804786 0.583919,-0.327554 2.548861,-0.805084 5.744138,-0.805084 z m 5.877442,8.017636 c -0.107897,0.351212 -2.012932,1.233388 -5.872439,1.233388 -3.859678,0 -5.765216,-0.882176 -5.872648,-1.209427 0.06394,-0.209115 0.770254,-0.6054 2.141475,-0.893016 -0.02369,0.07028 -0.03982,0.143476 -0.03982,0.223379 0,1.030011 2.050423,1.246112 3.770978,1.246112 1.719776,0 3.770199,-0.216101 3.770199,-1.246112 0,-0.08034 -0.0164,-0.154173 -0.04009,-0.225091 1.371657,0.285202 2.078443,0.676048 2.142343,0.870767 z"
         style="fill:#62341d;fill-opacity:1"
         id="cup-3" />
    </g>
  </g>
</svg>
