<?xml version="1.0" encoding="UTF-8" standalone="no"?>
<!-- Created with Inkscape (http://www.inkscape.org/) -->

<svg
   xmlns:osb="http://www.openswatchbook.org/uri/2009/osb"
   xmlns:dc="http://purl.org/dc/elements/1.1/"
   xmlns:cc="http://creativecommons.org/ns#"
   xmlns:rdf="http://www.w3.org/1999/02/22-rdf-syntax-ns#"
   xmlns:svg="http://www.w3.org/2000/svg"
   xmlns="http://www.w3.org/2000/svg"
   xmlns:xlink="http://www.w3.org/1999/xlink"
   xmlns:sodipodi="http://sodipodi.sourceforge.net/DTD/sodipodi-0.dtd"
   xmlns:inkscape="http://www.inkscape.org/namespaces/inkscape"
   width="32"
   height="32"
   id="svg5453"
   version="1.1"
   inkscape:version="0.91 r13725"
   sodipodi:docname="application-x-python-bytecode.svg">
  <defs
     id="defs5455">
    <linearGradient
       inkscape:collect="always"
       id="linearGradient4307">
      <stop
         style="stop-color:#f5a720;stop-opacity:1"
         offset="0"
         id="stop4309" />
      <stop
         style="stop-color:#fac632;stop-opacity:1"
         offset="1"
         id="stop4311" />
    </linearGradient>
    <linearGradient
       gradientTransform="matrix(1.0646823,0,0,1.0824016,51.990004,-31.819073)"
       gradientUnits="userSpaceOnUse"
       y2="517.79797"
       x2="375.57144"
       y1="543.79797"
       x1="375.57144"
       id="linearGradient4190-9"
       xlink:href="#linearGradient4307"
       inkscape:collect="always" />
    <linearGradient
       osb:paint="gradient"
       id="linearGradient4207">
      <stop
         id="stop3371"
         offset="0"
         style="stop-color:#3498db;stop-opacity:1;" />
      <stop
         id="stop3373"
         offset="1"
         style="stop-color:#3498db;stop-opacity:0;" />
    </linearGradient>
  </defs>
  <sodipodi:namedview
     id="base"
     pagecolor="#ffffff"
     bordercolor="#666666"
     borderopacity="1.0"
     inkscape:pageopacity="0"
     inkscape:pageshadow="2"
     inkscape:zoom="9.6544057"
     inkscape:cx="-5.7554869"
     inkscape:cy="12.733295"
     inkscape:document-units="px"
     inkscape:current-layer="g4240"
     showgrid="true"
     fit-margin-top="0"
     fit-margin-left="0"
     fit-margin-right="0"
     fit-margin-bottom="0"
     inkscape:window-width="1366"
     inkscape:window-height="702"
     inkscape:window-x="0"
     inkscape:window-y="0"
     inkscape:window-maximized="1"
     inkscape:showpageshadow="false"
     borderlayer="true"
     showguides="true"
     inkscape:guide-bbox="true"
     inkscape:object-nodes="true"
     inkscape:snap-bbox="true">
    <inkscape:grid
       type="xygrid"
       id="grid4063" />
    <sodipodi:guide
       position="2.0000117,30.000026"
       orientation="28,0"
       id="guide4167" />
    <sodipodi:guide
       position="17,5"
       orientation="0,28"
       id="guide4169" />
    <sodipodi:guide
       position="30.000012,2.0000264"
       orientation="-28,0"
       id="guide4171" />
    <sodipodi:guide
       position="30.000012,30.000026"
       orientation="0,-28"
       id="guide4173" />
    <sodipodi:guide
       position="2.0000117,30.000026"
       orientation="28,0"
       id="guide4181" />
    <sodipodi:guide
       position="16.000012,30.000026"
       orientation="0,-14"
       id="guide4187" />
    <sodipodi:guide
       position="5.0000117,30.000026"
       orientation="28,0"
       id="guide4143" />
    <sodipodi:guide
       position="5.0000117,2.0000264"
       orientation="0,22"
       id="guide4145" />
    <sodipodi:guide
       position="27.000012,2.0000264"
       orientation="-28,0"
       id="guide4147" />
    <sodipodi:guide
       position="27.000012,30.000026"
       orientation="0,-22"
       id="guide4149" />
    <sodipodi:guide
       position="27,30"
       orientation="0,-7"
       id="guide4155" />
    <sodipodi:guide
       position="27.00001,23"
       orientation="-7,-1e-05"
       id="guide4162" />
    <sodipodi:guide
       position="24,27"
       orientation="0,1"
       id="guide3378" />
  </sodipodi:namedview>
  <metadata
     id="metadata5458">
    <rdf:RDF>
      <cc:Work
         rdf:about="">
        <dc:format>image/svg+xml</dc:format>
        <dc:type
           rdf:resource="http://purl.org/dc/dcmitype/StillImage" />
        <dc:title />
      </cc:Work>
    </rdf:RDF>
  </metadata>
  <g
     inkscape:label="Capa 1"
     inkscape:groupmode="layer"
     id="layer1"
     transform="translate(-384.57143,-515.798)">
    <g
       transform="translate(392.57143,-514.5642)"
       id="layer1-7"
       inkscape:label="Capa 1"
       style="fill:#ffffff;fill-opacity:1" />
    <g
       id="g4240"
       transform="translate(341.79698,500.25245)">
      <g
         inkscape:transform-center-y="-9.4924686"
         inkscape:transform-center-x="5.4653607"
         inkscape:label="Capa 1"
         id="layer1-1"
         transform="translate(-392.98822,-511.27795)">
        <g
           id="layer1-3"
           inkscape:label="Capa 1"
           transform="translate(0.41988239,0.03484499)">
          <rect
             ry="0.83437711"
             y="528.64618"
             x="440.14279"
             height="28.142445"
             width="22.35833"
             id="rect4182-2"
             style="opacity:0.997;fill:url(#linearGradient4190-9);fill-opacity:1;stroke:none;stroke-width:0.104;stroke-linecap:round;stroke-linejoin:round;stroke-miterlimit:4;stroke-dasharray:none;stroke-opacity:1" />
          <g
             style="fill:#0b3a6a;fill-opacity:1"
             inkscape:label="Capa 1"
             id="layer1-31-0"
             transform="matrix(0.6324736,0,0,0.6324736,169.51808,207.37395)" />
        </g>
      </g>
      <g
         id="g14208"
         transform="translate(-13.545278,-3.3479685)">
        <g
           inkscape:transform-center-y="-9.4924686"
           inkscape:transform-center-x="5.4653607"
           inkscape:label="Capa 1"
           id="layer1-19"
           transform="translate(-392.98822,-511.27795)">
          <g
             id="layer1-3-4"
             inkscape:label="Capa 1"
             transform="translate(0.41988239,0.03484499)" />
        </g>
      </g>
      <g
         style="fill:#6b470d;fill-opacity:1"
         transform="matrix(0.52880721,0,0,0.52880721,17.484285,16.616687)"
         id="g138566">
        <path
           inkscape:connector-curvature="0"
           style="opacity:1;fill:#6b470d;fill-opacity:1;stroke:none"
           d="m 75.623397,16.694814 c -1.886114,0 -3.404538,1.518424 -3.404538,3.404538 l 0,2.269691 5.674229,0 0,1.134846 -5.674229,0 -2.269692,0 c -2.514818,0 -4.539383,2.024565 -4.539383,4.539384 l 0,2.269691 c 0,2.514819 2.024565,4.539384 4.539383,4.539384 l 0,-2.269692 c 0,-2.08943 1.405155,-3.822825 3.320311,-4.355415 0.166643,-0.04635 0.33748,-0.08205 0.509794,-0.113042 0.232462,-0.03642 0.466278,-0.07093 0.709279,-0.07093 l 4.539383,0 3.659434,0 c 0.541527,-0.602464 0.87995,-1.392119 0.87995,-2.269692 l 0,-5.674229 c 0,-1.886114 -1.518424,-3.404538 -3.404538,-3.404538 l -4.539383,0 z m -1.134846,2.269692 c 0.628704,0 1.134846,0.506141 1.134846,1.134846 0,0.628704 -0.506142,1.134846 -1.134846,1.134846 -0.628705,0 -1.134846,-0.506142 -1.134846,-1.134846 0,-0.628705 0.506141,-1.134846 1.134846,-1.134846 z m 11.348458,4.539383 0,2.269692 c 0,2.08943 -1.405154,3.822825 -3.32031,4.355415 -0.166643,0.04635 -0.337481,0.08205 -0.509794,0.113042 -0.232462,0.03642 -0.466278,0.07093 -0.709279,0.07093 l -4.539383,0 -3.659435,0 c -0.541527,0.602464 -0.879949,1.392119 -0.879949,2.269692 l 0,5.674229 c 0,1.886114 1.518424,3.404538 3.404538,3.404538 l 4.539383,0 c 1.886114,0 3.404538,-1.518424 3.404538,-3.404538 l 0,-2.269691 -5.67423,0 0,-1.134846 5.67423,0 2.269691,0 c 2.514819,0 4.539384,-2.024565 4.539384,-4.539384 l 0,-2.269691 c 0,-2.514819 -2.024565,-4.539384 -4.539384,-4.539384 z m -4.539383,13.61815 c 0.628705,0 1.134846,0.506142 1.134846,1.134846 0,0.628705 -0.506141,1.134846 -1.134846,1.134846 -0.628705,0 -1.134846,-0.506141 -1.134846,-1.134846 0,-0.628704 0.506141,-1.134846 1.134846,-1.134846 z"
           id="rect4270" />
      </g>
    </g>
  </g>
</svg>
