<?xml version="1.0" encoding="UTF-8" standalone="no"?>
<!-- Created with Inkscape (http://www.inkscape.org/) -->

<svg
   xmlns:dc="http://purl.org/dc/elements/1.1/"
   xmlns:cc="http://creativecommons.org/ns#"
   xmlns:rdf="http://www.w3.org/1999/02/22-rdf-syntax-ns#"
   xmlns:svg="http://www.w3.org/2000/svg"
   xmlns="http://www.w3.org/2000/svg"
   xmlns:xlink="http://www.w3.org/1999/xlink"
   xmlns:sodipodi="http://sodipodi.sourceforge.net/DTD/sodipodi-0.dtd"
   xmlns:inkscape="http://www.inkscape.org/namespaces/inkscape"
   width="32"
   height="32"
   id="svg5453"
   version="1.1"
   inkscape:version="0.91 r13725"
   sodipodi:docname="application-illustrator.svg">
  <defs
     id="defs5455">
    <linearGradient
       inkscape:collect="always"
       id="linearGradient4307">
      <stop
         style="stop-color:#ffa100;stop-opacity:1"
         offset="0"
         id="stop4309" />
      <stop
         style="stop-color:#ffdc00;stop-opacity:1"
         offset="1"
         id="stop4311" />
    </linearGradient>
    <linearGradient
       gradientTransform="matrix(1.0646823,0,0,1.0824016,51.990004,-31.819073)"
       gradientUnits="userSpaceOnUse"
       y2="517.79797"
       x2="375.57144"
       y1="543.79797"
       x1="375.57144"
       id="linearGradient4190-9"
       xlink:href="#linearGradient4307"
       inkscape:collect="always" />
  </defs>
  <sodipodi:namedview
     id="base"
     pagecolor="#ffffff"
     bordercolor="#666666"
     borderopacity="1.0"
     inkscape:pageopacity="0"
     inkscape:pageshadow="2"
     inkscape:zoom="9.6544057"
     inkscape:cx="-16.208304"
     inkscape:cy="12.681505"
     inkscape:document-units="px"
     inkscape:current-layer="g5046"
     showgrid="true"
     fit-margin-top="0"
     fit-margin-left="0"
     fit-margin-right="0"
     fit-margin-bottom="0"
     inkscape:window-width="1366"
     inkscape:window-height="702"
     inkscape:window-x="0"
     inkscape:window-y="0"
     inkscape:window-maximized="1"
     inkscape:showpageshadow="false"
     borderlayer="true"
     showguides="true"
     inkscape:guide-bbox="true"
     inkscape:object-nodes="true"
     inkscape:snap-bbox="true">
    <inkscape:grid
       type="xygrid"
       id="grid4063" />
    <sodipodi:guide
       position="2.0000117,30.000026"
       orientation="28,0"
       id="guide4167" />
    <sodipodi:guide
       position="17,5"
       orientation="0,28"
       id="guide4169" />
    <sodipodi:guide
       position="30.000012,2.0000264"
       orientation="-28,0"
       id="guide4171" />
    <sodipodi:guide
       position="30.000012,30.000026"
       orientation="0,-28"
       id="guide4173" />
    <sodipodi:guide
       position="2.0000117,30.000026"
       orientation="28,0"
       id="guide4181" />
    <sodipodi:guide
       position="16.000012,30.000026"
       orientation="0,-14"
       id="guide4187" />
    <sodipodi:guide
       position="5.0000117,30.000026"
       orientation="28,0"
       id="guide4143" />
    <sodipodi:guide
       position="5.0000117,2.0000264"
       orientation="0,22"
       id="guide4145" />
    <sodipodi:guide
       position="27.000012,2.0000264"
       orientation="-28,0"
       id="guide4147" />
    <sodipodi:guide
       position="27.000012,30.000026"
       orientation="0,-22"
       id="guide4149" />
    <sodipodi:guide
       position="27,30"
       orientation="0,-7"
       id="guide4155" />
    <sodipodi:guide
       position="27.00001,23"
       orientation="-7,-1e-05"
       id="guide4162" />
    <sodipodi:guide
       position="24,27"
       orientation="0,1"
       id="guide3378" />
  </sodipodi:namedview>
  <metadata
     id="metadata5458">
    <rdf:RDF>
      <cc:Work
         rdf:about="">
        <dc:format>image/svg+xml</dc:format>
        <dc:type
           rdf:resource="http://purl.org/dc/dcmitype/StillImage" />
        <dc:title />
      </cc:Work>
    </rdf:RDF>
  </metadata>
  <g
     inkscape:label="Capa 1"
     inkscape:groupmode="layer"
     id="layer1"
     transform="translate(-384.57143,-515.798)">
    <g
       transform="translate(392.57143,-514.5642)"
       id="layer1-7"
       inkscape:label="Capa 1"
       style="fill:#ffffff;fill-opacity:1" />
    <g
       id="g4240"
       transform="translate(341.79698,500.25245)">
      <rect
         y="3"
         x="10"
         height="1"
         width="44"
         id="rect4236-8"
         style="opacity:1;fill:#ffffff;fill-opacity:0.40983605;stroke:none" />
      <g
         inkscape:transform-center-y="-9.4924686"
         inkscape:transform-center-x="5.4653607"
         inkscape:label="Capa 1"
         id="layer1-1"
         transform="translate(-392.98822,-511.27795)">
        <g
           id="layer1-3"
           inkscape:label="Capa 1"
           transform="translate(0.41988239,0.03484499)">
          <rect
             ry="0.83437711"
             y="528.64618"
             x="440.14279"
             height="28.142445"
             width="22.35833"
             id="rect4182-2"
             style="opacity:0.997;fill:url(#linearGradient4190-9);fill-opacity:1;stroke:none;stroke-width:0.104;stroke-linecap:round;stroke-linejoin:round;stroke-miterlimit:4;stroke-dasharray:none;stroke-opacity:1" />
          <g
             id="g4611"
             transform="translate(382.34279,511.78866)">
            <rect
               y="3"
               x="10"
               height="1"
               width="44"
               id="rect4236-8-2"
               style="opacity:1;fill:#ffffff;fill-opacity:0.40983605;stroke:none" />
            <g
               id="g5046"
               transform="translate(1.7514779,-0.67379255)">
              <rect
                 y="3"
                 x="10"
                 height="1"
                 width="44"
                 id="rect4236-8-3"
                 style="opacity:1;fill:#ffffff;fill-opacity:0.40983605;stroke:none" />
              <g
                 id="g5686"
                 transform="translate(-3.9698942,4.8847507)">
                <rect
                   y="3"
                   x="10"
                   height="1"
                   width="44"
                   id="rect4236-8-9"
                   style="opacity:1;fill:#ffffff;fill-opacity:0.40983605;stroke:none" />
                <g
                   inkscape:transform-center-y="-9.4924686"
                   inkscape:transform-center-x="5.4653607"
                   inkscape:label="Capa 1"
                   id="layer1-31"
                   transform="translate(-392.98822,-511.27795)" />
              </g>
              <g
                 style="fill:#6f4300;fill-opacity:1"
                 transform="matrix(0.05351919,0,0,0.05351919,59.018219,23.649346)"
                 id="g3">
                <g
                   style="fill:#6f4300;fill-opacity:1"
                   id="g5">
                  <path
                     style="fill:#6f4300;fill-opacity:1"
                     inkscape:connector-curvature="0"
                     id="path7"
                     d="m 112.326,119.283 24.049,38.219 c 5.069,8.049 9.04,6.874 8.86,-2.644 l -0.792,-42.292 c -4.159,-1.452 -7.188,-5.331 -7.271,-9.995 -0.125,-5.986 4.652,-10.93 10.632,-11.043 5.986,-0.112 10.93,4.652 11.043,10.638 0.088,4.658 -2.801,8.656 -6.896,10.251 l 0.786,42.368 c 0.174,9.523 4.214,10.571 9.015,2.351 l 22.828,-39.053 c 2.119,-3.565 2.923,-9.693 1.809,-13.685 l -13.024,-38.791 5.23,-0.097 c 3.465,-0.07 6.217,-2.92 6.144,-6.366 -0.073,-3.462 -2.91,-6.211 -6.375,-6.141 l -7.532,0.143 3.051,-36.285 C 174.681,7.371 167.605,-0.174 158.094,0.003 L 135.086,0.426 C 125.57,0.6 118.647,8.418 119.627,17.89 l 3.736,36.133 -7.539,0.149 c -3.449,0.058 -6.198,2.902 -6.131,6.37 0.07,3.446 2.914,6.201 6.366,6.135 l 4.299,-0.083 -10.714,39.196 c -0.892,4.046 0.311,10.089 2.682,13.493 z" />
                  <path
                     style="fill:#6f4300;fill-opacity:1"
                     inkscape:connector-curvature="0"
                     id="path9"
                     d="m 279.449,191.157 0,-28.314 -28.314,0 0,9.846 -193.367,0 0,-9.846 -28.315,0 0,28.314 28.314,0 0,-9.846 68.457,0 0,14.163 c -14.86,5.395 -79.512,32.687 -86.073,99.131 l -3.678,0 0,14.298 14.285,0 0,-14.298 -1.838,0 c 6.266,-57.427 59.902,-83.093 77.311,-89.925 l 0,15.747 43.796,0 0,-15.284 c 18.571,7.478 70.001,33.211 76.12,89.462 l -2.095,0 0,14.298 14.285,0 0,-14.298 -3.428,0 c -6.406,-64.752 -67.992,-92.348 -84.883,-98.692 l 0,-14.608 81.119,0 0,9.847 28.303,0 0,0.005 z m -118.044,20.66 -26.564,0 0,-26.561 26.564,0 0,26.561 z" />
                </g>
              </g>
            </g>
          </g>
        </g>
      </g>
    </g>
  </g>
</svg>
