<?xml version="1.0" encoding="UTF-8" standalone="no"?>
<!-- Created with Inkscape (http://www.inkscape.org/) -->

<svg
   xmlns:osb="http://www.openswatchbook.org/uri/2009/osb"
   xmlns:dc="http://purl.org/dc/elements/1.1/"
   xmlns:cc="http://creativecommons.org/ns#"
   xmlns:rdf="http://www.w3.org/1999/02/22-rdf-syntax-ns#"
   xmlns:svg="http://www.w3.org/2000/svg"
   xmlns="http://www.w3.org/2000/svg"
   xmlns:xlink="http://www.w3.org/1999/xlink"
   xmlns:sodipodi="http://sodipodi.sourceforge.net/DTD/sodipodi-0.dtd"
   xmlns:inkscape="http://www.inkscape.org/namespaces/inkscape"
   width="32"
   height="32"
   id="svg5453"
   version="1.1"
   inkscape:version="0.91 r13725"
   sodipodi:docname="application-x-krita.svg">
  <defs
     id="defs5455">
    <linearGradient
       inkscape:collect="always"
       id="linearGradient4307">
      <stop
         style="stop-color:#e2325e;stop-opacity:1"
         offset="0"
         id="stop4309" />
      <stop
         style="stop-color:#fe4f6a;stop-opacity:1"
         offset="1"
         id="stop4311" />
    </linearGradient>
    <linearGradient
       gradientTransform="matrix(1.0646823,0,0,1.0824016,51.990004,-31.819073)"
       gradientUnits="userSpaceOnUse"
       y2="517.79797"
       x2="375.57144"
       y1="543.79797"
       x1="375.57144"
       id="linearGradient4190-9"
       xlink:href="#linearGradient4307"
       inkscape:collect="always" />
    <linearGradient
       id="linearGradient4207"
       osb:paint="gradient">
      <stop
         style="stop-color:#3498db;stop-opacity:1;"
         offset="0"
         id="stop3371" />
      <stop
         style="stop-color:#3498db;stop-opacity:0;"
         offset="1"
         id="stop3373" />
    </linearGradient>
  </defs>
  <sodipodi:namedview
     id="base"
     pagecolor="#ffffff"
     bordercolor="#666666"
     borderopacity="1.0"
     inkscape:pageopacity="0"
     inkscape:pageshadow="2"
     inkscape:zoom="11.050478"
     inkscape:cx="-13.339718"
     inkscape:cy="17.348124"
     inkscape:document-units="px"
     inkscape:current-layer="layer1-3"
     showgrid="true"
     fit-margin-top="0"
     fit-margin-left="0"
     fit-margin-right="0"
     fit-margin-bottom="0"
     inkscape:window-width="1366"
     inkscape:window-height="702"
     inkscape:window-x="0"
     inkscape:window-y="0"
     inkscape:window-maximized="1"
     inkscape:showpageshadow="false"
     borderlayer="true"
     showguides="true"
     inkscape:guide-bbox="true"
     inkscape:object-nodes="true"
     inkscape:snap-bbox="true">
    <inkscape:grid
       type="xygrid"
       id="grid4063" />
    <sodipodi:guide
       position="2.0000117,30.000026"
       orientation="28,0"
       id="guide4167" />
    <sodipodi:guide
       position="17,5"
       orientation="0,28"
       id="guide4169" />
    <sodipodi:guide
       position="30.000012,2.0000264"
       orientation="-28,0"
       id="guide4171" />
    <sodipodi:guide
       position="30.000012,30.000026"
       orientation="0,-28"
       id="guide4173" />
    <sodipodi:guide
       position="2.0000117,30.000026"
       orientation="28,0"
       id="guide4181" />
    <sodipodi:guide
       position="16.000012,30.000026"
       orientation="0,-14"
       id="guide4187" />
    <sodipodi:guide
       position="-13,14"
       orientation="28,0"
       id="guide4143" />
    <sodipodi:guide
       position="5.0000117,2.0000264"
       orientation="0,22"
       id="guide4145" />
    <sodipodi:guide
       position="27.000012,2.0000264"
       orientation="-28,0"
       id="guide4147" />
    <sodipodi:guide
       position="27.000012,30.000026"
       orientation="0,-22"
       id="guide4149" />
    <sodipodi:guide
       position="27,30"
       orientation="0,-7"
       id="guide4155" />
    <sodipodi:guide
       position="27.00001,23"
       orientation="-7,-1e-05"
       id="guide4162" />
    <sodipodi:guide
       position="24,27"
       orientation="0,1"
       id="guide3378" />
  </sodipodi:namedview>
  <metadata
     id="metadata5458">
    <rdf:RDF>
      <cc:Work
         rdf:about="">
        <dc:format>image/svg+xml</dc:format>
        <dc:type
           rdf:resource="http://purl.org/dc/dcmitype/StillImage" />
        <dc:title />
      </cc:Work>
    </rdf:RDF>
  </metadata>
  <g
     inkscape:label="Capa 1"
     inkscape:groupmode="layer"
     id="layer1"
     transform="translate(-384.57143,-515.798)">
    <g
       transform="translate(392.57143,-514.5642)"
       id="layer1-7"
       inkscape:label="Capa 1"
       style="fill:#ffffff;fill-opacity:1" />
    <g
       id="g4240"
       transform="translate(341.79698,500.25245)">
      <g
         inkscape:transform-center-y="-9.4924686"
         inkscape:transform-center-x="5.4653607"
         inkscape:label="Capa 1"
         id="layer1-1"
         transform="translate(-392.98822,-511.27795)">
        <g
           id="layer1-3"
           inkscape:label="Capa 1"
           transform="translate(0.41988239,0.03484499)">
          <rect
             ry="0.83437711"
             y="528.64618"
             x="440.14279"
             height="28.142445"
             width="22.35833"
             id="rect4182-2"
             style="opacity:0.997;fill:url(#linearGradient4190-9);fill-opacity:1;stroke:none;stroke-width:0.104;stroke-linecap:round;stroke-linejoin:round;stroke-miterlimit:4;stroke-dasharray:none;stroke-opacity:1" />
          <g
             inkscape:label="Capa 1"
             id="layer1-35"
             transform="matrix(0.52689187,0,0,0.52689187,203.5242,266.76005)">
            <g
               id="g4204"
               transform="matrix(1.1552259,0,0,1.1552259,-64.264989,-83.022331)"
               style="opacity:0.856;fill:#ffffff;fill-opacity:1" />
            <g
               id="g3"
               transform="matrix(0.07020267,0,0,0.07020267,454.21532,507.91458)"
               style="opacity:0.84600004;fill:#611428;fill-opacity:1">
              <g
                 id="g5"
                 style="fill:#611428;fill-opacity:1">
                <path
                   d="m 296.003,284.517 -52.542,-30.805 c -2.865,0.345 -5.734,0.913 -8.59,1.73 -13.717,3.937 -33.557,15.227 -50.186,46.668 -13.202,24.961 -8.33,46.331 -4.031,65.187 4.108,18.023 7.354,32.259 -4.718,46.5 -1.187,1.399 -1.511,3.336 -0.845,5.047 0.419,1.076 1.188,1.952 2.15,2.512 0.571,0.33 1.21,0.551 1.885,0.637 30.535,3.836 76.235,-14.17 104.421,-62.771 12.802,-22.074 18.3,-43.299 15.902,-61.38 -0.624,-4.717 -1.796,-9.17 -3.446,-13.325 z m -51.496,3.33 c -0.941,2.5 -2.8,4.482 -5.234,5.584 -17.741,8.03 -20.915,22.067 -21.042,22.662 -0.702,3.69 -3.553,6.751 -7.244,7.732 -0.327,0.087 -0.659,0.157 -0.995,0.212 -1.14,0.182 -2.299,0.163 -3.441,-0.055 -5.418,-1.033 -8.985,-6.277 -7.954,-11.694 0.19,-1.001 4.985,-24.655 32.431,-37.078 0.506,-0.229 1.027,-0.414 1.557,-0.556 4.743,-1.261 9.654,1.07 11.678,5.542 1.098,2.434 1.186,5.151 0.244,7.651 z"
                   id="path7-0-4"
                   inkscape:connector-curvature="0"
                   style="fill:#611428;fill-opacity:1" />
                <path
                   d="m 418.939,11.153 c -10.538,-6.111 -24.009,-3.033 -30.847,7.05 -4.299,6.338 -105.41,155.47 -118.428,177.916 -6.509,11.224 -13.845,29.443 -19.947,46.1 l 52.542,30.805 c 11.443,-13.576 23.674,-29.061 30.275,-40.443 13.17,-22.708 92.25,-184.284 95.609,-191.151 5.357,-10.945 1.337,-24.166 -9.204,-30.277 z"
                   id="path9"
                   inkscape:connector-curvature="0"
                   style="fill:#611428;fill-opacity:1" />
                <path
                   d="m 166.592,341.074 c -4.498,-1.502 -8.881,-2.384 -13.327,-2.657 -0.747,-0.046 -1.549,-0.069 -2.383,-0.069 -6.69,0 -15.097,1.466 -23.227,2.884 -7.245,1.265 -14.089,2.457 -18.864,2.457 -3.359,0 -4.52,-0.616 -4.895,-0.936 -4.059,-5.095 1.807,-18.923 4.318,-24.849 0.642,-1.512 1.148,-2.706 1.44,-3.559 4.072,-11.981 7.063,-24.737 1.425,-36.843 -4.687,-10.065 -15.643,-18.076 -27.824,-20.391 -3.548,-0.838 -7.62,-1.228 -12.816,-1.228 -4.277,0 -8.854,0.271 -13.281,0.534 -4.54,0.27 -9.235,0.548 -13.731,0.548 -15.464,0 -24.366,-3.528 -29.749,-11.769 -9.992,-15.865 2.009,-44.283 14.332,-56.117 0.758,-0.728 0.823,-1.918 0.149,-2.725 -0.675,-0.807 -1.857,-0.955 -2.708,-0.337 -15.781,11.433 -26.229,32.205 -25.406,50.514 0.439,9.764 4.197,23.327 19.612,32.506 8.298,4.94 21.718,5.98 34.696,6.986 12.768,0.989 25.971,2.013 30.04,6.977 1.066,1.301 1.472,2.876 1.233,4.859 -0.888,9.078 -5.293,18.018 -9.554,26.661 -8.047,16.327 -16.368,33.209 -1.986,51.944 12.631,16.451 29.399,16.451 46.625,16.331 1.41,-0.01 2.823,-0.02 4.235,-0.02 7.515,0 16.196,0.23 24.068,2.972 5.602,2.171 8.419,6.662 9.737,15.571 1.009,5.462 3.436,9.762 6.657,13 0.471,-2.511 1.577,-4.904 3.29,-6.927 8.458,-9.986 6.803,-19.319 2.577,-37.812 -1.962,-8.595 -4.137,-18.122 -4.683,-28.505 z"
                   id="path11"
                   inkscape:connector-curvature="0"
                   style="fill:#611428;fill-opacity:1" />
              </g>
            </g>
          </g>
        </g>
      </g>
      <g
         id="g15209"
         transform="translate(-19.057982,-5.554605)">
        <g
           inkscape:transform-center-y="-9.4924686"
           inkscape:transform-center-x="5.4653607"
           inkscape:label="Capa 1"
           id="layer1-72"
           transform="translate(-392.98822,-511.27795)">
          <g
             id="g19280"
             transform="translate(391.23463,518.32854)">
            <g
               inkscape:transform-center-y="-9.4924686"
               inkscape:transform-center-x="5.4653607"
               inkscape:label="Capa 1"
               id="layer1-78"
               transform="translate(-392.98822,-511.27795)" />
          </g>
        </g>
      </g>
    </g>
  </g>
</svg>
