<?xml version="1.0" encoding="UTF-8" standalone="no"?>
<!-- Created with Inkscape (http://www.inkscape.org/) -->

<svg
   xmlns:dc="http://purl.org/dc/elements/1.1/"
   xmlns:cc="http://creativecommons.org/ns#"
   xmlns:rdf="http://www.w3.org/1999/02/22-rdf-syntax-ns#"
   xmlns:svg="http://www.w3.org/2000/svg"
   xmlns="http://www.w3.org/2000/svg"
   xmlns:xlink="http://www.w3.org/1999/xlink"
   xmlns:sodipodi="http://sodipodi.sourceforge.net/DTD/sodipodi-0.dtd"
   xmlns:inkscape="http://www.inkscape.org/namespaces/inkscape"
   width="32"
   height="32"
   id="svg5453"
   version="1.1"
   inkscape:version="0.91 r13725"
   sodipodi:docname="message-news.svg">
  <defs
     id="defs5455">
    <linearGradient
       inkscape:collect="always"
       id="linearGradient4307">
      <stop
         style="stop-color:#6e7a87;stop-opacity:1"
         offset="0"
         id="stop4309" />
      <stop
         style="stop-color:#acb4bd;stop-opacity:1"
         offset="1"
         id="stop4311" />
    </linearGradient>
    <linearGradient
       gradientTransform="matrix(1.0646823,0,0,1.0824016,51.990004,-31.819073)"
       gradientUnits="userSpaceOnUse"
       y2="517.79797"
       x2="375.57144"
       y1="543.79797"
       x1="375.57144"
       id="linearGradient4190-9"
       xlink:href="#linearGradient4307"
       inkscape:collect="always" />
  </defs>
  <sodipodi:namedview
     id="base"
     pagecolor="#ffffff"
     bordercolor="#666666"
     borderopacity="1.0"
     inkscape:pageopacity="0"
     inkscape:pageshadow="2"
     inkscape:zoom="9.6544057"
     inkscape:cx="-26.783399"
     inkscape:cy="16.772901"
     inkscape:document-units="px"
     inkscape:current-layer="g5046"
     showgrid="true"
     fit-margin-top="0"
     fit-margin-left="0"
     fit-margin-right="0"
     fit-margin-bottom="0"
     inkscape:window-width="1366"
     inkscape:window-height="702"
     inkscape:window-x="0"
     inkscape:window-y="0"
     inkscape:window-maximized="1"
     inkscape:showpageshadow="false"
     borderlayer="true"
     showguides="true"
     inkscape:guide-bbox="true"
     inkscape:object-nodes="true"
     inkscape:snap-bbox="true">
    <inkscape:grid
       type="xygrid"
       id="grid4063" />
    <sodipodi:guide
       position="2.0000117,30.000026"
       orientation="28,0"
       id="guide4167" />
    <sodipodi:guide
       position="17,5"
       orientation="0,28"
       id="guide4169" />
    <sodipodi:guide
       position="30.000012,2.0000264"
       orientation="-28,0"
       id="guide4171" />
    <sodipodi:guide
       position="30.000012,30.000026"
       orientation="0,-28"
       id="guide4173" />
    <sodipodi:guide
       position="2.0000117,30.000026"
       orientation="28,0"
       id="guide4181" />
    <sodipodi:guide
       position="16.000012,30.000026"
       orientation="0,-14"
       id="guide4187" />
    <sodipodi:guide
       position="5.0000117,30.000026"
       orientation="28,0"
       id="guide4143" />
    <sodipodi:guide
       position="5.0000117,2.0000264"
       orientation="0,22"
       id="guide4145" />
    <sodipodi:guide
       position="27.000012,2.0000264"
       orientation="-28,0"
       id="guide4147" />
    <sodipodi:guide
       position="27.000012,30.000026"
       orientation="0,-22"
       id="guide4149" />
    <sodipodi:guide
       position="27,30"
       orientation="0,-7"
       id="guide4155" />
    <sodipodi:guide
       position="27.00001,23"
       orientation="-7,-1e-05"
       id="guide4162" />
    <sodipodi:guide
       position="24,27"
       orientation="0,1"
       id="guide3378" />
  </sodipodi:namedview>
  <metadata
     id="metadata5458">
    <rdf:RDF>
      <cc:Work
         rdf:about="">
        <dc:format>image/svg+xml</dc:format>
        <dc:type
           rdf:resource="http://purl.org/dc/dcmitype/StillImage" />
        <dc:title />
      </cc:Work>
    </rdf:RDF>
  </metadata>
  <g
     inkscape:label="Capa 1"
     inkscape:groupmode="layer"
     id="layer1"
     transform="translate(-384.57143,-515.798)">
    <g
       transform="translate(392.57143,-514.5642)"
       id="layer1-7"
       inkscape:label="Capa 1"
       style="fill:#ffffff;fill-opacity:1" />
    <g
       id="g4240"
       transform="translate(341.79698,500.25245)">
      <rect
         y="3"
         x="10"
         height="1"
         width="44"
         id="rect4236-8"
         style="opacity:1;fill:#ffffff;fill-opacity:0.40983605;stroke:none" />
      <g
         inkscape:transform-center-y="-9.4924686"
         inkscape:transform-center-x="5.4653607"
         inkscape:label="Capa 1"
         id="layer1-1"
         transform="translate(-392.98822,-511.27795)">
        <g
           id="layer1-3"
           inkscape:label="Capa 1"
           transform="translate(0.41988239,0.03484499)">
          <rect
             ry="0.83437711"
             y="528.64618"
             x="440.14279"
             height="28.142445"
             width="22.35833"
             id="rect4182-2"
             style="opacity:0.997;fill:url(#linearGradient4190-9);fill-opacity:1;stroke:none;stroke-width:0.104;stroke-linecap:round;stroke-linejoin:round;stroke-miterlimit:4;stroke-dasharray:none;stroke-opacity:1" />
          <g
             id="g4611"
             transform="translate(382.34279,511.78866)">
            <rect
               y="3"
               x="10"
               height="1"
               width="44"
               id="rect4236-8-2"
               style="opacity:1;fill:#ffffff;fill-opacity:0.40983605;stroke:none" />
            <g
               id="g5046"
               transform="translate(1.7514779,-0.67379255)">
              <rect
                 y="3"
                 x="10"
                 height="1"
                 width="44"
                 id="rect4236-8-3"
                 style="opacity:1;fill:#ffffff;fill-opacity:0.40983605;stroke:none" />
              <g
                 id="g5686"
                 transform="translate(-3.9698942,4.8847507)">
                <rect
                   y="3"
                   x="10"
                   height="1"
                   width="44"
                   id="rect4236-8-9"
                   style="opacity:1;fill:#ffffff;fill-opacity:0.40983605;stroke:none" />
                <g
                   inkscape:transform-center-y="-9.4924686"
                   inkscape:transform-center-x="5.4653607"
                   inkscape:label="Capa 1"
                   id="layer1-31"
                   transform="translate(-392.98822,-511.27795)" />
              </g>
              <g
                 id="g6289"
                 transform="translate(-2.1496533,3.4906341)">
                <rect
                   y="3"
                   x="10"
                   height="1"
                   width="44"
                   id="rect4236-8-8"
                   style="opacity:1;fill:#ffffff;fill-opacity:0.40983605;stroke:none" />
                <g
                   inkscape:transform-center-y="-9.4924686"
                   inkscape:transform-center-x="5.4653607"
                   inkscape:label="Capa 1"
                   id="layer1-77"
                   transform="translate(-392.98822,-511.27795)" />
              </g>
              <path
                 style="fill:#2c3137;fill-opacity:1"
                 inkscape:connector-curvature="0"
                 id="path8"
                 d="m 65.460063,27.963458 c -0.727122,0.0517 -1.343141,0.66332 -1.343141,1.525747 l 0,4.103126 c 0,0.148504 -0.110004,0.276109 -0.270609,0.276109 l -1.281539,0 c -2.774285,0.0033 -2.527878,-3.542109 -0.166105,-3.54651 l 1.416843,0 0,-1.030731 -1.468545,0 c -0.940529,0 -1.63795,0.350911 -2.108765,0.874527 -0.470814,0.523616 -0.707321,1.228737 -0.708421,1.931659 -0.0011,0.702921 0.232107,1.403643 0.713921,1.927259 0.481815,0.522516 1.210038,0.874527 2.207768,0.874527 l 2.416775,0 c 0.159504,0 0.291509,-0.137504 0.291509,-0.297009 l 0,-5.004054 c -0.0011,-0.257408 0.144104,-0.457614 0.33331,-0.515915 0.189206,-0.0583 0.411412,0.0154 0.541216,0.203506 l 0.0055,0.0055 c 0.687521,1.124234 3.416705,5.502369 3.421105,5.510069 0.0748,0.106703 0.163905,0.125404 0.228807,0.104503 0.0649,-0.022 0.130904,-0.0924 0.129804,-0.266208 l 0,-5.041455 c -0.0011,-0.257408 0.144104,-0.457614 0.33331,-0.515915 0.189206,-0.0583 0.405912,0.0154 0.536816,0.203506 l 0,0.0055 0.0099,0 c 0.687521,1.124234 3.416705,5.502369 3.421105,5.510069 0.0737,0.105603 0.160605,0.126504 0.228807,0.104503 0.0682,-0.022 0.136404,-0.088 0.135304,-0.260708 l 0,-6.655204 -1.036232,0 0,3.884219 c 0,0 -0.618219,-1.056032 -1.676452,-2.874388 -1.037331,-1.780955 -2.994291,-1.043932 -2.994291,0.489515 l 0,2.384873 c 0,0 -0.607219,-1.056032 -1.666552,-2.874388 -0.453213,-0.778824 -1.085733,-1.076933 -1.65115,-1.036232 z m -2.931591,0.0264 c -5.767476,0 -5.711375,8.218353 0.0781,8.222753 l 2.26497,0 c 0.97353,0 1.595049,-0.576418 1.593949,-1.640151 l 0,-2.083464 c 0,0 1.271639,2.102165 1.771054,2.92609 0.847026,1.400343 2.895289,1.124235 2.889789,-0.624819 l 0,-2.301271 c 0,0 1.267239,2.102165 1.765554,2.92609 0.847026,1.400343 2.900789,1.124235 2.895289,-0.624819 l 0,-6.801509 -1.036232,0 0,6.655204 c 0.0011,0.255208 -0.133104,0.444414 -0.31791,0.504916 -0.184805,0.0605 -0.397112,-0.0154 -0.525816,-0.198006 l -0.0055,0 0,-0.0099 c 0,0 -2.730284,-4.366034 -3.426605,-5.504569 -0.0022,-0.0022 -0.0033,0.0022 -0.0055,0 -0.0011,0 0.0011,-0.0055 0,-0.0055 -0.0715,-0.0957 -0.163905,-0.116604 -0.239808,-0.0935 -0.0781,0.0242 -0.151804,0.0913 -0.150704,0.260708 l 0,5.040355 c 0.0011,0.254108 -0.129804,0.454314 -0.31241,0.515916 -0.182605,0.0616 -0.392712,-0.0198 -0.520316,-0.203506 l 0,-0.0055 -0.0055,0 c 0,0 -2.732484,-4.374834 -3.426605,-5.510069 -0.0726,-0.103403 -0.166105,-0.128704 -0.244208,-0.104503 -0.0781,0.0242 -0.151805,0.0913 -0.150705,0.260708 l 0,0.0055 0,5.004054 c 0,0.303609 -0.249707,0.557717 -0.552217,0.557717 l -2.416774,0 c -1.060432,0 -1.864557,-0.381712 -2.395873,-0.958129 -0.531317,-0.576418 -0.793125,-1.340941 -0.792025,-2.104365 0.0011,-0.762323 0.262909,-1.532347 0.781024,-2.108765 0.518116,-0.576417 1.29584,-0.957029 2.301271,-0.95813 l 1.468545,0 0,-1.041731 -1.28594,0 z" />
            </g>
          </g>
        </g>
      </g>
    </g>
  </g>
</svg>
