<?xml version="1.0" encoding="UTF-8" standalone="no"?>
<!-- Created with Inkscape (http://www.inkscape.org/) -->

<svg
   xmlns:osb="http://www.openswatchbook.org/uri/2009/osb"
   xmlns:dc="http://purl.org/dc/elements/1.1/"
   xmlns:cc="http://creativecommons.org/ns#"
   xmlns:rdf="http://www.w3.org/1999/02/22-rdf-syntax-ns#"
   xmlns:svg="http://www.w3.org/2000/svg"
   xmlns="http://www.w3.org/2000/svg"
   xmlns:xlink="http://www.w3.org/1999/xlink"
   xmlns:sodipodi="http://sodipodi.sourceforge.net/DTD/sodipodi-0.dtd"
   xmlns:inkscape="http://www.inkscape.org/namespaces/inkscape"
   width="32"
   height="32"
   id="svg5453"
   version="1.1"
   inkscape:version="0.91 r13725"
   sodipodi:docname="text-html.svg">
  <defs
     id="defs5455">
    <linearGradient
       inkscape:collect="always"
       id="linearGradient4307">
      <stop
         style="stop-color:#14c3a6;stop-opacity:1"
         offset="0"
         id="stop4309" />
      <stop
         style="stop-color:#34d6b6;stop-opacity:1"
         offset="1"
         id="stop4311" />
    </linearGradient>
    <linearGradient
       gradientTransform="matrix(1.0646823,0,0,1.0824016,51.990004,-31.819073)"
       gradientUnits="userSpaceOnUse"
       y2="517.79797"
       x2="375.57144"
       y1="543.79797"
       x1="375.57144"
       id="linearGradient4190-9"
       xlink:href="#linearGradient4307"
       inkscape:collect="always" />
    <linearGradient
       id="linearGradient4207"
       osb:paint="gradient">
      <stop
         style="stop-color:#3498db;stop-opacity:1;"
         offset="0"
         id="stop3371" />
      <stop
         style="stop-color:#3498db;stop-opacity:0;"
         offset="1"
         id="stop3373" />
    </linearGradient>
  </defs>
  <sodipodi:namedview
     id="base"
     pagecolor="#ffffff"
     bordercolor="#666666"
     borderopacity="1.0"
     inkscape:pageopacity="0"
     inkscape:pageshadow="2"
     inkscape:zoom="9.6544057"
     inkscape:cx="-9.8522932"
     inkscape:cy="25.111063"
     inkscape:document-units="px"
     inkscape:current-layer="layer1-3"
     showgrid="true"
     fit-margin-top="0"
     fit-margin-left="0"
     fit-margin-right="0"
     fit-margin-bottom="0"
     inkscape:window-width="1366"
     inkscape:window-height="702"
     inkscape:window-x="0"
     inkscape:window-y="0"
     inkscape:window-maximized="1"
     inkscape:showpageshadow="false"
     borderlayer="true"
     showguides="true"
     inkscape:guide-bbox="true"
     inkscape:object-nodes="true"
     inkscape:snap-bbox="true">
    <inkscape:grid
       type="xygrid"
       id="grid4063" />
    <sodipodi:guide
       position="2.0000117,30.000026"
       orientation="28,0"
       id="guide4167" />
    <sodipodi:guide
       position="17,5"
       orientation="0,28"
       id="guide4169" />
    <sodipodi:guide
       position="30.000012,2.0000264"
       orientation="-28,0"
       id="guide4171" />
    <sodipodi:guide
       position="30.000012,30.000026"
       orientation="0,-28"
       id="guide4173" />
    <sodipodi:guide
       position="2.0000117,30.000026"
       orientation="28,0"
       id="guide4181" />
    <sodipodi:guide
       position="16.000012,30.000026"
       orientation="0,-14"
       id="guide4187" />
    <sodipodi:guide
       position="5.0000117,30.000026"
       orientation="28,0"
       id="guide4143" />
    <sodipodi:guide
       position="5.0000117,2.0000264"
       orientation="0,22"
       id="guide4145" />
    <sodipodi:guide
       position="27.000012,2.0000264"
       orientation="-28,0"
       id="guide4147" />
    <sodipodi:guide
       position="27.000012,30.000026"
       orientation="0,-22"
       id="guide4149" />
    <sodipodi:guide
       position="27,30"
       orientation="0,-7"
       id="guide4155" />
    <sodipodi:guide
       position="27.00001,23"
       orientation="-7,-1e-05"
       id="guide4162" />
    <sodipodi:guide
       position="24,27"
       orientation="0,1"
       id="guide3378" />
  </sodipodi:namedview>
  <metadata
     id="metadata5458">
    <rdf:RDF>
      <cc:Work
         rdf:about="">
        <dc:format>image/svg+xml</dc:format>
        <dc:type
           rdf:resource="http://purl.org/dc/dcmitype/StillImage" />
        <dc:title />
      </cc:Work>
    </rdf:RDF>
  </metadata>
  <g
     inkscape:label="Capa 1"
     inkscape:groupmode="layer"
     id="layer1"
     transform="translate(-384.57143,-515.798)">
    <g
       transform="translate(392.57143,-514.5642)"
       id="layer1-7"
       inkscape:label="Capa 1"
       style="fill:#ffffff;fill-opacity:1" />
    <g
       id="g4240"
       transform="translate(341.79698,500.25245)">
      <rect
         y="3"
         x="10"
         height="1"
         width="44"
         id="rect4236-8"
         style="opacity:1;fill:#ffffff;fill-opacity:0.40983605;stroke:none" />
      <g
         inkscape:transform-center-y="-9.4924686"
         inkscape:transform-center-x="5.4653607"
         inkscape:label="Capa 1"
         id="layer1-1"
         transform="translate(-392.98822,-511.27795)">
        <g
           id="layer1-3"
           inkscape:label="Capa 1"
           transform="translate(0.41988239,0.03484499)">
          <rect
             ry="0.83437711"
             y="528.64618"
             x="440.14279"
             height="28.142445"
             width="22.35833"
             id="rect4182-2"
             style="opacity:0.997;fill:url(#linearGradient4190-9);fill-opacity:1;stroke:none;stroke-width:0.104;stroke-linecap:round;stroke-linejoin:round;stroke-miterlimit:4;stroke-dasharray:none;stroke-opacity:1" />
          <path
             inkscape:connector-curvature="0"
             style="color:#000000;fill:#075347;fill-opacity:1;fill-rule:nonzero"
             d="m 451.45872,534.63779 c -4.7843,0 -8.63593,3.85162 -8.63593,8.63594 0,4.7843 3.85163,8.63593 8.63593,8.63593 4.78431,0 8.63594,-3.85163 8.63594,-8.63593 0,-4.78432 -3.85163,-8.63594 -8.63594,-8.63594 z m 0,0.78509 c 1.30451,0 2.52919,0.32023 3.60955,0.87861 0.004,0.0312 0.002,0.0541 0,0.0889 0.0455,0.0204 0.0718,0.10483 0.14874,0.1472 0.0282,0.0157 0.0469,0.0227 0.0736,0.0368 0.0455,0.0251 0.083,0.0664 0.0736,0.11041 -0.0126,0.0644 -0.10324,0.0617 -0.1472,0.10887 0.007,0.091 -0.05,0.0875 -0.0736,0.14874 0.0141,0.0392 0.0673,0.0265 0.0736,0.0736 -0.008,0.0503 -0.0924,0.0571 -0.0736,0.10886 0.0848,0.0659 0.17753,0.011 0.2576,0 0.17585,-0.0219 0.33174,0.0112 0.44008,-0.0736 -0.0141,-0.0832 0.11982,-0.10866 0.1104,-0.184 -0.008,-0.0565 -0.10481,-0.0696 -0.1472,-0.10887 -0.01,-0.009 -0.0217,-0.0309 -0.0322,-0.0476 0.12955,0.0851 0.25319,0.17743 0.37721,0.26987 -0.0306,0.0249 -0.0558,0.0563 -0.0874,0.0705 -0.033,0.0141 -0.0806,0.018 -0.1104,0.0368 -0.044,0.0298 -0.0601,0.0759 -0.1104,0.10886 -0.0361,0.0251 -0.14633,0.11041 -0.18401,0.11041 -0.0455,0 -0.11423,-0.0462 -0.1472,-0.0353 -0.0471,0.0141 -0.0202,0.09 -0.0736,0.10887 -0.10363,0.0377 -0.2951,-0.0818 -0.33121,0.0736 0.044,0.0895 0.17911,0.0617 0.2576,0.1104 0.0487,0.0314 0.13465,0.16744 0.14721,0.2208 0.0126,0.044 0.0189,0.21052 0,0.25761 -0.0487,0.12557 -0.18677,0.11354 -0.33121,0.1104 -0.0393,0 -0.0743,0.003 -0.1104,0 -0.24335,-0.0157 -0.47738,-0.10063 -0.58728,0.0736 0.008,0.13342 0.0299,0.21506 0,0.33121 -0.022,0.0848 -0.11511,0.14703 -0.1104,0.2208 10e-4,0.0377 0.0642,0.0954 0.0736,0.14721 0.007,0.0282 -0.0126,0.0853 0,0.1104 0.0408,0.0769 0.14858,-0.0126 0.2208,0 0.0691,0.011 0.14874,0.10709 0.14874,0.18401 0,0.0549 -0.0406,0.16744 -0.0751,0.2208 -0.0691,0.1036 -0.1955,0.0907 -0.29441,0.1472 -0.0816,0.0471 -0.0985,0.14072 -0.1472,0.22234 -0.0518,0.0879 -0.094,0.13204 -0.0736,0.25761 -0.0707,0.1397 -0.14992,0.22691 -0.29594,0.29441 -0.0424,0.0188 -0.10795,0.0454 -0.1472,0.0736 -0.0314,0.022 -0.0664,0.0601 -0.1104,0.1104 -0.0549,0.0612 -0.11737,0.10012 -0.1472,0.1472 -0.022,0.0361 -0.0132,0.0986 -0.0368,0.1472 -0.0345,0.0659 -0.10325,0.11809 -0.1472,0.18401 -0.0204,0.0314 -0.0517,0.0696 -0.0736,0.11041 -0.0503,0.091 -0.11982,0.17755 -0.1104,0.2576 0.008,0.0769 0.10569,0.0797 0.1104,0.1472 0.004,0.0377 -0.0383,0.068 -0.0368,0.10887 10e-4,0.0596 0.0321,0.10165 0.0368,0.14874 0.011,0.11616 -0.0516,0.14075 -0.0736,0.22081 -0.011,0.0377 0.009,0.0806 0,0.1104 -0.0189,0.0581 -0.10883,0.11341 -0.11041,0.18246 -10e-4,0.0487 0.0689,0.0797 0.0736,0.14874 0.003,0.0471 -0.0447,0.10326 -0.0353,0.14721 0.0173,0.0848 0.19167,0.19168 0.25761,0.25761 0.0895,0.0895 0.18155,0.16342 0.22081,0.2576 0.033,0.0801 0.0492,0.19796 0.1104,0.2576 0.0455,0.044 0.12591,0.0634 0.184,0.10888 0.0549,0.0424 0.12438,0.0649 0.18247,0.1104 0.0958,0.0753 0.21571,0.23179 0.36801,0.2208 0.0801,-0.007 0.16812,-0.0579 0.25761,-0.0736 0.0926,-0.0157 0.2002,-0.0447 0.2944,-0.0353 0.0722,0.008 0.14698,0.0399 0.22234,0.0353 0.0785,-0.004 0.16812,-0.0344 0.25761,-0.0736 0.15543,-0.0675 0.39799,-0.18017 0.62408,-0.1472 0.1727,0.0251 0.17505,0.21749 0.29594,0.2944 0.13817,0.0126 0.25657,-0.0267 0.36648,0 0.0832,0.0204 0.17615,0.15642 0.184,0.22234 0.008,0.0675 -0.0642,0.14009 -0.0736,0.18248 -0.0219,0.091 -0.0211,0.19952 -0.0368,0.2576 -0.0126,0.0455 -0.0369,0.10168 -0.0353,0.1472 0,0.0408 0.068,0.13064 0.1104,0.184 0.0518,0.0659 0.11968,0.11181 0.18248,0.18401 0.11461,0.13185 0.17753,0.30418 0.2576,0.47841 0.0204,0.044 -0.0189,0.0555 0,0.1104 -0.0345,0.2637 -0.1217,0.44407 -0.2944,0.73602 -0.0816,0.0942 -0.18558,0.21349 -0.18401,0.33121 -0.007,0.28253 0.15977,0.42456 0.14721,0.69768 -0.0282,0.36729 -0.007,0.42941 -0.0353,0.62561 0.12403,0.0628 0.0714,0.2362 0.0353,0.36648 -0.0534,0.1554 -0.11738,0.19234 -0.14721,0.29594 0.0973,0.0421 0.20405,0.0318 0.31281,0.004 -1.43037,1.52458 -3.46045,2.47944 -5.72561,2.47944 -0.96386,0 -1.88229,-0.18024 -2.734,-0.49528 -0.0313,-0.0124 -0.0658,-0.0195 -0.0966,-0.0368 -0.0487,-0.0282 -0.0799,-0.0876 -0.0736,-0.14721 0.0816,-0.0345 0.23628,0.0778 0.29594,-0.0368 0.0299,-0.0549 -0.0392,-0.16586 0,-0.2208 0.0282,-0.0377 0.19951,-0.0642 0.2576,-0.0736 0.0832,-0.0141 0.17371,-0.007 0.22081,-0.0368 0.0518,-0.033 0.11982,-0.12349 0.11041,-0.2208 -0.004,-0.0455 -0.0375,-0.0696 -0.0736,-0.11041 -0.0299,-0.0345 -0.0164,-0.0775 -0.0368,-0.10887 -0.0377,-0.0549 -0.0947,-0.0672 -0.1104,-0.1472 0.11304,-0.022 0.27833,0.11911 0.44161,0.0736 0.0769,-0.0219 0.18469,-0.1854 0.2208,-0.2576 0.011,-0.0219 -0.0126,-0.0837 0,-0.11041 0.0141,-0.0299 0.0704,-0.0579 0.0751,-0.0736 0.011,-0.0424 -0.009,-0.0469 0,-0.0736 0.0282,-0.0801 0.10011,-0.12593 0.14721,-0.18401 0.0361,-0.044 0.0774,-0.10168 0.1104,-0.1472 0.0377,-0.0487 0.0485,-0.068 0.0736,-0.1104 0.0236,-0.14284 -0.0713,-0.24091 -0.0368,-0.36648 0.0377,-0.14127 0.23141,-0.23158 0.368,-0.29594 0.0471,-0.0219 0.10795,-0.0595 0.1472,-0.0736 0.0942,-0.033 0.20649,-0.0422 0.29441,-0.0736 0.14759,-0.0533 0.18538,-0.19622 0.25761,-0.33121 0.0345,-0.0628 0.0688,-0.13848 0.0751,-0.18401 0.007,-0.0408 -0.008,-0.0617 0,-0.10886 0.008,-0.0471 0.0227,-0.0969 0.0353,-0.14874 0.0173,-0.0675 0.0368,-0.18073 0.0368,-0.25607 0,-0.0628 -0.0353,-0.0922 -0.0368,-0.14874 -0.011,-0.20405 0.0718,-0.21976 0.14721,-0.33121 0.0377,-0.0549 0.0469,-0.14323 0.0736,-0.18246 0.12717,-0.18836 0.34691,-0.26788 0.33121,-0.55356 -0.007,-0.0942 -0.0398,-0.30138 -0.10887,-0.3312 -0.0393,-0.0173 -0.12592,-0.0133 -0.18401,-0.0353 -0.18527,-0.0691 -0.32209,-0.28024 -0.51521,-0.29595 -0.0408,-10e-4 -0.0649,10e-4 -0.1104,0 -0.0754,-10e-4 -0.17129,-0.0642 -0.25608,-0.0736 -0.0534,-0.007 -0.1526,0.0157 -0.184,0 -0.0487,-0.0236 -0.0344,-0.12052 -0.0736,-0.1472 -0.0314,-0.022 -0.10007,-0.0195 -0.14874,-0.0368 -0.0769,-0.0298 -0.13131,-0.0673 -0.2208,-0.0736 -0.0282,-10e-4 -0.079,0.004 -0.11041,0 -0.0487,-0.008 -0.10167,-0.0454 -0.1472,-0.0736 -0.0566,-0.0345 -0.0869,-0.0602 -0.1104,-0.10887 0.0518,-0.16953 -0.11266,-0.19706 -0.1472,-0.29594 -0.0157,-0.0455 0.0157,-0.1064 0,-0.14721 -0.0204,-0.0581 -0.0828,-0.0985 -0.14721,-0.1472 -0.11304,-0.0879 -0.2063,-0.1636 -0.36801,-0.184 -0.0722,-0.008 -0.17125,0.007 -0.2576,0 -0.0911,-0.007 -0.18852,-0.0687 -0.25761,-0.14721 -0.0659,-0.0769 -0.0891,-0.1479 -0.1472,-0.184 -0.0549,-0.0345 -0.14632,-0.0375 -0.18401,-0.0736 -0.0173,-0.0157 -0.0195,-0.0375 -0.0353,-0.0736 -0.0282,-0.0565 -0.0713,-0.0797 -0.0368,-0.14873 -0.0628,-0.0314 -0.0413,0.0494 -0.10887,0.0368 -0.0612,-0.0863 -0.11944,-0.13709 -0.25761,-0.11041 -0.0628,0.0126 -0.11021,0.10884 -0.184,0.11041 -0.0612,0.001 -0.10393,-0.0994 -0.184,-0.11041 -0.0612,-0.008 -0.14162,0.0462 -0.18401,0.0368 -0.0675,-0.0126 -0.086,-0.0696 -0.14721,-0.1104 -0.0455,-0.0299 -0.12207,-0.11044 -0.1472,-0.10886 -0.0785,0.001 -0.14927,0.16694 -0.2576,0.10886 -0.0534,-0.0675 0.0981,-0.0844 0.0353,-0.1472 -0.0471,-0.0471 -0.0712,0.0117 -0.10887,0.0368 -0.044,0.0299 -0.0985,0.0563 -0.1472,0.0736 -0.10833,0.0408 -0.17283,0.0296 -0.25761,0.0736 -0.0785,0.0408 -0.10321,0.10396 -0.14873,0.18401 -0.0362,0.0659 -0.0923,0.17933 -0.14721,0.18247 -0.0659,0.004 -0.12434,-0.0838 -0.184,-0.10887 -0.18056,-0.0785 -0.29092,0.0337 -0.44008,0.0353 -0.13816,10e-4 -0.33749,-0.20092 -0.3312,-0.3312 0.004,-0.0801 0.0642,-0.19552 0.0736,-0.29441 0.008,-0.0785 0.0721,-0.15013 0.0736,-0.22234 0.001,-0.0957 -0.15954,-0.17148 -0.22234,-0.18247 -0.14758,-0.0267 -0.34568,0.0659 -0.51368,0 -0.0314,-0.0533 0.0548,-0.0969 0.0736,-0.14873 0.011,-0.0299 -0.011,-0.0406 0,-0.0736 0.0189,-0.0503 0.0853,-0.0938 0.10888,-0.1472 0.0173,-0.0408 0.0195,-0.097 0.0368,-0.14721 0.0204,-0.0565 0.0689,-0.10639 0.0736,-0.1472 0.007,-0.0533 -0.0312,-0.1142 -0.0736,-0.14874 -0.13032,0.008 -0.22059,0.002 -0.29594,0.0368 -0.16957,0.0769 -0.12328,0.31465 -0.29442,0.36802 -0.0581,0.0188 -0.15486,0.0243 -0.2208,0.0353 -0.0287,0.006 -0.0613,0.0103 -0.0935,0.0184 0.10966,-0.56997 0.27939,-1.11785 0.50449,-1.63611 0.0378,-1e-5 0.0769,-0.005 0.10273,0 0.0596,0.011 0.0969,0.0689 0.14874,0.0736 0.14444,0.011 0.17508,-0.12122 0.2944,-0.184 0.12247,0.0173 0.18447,-0.0126 0.29594,0 0.0754,0.008 0.16115,0.10569 0.22081,0.1104 0.0503,10e-4 0.0633,-0.0447 0.1104,-0.0368 0.0471,0.008 0.13936,0.0907 0.14721,0.1472 0.008,0.0706 -0.0572,0.14386 -0.0368,0.22234 0.0738,0.0753 0.22601,0.10325 0.3312,0.1472 0.0691,-0.0565 0.011,-0.17598 0,-0.2576 -10e-4,-0.0361 0.004,-0.0774 0,-0.1104 -0.008,-0.0565 -0.0353,-0.0986 -0.0353,-0.14721 0,-0.22446 0.18048,-0.3169 0.3312,-0.40481 0.0644,-0.0377 0.12749,-0.11895 0.18401,-0.1472 0.0801,-0.0392 0.11806,-0.0359 0.18401,-0.0736 0.11932,-0.0675 0.23857,-0.14543 0.3312,-0.22234 0.0424,-0.10203 -0.004,-0.23075 0,-0.33121 0.0424,-0.0267 0.0634,0.004 0.10887,0 0.0722,-0.0157 0.10792,-0.10639 0.14873,-0.1472 0.0236,-0.0236 0.0806,-0.05 0.10888,-0.0736 0.0722,-0.0565 0.0844,-0.12209 0.1472,-0.1472 0.022,-0.008 0.0759,-0.0274 0.1104,-0.0368 0.0471,-0.0126 0.10865,-0.0469 0.184,-0.0736 0.0487,-0.0173 0.16517,-0.0165 0.18401,-0.0353 0.0236,-0.0236 -0.007,-0.11263 0,-0.14873 0.0377,-0.17737 0.31984,-0.19642 0.47841,-0.25607 0.1099,-0.0424 0.20875,-0.13395 0.33121,-0.1104 -0.0236,0.0848 -0.13081,0.082 -0.11041,0.184 0.0267,0.14283 0.20737,-0.0532 0.25762,-0.0736 0.0958,-0.0408 0.2792,-0.0649 0.4048,-0.1104 0.10991,-0.0392 0.28763,-0.0937 0.184,-0.22081 -0.0863,-0.007 -0.10863,0.0775 -0.184,0.10887 -0.0518,0.008 -0.0649,-0.0321 -0.10886,-0.0353 -0.0424,-10e-4 -0.068,0.0431 -0.11041,0.0353 -0.0424,-0.008 -0.10412,-0.097 -0.1104,-0.1472 -0.0173,-0.13186 0.13062,-0.16029 0.18401,-0.25761 -0.0362,-0.1193 -0.19394,-0.0265 -0.29442,-0.0736 0.011,-0.0707 0.064,-0.13308 0.14721,-0.14721 0.0675,-0.011 0.21678,0.002 0.25761,0.0353 0.0236,0.0204 -7.3e-4,0.0774 0.0353,0.11041 0.0408,0.0361 0.0954,0.008 0.14873,0 0.0188,-0.0895 -0.1261,-0.0523 -0.1104,-0.11041 0.10677,-0.0691 0.3113,-0.018 0.44161,-0.0353 0.0754,-0.011 0.15329,-0.0743 0.22081,-0.1104 0.0628,-0.0361 0.11806,-0.0949 0.184,-0.0353 0.0189,0.0644 -0.0375,0.11424 -0.0736,0.14721 -0.12089,0.10673 -0.23701,0.2072 -0.33121,0.3312 0.0581,0.0565 0.16027,0.0243 0.25761,0.0353 0.0377,0.004 0.0696,0.0305 0.10887,0.0368 0.0471,0.008 0.11105,-0.008 0.14873,0 0.0659,0.0157 0.0813,0.1104 0.1472,0.1104 0.10677,0 0.0965,-0.1118 0.0353,-0.18401 0.0189,-0.0738 0.0635,-0.1322 0.0368,-0.184 -0.0487,-0.0973 -0.24818,0.0136 -0.2576,-0.1104 -0.007,-0.0785 0.0821,-0.0876 0.1104,-0.14721 -0.0126,-0.15068 0.12457,-0.15785 0.10887,-0.2944 -0.008,-0.0565 -0.0696,-0.0571 -0.10887,-0.11041 -0.0204,-0.0282 -0.0132,-0.09 -0.0368,-0.1104 -0.0816,-0.0691 -0.24818,-0.0506 -0.25761,-0.18247 -0.004,-0.0785 0.011,-0.13758 0,-0.22234 -0.011,-0.0801 -0.0781,-0.31551 -0.1472,-0.33121 -0.0879,-0.0188 -0.15241,0.13535 -0.2576,0.18401 -0.0565,0.0267 -0.16272,0.0478 -0.22081,0.0368 -0.0377,-0.008 -0.10569,-0.0382 -0.11041,-0.1104 -0.008,-0.0832 0.0579,-0.0961 0.0736,-0.18401 0.67639,-0.18878 1.38702,-0.29747 2.12525,-0.29747 z m -3.1664,0.66548 c -0.0226,0.32291 -0.31065,0.49021 -0.65015,0.48148 -0.0722,0.0691 -0.0344,0.19866 -0.0736,0.2944 -0.033,0.0801 -0.14073,0.15502 -0.2208,0.14874 -0.0581,-0.004 -0.1472,-0.0938 -0.1472,-0.14874 0,-0.0675 0.0934,-0.10556 0.0353,-0.18247 0.002,-0.0161 0.0236,-0.0323 0.0399,-0.0491 0.32465,-0.2044 0.66191,-0.38853 1.01663,-0.54434 z m 6.55361,0.37414 c -0.0289,0.005 -0.0449,0.0202 -0.0705,0.0353 -0.0596,0.0361 -0.0649,0.0931 -0.1104,0.1104 -0.0644,0.0236 -0.13778,0.0155 -0.1472,0.0736 -0.008,0.0486 0.0383,0.0649 0.0368,0.10886 -0.0236,0.0581 -0.061,0.0766 -0.0736,0.14721 0.0801,0.13028 0.26756,-0.007 0.36648,-0.0353 0.044,-0.0126 0.0869,-0.002 0.1104,-0.0368 0.0267,-0.0424 0.0148,-0.12283 0.0353,-0.18247 0.022,-0.0659 0.0815,-0.0523 0.0736,-0.11041 -0.007,-0.0581 -0.12346,-0.11981 -0.2208,-0.1104 z m -8.59453,0.93689 c 0.0764,0.0391 0.20528,0.21588 0.0582,0.27907 -0.0157,0.008 -0.21993,0.0431 -0.25761,0.0353 -0.0304,-0.004 -0.0557,-0.0323 -0.0813,-0.0598 0.0903,-0.0881 0.18617,-0.17082 0.2806,-0.25453 z m 0.27754,0.35114 c 0.0377,10e-4 0.0664,0.0705 0.1104,0.0736 0.0424,0.003 0.0853,-0.0446 0.11041,-0.0368 0.0659,0.0173 0.0981,0.13535 0.0353,0.184 -0.0518,0.007 -0.0712,-0.0431 -0.10887,-0.0353 -0.10676,0.0188 -0.14227,0.22709 -0.22234,0.22081 -0.0754,-0.008 -0.1122,-0.16587 -0.0353,-0.22081 10e-4,-0.0471 -0.0399,-0.0633 -0.0368,-0.1104 0.0236,-0.0299 0.0844,-0.0783 0.1472,-0.0736 l 0,-10e-4 z m -0.36647,0.0368 c 0.0219,0 0.0274,-0.009 0.0353,0 -0.011,0.0832 -0.0445,0.10949 -0.10887,0.14874 -0.11147,0.0675 -0.18623,0.14999 -0.22234,0.2944 -0.011,0.0424 -0.12909,0.15819 -0.18247,0.1472 -0.12403,-0.0267 0.0454,-0.25829 0.0736,-0.2944 0.0314,-0.0392 0.0727,-0.0664 0.10887,-0.1104 0.0362,-0.044 0.0391,-0.12209 0.0736,-0.1472 0.0377,-0.0267 0.15639,-0.04 0.22233,-0.0368 l 0,-10e-4 z m 11.10772,0.21007 c 0.0496,0.0546 0.1007,0.10807 0.14874,0.16407 -0.0495,-0.0579 -0.1303,-0.0801 -0.14874,-0.16407 z m -0.47995,0.0154 c 0.12404,-0.008 0.20109,0.14547 0.25761,0.22081 0.0471,0.0612 0.18067,0.14162 0.25761,0.18401 0.044,0.0236 0.0985,0.0516 0.1472,0.0736 0.10206,0.0455 0.28969,0.19395 0.29441,0.2944 10e-4,0.0502 -0.0431,0.10165 -0.0353,0.14874 0.0769,0.0126 0.14563,-0.10709 0.1472,-0.184 0,-0.0182 -0.007,-0.0296 -0.0138,-0.0414 0.2222,0.31089 0.42241,0.63713 0.59801,0.97982 -0.0692,0.0203 -0.12839,0.0537 -0.13954,0.12114 -0.0157,0.0879 0.0583,0.20511 -0.0736,0.2208 -0.0832,0.011 -0.18132,-0.0853 -0.29594,-0.1104 -0.0471,-0.011 -0.10952,0.0126 -0.1472,0 -0.0863,-0.0299 -0.0734,-0.13068 -0.1472,-0.18248 -0.0424,-0.0299 -0.15483,-0.0658 -0.22234,-0.0736 -0.0424,-0.004 -0.0649,0.007 -0.10887,0 -0.0534,-0.007 -0.14004,-0.0101 -0.18401,-0.0368 -0.0424,-0.0267 -0.13621,-0.0743 -0.1472,-0.1104 -0.0173,-0.0581 0.10573,-0.13381 0.10887,-0.18247 0.003,-0.0377 -0.0274,-0.0539 -0.0353,-0.1104 -0.007,-0.0345 0.008,-0.0884 0,-0.11041 -0.011,-0.0408 -0.0844,-0.072 -0.14874,-0.0736 -0.0566,0 -0.0985,0.0368 -0.1472,0.0368 -0.0691,10e-4 -0.20806,-0.0446 -0.29441,-0.0368 -0.0518,0.004 -0.10007,0.0337 -0.14873,0.0368 -0.1366,0.011 -0.22445,-0.008 -0.33122,0 -0.0769,0.004 -0.22218,0.0406 -0.2944,0.0736 -0.0361,0.0173 -0.0633,0.05 -0.1104,0.0736 -0.022,0.011 -0.0454,0.0227 -0.0736,0.0353 -0.044,0.0204 -0.10482,0.0642 -0.14721,0.0751 -0.0612,0.0157 -0.14613,-0.004 -0.25761,0 -0.0801,0.004 -0.21923,-0.0146 -0.2208,-0.1104 -10e-4,-0.14598 0.26665,-0.0853 0.40481,-0.11041 0.0518,-0.011 0.0844,-0.0728 0.1472,-0.10887 0.0299,-0.0173 0.0454,-0.0179 0.0736,-0.0368 0.0471,-0.033 0.13935,-0.10953 0.1472,-0.1472 0.007,-0.0345 -0.0399,-0.0853 -0.0353,-0.1104 0.007,-0.033 0.0665,-0.0665 0.10887,-0.10888 0.0659,-0.0659 0.10237,-0.14162 0.18401,-0.184 0.0549,-0.0299 0.15888,-0.0296 0.184,-0.0736 0.007,-0.0503 -10e-4,-0.0649 0,-0.1104 0.0345,-0.0314 0.0454,-0.0673 0.0736,-0.0736 0.0848,-0.0188 0.1587,0.0399 0.25761,0.0353 0.0424,-10e-4 0.10167,-0.005 0.1472,-0.0353 0.0377,-0.0251 0.0727,-0.0547 0.11041,-0.0736 0.0408,-0.022 0.0601,-0.0705 0.1104,-0.0736 z m -9.82429,0.0751 10e-4,0 c 0.0361,-10e-4 0.0711,0 0.1104,0 0.0393,0 0.0932,-0.0157 0.10886,0 -0.0251,0.1036 -0.24956,0.0729 -0.3312,0.0353 0.004,-0.0392 0.0601,-0.0306 0.1104,-0.0353 z m 10.45298,0.0751 c 0.0448,0.0523 0.0915,0.10292 0.13493,0.15641 -0.007,-0.004 -0.0181,-0.006 -0.0245,-0.0108 -0.0437,-0.0343 -0.067,-0.0926 -0.1104,-0.14567 z m -10.82099,0.10887 c 0.0267,0 0.0469,-0.011 0.0751,0 -0.0722,0.0612 -0.17034,0.10796 -0.29594,0.14721 -0.0596,0.0188 -0.13622,0.0291 -0.14721,-0.0368 -0.0126,-0.0816 0.0571,-0.0658 0.11041,-0.0736 0.0691,-0.008 0.176,-0.0337 0.25606,-0.0353 l 10e-4,-10e-4 z m 10.2291,10e-4 c -0.0518,0.0173 -0.0769,0.13307 0,0.1472 0.0362,-0.0219 0.0462,-0.0813 0.0368,-0.1472 -0.0204,-0.0219 -0.0211,-0.007 -0.0368,0 z m -0.0353,0.2208 c -0.0251,0.008 -0.0469,0.007 -0.0736,0.0353 10e-4,0.0879 0.0173,0.14543 0,0.22234 0.0503,0.0973 0.15735,0.0291 0.18247,-0.0368 0.0299,-0.16324 -0.0335,-0.24121 -0.10887,-0.22081 z m 0.69768,0.44161 c -0.0691,-0.003 -0.14165,0.002 -0.18246,0.0353 0.0581,0.0942 0.16408,0.12366 0.2944,0.1472 0.0471,-0.0345 0.0516,-0.12282 0.0736,-0.18246 -0.0565,0 -0.11492,0.003 -0.184,0 l -10e-4,0 z m -13.79572,3.23384 c 0.0885,0.0804 0.15015,0.2144 0.25608,0.26681 0.0393,0.0204 0.097,0.0258 0.1472,0.0368 0.0408,0.008 0.0712,0.0227 0.1104,0.0353 0.0832,0.0282 0.19167,0.0453 0.25761,0.0751 0.10048,0.044 0.17125,0.20584 0.2576,0.25607 0.004,0.0503 -0.0157,0.11107 0,0.14874 0.0408,0.0549 0.11807,0.0728 0.18401,0.10887 0.0801,0.044 0.10711,0.14947 0.18247,0.184 0.0267,0.011 0.0696,-0.0126 0.1104,0 0.10362,0.0314 0.13285,0.17389 0.22234,0.14721 0.0581,-0.0173 0.0642,-0.0907 0.0736,-0.14721 0.0393,-0.0424 0.086,-0.1104 0.14721,-0.1104 0.0973,-10e-4 0.11109,0.1266 0.1472,0.22234 0.0204,0.0533 0.0595,0.0907 0.0736,0.1472 0.0236,0.0973 0.0204,0.38353 0,0.44161 -0.0251,0.0722 -0.12434,0.10399 -0.184,0.18247 -0.0282,0.0377 -0.0517,0.0853 -0.0736,0.11041 -0.0377,0.0471 -0.0806,0.068 -0.10888,0.1104 -0.0157,0.0236 -0.0227,0.0759 -0.0368,0.10887 -0.0471,0.10045 -0.11285,0.17508 -0.0736,0.29594 0.0157,0.0486 0.0736,0.0891 0.0736,0.1472 0,0.0691 -0.13621,0.10866 -0.1472,0.18401 -0.008,0.0549 0.0563,0.14703 0.0736,0.2208 0.0126,0.0549 0.11424,0.1111 0.1472,0.1472 0.055,0.0612 0.0985,0.14386 0.14874,0.22234 0.0989,0.15226 0.15873,0.3293 0.25608,0.47842 0.0518,0.0769 0.14946,0.13918 0.184,0.2208 0.0173,0.0408 -0.0157,0.10953 0,0.1472 0.0565,0.12714 0.31444,0.26843 0.44161,0.33121 0.0596,0.0299 0.12905,0.0438 0.18401,0.0751 0.0832,0.0471 0.25201,0.14703 0.2944,0.22081 0.0377,0.0659 0.0548,0.22604 0.0736,0.3312 0.0236,0.13813 -0.007,0.2557 0,0.40482 0.004,0.0816 0.0368,0.13918 0.0368,0.2208 0,0.0282 10e-4,0.0821 0,0.1104 -0.001,0.0973 0.008,0.19552 0,0.29441 -0.004,0.0533 -0.003,0.10321 0,0.14873 0.004,0.0487 0.0321,0.0665 0.0353,0.10888 0.003,0.0455 -0.04,0.11263 -0.0353,0.14873 0.011,0.0989 0.0916,0.16504 0.1104,0.25607 0.0157,0.0722 0.0447,0.24488 0.0353,0.33121 -0.007,0.0455 -0.029,0.0985 -0.0353,0.14874 -0.004,0.0392 0.007,0.0728 0,0.10887 -0.005,0.035 -0.0137,0.0646 -0.023,0.0951 -2.18409,-1.39119 -3.63254,-3.82732 -3.63254,-6.61954 0,-0.37598 0.0353,-0.74242 0.0859,-1.10402 z m 3.05448,0.86023 c 0.0753,-0.0345 0.0612,0.10098 0,0.1104 -0.0581,0.008 -0.0566,-0.0837 0,-0.1104 z"
             id="path26" />
        </g>
      </g>
    </g>
  </g>
</svg>
