<?xml version="1.0" encoding="UTF-8" standalone="no"?>
<!-- Created with Inkscape (http://www.inkscape.org/) -->

<svg
   xmlns:osb="http://www.openswatchbook.org/uri/2009/osb"
   xmlns:dc="http://purl.org/dc/elements/1.1/"
   xmlns:cc="http://creativecommons.org/ns#"
   xmlns:rdf="http://www.w3.org/1999/02/22-rdf-syntax-ns#"
   xmlns:svg="http://www.w3.org/2000/svg"
   xmlns="http://www.w3.org/2000/svg"
   xmlns:xlink="http://www.w3.org/1999/xlink"
   xmlns:sodipodi="http://sodipodi.sourceforge.net/DTD/sodipodi-0.dtd"
   xmlns:inkscape="http://www.inkscape.org/namespaces/inkscape"
   width="32"
   height="32"
   id="svg5453"
   version="1.1"
   inkscape:version="0.91 r13725"
   sodipodi:docname="video-x-wmv.svg">
  <defs
     id="defs5455">
    <linearGradient
       inkscape:collect="always"
       id="linearGradient4307">
      <stop
         style="stop-color:#1c99f5;stop-opacity:1"
         offset="0"
         id="stop4309" />
      <stop
         style="stop-color:#20b9fa;stop-opacity:1"
         offset="1"
         id="stop4311" />
    </linearGradient>
    <linearGradient
       gradientTransform="matrix(1.0646823,0,0,1.0824016,51.990004,-31.819073)"
       gradientUnits="userSpaceOnUse"
       y2="517.79797"
       x2="375.57144"
       y1="543.79797"
       x1="375.57144"
       id="linearGradient4190-9"
       xlink:href="#linearGradient4307"
       inkscape:collect="always" />
    <linearGradient
       id="linearGradient4207"
       osb:paint="gradient">
      <stop
         style="stop-color:#3498db;stop-opacity:1;"
         offset="0"
         id="stop3371" />
      <stop
         style="stop-color:#3498db;stop-opacity:0;"
         offset="1"
         id="stop3373" />
    </linearGradient>
  </defs>
  <sodipodi:namedview
     id="base"
     pagecolor="#ffffff"
     bordercolor="#666666"
     borderopacity="1.0"
     inkscape:pageopacity="0"
     inkscape:pageshadow="2"
     inkscape:zoom="9.6544057"
     inkscape:cx="-9.8522932"
     inkscape:cy="25.214643"
     inkscape:document-units="px"
     inkscape:current-layer="layer1-3"
     showgrid="true"
     fit-margin-top="0"
     fit-margin-left="0"
     fit-margin-right="0"
     fit-margin-bottom="0"
     inkscape:window-width="1366"
     inkscape:window-height="702"
     inkscape:window-x="0"
     inkscape:window-y="0"
     inkscape:window-maximized="1"
     inkscape:showpageshadow="false"
     borderlayer="true"
     showguides="true"
     inkscape:guide-bbox="true"
     inkscape:object-nodes="true"
     inkscape:snap-bbox="true">
    <inkscape:grid
       type="xygrid"
       id="grid4063" />
    <sodipodi:guide
       position="2.0000117,30.000026"
       orientation="28,0"
       id="guide4167" />
    <sodipodi:guide
       position="17,5"
       orientation="0,28"
       id="guide4169" />
    <sodipodi:guide
       position="30.000012,2.0000264"
       orientation="-28,0"
       id="guide4171" />
    <sodipodi:guide
       position="30.000012,30.000026"
       orientation="0,-28"
       id="guide4173" />
    <sodipodi:guide
       position="2.0000117,30.000026"
       orientation="28,0"
       id="guide4181" />
    <sodipodi:guide
       position="16.000012,30.000026"
       orientation="0,-14"
       id="guide4187" />
    <sodipodi:guide
       position="5.0000117,30.000026"
       orientation="28,0"
       id="guide4143" />
    <sodipodi:guide
       position="5.0000117,2.0000264"
       orientation="0,22"
       id="guide4145" />
    <sodipodi:guide
       position="27.000012,2.0000264"
       orientation="-28,0"
       id="guide4147" />
    <sodipodi:guide
       position="27.000012,30.000026"
       orientation="0,-22"
       id="guide4149" />
    <sodipodi:guide
       position="27,30"
       orientation="0,-7"
       id="guide4155" />
    <sodipodi:guide
       position="27.00001,23"
       orientation="-7,-1e-05"
       id="guide4162" />
  </sodipodi:namedview>
  <metadata
     id="metadata5458">
    <rdf:RDF>
      <cc:Work
         rdf:about="">
        <dc:format>image/svg+xml</dc:format>
        <dc:type
           rdf:resource="http://purl.org/dc/dcmitype/StillImage" />
        <dc:title />
      </cc:Work>
    </rdf:RDF>
  </metadata>
  <g
     inkscape:label="Capa 1"
     inkscape:groupmode="layer"
     id="layer1"
     transform="translate(-384.57143,-515.798)">
    <g
       transform="translate(392.57143,-514.5642)"
       id="layer1-7"
       inkscape:label="Capa 1"
       style="fill:#ffffff;fill-opacity:1" />
    <g
       id="g4240"
       transform="translate(341.79698,500.25245)">
      <rect
         y="3"
         x="10"
         height="1"
         width="44"
         id="rect4236-8"
         style="opacity:1;fill:#ffffff;fill-opacity:0.40983605;stroke:none" />
      <g
         inkscape:transform-center-y="-9.4924686"
         inkscape:transform-center-x="5.4653607"
         inkscape:label="Capa 1"
         id="layer1-1"
         transform="translate(-392.98822,-511.27795)">
        <g
           id="layer1-3"
           inkscape:label="Capa 1"
           transform="translate(0.41988239,0.03484499)">
          <rect
             ry="0.83437711"
             y="528.64618"
             x="440.14279"
             height="28.142445"
             width="22.35833"
             id="rect4182-2"
             style="opacity:0.997;fill:url(#linearGradient4190-9);fill-opacity:1;stroke:none;stroke-width:0.104;stroke-linecap:round;stroke-linejoin:round;stroke-miterlimit:4;stroke-dasharray:none;stroke-opacity:1" />
          <path
             style="display:inline;fill:#0c416a;fill-opacity:1;stroke:none;stroke-width:46.76432037;stroke-miterlimit:4;stroke-dasharray:none;stroke-opacity:1"
             inkscape:connector-curvature="0"
             d="m 458.55855,535.17667 -0.78059,0 c -0.18538,0 -0.33564,0.15026 -0.33564,0.33563 l 0,0.41771 c 0,0.18535 -0.15027,0.33563 -0.33564,0.33563 l -0.72783,0 c -0.18537,0 -0.33564,-0.15028 -0.33564,-0.33563 l 0,-0.41771 c 0,-0.18537 -0.15024,-0.33563 -0.33563,-0.33563 l -8.76343,0 c -0.18537,0 -0.33563,0.15026 -0.33563,0.33563 l 0,0.41771 c 0,0.18535 -0.15027,0.33563 -0.33564,0.33563 l -0.72784,0 c -0.18536,0 -0.33563,-0.15028 -0.33563,-0.33563 l 0,-0.41771 c 0,-0.18537 -0.15026,-0.33563 -0.33564,-0.33563 l -0.75435,0 c -0.18538,0 -0.33563,0.15026 -0.33563,0.33563 l 0,15.10373 c 0,0.18538 0.15025,0.33563 0.33563,0.33563 l 0.75435,0 c 0.18538,0 0.33564,-0.15025 0.33564,-0.33563 l 0,-0.30686 c 0,-0.18537 0.15027,-0.33564 0.33563,-0.33564 l 0.72784,0 c 0.18537,0 0.33564,0.15027 0.33564,0.33564 l 0,0.30686 c 0,0.18538 0.15026,0.33563 0.33563,0.33563 l 8.76343,0 c 0.18539,0 0.33563,-0.15025 0.33563,-0.33563 l 0,-0.30686 c 0,-0.18537 0.15027,-0.33564 0.33564,-0.33564 l 0.72783,0 c 0.18537,0 0.33564,0.15027 0.33564,0.33564 l 0,0.30686 c 0,0.18538 0.15026,0.33563 0.33564,0.33563 l 0.78059,0 c 0.18537,0 0.33564,-0.15025 0.33564,-0.33563 l 0,-15.10373 c 0,-0.18535 -0.15027,-0.33563 -0.33564,-0.33563 z m -11.95003,12.84437 c 0,0.18535 -0.15027,0.33562 -0.33564,0.33562 l -0.72784,0 c -0.18536,0 -0.33563,-0.15027 -0.33563,-0.33562 l 0,-0.72786 c 0,-0.18535 0.15027,-0.33563 0.33563,-0.33563 l 0.72784,0 c 0.18537,0 0.33564,0.15028 0.33564,0.33563 l 0,0.72786 z m 0,-3.01599 c 0,0.18534 -0.15027,0.33563 -0.33564,0.33563 l -0.72784,0 c -0.18536,0 -0.33563,-0.15029 -0.33563,-0.33563 l 0,-0.72786 c 0,-0.18535 0.15027,-0.33564 0.33563,-0.33564 l 0.72784,0 c 0.18537,0 0.33564,0.15029 0.33564,0.33564 l 0,0.72786 z m 0,-3.016 c 0,0.18538 -0.15027,0.33564 -0.33564,0.33564 l -0.72784,0 c -0.18536,0 -0.33563,-0.15026 -0.33563,-0.33564 l 0,-0.72784 c 0,-0.18537 0.15027,-0.33564 0.33563,-0.33564 l 0.72784,0 c 0.18537,0 0.33564,0.15027 0.33564,0.33564 l 0,0.72784 z m 0,-3.01597 c 0,0.18536 -0.15027,0.33562 -0.33564,0.33562 l -0.72784,0 c -0.18536,0 -0.33563,-0.15026 -0.33563,-0.33562 l 0,-0.72783 c 0,-0.18538 0.15027,-0.33566 0.33563,-0.33566 l 0.72784,0 c 0.18537,0 0.33564,0.15028 0.33564,0.33566 l 0,0.72783 z m 7.9834,10.20418 c 0,0.18539 -0.15025,0.33564 -0.33563,0.33564 l -5.8346,0 c -0.18538,0 -0.33564,-0.15025 -0.33564,-0.33564 l 0,-2.69723 c 0,-0.18536 0.15026,-0.33563 0.33564,-0.33563 l 5.8346,0 c 0.18538,0 0.33563,0.15027 0.33563,0.33563 l 0,2.69723 0,0 z m 0,-4.76448 c 0,0.18537 -0.15025,0.33564 -0.33563,0.33564 l -5.8346,0 c -0.18538,0 -0.33564,-0.15027 -0.33564,-0.33564 l 0,-2.69722 c 0,-0.18537 0.15026,-0.33564 0.33564,-0.33564 l 5.8346,0 c 0.18538,0 0.33563,0.15027 0.33563,0.33564 l 0,2.69722 0,0 z m 0,-4.7645 c 0,0.18537 -0.15025,0.33562 -0.33563,0.33562 l -5.8346,0 c -0.18538,0 -0.33564,-0.15025 -0.33564,-0.33562 l 0,-2.69724 c 0,-0.18534 0.15026,-0.33563 0.33564,-0.33563 l 5.8346,0 c 0.18538,0 0.33563,0.15029 0.33563,0.33563 l 0,2.69724 0,0 z m 2.85042,8.37276 c 0,0.18535 -0.15027,0.33562 -0.33564,0.33562 l -0.72784,0 c -0.18536,0 -0.33564,-0.15027 -0.33564,-0.33562 l 0,-0.72786 c 0,-0.18535 0.15028,-0.33563 0.33564,-0.33563 l 0.72784,0 c 0.18537,0 0.33564,0.15028 0.33564,0.33563 l 0,0.72786 z m 0,-3.01599 c 0,0.18534 -0.15027,0.33563 -0.33564,0.33563 l -0.72784,0 c -0.18536,0 -0.33564,-0.15029 -0.33564,-0.33563 l 0,-0.72786 c 0,-0.18535 0.15028,-0.33564 0.33564,-0.33564 l 0.72784,0 c 0.18537,0 0.33564,0.15029 0.33564,0.33564 l 0,0.72786 z m 0,-3.016 c 0,0.18538 -0.15027,0.33564 -0.33564,0.33564 l -0.72784,0 c -0.18536,0 -0.33564,-0.15026 -0.33564,-0.33564 l 0,-0.72784 c 0,-0.18537 0.15028,-0.33564 0.33564,-0.33564 l 0.72784,0 c 0.18537,0 0.33564,0.15027 0.33564,0.33564 l 0,0.72784 z m 0,-3.01597 c 0,0.18536 -0.15027,0.33562 -0.33564,0.33562 l -0.72784,0 c -0.18536,0 -0.33564,-0.15026 -0.33564,-0.33562 l 0,-0.72783 c 0,-0.18538 0.15028,-0.33566 0.33564,-0.33566 l 0.72784,0 c 0.18537,0 0.33564,0.15028 0.33564,0.33566 l 0,0.72783 z"
             id="path14795" />
        </g>
      </g>
    </g>
  </g>
</svg>
