<?xml version="1.0" encoding="UTF-8" standalone="no"?>
<!-- Created with Inkscape (http://www.inkscape.org/) -->

<svg
   xmlns:osb="http://www.openswatchbook.org/uri/2009/osb"
   xmlns:dc="http://purl.org/dc/elements/1.1/"
   xmlns:cc="http://creativecommons.org/ns#"
   xmlns:rdf="http://www.w3.org/1999/02/22-rdf-syntax-ns#"
   xmlns:svg="http://www.w3.org/2000/svg"
   xmlns="http://www.w3.org/2000/svg"
   xmlns:xlink="http://www.w3.org/1999/xlink"
   xmlns:sodipodi="http://sodipodi.sourceforge.net/DTD/sodipodi-0.dtd"
   xmlns:inkscape="http://www.inkscape.org/namespaces/inkscape"
   width="32"
   height="32"
   id="svg5453"
   version="1.1"
   inkscape:version="0.91 r13725"
   sodipodi:docname="x-office-drawing.svg">
  <defs
     id="defs5455">
    <linearGradient
       inkscape:collect="always"
       id="linearGradient4307">
      <stop
         style="stop-color:#2fb67d;stop-opacity:1"
         offset="0"
         id="stop4309" />
      <stop
         style="stop-color:#3ec380;stop-opacity:1"
         offset="1"
         id="stop4311" />
    </linearGradient>
    <linearGradient
       gradientTransform="matrix(1.0646823,0,0,1.0824016,51.990004,-31.819073)"
       gradientUnits="userSpaceOnUse"
       y2="517.79797"
       x2="375.57144"
       y1="543.79797"
       x1="375.57144"
       id="linearGradient4190-9"
       xlink:href="#linearGradient4307"
       inkscape:collect="always" />
    <linearGradient
       id="linearGradient4207"
       osb:paint="gradient">
      <stop
         style="stop-color:#3498db;stop-opacity:1;"
         offset="0"
         id="stop3371" />
      <stop
         style="stop-color:#3498db;stop-opacity:0;"
         offset="1"
         id="stop3373" />
    </linearGradient>
  </defs>
  <sodipodi:namedview
     id="base"
     pagecolor="#ffffff"
     bordercolor="#666666"
     borderopacity="1.0"
     inkscape:pageopacity="0"
     inkscape:pageshadow="2"
     inkscape:zoom="11.050478"
     inkscape:cx="2.3609607"
     inkscape:cy="17.348124"
     inkscape:document-units="px"
     inkscape:current-layer="layer1-3"
     showgrid="true"
     fit-margin-top="0"
     fit-margin-left="0"
     fit-margin-right="0"
     fit-margin-bottom="0"
     inkscape:window-width="1366"
     inkscape:window-height="702"
     inkscape:window-x="0"
     inkscape:window-y="0"
     inkscape:window-maximized="1"
     inkscape:showpageshadow="false"
     borderlayer="true"
     showguides="true"
     inkscape:guide-bbox="true"
     inkscape:object-nodes="true"
     inkscape:snap-bbox="true">
    <inkscape:grid
       type="xygrid"
       id="grid4063" />
    <sodipodi:guide
       position="2.0000117,30.000026"
       orientation="28,0"
       id="guide4167" />
    <sodipodi:guide
       position="17,5"
       orientation="0,28"
       id="guide4169" />
    <sodipodi:guide
       position="30.000012,2.0000264"
       orientation="-28,0"
       id="guide4171" />
    <sodipodi:guide
       position="30.000012,30.000026"
       orientation="0,-28"
       id="guide4173" />
    <sodipodi:guide
       position="2.0000117,30.000026"
       orientation="28,0"
       id="guide4181" />
    <sodipodi:guide
       position="16.000012,30.000026"
       orientation="0,-14"
       id="guide4187" />
    <sodipodi:guide
       position="-13,14"
       orientation="28,0"
       id="guide4143" />
    <sodipodi:guide
       position="5.0000117,2.0000264"
       orientation="0,22"
       id="guide4145" />
    <sodipodi:guide
       position="27.000012,2.0000264"
       orientation="-28,0"
       id="guide4147" />
    <sodipodi:guide
       position="27.000012,30.000026"
       orientation="0,-22"
       id="guide4149" />
    <sodipodi:guide
       position="27,30"
       orientation="0,-7"
       id="guide4155" />
    <sodipodi:guide
       position="27.00001,23"
       orientation="-7,-1e-05"
       id="guide4162" />
    <sodipodi:guide
       position="24,27"
       orientation="0,1"
       id="guide3378" />
  </sodipodi:namedview>
  <metadata
     id="metadata5458">
    <rdf:RDF>
      <cc:Work
         rdf:about="">
        <dc:format>image/svg+xml</dc:format>
        <dc:type
           rdf:resource="http://purl.org/dc/dcmitype/StillImage" />
        <dc:title />
      </cc:Work>
    </rdf:RDF>
  </metadata>
  <g
     inkscape:label="Capa 1"
     inkscape:groupmode="layer"
     id="layer1"
     transform="translate(-384.57143,-515.798)">
    <g
       transform="translate(392.57143,-514.5642)"
       id="layer1-7"
       inkscape:label="Capa 1"
       style="fill:#ffffff;fill-opacity:1" />
    <g
       id="g4240"
       transform="translate(341.79698,500.25245)">
      <g
         inkscape:transform-center-y="-9.4924686"
         inkscape:transform-center-x="5.4653607"
         inkscape:label="Capa 1"
         id="layer1-1"
         transform="translate(-392.98822,-511.27795)">
        <g
           id="layer1-3"
           inkscape:label="Capa 1"
           transform="translate(0.41988239,0.03484499)">
          <rect
             ry="0.83437711"
             y="528.64618"
             x="440.14279"
             height="28.142445"
             width="22.35833"
             id="rect4182-2"
             style="opacity:0.997;fill:url(#linearGradient4190-9);fill-opacity:1;stroke:none;stroke-width:0.104;stroke-linecap:round;stroke-linejoin:round;stroke-miterlimit:4;stroke-dasharray:none;stroke-opacity:1" />
          <path
             d="m 443.06888,539.70133 1.61078,4.5917 -0.59635,0.2092 0.58573,1.66972 0.59635,-0.2092 1.61774,4.61151 -0.67413,0.23648 0.58572,1.66968 1.66968,-0.58572 -0.21612,-0.61606 4.66955,-1.63809 0.20919,0.59633 1.66972,-0.58575 -0.2092,-0.59631 4.33502,-1.52073 0.21613,0.6161 1.66971,-0.58574 -0.58573,-1.66968 -0.33963,0.11914 -1.61772,-4.61151 0.59631,-0.2092 -0.58573,-1.66971 -0.59632,0.20919 -1.6108,-4.59174 0.41745,-0.14643 -0.58574,-1.66971 -1.66972,0.58573 0.20919,0.59631 -4.41281,1.54803 -0.2092,-0.59631 -1.66971,0.58573 0.20919,0.59631 -4.5917,1.61078 -0.20919,-0.59632 -1.66975,0.58576 0.58574,1.66972 0.59635,-0.20921 z m -0.16735,-0.47704 -0.11928,0.0419 -0.25102,-0.7156 0.7156,-0.25103 0.0419,0.11928 0.16736,0.47707 0.0419,0.11929 -0.11928,0.0419 -0.47703,0.16734 z m 14.9454,0.98543 0.11927,-0.0419 0.25104,0.71559 -0.11928,0.0419 -0.24946,0.0875 -0.22758,0.0798 -0.11925,0.0419 -0.25102,-0.71559 0.11923,-0.0419 0.22759,-0.0798 0.24946,-0.0875 z m -12.74888,5.27599 -0.11928,0.0419 -0.25103,-0.7156 0.11928,-0.0419 0.24946,-0.0875 0.22755,-0.0798 0.11927,-0.0419 0.25103,0.71559 -0.11927,0.0419 -0.22755,0.0798 -0.24946,0.0875 z m 6.25945,-2.1066 c -0.0303,0.0627 -0.10577,0.0892 -0.16863,0.0592 -0.0316,-0.0154 -0.0538,-0.0415 -0.0646,-0.0722 -0.0106,-0.0303 -0.01,-0.0651 0.006,-0.0966 l 0.17424,-0.36245 -0.3625,-0.17422 c -0.0315,-0.0153 -0.0538,-0.0417 -0.0645,-0.0722 -0.0107,-0.0305 -0.01,-0.0651 0.006,-0.0967 0.0303,-0.0628 0.10575,-0.0893 0.16863,-0.0592 l 0.3625,0.17422 0.17422,-0.3625 c 0.0302,-0.0627 0.10589,-0.0893 0.16866,-0.0592 0.0628,0.0302 0.0894,0.10587 0.0592,0.16866 l -0.17414,0.36274 0.36249,0.17417 c 0.0629,0.0303 0.0893,0.10577 0.0592,0.16867 -0.0301,0.0629 -0.10585,0.0895 -0.16867,0.0592 l -0.3625,-0.17423 -0.17414,0.36272 z m -4.25303,8.45695 -0.25102,-0.71556 0.19704,-0.0691 0.47705,-0.16734 0.0414,-0.0145 0.0349,0.0995 0.16736,0.47707 0.0488,0.13906 -0.71556,0.25102 z m 0.77422,-1.61099 -0.51855,0.1819 -1.31048,-3.73567 c 1.32069,1.87494 3.53585,2.93958 5.82517,2.7994 l -3.79389,1.33091 -0.20225,-0.57654 z m 5.55801,-0.63262 -0.0419,-0.11924 -0.0875,-0.24946 -0.0798,-0.22758 -0.0419,-0.11925 0.7156,-0.25102 0.0419,0.11923 0.0798,0.22759 0.0875,0.24946 0.0419,0.11924 -0.7156,0.25103 z m 6.47625,-3.05325 0.20224,0.5765 0.0488,0.13906 -0.7156,0.25104 -0.0488,-0.13905 -0.16736,-0.47709 -0.0349,-0.0995 0.37597,-0.1319 0.33962,-0.11915 z m -0.50698,-0.35793 -0.85301,0.29923 0.20223,0.5765 -3.45939,1.21357 c 1.87531,-1.32077 2.9397,-3.53589 2.79971,-5.82502 l 1.3105,3.7357 z m -3.81516,-12.21205 0.0419,0.11927 0.20919,0.59632 -0.41744,0.14643 -0.29816,0.10461 -0.0419,-0.11928 -0.16736,-0.47708 -0.0419,-0.11929 0.71559,-0.25102 z m -0.77429,1.61102 0.77519,-0.27194 1.30353,3.71586 c -1.32077,-1.87506 -3.53564,-2.93949 -5.82489,-2.79945 l 3.53698,-1.24079 0.20919,0.59632 z m -5.30824,0.52274 0.0419,0.11928 0.0875,0.24946 0.0798,0.22757 0.0419,0.11928 -0.7156,0.25104 -0.0419,-0.11928 -0.0798,-0.22758 -0.0875,-0.24946 -0.0419,-0.11928 0.7156,-0.25103 z m -1.85915,1.32189 c -1.87514,1.32085 -2.93982,3.53576 -2.7997,5.82502 l -1.30355,-3.71589 0.59635,-0.20921 -0.20918,-0.59631 3.71608,-1.30361 z"
             id="path7-7"
             inkscape:connector-curvature="0"
             style="opacity:0.76599995;fill:#16191c;fill-opacity:1" />
        </g>
      </g>
      <g
         id="g15209"
         transform="translate(-19.057982,-5.554605)">
        <g
           inkscape:transform-center-y="-9.4924686"
           inkscape:transform-center-x="5.4653607"
           inkscape:label="Capa 1"
           id="layer1-72"
           transform="translate(-392.98822,-511.27795)">
          <g
             id="g19280"
             transform="translate(391.23463,518.32854)">
            <g
               inkscape:transform-center-y="-9.4924686"
               inkscape:transform-center-x="5.4653607"
               inkscape:label="Capa 1"
               id="layer1-78"
               transform="translate(-392.98822,-511.27795)" />
          </g>
        </g>
      </g>
    </g>
  </g>
</svg>
