<?xml version="1.0" encoding="UTF-8" standalone="no"?>
<!-- Created with Inkscape (http://www.inkscape.org/) -->

<svg
   xmlns:osb="http://www.openswatchbook.org/uri/2009/osb"
   xmlns:dc="http://purl.org/dc/elements/1.1/"
   xmlns:cc="http://creativecommons.org/ns#"
   xmlns:rdf="http://www.w3.org/1999/02/22-rdf-syntax-ns#"
   xmlns:svg="http://www.w3.org/2000/svg"
   xmlns="http://www.w3.org/2000/svg"
   xmlns:xlink="http://www.w3.org/1999/xlink"
   xmlns:sodipodi="http://sodipodi.sourceforge.net/DTD/sodipodi-0.dtd"
   xmlns:inkscape="http://www.inkscape.org/namespaces/inkscape"
   width="16"
   height="16"
   id="svg2"
   version="1.1"
   inkscape:version="0.91 r13725"
   viewBox="0 0 16 16"
   sodipodi:docname="application-pgp.svg">
  <defs
     id="defs4">
    <linearGradient
       inkscape:collect="always"
       id="linearGradient6152">
      <stop
         style="stop-color:#717d89;stop-opacity:1;"
         offset="0"
         id="stop6154" />
      <stop
         style="stop-color:#a1b1c2;stop-opacity:0.95294118"
         offset="1"
         id="stop6156" />
    </linearGradient>
    <linearGradient
       osb:paint="gradient"
       id="linearGradient4207">
      <stop
         id="stop3371"
         offset="0"
         style="stop-color:#3498db;stop-opacity:1;" />
      <stop
         id="stop3373"
         offset="1"
         style="stop-color:#3498db;stop-opacity:0;" />
    </linearGradient>
    <linearGradient
       inkscape:collect="always"
       xlink:href="#linearGradient6152"
       id="linearGradient6158"
       x1="8"
       y1="1050.3622"
       x2="8"
       y2="1038.3622"
       gradientUnits="userSpaceOnUse" />
  </defs>
  <sodipodi:namedview
     id="base"
     pagecolor="#ffffff"
     bordercolor="#666666"
     borderopacity="1.0"
     inkscape:pageopacity="0.0"
     inkscape:pageshadow="2"
     inkscape:zoom="12.605276"
     inkscape:cx="-28.618353"
     inkscape:cy="8.7669038"
     inkscape:document-units="px"
     inkscape:current-layer="layer1"
     showgrid="true"
     inkscape:showpageshadow="false"
     borderlayer="true"
     inkscape:window-width="1366"
     inkscape:window-height="702"
     inkscape:window-x="0"
     inkscape:window-y="0"
     inkscape:window-maximized="1"
     units="px"
     inkscape:snap-bbox="true"
     inkscape:snap-global="true">
    <inkscape:grid
       type="xygrid"
       id="grid4101" />
    <sodipodi:guide
       position="2,14.000017"
       orientation="12,0"
       id="guide4071" />
    <sodipodi:guide
       position="2,2.0000174"
       orientation="0,12"
       id="guide4073" />
    <sodipodi:guide
       position="14,2.0000174"
       orientation="-12,0"
       id="guide4075" />
    <sodipodi:guide
       position="14,14.000017"
       orientation="0,-12"
       id="guide4077" />
  </sodipodi:namedview>
  <metadata
     id="metadata7">
    <rdf:RDF>
      <cc:Work
         rdf:about="">
        <dc:format>image/svg+xml</dc:format>
        <dc:type
           rdf:resource="http://purl.org/dc/dcmitype/StillImage" />
        <dc:title />
      </cc:Work>
    </rdf:RDF>
  </metadata>
  <g
     inkscape:label="Capa 1"
     inkscape:groupmode="layer"
     id="layer1"
     transform="translate(0,-1036.3622)">
    <path
       d="m 2.0302409,1050.0495 c 0.346684,0.3467 0.91077,0.3467 1.257454,0 0.17247,-0.1723 0.259046,-0.3987 0.259924,-0.6253 0.317673,-0.1842 0.724121,-0.4116 1.15301,-0.6299 1.735554,-0.8832 2.196539,-0.7853 2.243403,-0.7714 0.223139,0.067 0.461237,-0.044 0.554058,-0.2573 0.259201,-0.5972 1.494023,-2.1008 2.4437492,-2.676 0.033522,-0.02 0.063427,-0.045 0.090363,-0.073 0.187482,0.051 0.395919,0 0.542717,-0.1449 0.197103,-0.197 0.216404,-0.5048 0.05922,-0.7242 l 3.106651,-2.424 c 0.07059,-0.054 0.114021,-0.1376 0.119573,-0.2269 0.0052,-0.089 -0.02762,-0.1767 -0.09085,-0.24 l -2.947228,-2.9472 c -0.0632,-0.063 -0.150651,-0.096 -0.239943,-0.091 -0.08932,0.01 -0.171969,0.049 -0.227008,0.1195 l -2.4239006,3.1068 c -0.219491,-0.1571 -0.52727,-0.1378 -0.724277,0.059 -0.145402,0.1455 -0.193766,0.3512 -0.146214,0.5373 -0.02828,0.028 -0.05353,0.057 -0.07434,0.093 -0.617159,1.0198 -2.106146,2.2015 -2.672446,2.4471 -0.213902,0.093 -0.324488,0.3309 -0.257481,0.5541 0.01403,0.047 0.111894,0.5079 -0.771304,2.2435 -0.218206,0.4287 -0.445656,0.8352 -0.629927,1.1531 -0.226542,7e-4 -0.452774,0.087 -0.625274,0.2598 -0.346566,0.3466 -0.346596,0.9108 5.9e-5,1.2574 z m 3.583254,-3.8217 c -0.07281,-0.1681 -0.04091,-0.3711 0.09625,-0.5081 0.179338,-0.1793 0.471079,-0.1794 0.650446,-1e-4 0.179242,0.1794 0.179242,0.4713 -3e-5,0.6504 -0.137249,0.1372 -0.340163,0.1691 -0.508226,0.096 l -2.495738,2.4957 c 0,0 -0.02688,-0.056 -0.10409,-0.1343 -0.07727,-0.078 -0.134407,-0.1041 -0.134407,-0.1041 l 2.495798,-2.4958 z"
       id="path7"
       inkscape:connector-curvature="0"
       style="fill:url(#linearGradient6158);fill-opacity:1" />
  </g>
</svg>
