<?xml version="1.0" encoding="UTF-8" standalone="no"?>
<!-- Created with Inkscape (http://www.inkscape.org/) -->

<svg
   xmlns:dc="http://purl.org/dc/elements/1.1/"
   xmlns:cc="http://creativecommons.org/ns#"
   xmlns:rdf="http://www.w3.org/1999/02/22-rdf-syntax-ns#"
   xmlns:svg="http://www.w3.org/2000/svg"
   xmlns="http://www.w3.org/2000/svg"
   xmlns:xlink="http://www.w3.org/1999/xlink"
   xmlns:sodipodi="http://sodipodi.sourceforge.net/DTD/sodipodi-0.dtd"
   xmlns:inkscape="http://www.inkscape.org/namespaces/inkscape"
   width="16"
   height="16"
   id="svg2"
   version="1.1"
   inkscape:version="0.91 r13725"
   viewBox="0 0 16 16"
   sodipodi:docname="application-vnd.oasis.opendocument.chart.svg">
  <defs
     id="defs4">
    <linearGradient
       inkscape:collect="always"
       id="linearGradient4139">
      <stop
         style="stop-color:#2198d4;stop-opacity:1;"
         offset="0"
         id="stop4141" />
      <stop
         style="stop-color:#28b7ff;stop-opacity:1"
         offset="1"
         id="stop4143" />
    </linearGradient>
    <linearGradient
       inkscape:collect="always"
       xlink:href="#linearGradient4139"
       id="linearGradient4145"
       x1="8"
       y1="1050.3622"
       x2="8"
       y2="1038.3622"
       gradientUnits="userSpaceOnUse" />
  </defs>
  <sodipodi:namedview
     id="base"
     pagecolor="#ffffff"
     bordercolor="#666666"
     borderopacity="1.0"
     inkscape:pageopacity="0.0"
     inkscape:pageshadow="2"
     inkscape:zoom="22.4"
     inkscape:cx="0.16964286"
     inkscape:cy="8.0083999"
     inkscape:document-units="px"
     inkscape:current-layer="layer1"
     showgrid="true"
     inkscape:showpageshadow="false"
     borderlayer="true"
     inkscape:window-width="1366"
     inkscape:window-height="702"
     inkscape:window-x="0"
     inkscape:window-y="0"
     inkscape:window-maximized="1"
     units="px"
     inkscape:snap-bbox="true"
     showguides="true">
    <inkscape:grid
       type="xygrid"
       id="grid4101" />
    <sodipodi:guide
       position="2,14.000017"
       orientation="12,0"
       id="guide4071" />
    <sodipodi:guide
       position="2,2.0000174"
       orientation="0,12"
       id="guide4073" />
    <sodipodi:guide
       position="14,2.0000174"
       orientation="-12,0"
       id="guide4075" />
    <sodipodi:guide
       position="14,14.000017"
       orientation="0,-12"
       id="guide4077" />
  </sodipodi:namedview>
  <metadata
     id="metadata7">
    <rdf:RDF>
      <cc:Work
         rdf:about="">
        <dc:format>image/svg+xml</dc:format>
        <dc:type
           rdf:resource="http://purl.org/dc/dcmitype/StillImage" />
        <dc:title />
      </cc:Work>
    </rdf:RDF>
  </metadata>
  <g
     inkscape:label="Capa 1"
     inkscape:groupmode="layer"
     id="layer1"
     transform="translate(0,-1036.3622)">
    <path
       style="fill:url(#linearGradient4145);fill-opacity:1"
       id="path8-4"
       d="m 14.03298,1038.9244 c 0.116181,-0.1751 0.06798,-0.4101 -0.107068,-0.5263 -0.175392,-0.1153 -0.410023,-0.068 -0.526195,0.1078 l -1.404338,2.1257 c -0.05845,-0.013 -0.116554,-0.019 -0.177303,-0.019 -0.627188,0 -1.138958,0.5115 -1.138958,1.139 0,0.1203 0.02391,0.235 0.05879,0.3444 l -1.3561227,1.7293 c -0.1750281,-0.109 -0.3796596,-0.1754 -0.6006202,-0.1754 -0.6123797,0 -1.1101021,0.4871 -1.1344013,1.0933 l -2.1454221,1.2496 c -0.2088114,-0.2681 -0.5311356,-0.4446 -0.8967406,-0.4446 -0.6279483,0 -1.1389654,0.5114 -1.1389654,1.1389 0,0.2468 0.081238,0.4746 0.2148831,0.6613 l -1.6712316,2.5471 c -0.1150396,0.1758 -0.066475,0.4108 0.1089611,0.5259 0.064144,0.041 0.136674,0.063 0.2080502,0.063 0.1237751,0 0.2452604,-0.06 0.3177746,-0.1711 l 1.6609797,-2.5309 c 0.09606,0.026 0.1959015,0.045 0.2995533,0.045 0.6123797,0 1.110109,-0.4864 1.1344082,-1.0939 l 2.1454152,-1.2486 c 0.2084345,0.2684 0.5307655,0.4441 0.8963637,0.4441 0.6279483,0 1.1389648,-0.5109 1.1389648,-1.1388 0,-0.1203 -0.023504,-0.235 -0.05811,-0.3441 l 1.3553622,-1.7289 c 0.175021,0.1091 0.37966,0.175 0.600621,0.175 0.627564,0 1.138957,-0.511 1.138957,-1.139 0,-0.2911 -0.113147,-0.5538 -0.292713,-0.7555 l 1.369033,-2.0724 z m -9.4283151,8.1428 c -0.2095789,0 -0.3796598,-0.1697 -0.3796598,-0.3797 0,-0.2093 0.1700809,-0.3797 0.3796598,-0.3797 0.2095651,0 0.3796458,0.1704 0.3796458,0.3797 0,0.21 -0.1700807,0.3797 -0.3796458,0.3797 z m 4.1761869,-1.8983 c -0.209572,0 -0.3796595,-0.1698 -0.3796595,-0.3797 0,-0.2092 0.1700875,-0.3796 0.3796595,-0.3796 0.2095718,0 0.3796525,0.1704 0.3796525,0.3796 0,0.2099 -0.1700807,0.3797 -0.3796525,0.3797 z m 3.0372282,-3.0373 c -0.209565,0 -0.379652,-0.1701 -0.379652,-0.3797 0,-0.2091 0.170087,-0.3796 0.379652,-0.3796 0.209572,0 0.379659,0.1705 0.379659,0.3796 0,0.2096 -0.17047,0.3797 -0.379659,0.3797 z m -7.5930749,7.5932 c -0.2099488,0 -0.379652,0.1704 -0.379652,0.3796 0,0.2099 0.1697032,0.3796 0.379652,0.3796 0.2099423,0 0.3796598,-0.1697 0.3796598,-0.3796 0,-0.2092 -0.1693339,-0.3796 -0.3796598,-0.3796 z m 1.8982707,0 c -0.2099489,0 -0.3796596,0.1704 -0.3796596,0.3796 0,0.2099 0.1697107,0.3796 0.3796596,0.3796 0.2099489,0 0.3796527,-0.1697 0.3796527,-0.3796 0,-0.2092 -0.1693268,-0.3796 -0.3796527,-0.3796 z m 1.8982705,0 c -0.2099558,0 -0.3796527,0.1704 -0.3796527,0.3796 0,0.2099 0.1696969,0.3796 0.3796527,0.3796 0.209949,0 0.379646,-0.1697 0.379646,-0.3796 0,-0.2092 -0.1693201,-0.3796 -0.379646,-0.3796 z m 1.8982635,0 c -0.209949,0 -0.3796528,0.1704 -0.3796528,0.3796 0,0.2099 0.1697038,0.3796 0.3796528,0.3796 0.2103322,0 0.3796592,-0.1697 0.3796592,-0.3796 0,-0.2092 -0.169327,-0.3796 -0.3796592,-0.3796 z m 1.8982702,0 c -0.209949,0 -0.379652,0.1704 -0.379652,0.3796 0,0.2099 0.169703,0.3796 0.379652,0.3796 0.210326,0 0.379659,-0.1697 0.379659,-0.3796 0,-0.2092 -0.169333,-0.3796 -0.379659,-0.3796 z m 1.898271,0 c -0.209949,0 -0.379653,0.1704 -0.379653,0.3796 0,0.2099 0.169704,0.3796 0.379653,0.3796 0.210325,0 0.379652,-0.1697 0.379652,-0.3796 0,-0.2092 -0.169327,-0.3796 -0.379652,-0.3796 z m -11.3896162,-1.139 c 0.2099488,0 0.379652,-0.1697 0.379652,-0.3798 0,-0.2092 -0.1697032,-0.3796 -0.379652,-0.3796 -0.2099489,0 -0.3796534,0.1704 -0.3796534,0.3796 0,0.2101 0.1697045,0.3798 0.3796534,0.3798 z m 0,-1.8983 c 0.2099488,0 0.379652,-0.1698 0.379652,-0.3797 0,-0.2092 -0.1697032,-0.3796 -0.379652,-0.3796 -0.2099489,0 -0.3796534,0.1704 -0.3796534,0.3796 0,0.2099 0.1697045,0.3797 0.3796534,0.3797 z m 0,-1.8983 c 0.2099488,0 0.379652,-0.1697 0.379652,-0.3796 0,-0.2092 -0.1697032,-0.3797 -0.379652,-0.3797 -0.2099489,0 -0.3796534,0.1701 -0.3796534,0.3797 0,0.2099 0.1697045,0.3796 0.3796534,0.3796 z m 0,-1.8983 c 0.2099488,0 0.379652,-0.1693 0.379652,-0.3797 0,-0.2096 -0.1697032,-0.3796 -0.379652,-0.3796 -0.2099489,0 -0.3796534,0.17 -0.3796534,0.3796 0,0.2108 0.1697045,0.3797 0.3796534,0.3797 z m 0,-1.8982 c 0.2099488,0 0.379652,-0.1693 0.379652,-0.3796 0,-0.2096 -0.1697032,-0.3798 -0.379652,-0.3798 -0.2099489,0 -0.3796534,0.1702 -0.3796534,0.3798 0,0.2107 0.1697045,0.3796 0.3796534,0.3796 z m 0,-1.8982 c 0.2099488,0 0.379652,-0.1694 0.379652,-0.3798 0,-0.2095 -0.1697032,-0.3796 -0.379652,-0.3796 -0.2099489,0 -0.3796534,0.1701 -0.3796534,0.3796 0,0.2107 0.1697045,0.3798 0.3796534,0.3798 z"
       inkscape:connector-curvature="0" />
  </g>
</svg>
