<?xml version="1.0" encoding="UTF-8" standalone="no"?>
<!-- Created with Inkscape (http://www.inkscape.org/) -->

<svg
   xmlns:ns2="http://ns.adobe.com/AdobeIllustrator/10.0/"
   xmlns:dc="http://purl.org/dc/elements/1.1/"
   xmlns:cc="http://creativecommons.org/ns#"
   xmlns:rdf="http://www.w3.org/1999/02/22-rdf-syntax-ns#"
   xmlns:svg="http://www.w3.org/2000/svg"
   xmlns="http://www.w3.org/2000/svg"
   xmlns:xlink="http://www.w3.org/1999/xlink"
   xmlns:sodipodi="http://sodipodi.sourceforge.net/DTD/sodipodi-0.dtd"
   xmlns:inkscape="http://www.inkscape.org/namespaces/inkscape"
   width="16"
   height="16"
   id="svg2"
   version="1.1"
   inkscape:version="0.91 r13725"
   viewBox="0 0 16 16"
   sodipodi:docname="application-x-deb.svg">
  <defs
     id="defs4">
    <linearGradient
       inkscape:collect="always"
       id="linearGradient4145">
      <stop
         style="stop-color:#ee3262;stop-opacity:1;"
         offset="0"
         id="stop4147" />
      <stop
         style="stop-color:#ff3e8f;stop-opacity:1"
         offset="1"
         id="stop4149" />
    </linearGradient>
    <linearGradient
       inkscape:collect="always"
       xlink:href="#linearGradient4145"
       id="linearGradient4151"
       x1="8"
       y1="1050.3622"
       x2="8"
       y2="1038.3622"
       gradientUnits="userSpaceOnUse" />
  </defs>
  <sodipodi:namedview
     id="base"
     pagecolor="#ffffff"
     bordercolor="#666666"
     borderopacity="1.0"
     inkscape:pageopacity="0.0"
     inkscape:pageshadow="2"
     inkscape:zoom="15.8125"
     inkscape:cx="-5.1485934"
     inkscape:cy="8.5515733"
     inkscape:document-units="px"
     inkscape:current-layer="layer1"
     showgrid="true"
     inkscape:showpageshadow="false"
     borderlayer="true"
     inkscape:window-width="1366"
     inkscape:window-height="702"
     inkscape:window-x="0"
     inkscape:window-y="0"
     inkscape:window-maximized="1"
     units="px"
     inkscape:snap-bbox="true"
     inkscape:snap-global="true">
    <inkscape:grid
       type="xygrid"
       id="grid4101" />
    <sodipodi:guide
       position="2,14.000017"
       orientation="12,0"
       id="guide4071" />
    <sodipodi:guide
       position="2,2.0000174"
       orientation="0,12"
       id="guide4073" />
    <sodipodi:guide
       position="14,2.0000174"
       orientation="-12,0"
       id="guide4075" />
    <sodipodi:guide
       position="14,14.000017"
       orientation="0,-12"
       id="guide4077" />
  </sodipodi:namedview>
  <metadata
     id="metadata7">
    <rdf:RDF>
      <cc:Work
         rdf:about="">
        <dc:format>image/svg+xml</dc:format>
        <dc:type
           rdf:resource="http://purl.org/dc/dcmitype/StillImage" />
        <dc:title />
      </cc:Work>
    </rdf:RDF>
  </metadata>
  <g
     inkscape:label="Capa 1"
     inkscape:groupmode="layer"
     id="layer1"
     transform="translate(0,-1036.3622)">
    <path
       id="path4159"
       d="m 8.7884405,1050.3524 c -1.8293559,-0.6581 -2.9159423,-1.4658 -4.1072987,-3.2685 -0.2923513,-0.4965 -0.8299209,-1.6049 -0.809566,-3.0515 -0.047565,-1.4424 0.6812333,-3.1042 2.041412,-3.9911 1.3135097,-0.9361 3.0085891,-0.95 4.0169392,-0.5804 1.040146,0.3862 1.461969,1.0295 1.473865,0.9988 -0.03177,0.011 0.557247,0.5035 0.819857,1.5821 0.29258,1.0367 -0.0047,2.7551 -1.434522,3.4588 -0.657671,0.3524 -1.5118383,0.4162 -2.1816321,0.1641 -0.6698017,-0.2702 -1.1558983,-0.8632 -1.317865,-1.483 -0.3529601,-1.3682 0.685125,-2.1265 1.1430911,-2.2042 1.86321,-0.6214 2.806823,2.2944 0.6277002,2.5423 0.9932628,0.3317 2.0171648,-0.6876 1.8224918,-1.7259 -0.03931,-1.0386 -1.2965816,-2.0693 -2.6832947,-1.6469 -0.3621195,0.1001 -0.9104444,0.3541 -1.339588,0.9259 -0.4401192,0.5681 -0.6398239,1.4587 -0.4110688,2.3243 0.2230393,0.8704 0.9012929,1.7036 1.8460473,2.078 0.9543696,0.3521 2.0169362,0.2514 2.8944392,-0.2052 1.873273,-0.9266 2.248207,-3.1847 1.876017,-4.4271 -0.328493,-1.3352 -1.053873,-1.9467 -1.016355,-1.956 -0.01353,0.037 -0.535289,-0.757 -1.82478,-1.2385 -1.2608954,-0.4598 -3.2268155,-0.4274 -4.8008822,0.6764 -1.6108847,1.0331 -2.4835911,3.0631 -2.4202228,4.6991 -0.0217,1.6615 0.5975023,2.9331 0.935375,3.4984 1.3620106,2.0771 2.9225782,2.7263 4.8498405,2.8301"
       ns2:knockout="Off"
       inkscape:connector-curvature="0"
       style="overflow:visible;fill:url(#linearGradient4151);fill-opacity:1" />
  </g>
</svg>
