<?xml version="1.0" encoding="UTF-8" standalone="no"?>
<!-- Created with Inkscape (http://www.inkscape.org/) -->

<svg
   xmlns:dc="http://purl.org/dc/elements/1.1/"
   xmlns:cc="http://creativecommons.org/ns#"
   xmlns:rdf="http://www.w3.org/1999/02/22-rdf-syntax-ns#"
   xmlns:svg="http://www.w3.org/2000/svg"
   xmlns="http://www.w3.org/2000/svg"
   xmlns:xlink="http://www.w3.org/1999/xlink"
   xmlns:sodipodi="http://sodipodi.sourceforge.net/DTD/sodipodi-0.dtd"
   xmlns:inkscape="http://www.inkscape.org/namespaces/inkscape"
   width="16"
   height="16"
   id="svg2"
   version="1.1"
   inkscape:version="0.91 r13725"
   viewBox="0 0 16 16"
   sodipodi:docname="application-x-desktop.svg">
  <defs
     id="defs4">
    <linearGradient
       inkscape:collect="always"
       id="linearGradient4139">
      <stop
         style="stop-color:#727f8e;stop-opacity:1;"
         offset="0"
         id="stop4141" />
      <stop
         style="stop-color:#8b9aad;stop-opacity:1"
         offset="1"
         id="stop4143" />
    </linearGradient>
    <linearGradient
       inkscape:collect="always"
       xlink:href="#linearGradient4139"
       id="linearGradient4145"
       x1="8"
       y1="1050.3622"
       x2="8"
       y2="1038.3622"
       gradientUnits="userSpaceOnUse" />
  </defs>
  <sodipodi:namedview
     id="base"
     pagecolor="#ffffff"
     bordercolor="#666666"
     borderopacity="1.0"
     inkscape:pageopacity="0.0"
     inkscape:pageshadow="2"
     inkscape:zoom="16.943879"
     inkscape:cx="-4.282448"
     inkscape:cy="6.102996"
     inkscape:document-units="px"
     inkscape:current-layer="layer1"
     showgrid="true"
     inkscape:showpageshadow="false"
     borderlayer="true"
     inkscape:window-width="1366"
     inkscape:window-height="702"
     inkscape:window-x="0"
     inkscape:window-y="0"
     inkscape:window-maximized="1"
     units="px"
     inkscape:snap-bbox="true"
     inkscape:snap-global="true">
    <inkscape:grid
       type="xygrid"
       id="grid4101" />
    <sodipodi:guide
       position="2,14.000017"
       orientation="12,0"
       id="guide4071" />
    <sodipodi:guide
       position="2,2.0000174"
       orientation="0,12"
       id="guide4073" />
    <sodipodi:guide
       position="14,2.0000174"
       orientation="-12,0"
       id="guide4075" />
    <sodipodi:guide
       position="14,14.000017"
       orientation="0,-12"
       id="guide4077" />
  </sodipodi:namedview>
  <metadata
     id="metadata7">
    <rdf:RDF>
      <cc:Work
         rdf:about="">
        <dc:format>image/svg+xml</dc:format>
        <dc:type
           rdf:resource="http://purl.org/dc/dcmitype/StillImage" />
        <dc:title />
      </cc:Work>
    </rdf:RDF>
  </metadata>
  <g
     inkscape:label="Capa 1"
     inkscape:groupmode="layer"
     id="layer1"
     transform="translate(0,-1036.3622)">
    <path
       inkscape:connector-curvature="0"
       id="path5692_1_"
       style="display:inline;fill:url(#linearGradient4145);fill-opacity:1;stroke:none;stroke-opacity:0.8"
       d="m 8.8232732,1038.3044 -1.9977387,0.1922 0,8.23 1.9763974,-0.2988 0,-3.5089 2.6594031,3.8931 2.083104,-0.6617 -2.723418,-3.7437 2.744768,-3.5301 -2.125804,-0.4867 -2.6380531,3.5303 0.021379,-3.6157 z m -4.5290765,2.0063 c -0.022632,0 -0.047025,0.011 -0.064041,0.026 l -0.7854443,0.7854 c -0.033026,0.034 -0.03705,0.084 -0.012825,0.1238 l 0.9177586,1.5154 c -0.1629599,0.2739 -0.2952825,0.5677 -0.388443,0.8794 l -1.686145,0.35 c -0.046941,0.011 -0.081057,0.054 -0.081057,0.102 l 0,1.1098 c 0,0.047 0.035708,0.088 0.081057,0.099 l 1.6349209,0.3969 c 0.087469,0.3608 0.222474,0.706 0.4012511,1.0203 l -0.9476414,1.4428 c -0.026404,0.04 -0.021207,0.094 0.012741,0.1282 l 0.7854359,0.7854 c 0.033111,0.033 0.083865,0.037 0.1237894,0.012 l 1.4855069,-0.9008 c 0.291359,0.1683 0.6068009,0.3031 0.9391161,0.3929 l 0.3457689,1.6647 c 0.00931,0.047 0.050126,0.081 0.098198,0.081 l 1.1098556,0 c 0.046604,0 0.087166,-0.031 0.098197,-0.077 l 0.4098008,-1.6732 c 0.3427174,-0.092 0.6658458,-0.2296 0.9647237,-0.4055 l 1.4641581,0.9604 c 0.04031,0.026 0.09387,0.021 0.128055,-0.012 l 0.781178,-0.7853 c 0.0332,-0.033 0.04141,-0.084 0.01702,-0.1239 l -0.53359,-0.8794 -0.175013,0.055 c -0.02531,0.011 -0.05323,-0.011 -0.06832,-0.026 0,0 -0.33706,-0.4958 -0.776886,-1.1398 -0.526037,1.0293 -1.5988181,1.7332 -2.8344157,1.7332 -1.7557595,0 -3.1801759,-1.4244 -3.1801759,-3.1802 0,-1.2916 0.7722925,-2.4008 1.8782328,-2.8986 l 0,-0.8195 c -0.201292,0.071 -0.395744,0.1555 -0.5805561,0.2562 -3.437e-4,-2e-4 3.521e-4,-0.011 0,-0.011 l -1.4983065,-0.9819 c -0.020117,-0.013 -0.041492,-0.015 -0.064125,-0.012 z" />
  </g>
</svg>
