<?xml version="1.0" encoding="UTF-8" standalone="no"?>
<!-- Created with Inkscape (http://www.inkscape.org/) -->

<svg
   xmlns:dc="http://purl.org/dc/elements/1.1/"
   xmlns:cc="http://creativecommons.org/ns#"
   xmlns:rdf="http://www.w3.org/1999/02/22-rdf-syntax-ns#"
   xmlns:svg="http://www.w3.org/2000/svg"
   xmlns="http://www.w3.org/2000/svg"
   xmlns:xlink="http://www.w3.org/1999/xlink"
   xmlns:sodipodi="http://sodipodi.sourceforge.net/DTD/sodipodi-0.dtd"
   xmlns:inkscape="http://www.inkscape.org/namespaces/inkscape"
   width="16"
   height="16"
   id="svg2"
   version="1.1"
   inkscape:version="0.91 r13725"
   viewBox="0 0 16 16"
   sodipodi:docname="application-x-kdenlivetitle.svg">
  <defs
     id="defs4">
    <linearGradient
       inkscape:collect="always"
       id="linearGradient4139">
      <stop
         style="stop-color:#767f89;stop-opacity:1"
         offset="0"
         id="stop4141" />
      <stop
         style="stop-color:#9ca8b5;stop-opacity:1"
         offset="1"
         id="stop4143" />
    </linearGradient>
    <linearGradient
       inkscape:collect="always"
       xlink:href="#linearGradient4139"
       id="linearGradient4145"
       x1="8"
       y1="1050.3622"
       x2="8"
       y2="1038.3622"
       gradientUnits="userSpaceOnUse" />
  </defs>
  <sodipodi:namedview
     id="base"
     pagecolor="#ffffff"
     bordercolor="#666666"
     borderopacity="1.0"
     inkscape:pageopacity="0.0"
     inkscape:pageshadow="2"
     inkscape:zoom="14.78"
     inkscape:cx="-13.637693"
     inkscape:cy="4.3783904"
     inkscape:document-units="px"
     inkscape:current-layer="layer1"
     showgrid="true"
     inkscape:showpageshadow="false"
     borderlayer="true"
     inkscape:window-width="1366"
     inkscape:window-height="702"
     inkscape:window-x="0"
     inkscape:window-y="0"
     inkscape:window-maximized="1"
     units="px"
     inkscape:snap-bbox="true"
     inkscape:snap-global="true">
    <inkscape:grid
       type="xygrid"
       id="grid4101" />
    <sodipodi:guide
       position="2,14.000017"
       orientation="12,0"
       id="guide4071" />
    <sodipodi:guide
       position="2,2.0000174"
       orientation="0,12"
       id="guide4073" />
    <sodipodi:guide
       position="14,2.0000174"
       orientation="-12,0"
       id="guide4075" />
    <sodipodi:guide
       position="14,14.000017"
       orientation="0,-12"
       id="guide4077" />
  </sodipodi:namedview>
  <metadata
     id="metadata7">
    <rdf:RDF>
      <cc:Work
         rdf:about="">
        <dc:format>image/svg+xml</dc:format>
        <dc:type
           rdf:resource="http://purl.org/dc/dcmitype/StillImage" />
        <dc:title></dc:title>
      </cc:Work>
    </rdf:RDF>
  </metadata>
  <g
     inkscape:label="Capa 1"
     inkscape:groupmode="layer"
     id="layer1"
     transform="translate(0,-1036.3622)">
    <path
       style="display:inline;fill:url(#linearGradient4145);fill-opacity:1;stroke:none;stroke-width:46.76432037;stroke-miterlimit:4;stroke-dasharray:none;stroke-opacity:1"
       inkscape:connector-curvature="0"
       d="m 13.552079,1038.3912 -0.590779,0 c -0.140303,0 -0.254025,0.114 -0.254025,0.254 l 0,0.3161 c 0,0.1404 -0.113729,0.2541 -0.254025,0.2541 l -0.550848,0 c -0.140295,0 -0.254025,-0.1141 -0.254025,-0.2541 l 0,-0.3161 c 0,-0.1402 -0.113706,-0.254 -0.254017,-0.254 l -6.6324836,0 c -0.1402957,0 -0.2540169,0.114 -0.2540169,0.254 l 0,0.3161 c 0,0.1404 -0.1137297,0.2541 -0.2540254,0.2541 l -0.5508556,0 c -0.1402872,0 -0.2540169,-0.1141 -0.2540169,-0.2541 l 0,-0.3161 c 0,-0.1402 -0.1137175,-0.254 -0.2540254,-0.254 l -0.5709193,0 c -0.1403018,0 -0.2540169,0.114 -0.2540169,0.254 l 0,11.4311 c 0,0.1402 0.1137175,0.254 0.2540169,0.254 l 0.5709193,0 c 0.140303,0 0.2540254,-0.114 0.2540254,-0.254 l 0,-0.2322 c 0,-0.1404 0.1137297,-0.254 0.2540169,-0.254 l 0.5508556,0 c 0.1402945,0 0.2540254,0.114 0.2540254,0.254 l 0,0.2322 c 0,0.1402 0.1137175,0.254 0.2540169,0.254 l 6.6324836,0 c 0.14031,0 0.254017,-0.114 0.254017,-0.254 l 0,-0.2322 c 0,-0.1404 0.11373,-0.254 0.254025,-0.254 l 0.550848,0 c 0.140294,0 0.254025,0.114 0.254025,0.254 l 0,0.2322 c 0,0.1402 0.113718,0.254 0.254025,0.254 l 0.590779,0 c 0.140294,0 0.254024,-0.114 0.254024,-0.254 l 0,-11.4311 c 0,-0.1402 -0.11373,-0.254 -0.254024,-0.254 z m -9.0442195,9.7212 c 0,0.1402 -0.1137297,0.2539 -0.2540254,0.2539 l -0.5508556,0 c -0.1402872,0 -0.2540169,-0.1141 -0.2540169,-0.2539 l 0,-0.551 c 0,-0.1403 0.1137297,-0.2539 0.2540169,-0.2539 l 0.5508556,0 c 0.1402945,0 0.2540254,0.114 0.2540254,0.2539 l 0,0.551 z m 0,-2.2828 c 0,0.1404 -0.1137297,0.2541 -0.2540254,0.2541 l -0.5508556,0 c -0.1402872,0 -0.2540169,-0.1141 -0.2540169,-0.2541 l 0,-0.5508 c 0,-0.1403 0.1137297,-0.2539 0.2540169,-0.2539 l 0.5508556,0 c 0.1402945,0 0.2540254,0.114 0.2540254,0.2539 l 0,0.5508 z m 0,-2.2826 c 0,0.1404 -0.1137297,0.2541 -0.2540254,0.2541 l -0.5508556,0 c -0.1402872,0 -0.2540169,-0.1141 -0.2540169,-0.2541 l 0,-0.5508 c 0,-0.1403 0.1137297,-0.2541 0.2540169,-0.2541 l 0.5508556,0 c 0.1402945,0 0.2540254,0.1141 0.2540254,0.2541 l 0,0.5508 z m 0,-2.2826 c 0,0.1404 -0.1137297,0.2541 -0.2540254,0.2541 l -0.5508556,0 c -0.1402872,0 -0.2540169,-0.1141 -0.2540169,-0.2541 l 0,-0.5507 c 0,-0.1404 0.1137297,-0.2542 0.2540169,-0.2542 l 0.5508556,0 c 0.1402945,0 0.2540254,0.1141 0.2540254,0.2542 l 0,0.5507 z m 6.0421285,7.723 c 0,0.1403 -0.113715,0.254 -0.254017,0.254 l -4.4158389,0 c -0.1403018,0 -0.2540242,-0.114 -0.2540242,-0.254 l 0,-2.0413 c 0,-0.1404 0.1137175,-0.2542 0.2540242,-0.2542 l 4.4158389,0 c 0.140302,0 0.254017,0.1141 0.254017,0.2542 l 0,2.0413 0,0 z m 0,-3.606 c 0,0.1403 -0.113715,0.2541 -0.254017,0.2541 l -4.4158389,0 c -0.1403018,0 -0.2540242,-0.114 -0.2540242,-0.2541 l 0,-2.0413 c 0,-0.1404 0.1137175,-0.254 0.2540242,-0.254 l 4.4158389,0 c 0.140302,0 0.254017,0.114 0.254017,0.254 l 0,2.0413 0,0 z m 0,-3.6059 c 0,0.1403 -0.113715,0.2539 -0.254017,0.2539 l -4.4158389,0 c -0.1403018,0 -0.2540242,-0.114 -0.2540242,-0.2539 l 0,-2.0414 c 0,-0.1402 0.1137175,-0.254 0.2540242,-0.254 l 4.4158389,0 c 0.140302,0 0.254017,0.114 0.254017,0.254 l 0,2.0414 0,0 z m 2.157302,6.3369 c 0,0.1402 -0.11373,0.2539 -0.254024,0.2539 l -0.550856,0 c -0.140288,0 -0.254025,-0.1141 -0.254025,-0.2539 l 0,-0.551 c 0,-0.1403 0.113737,-0.2539 0.254025,-0.2539 l 0.550856,0 c 0.140294,0 0.254024,0.114 0.254024,0.2539 l 0,0.551 z m 0,-2.2828 c 0,0.1404 -0.11373,0.2541 -0.254024,0.2541 l -0.550856,0 c -0.140288,0 -0.254025,-0.1141 -0.254025,-0.2541 l 0,-0.5508 c 0,-0.1403 0.113737,-0.2539 0.254025,-0.2539 l 0.550856,0 c 0.140294,0 0.254024,0.114 0.254024,0.2539 l 0,0.5508 z m 0,-2.2826 c 0,0.1404 -0.11373,0.2541 -0.254024,0.2541 l -0.550856,0 c -0.140288,0 -0.254025,-0.1141 -0.254025,-0.2541 l 0,-0.5508 c 0,-0.1403 0.113737,-0.2541 0.254025,-0.2541 l 0.550856,0 c 0.140294,0 0.254024,0.1141 0.254024,0.2541 l 0,0.5508 z m 0,-2.2826 c 0,0.1404 -0.11373,0.2541 -0.254024,0.2541 l -0.550856,0 c -0.140288,0 -0.254025,-0.1141 -0.254025,-0.2541 l 0,-0.5507 c 0,-0.1404 0.113737,-0.2542 0.254025,-0.2542 l 0.550856,0 c 0.140294,0 0.254024,0.1141 0.254024,0.2542 l 0,0.5507 z"
       id="path14795" />
  </g>
</svg>
