<?xml version="1.0" encoding="UTF-8" standalone="no"?>
<!-- Created with Inkscape (http://www.inkscape.org/) -->

<svg
   xmlns:dc="http://purl.org/dc/elements/1.1/"
   xmlns:cc="http://creativecommons.org/ns#"
   xmlns:rdf="http://www.w3.org/1999/02/22-rdf-syntax-ns#"
   xmlns:svg="http://www.w3.org/2000/svg"
   xmlns="http://www.w3.org/2000/svg"
   xmlns:xlink="http://www.w3.org/1999/xlink"
   xmlns:sodipodi="http://sodipodi.sourceforge.net/DTD/sodipodi-0.dtd"
   xmlns:inkscape="http://www.inkscape.org/namespaces/inkscape"
   width="16"
   height="16"
   id="svg2"
   version="1.1"
   inkscape:version="0.91 r13725"
   viewBox="0 0 16 16"
   sodipodi:docname="application-vnd.oasis.opendocument.formula.svg">
  <defs
     id="defs4">
    <linearGradient
       inkscape:collect="always"
       id="linearGradient4139">
      <stop
         style="stop-color:#8f66a2;stop-opacity:1;"
         offset="0"
         id="stop4141" />
      <stop
         style="stop-color:#b481cc;stop-opacity:1"
         offset="1"
         id="stop4143" />
    </linearGradient>
    <linearGradient
       inkscape:collect="always"
       xlink:href="#linearGradient4139"
       id="linearGradient4147"
       x1="8"
       y1="1050.3622"
       x2="8"
       y2="1038.3622"
       gradientUnits="userSpaceOnUse" />
  </defs>
  <sodipodi:namedview
     id="base"
     pagecolor="#ffffff"
     bordercolor="#666666"
     borderopacity="1.0"
     inkscape:pageopacity="0.0"
     inkscape:pageshadow="2"
     inkscape:zoom="16.977481"
     inkscape:cx="16.440165"
     inkscape:cy="6.0590297"
     inkscape:document-units="px"
     inkscape:current-layer="layer1"
     showgrid="true"
     inkscape:showpageshadow="false"
     borderlayer="true"
     inkscape:window-width="1366"
     inkscape:window-height="702"
     inkscape:window-x="0"
     inkscape:window-y="0"
     inkscape:window-maximized="1"
     units="px"
     inkscape:snap-bbox="true"
     inkscape:snap-global="true">
    <inkscape:grid
       type="xygrid"
       id="grid4101" />
    <sodipodi:guide
       position="2,14.000017"
       orientation="12,0"
       id="guide4071" />
    <sodipodi:guide
       position="2,2.0000174"
       orientation="0,12"
       id="guide4073" />
    <sodipodi:guide
       position="14,4"
       orientation="-12,0"
       id="guide4075" />
    <sodipodi:guide
       position="14,14.000017"
       orientation="0,-12"
       id="guide4077" />
  </sodipodi:namedview>
  <metadata
     id="metadata7">
    <rdf:RDF>
      <cc:Work
         rdf:about="">
        <dc:format>image/svg+xml</dc:format>
        <dc:type
           rdf:resource="http://purl.org/dc/dcmitype/StillImage" />
        <dc:title />
      </cc:Work>
    </rdf:RDF>
  </metadata>
  <g
     inkscape:label="Capa 1"
     inkscape:groupmode="layer"
     id="layer1"
     transform="translate(0,-1036.3622)">
    <path
       inkscape:connector-curvature="0"
       style="opacity:1;fill:url(#linearGradient4147);fill-opacity:1;stroke:none;stroke-opacity:1"
       d="m 15.351933,1038.5655 -7.2677287,0 -4.0348781,6.9874 -1.4123369,-2.4486 -0.00339,0 -1.81694051,0 0,0.9084 1.29705091,0 1.9375817,3.3554 0.5234541,-0.9068 4.036635,-6.9909 5.8322735,0 0,0.9086 0.90847,0 0,-1.817 z m -4.542336,2.729 c -1.5098841,0 -2.7253927,1.2156 -2.7253927,2.7252 0,1.5101 1.2155086,2.7256 2.7253927,2.7256 0.702494,0 1.334648,-0.2709 1.816941,-0.7045 l 0,0.7045 0.908471,0 0,-2.7256 0,-2.7252 -0.908471,0 0,0.7044 c -0.482293,-0.4334 -1.114447,-0.7044 -1.816941,-0.7044 z m 0,0.9085 c 1.006554,0 1.816941,0.8103 1.816941,1.8167 0,1.0067 -0.810387,1.817 -1.816941,1.817 -1.006611,0 -1.8169224,-0.8103 -1.8169224,-1.817 0,-1.0064 0.8103114,-1.8167 1.8169224,-1.8167 z m -9.984261,5.4417 c -0.005097,0 -0.009336,0.2028 -0.009336,0.4545 0,0.2515 0.003391,0.4542 0.009336,0.4542 l 14.517737,0 c 0.0051,0 0.0093,-0.2027 0.0093,-0.4542 0,-0.2517 -0.0033,-0.4545 -0.0093,-0.4545 l -14.51772842,0 z m 6.3592752,1.817 c -0.0051,0 -0.00934,0.2027 -0.00934,0.4544 0,0.2516 0.00339,0.4541 0.00934,0.4541 l 1.799203,0 c 0.0051,0 0.00934,-0.2025 0.00934,-0.4541 0,-0.2517 -0.00339,-0.4544 -0.00934,-0.4544 l -1.799203,0 z"
       id="rect4151" />
  </g>
</svg>
