<?xml version="1.0" encoding="UTF-8" standalone="no"?>
<!-- Created with Inkscape (http://www.inkscape.org/) -->

<svg
   xmlns:dc="http://purl.org/dc/elements/1.1/"
   xmlns:cc="http://creativecommons.org/ns#"
   xmlns:rdf="http://www.w3.org/1999/02/22-rdf-syntax-ns#"
   xmlns:svg="http://www.w3.org/2000/svg"
   xmlns="http://www.w3.org/2000/svg"
   xmlns:xlink="http://www.w3.org/1999/xlink"
   xmlns:sodipodi="http://sodipodi.sourceforge.net/DTD/sodipodi-0.dtd"
   xmlns:inkscape="http://www.inkscape.org/namespaces/inkscape"
   width="16"
   height="16"
   id="svg2"
   version="1.1"
   inkscape:version="0.91 r13725"
   viewBox="0 0 16 16"
   sodipodi:docname="application-x-trash.svg">
  <defs
     id="defs4">
    <linearGradient
       gradientTransform="matrix(0.79364962,0,0,0.79364962,-350.26812,612.95924)"
       inkscape:collect="always"
       xlink:href="#linearGradient21814"
       id="linearGradient21820"
       x1="452.34277"
       y1="550.78864"
       x2="452.34277"
       y2="535.78864"
       gradientUnits="userSpaceOnUse" />
    <linearGradient
       inkscape:collect="always"
       id="linearGradient21814">
      <stop
         style="stop-color:#13946e;stop-opacity:1"
         offset="0"
         id="stop21816" />
      <stop
         style="stop-color:#3cce8b;stop-opacity:1"
         offset="1"
         id="stop21818" />
    </linearGradient>
  </defs>
  <sodipodi:namedview
     id="base"
     pagecolor="#ffffff"
     bordercolor="#666666"
     borderopacity="1.0"
     inkscape:pageopacity="0.0"
     inkscape:pageshadow="2"
     inkscape:zoom="31.625"
     inkscape:cx="9.4545455"
     inkscape:cy="8"
     inkscape:document-units="px"
     inkscape:current-layer="layer1"
     showgrid="true"
     units="px"
     inkscape:showpageshadow="false"
     showborder="true"
     borderlayer="true"
     inkscape:window-width="1366"
     inkscape:window-height="702"
     inkscape:window-x="0"
     inkscape:window-y="0"
     inkscape:window-maximized="1">
    <inkscape:grid
       type="xygrid"
       id="grid4062" />
    <sodipodi:guide
       position="2,14.000017"
       orientation="12,0"
       id="guide4066" />
    <sodipodi:guide
       position="2,2.0000174"
       orientation="0,12"
       id="guide4068" />
    <sodipodi:guide
       position="14,2.0000174"
       orientation="-12,0"
       id="guide4070" />
    <sodipodi:guide
       position="14,14.000017"
       orientation="0,-12"
       id="guide4072" />
  </sodipodi:namedview>
  <metadata
     id="metadata7">
    <rdf:RDF>
      <cc:Work
         rdf:about="">
        <dc:format>image/svg+xml</dc:format>
        <dc:type
           rdf:resource="http://purl.org/dc/dcmitype/StillImage" />
        <dc:title />
      </cc:Work>
    </rdf:RDF>
  </metadata>
  <g
     inkscape:label="Capa 1"
     inkscape:groupmode="layer"
     id="layer1"
     transform="translate(0,-1036.3622)">
    <path
       style="display:inline;fill:url(#linearGradient21820);fill-opacity:1;stroke:none;stroke-opacity:0.8"
       inkscape:connector-curvature="0"
       d="m 1.8900987,1042.3214 0.7765306,0.6227 -0.7308561,1.4367 c -0.36542,0.6626 0.2623489,1.308 0.6623245,1.5327 0.3937534,0.2211 1.0048953,0.2474 1.5758703,0.2394 l 1.0277287,-1.7241 0.7765309,0.431 -1.3474904,-2.5623 -2.7406385,0.024 z m 0.1141903,3.5172 1.6672198,3.161 c 0.3349674,0.4389 0.9668475,0.5427 1.6215528,0.5268 l 1.7585771,0 0,-2.9933 -3.3344474,-0.024 c -0.517658,0.032 -1.1952284,-0.08 -1.7129023,-0.6706 z m 10.489334,-5.8253 -0.907078,0.3952 -0.870237,-1.3526 c -0.387467,-0.6492 -1.2419033,-0.3986 -1.6272673,-0.1485 -0.379365,0.2461 -0.698086,0.7819 -0.968094,1.2983 l 0.971197,1.7583 -0.743824,0.488 2.8370273,0.033 1.308276,-2.4715 z m -3.0529083,-1.6026 -3.5022807,-0.036 c -0.5365551,0.088 -0.9313402,0.6046 -1.2351334,1.2 l -0.8525699,1.5785 2.5511233,1.4512 1.6369817,-2.9813 c 0.223762,-0.4802 0.647483,-1.0341 1.401879,-1.2124 z m 0.152341,12.1968 0.10296,-1.0057 1.5746333,-0.1253 c 0.741118,-0.033 0.941808,-0.9215 0.915506,-1.3886 -0.02595,-0.4598 -0.328039,-1.0057 -0.637213,-1.4983 l -1.9694103,0.019 -0.05532,-0.9042 -1.403363,2.5305 1.472164,2.3724 z m 2.8459803,-1.9632 1.728632,-3.1259 c 0.185302,-0.5242 -0.06373,-1.1291 -0.423944,-1.6904 l -0.931895,-1.5305 -2.473631,1.5862 1.747203,2.9146 c 0.300738,0.4336 0.567428,1.0825 0.353635,1.846 z"
       id="path4171" />
  </g>
</svg>
