<?xml version="1.0" encoding="UTF-8" standalone="no"?>
<!-- Created with Inkscape (http://www.inkscape.org/) -->

<svg
   xmlns:osb="http://www.openswatchbook.org/uri/2009/osb"
   xmlns:dc="http://purl.org/dc/elements/1.1/"
   xmlns:cc="http://creativecommons.org/ns#"
   xmlns:rdf="http://www.w3.org/1999/02/22-rdf-syntax-ns#"
   xmlns:svg="http://www.w3.org/2000/svg"
   xmlns="http://www.w3.org/2000/svg"
   xmlns:sodipodi="http://sodipodi.sourceforge.net/DTD/sodipodi-0.dtd"
   xmlns:inkscape="http://www.inkscape.org/namespaces/inkscape"
   width="16"
   height="16"
   id="svg2"
   version="1.1"
   inkscape:version="0.91 r13725"
   viewBox="0 0 16 16"
   sodipodi:docname="application-x-kexi-connectiondata.svg">
  <defs
     id="defs4">
    <linearGradient
       osb:paint="gradient"
       id="linearGradient4207">
      <stop
         id="stop3371"
         offset="0"
         style="stop-color:#3498db;stop-opacity:1;" />
      <stop
         id="stop3373"
         offset="1"
         style="stop-color:#3498db;stop-opacity:0;" />
    </linearGradient>
  </defs>
  <sodipodi:namedview
     id="base"
     pagecolor="#ffffff"
     bordercolor="#666666"
     borderopacity="1.0"
     inkscape:pageopacity="0.0"
     inkscape:pageshadow="2"
     inkscape:zoom="13.788858"
     inkscape:cx="-19.708416"
     inkscape:cy="8.2224095"
     inkscape:document-units="px"
     inkscape:current-layer="layer1"
     showgrid="true"
     inkscape:showpageshadow="false"
     borderlayer="true"
     inkscape:window-width="1366"
     inkscape:window-height="702"
     inkscape:window-x="0"
     inkscape:window-y="0"
     inkscape:window-maximized="1"
     units="px"
     inkscape:snap-bbox="true">
    <inkscape:grid
       type="xygrid"
       id="grid4101" />
    <sodipodi:guide
       position="2,14.000017"
       orientation="12,0"
       id="guide4071" />
    <sodipodi:guide
       position="2,2.0000174"
       orientation="0,12"
       id="guide4073" />
    <sodipodi:guide
       position="14,2.0000174"
       orientation="-12,0"
       id="guide4075" />
    <sodipodi:guide
       position="14,14.000017"
       orientation="0,-12"
       id="guide4077" />
  </sodipodi:namedview>
  <metadata
     id="metadata7">
    <rdf:RDF>
      <cc:Work
         rdf:about="">
        <dc:format>image/svg+xml</dc:format>
        <dc:type
           rdf:resource="http://purl.org/dc/dcmitype/StillImage" />
        <dc:title />
      </cc:Work>
    </rdf:RDF>
  </metadata>
  <g
     inkscape:label="Capa 1"
     inkscape:groupmode="layer"
     id="layer1"
     transform="translate(0,-1036.3622)">
    <g
       transform="translate(-353.90741,526.408)"
       id="layer1-6"
       inkscape:label="Capa 1">
      <g
         style="fill:#ffffff;fill-opacity:1"
         inkscape:label="Capa 1"
         id="layer1-7"
         transform="translate(392.57143,-514.5642)" />
      <g
         transform="translate(341.79698,500.25245)"
         id="g4240">
        <g
           transform="translate(-19.057982,-5.554605)"
           id="g15209">
          <rect
             style="opacity:1;fill:#ffffff;fill-opacity:0.40983605;stroke:none"
             id="rect4236-8"
             width="44"
             height="1"
             x="10"
             y="3" />
          <g
             transform="translate(-392.98822,-511.27795)"
             id="layer1-72"
             inkscape:label="Capa 1"
             inkscape:transform-center-x="5.4653607"
             inkscape:transform-center-y="-9.4924686">
            <g
               transform="translate(391.23463,518.32854)"
               id="g19280">
              <rect
                 style="opacity:1;fill:#ffffff;fill-opacity:0.40983605;stroke:none"
                 id="rect4236-8-4"
                 width="44"
                 height="1"
                 x="10"
                 y="3" />
            </g>
          </g>
        </g>
        <g
           transform="translate(-452.40421,-523.88511)"
           id="layer1-78"
           inkscape:label="Capa 1"
           inkscape:transform-center-x="5.4653607"
           inkscape:transform-center-y="-9.4924686"
           style="fill:#ab61ca;fill-opacity:1">
          <g
             transform="matrix(0.63581352,0,0,0.63581352,166.91211,203.78928)"
             id="layer1-8"
             inkscape:label="Capa 1"
             style="fill:#ab61ca;fill-opacity:1">
            <g
               transform="matrix(1.5263052,0,0,1.5263052,376.31698,-1040.1258)"
               id="g4231"
               style="fill:#ab61ca;fill-opacity:1">
              <path
                 d="m 74.319489,1024.9433 c 0.0389,-0.1073 0.06639,-0.2164 0.06639,-0.3323 3e-6,-1.4221 -3.072802,-2.1892 -5.964686,-2.1892 -2.889022,0 -5.961006,0.7671 -5.961006,2.1892 0,0.1167 0.02697,0.226 0.06629,0.3333 l -0.01539,0.028 c -0.132182,0.2397 -0.197528,0.4817 -0.197528,0.7199 l 0,1.7595 c 0,0.271 0.08523,0.531 0.236377,0.7769 l -0.01974,0.034 c -0.144118,0.25 -0.216512,0.5031 -0.216512,0.7534 l 0,1.759 c 0,0.2623 0.08045,0.5141 0.223376,0.7532 l -0.0072,0.015 c -0.144118,0.2495 -0.216512,0.5031 -0.216512,0.7528 l 0,1.7593 c 0,1.5639 2.682906,2.7884 6.107666,2.7884 3.428455,0 6.111351,-1.2245 6.111351,-2.7884 l 0,-1.7593 c 0,-0.2501 -0.0725,-0.5041 -0.218305,-0.7532 l -0.006,-0.015 c 0.141834,-0.2395 0.224281,-0.4911 0.224281,-0.754 l 0,-1.7593 c 0,-0.2502 -0.0725,-0.5044 -0.218304,-0.7539 l -0.01894,-0.033 c 0.151002,-0.2462 0.237202,-0.5059 0.237202,-0.7777 l 0,-1.7594 c 0,-0.2381 -0.06639,-0.4808 -0.197532,-0.7207 l -0.01557,-0.028 z m -0.441599,9.1067 c 0,1.0102 -2.239507,2.1343 -5.4566,2.1343 -3.214062,0 -5.453974,-1.1241 -5.453974,-2.1343 l 0,-1.6546 c 1.003035,0.9185 3.066596,1.5047 5.453974,1.5047 2.390657,0 4.454136,-0.5864 5.4566,-1.5057 l 0,1.6556 z m 0,-3.2759 c 0,1.0092 -2.239507,2.1341 -5.4566,2.1341 -3.214062,0 -5.453974,-1.1249 -5.453974,-2.1341 l 0,-1.6551 c 1.003035,0.9182 3.066596,1.5047 5.453974,1.5047 2.390657,0 4.454136,-0.5865 5.4566,-1.5057 l 0,1.6561 z m 0,-3.3235 c 0,1.0093 -2.239507,2.1342 -5.4566,2.1342 -3.214062,0 -5.453974,-1.1243 -5.453974,-2.1342 l 0,-1.4641 c 0.980215,0.8308 3.253079,1.2615 5.453974,1.2615 2.203835,0 4.475734,-0.4307 5.4566,-1.2615 l 0,1.4641 z"
                 id="path11"
                 inkscape:connector-curvature="0"
                 style="fill:#ab61ca;fill-opacity:1" />
            </g>
          </g>
        </g>
      </g>
    </g>
  </g>
</svg>
