<?xml version="1.0" encoding="UTF-8" standalone="no"?>
<!-- Created with Inkscape (http://www.inkscape.org/) -->

<svg
   xmlns:dc="http://purl.org/dc/elements/1.1/"
   xmlns:cc="http://creativecommons.org/ns#"
   xmlns:rdf="http://www.w3.org/1999/02/22-rdf-syntax-ns#"
   xmlns:svg="http://www.w3.org/2000/svg"
   xmlns="http://www.w3.org/2000/svg"
   xmlns:xlink="http://www.w3.org/1999/xlink"
   xmlns:sodipodi="http://sodipodi.sourceforge.net/DTD/sodipodi-0.dtd"
   xmlns:inkscape="http://www.inkscape.org/namespaces/inkscape"
   width="16"
   height="16"
   id="svg2"
   version="1.1"
   inkscape:version="0.91 r13725"
   viewBox="0 0 16 16"
   sodipodi:docname="application-x-jar.svg">
  <defs
     id="defs4">
    <linearGradient
       inkscape:collect="always"
       id="linearGradient4145">
      <stop
         style="stop-color:#18a993;stop-opacity:1"
         offset="0"
         id="stop4147" />
      <stop
         style="stop-color:#1ed4b7;stop-opacity:1"
         offset="1"
         id="stop4149" />
    </linearGradient>
    <linearGradient
       inkscape:collect="always"
       xlink:href="#linearGradient4145"
       id="linearGradient4151"
       x1="8"
       y1="1050.3622"
       x2="8"
       y2="1041.3622"
       gradientUnits="userSpaceOnUse" />
  </defs>
  <sodipodi:namedview
     id="base"
     pagecolor="#ffffff"
     bordercolor="#666666"
     borderopacity="1.0"
     inkscape:pageopacity="0.0"
     inkscape:pageshadow="2"
     inkscape:zoom="34.125"
     inkscape:cx="5.5077391"
     inkscape:cy="7.6397521"
     inkscape:document-units="px"
     inkscape:current-layer="layer1"
     showgrid="true"
     inkscape:showpageshadow="false"
     borderlayer="true"
     inkscape:window-width="1366"
     inkscape:window-height="702"
     inkscape:window-x="0"
     inkscape:window-y="0"
     inkscape:window-maximized="1"
     units="px"
     inkscape:snap-bbox="true"
     inkscape:snap-global="true">
    <inkscape:grid
       type="xygrid"
       id="grid4101" />
    <sodipodi:guide
       position="2,14.000017"
       orientation="12,0"
       id="guide4071" />
    <sodipodi:guide
       position="2,2.0000174"
       orientation="0,12"
       id="guide4073" />
    <sodipodi:guide
       position="14,2.0000174"
       orientation="-12,0"
       id="guide4075" />
    <sodipodi:guide
       position="14,14.000017"
       orientation="0,-12"
       id="guide4077" />
  </sodipodi:namedview>
  <metadata
     id="metadata7">
    <rdf:RDF>
      <cc:Work
         rdf:about="">
        <dc:format>image/svg+xml</dc:format>
        <dc:type
           rdf:resource="http://purl.org/dc/dcmitype/StillImage" />
        <dc:title></dc:title>
      </cc:Work>
    </rdf:RDF>
  </metadata>
  <g
     inkscape:label="Capa 1"
     inkscape:groupmode="layer"
     id="layer1"
     transform="translate(0,-1036.3622)">
    <path
       inkscape:connector-curvature="0"
       d="m 11.402911,1046.6559 c 0.02455,4e-4 0.04687,0 0.08201,0 0.477943,0 1.661979,-0.085 2.336764,-0.8767 0.864073,-1.0134 1.006797,-2.2624 0.325603,-2.8437 -0.219511,-0.1872 -0.503693,-0.2861 -0.82168,-0.2861 -0.257607,0 -0.53204,0.069 -0.804463,0.1905 -0.619841,-1.1031 -4.4544837,-1.1641 -5.2774751,-1.1641 -0.8960994,0 -5.364603,0.071 -5.365424,1.4816 l 0,2e-4 c 0,0 0,0 0,2e-4 l 0,3e-4 c 0,1.6465 0.7064784,3.1233 1.8182567,4.1373 -1.0315929,0.2754 -1.8144509,0.7165 -1.8144509,1.4004 0,1.4215 3.3726282,1.8009 5.3654025,1.8009 1.9926685,0 5.3649328,-0.3794 5.3649328,-1.8009 0,-0.6839 -0.782909,-1.125 -1.814446,-1.4004 0.216987,-0.1977 0.421297,-0.4097 0.60497,-0.6409 z m 2.182776,-3.061 c 0.263525,0.2244 0.13894,0.967 -0.421809,1.6247 -0.292725,0.3426 -0.787616,0.4803 -1.178558,0.5358 0.309545,-0.5977 0.514701,-1.2605 0.592881,-1.9627 0.282433,-0.1884 0.553184,-0.277 0.747432,-0.277 0.111006,0 0.198315,0.027 0.260054,0.079 z m -6.3420682,-1.0527 c 2.4486675,0 3.9549872,0.366 4.4025192,0.6171 -0.447507,0.2508 -1.9538265,0.6169 -4.4025192,0.6169 -2.4492354,0 -3.9554229,-0.3661 -4.4029817,-0.6169 0.4475841,-0.2511 1.9537463,-0.6171 4.4029817,-0.6171 z m 4.5051612,6.1456 c -0.0827,0.2692 -1.542947,0.9454 -4.5013263,0.9454 -2.9585103,0 -4.4191383,-0.6762 -4.5014868,-0.927 0.049011,-0.1603 0.590413,-0.4641 1.6414778,-0.6845 -0.018159,0.054 -0.030523,0.1099 -0.030523,0.1712 0,0.7895 1.5716849,0.9552 2.8905202,0.9552 1.3182382,0 2.8899231,-0.1657 2.8899231,-0.9552 0,-0.061 -0.01257,-0.1182 -0.03073,-0.1725 1.051399,0.2186 1.593163,0.5182 1.642143,0.6674 z"
       style="fill:url(#linearGradient4151);fill-opacity:1"
       id="cup-3" />
  </g>
</svg>
