<?xml version="1.0" encoding="UTF-8" standalone="no"?>
<!-- Created with Inkscape (http://www.inkscape.org/) -->

<svg
   xmlns:dc="http://purl.org/dc/elements/1.1/"
   xmlns:cc="http://creativecommons.org/ns#"
   xmlns:rdf="http://www.w3.org/1999/02/22-rdf-syntax-ns#"
   xmlns:svg="http://www.w3.org/2000/svg"
   xmlns="http://www.w3.org/2000/svg"
   xmlns:xlink="http://www.w3.org/1999/xlink"
   xmlns:sodipodi="http://sodipodi.sourceforge.net/DTD/sodipodi-0.dtd"
   xmlns:inkscape="http://www.inkscape.org/namespaces/inkscape"
   width="16"
   height="16"
   id="svg2"
   version="1.1"
   inkscape:version="0.91 r13725"
   viewBox="0 0 16 16"
   sodipodi:docname="application-vnd.stardivision.mail.svg">
  <defs
     id="defs4">
    <linearGradient
       inkscape:collect="always"
       id="linearGradient4160">
      <stop
         style="stop-color:#22a7f0;stop-opacity:1;"
         offset="0"
         id="stop4162" />
      <stop
         style="stop-color:#24bfff;stop-opacity:1"
         offset="1"
         id="stop4164" />
    </linearGradient>
    <linearGradient
       id="linearGradient5263-5">
      <stop
         offset="0"
         style="stop-color:#e9e9e9;stop-opacity:1"
         id="stop5265-0" />
      <stop
         offset="1"
         style="stop-color:#f9f9f9;stop-opacity:1"
         id="stop5267-9" />
    </linearGradient>
    <linearGradient
       inkscape:collect="always"
       xlink:href="#linearGradient4160"
       id="linearGradient4166"
       x1="226.02255"
       y1="7.4999685"
       x2="228.92146"
       y2="561.10614"
       gradientUnits="userSpaceOnUse" />
  </defs>
  <sodipodi:namedview
     id="base"
     pagecolor="#ffffff"
     bordercolor="#666666"
     borderopacity="1.0"
     inkscape:pageopacity="0.0"
     inkscape:pageshadow="2"
     inkscape:zoom="22.4"
     inkscape:cx="12.097273"
     inkscape:cy="6.2131413"
     inkscape:document-units="px"
     inkscape:current-layer="layer1"
     showgrid="true"
     inkscape:showpageshadow="false"
     borderlayer="true"
     units="px"
     inkscape:window-width="1366"
     inkscape:window-height="702"
     inkscape:window-x="0"
     inkscape:window-y="0"
     inkscape:window-maximized="1">
    <inkscape:grid
       type="xygrid"
       id="grid4062" />
    <sodipodi:guide
       position="2,14.000017"
       orientation="12,0"
       id="guide4066" />
    <sodipodi:guide
       position="2,2.0000174"
       orientation="0,12"
       id="guide4068" />
    <sodipodi:guide
       position="14,2.0000174"
       orientation="-12,0"
       id="guide4070" />
    <sodipodi:guide
       position="14,14.000017"
       orientation="0,-12"
       id="guide4072" />
  </sodipodi:namedview>
  <metadata
     id="metadata7">
    <rdf:RDF>
      <cc:Work
         rdf:about="">
        <dc:format>image/svg+xml</dc:format>
        <dc:type
           rdf:resource="http://purl.org/dc/dcmitype/StillImage" />
        <dc:title />
      </cc:Work>
    </rdf:RDF>
  </metadata>
  <g
     inkscape:label="Capa 1"
     inkscape:groupmode="layer"
     id="layer1"
     transform="translate(0,-1036.3622)">
    <g
       inkscape:label="Capa 1"
       id="layer1-8"
       transform="matrix(0.46198595,0.04968927,-0.04968927,0.46198595,-174.80282,778.21822)">
      <g
         transform="matrix(0.06488556,-0.04557628,-0.04557629,-0.06488558,307.06482,572.09937)"
         id="g63687" />
      <g
         id="g4393"
         transform="matrix(0.51711642,0,0,0.51711642,209.87057,254.15025)"
         style="opacity:0.91300001" />
      <g
         id="g6423"
         transform="matrix(0.64150415,-0.07466715,0.07466715,0.64150415,151.53466,221.73524)">
        <g
           style="fill:#22a7f0;fill-opacity:1"
           transform="matrix(0.08965014,1.7994648e-4,1.8377961e-4,-0.07824996,386.38244,547.88505)"
           id="g62989">
          <g
             transform="matrix(1.0634691,0,0,1,-1.1424443,0)"
             style="fill:#22a7f0;fill-opacity:1"
             id="g62991">
            <g
               style="fill:#22a7f0;fill-opacity:1"
               id="g62997">
              <g
                 style="fill:#22a7f0;fill-opacity:1"
                 id="g62999">
                <path
                   inkscape:connector-curvature="0"
                   id="path63007"
                   style="fill:url(#linearGradient4166);fill-opacity:1;stroke:none"
                   d="m 418,467.5 c 0,9.979 8.175,18.289 19,20.12 l 0,27.76 c -10.825,1.831 -19,10.141 -19,20.12 0,9.979 8.175,18.289 19,20.12 l 0,29.38 -24.228,0 c -1.474,-11.318 -9.988,-20 -20.272,-20 -10.284,0 -18.798,8.682 -20.272,20 l -27.456,0 c -1.474,-11.318 -9.988,-20 -20.272,-20 -10.284,0 -18.798,8.682 -20.272,20 l -23.608,0 c -1.832,-10.825 -10.141,-19 -20.12,-19 -9.979,0 -18.288,8.175 -20.12,19 l -27.76,0 c -1.831,-10.825 -10.141,-19 -20.12,-19 -9.979,0 -18.289,8.175 -20.12,19 l -21.76,0 c -1.831,-10.825 -10.141,-19 -20.12,-19 -9.979,0 -18.289,8.175 -20.12,19 l -27.76,0 C 80.789,574.175 72.479,566 62.5,566 c -9.979,0 -18.289,8.175 -20.12,19 L 18,585 18,552.62 c 10.825,-1.832 19,-10.141 19,-20.12 0,-9.979 -8.175,-18.288 -19,-20.12 l 0,-25.426 c 12.279,-0.676 22,-9.572 22,-20.454 0,-10.882 -9.721,-19.778 -22,-20.454 l 0,-25.163 c 11.803,-1.089 21,-9.798 21,-20.383 0,-10.585 -9.197,-19.294 -21,-20.383 l 0,-21.163 C 18.497,358.981 18.996,359 19.5,359 32.479,359 43,349.822 43,338.5 43,327.178 32.479,318 19.5,318 c -0.504,0 -1.003,0.019 -1.5,0.046 l 0,-26.162 c 11.803,-1.09 21,-9.799 21,-20.384 0,-10.585 -9.197,-19.294 -21,-20.384 l 0,-28.344 c 11.318,-1.474 20,-9.988 20,-20.272 0,-10.284 -8.682,-18.798 -20,-20.272 l 0,-27.274 C 30.279,154.278 40,145.382 40,134.5 40,123.618 30.279,114.722 18,114.046 L 18,88.954 C 30.279,88.278 40,79.382 40,68.5 40,57.618 30.279,48.722 18,48.046 L 18,21 40.228,21 C 40.079,22.143 40,23.311 40,24.5 40,37.479 49.178,48 60.5,48 71.822,48 81,37.479 81,24.5 81,23.311 80.921,22.143 80.772,21 l 27.456,0 C 108.079,22.143 108,23.311 108,24.5 108,37.479 117.178,48 128.5,48 139.822,48 149,37.479 149,24.5 c 0,-1.189 -0.079,-2.357 -0.228,-3.5 l 21.456,0 C 170.079,22.143 170,23.311 170,24.5 170,37.479 179.178,48 190.5,48 201.822,48 211,37.479 211,24.5 c 0,-1.189 -0.079,-2.357 -0.228,-3.5 l 27.456,0 C 238.079,22.143 238,23.311 238,24.5 238,37.479 247.178,48 258.5,48 269.822,48 279,37.479 279,24.5 c 0,-1.189 -0.079,-2.357 -0.228,-3.5 l 23.344,0 C 302.041,21.821 302,22.655 302,23.5 302,36.479 311.178,47 322.5,47 333.822,47 343,36.479 343,23.5 c 0,-0.845 -0.041,-1.679 -0.116,-2.5 l 27.232,0 C 370.041,21.821 370,22.655 370,23.5 370,36.479 379.178,47 390.5,47 401.822,47 411,36.479 411,23.5 c 0,-0.845 -0.041,-1.679 -0.116,-2.5 l 26.116,0 0,27.116 c -11.803,1.09 -21,9.799 -21,20.384 0,10.585 9.197,19.294 21,20.384 l 0,27.232 c -11.803,1.09 -21,9.799 -21,20.384 0,10.585 9.197,19.294 21,20.384 l 0,24.232 c -11.803,1.09 -21,9.799 -21,20.384 0,10.585 9.197,19.294 21,20.384 l 0,27.232 c -11.803,1.09 -21,9.799 -21,20.384 0,10.585 9.197,19.294 21,20.384 l 0,23.233 c -11.803,1.089 -21,9.798 -21,20.383 0,10.585 9.197,19.294 21,20.383 l 0,27.234 c -11.803,1.089 -21,9.798 -21,20.383 0,10.585 9.197,19.294 21,20.383 l 0,25.497 c -10.825,1.831 -19,10.141 -19,20.12" />
              </g>
            </g>
          </g>
        </g>
        <rect
           transform="matrix(0.99999799,0.0020072,-0.00234862,0.99999724,0,0)"
           ry="0.531829"
           y="504.85712"
           x="393.59326"
           height="36.075733"
           width="31.074825"
           id="rect4221"
           style="opacity:0;fill:none;fill-opacity:1;stroke:none;stroke-width:1.5;stroke-linecap:round;stroke-linejoin:round;stroke-miterlimit:4;stroke-dasharray:none;stroke-opacity:1" />
        <g
           style="fill:#0d3a52;fill-opacity:1"
           inkscape:label="Capa 1"
           id="layer1-6"
           transform="translate(404.74347,-519.34333)">
          <g
             transform="matrix(0.90537551,0,0,0.90537551,-365.91682,562.06022)"
             id="layer1-0"
             inkscape:label="Capa 1"
             style="fill:#0d3a52;fill-opacity:1;stroke:#4f96d1;stroke-opacity:1" />
          <g
             style="fill:#0d3a52;fill-opacity:1"
             transform="translate(-401.01229,510.63371)"
             id="layer1-00"
             inkscape:label="Capa 1">
            <g
               style="opacity:0.88500001;fill:#0d3a52;fill-opacity:1"
               transform="matrix(0.04915848,0,0,0.04915848,393.00515,521.11862)"
               id="g3">
              <path
                 style="fill:#0d3a52;fill-opacity:1"
                 inkscape:connector-curvature="0"
                 id="path5"
                 d="m 469.4,218.45 c 0,-33.8 -27.5,-61.4 -61.4,-61.4 -3.3,0 -6.5,0.3 -9.6,0.8 -12.3,-86.8 -81,-153.2 -163.9,-153.2 -82.9,0 -151.6,66.4 -163.9,153.2 -3,-0.5 -6.1,-0.7 -9.2,-0.7 -33.8,0 -61.4,27.5 -61.4,61.4 0,33 26.2,60.1 59,61.3 -2.4,10.2 -3.7,20.601 -3.7,31.2 0,21.199 4.9,41.8 14.7,61.1 9.3,18.4 22.4,34.8 39.1,48.8 33.6,28.2 78.2,43.801 125.3,43.801 47.1,0 91.8,-15.601 125.5,-43.9 16.7,-14 29.899,-30.4 39.1,-48.8 9.7,-19.301 14.7,-39.9 14.7,-61.1 0,-10.601 -1.2,-21 -3.7,-31.201 32.9,-1 59.4,-28.1 59.4,-61.3 z m -76.7,92.501 c 0,4.399 -0.3,8.699 -0.8,13 l -50.4,0 -214,0 -50.4,0 c -0.5,-4.301 -0.8,-8.601 -0.8,-13 0,-12 1.9,-23.601 5.4,-34.601 1.2,-3.601 2.5,-7.101 4,-10.601 8,-18.5 20.8,-35.1 37,-48.699 1.8,-1.5 3.7,-3 5.6,-4.5 -2.8,-4.6 -5.4,-9.4 -7.7,-14.4 -19.3,-43.1 -8.1,-85.1 25,-93.8 4.1,-1.1 8.4,-1.6 12.7,-1.6 27.3,0 57.8,20.7 76.1,51.8 18.3,-31.2 48.8,-51.8 76.1,-51.8 4.3,0 8.601,0.5 12.7,1.6 33.1,8.7 44.3,50.7 25,93.8 -2.3,5 -4.8,9.9 -7.7,14.4 2,1.6 4,3.2 6,4.8 16.101,13.6 28.7,30 36.7,48.399 1.5,3.4 2.8,6.9 3.9,10.5 3.7,11.101 5.6,22.702 5.6,34.702 z m -237.2,34 158.101,0 73.899,0 c -17.899,56.8 -79.6,98.699 -153,98.699 -73.4,0 -135.1,-41.899 -153,-98.699 l 74,0 0,0 z M 61.4,258.85 c -22.3,0 -40.4,-18.101 -40.4,-40.4 0,-22.3 18.1,-40.4 40.4,-40.4 2.5,0 5,0.2 7.4,0.7 -0.1,2.3 -0.1,4.6 -0.1,7 0,6 0.3,11.8 0.8,17.6 -4.3,-2.9 -9.4,-5.2 -15.3,-6.6 -5.6,-1.3 -11.3,2.2 -12.6,7.8 -1.3,5.6 2.2,11.3 7.8,12.6 17.3,4.1 23,24.1 23.1,24.5 0.2,0.801 0.5,1.5 0.8,2.2 -0.5,0.8 -0.9,1.601 -1.4,2.399 -2.2,4.101 -4.2,8.201 -5.9,12.301 -1.5,0.2 -3,0.3 -4.6,0.3 z m 346.6,0 c -1.7,0 -3.3,-0.101 -5,-0.3 -1.8,-4.1 -3.7,-8.2 -5.899,-12.301 -0.7,-1.299 -1.5,-2.6 -2.2,-4 0.1,-0.199 0.1,-0.399 0.2,-0.6 0.1,-0.199 5.699,-20.5 23.1,-24.5 5.6,-1.3 9.1,-7 7.8,-12.6 -1.3,-5.6 -7,-9.1 -12.6,-7.8 -5.2,1.2 -9.8,3.2 -13.8,5.6 0.5,-5.5 0.699,-11 0.699,-16.6 0,-2.3 -0.1,-4.6 -0.1,-6.9 2.5,-0.5 5.1,-0.8 7.8,-0.8 22.3,0 40.4,18.1 40.4,40.4 0,22.301 -18.1,40.401 -40.4,40.401 z" />
              <path
                 style="fill:#0d3a52;fill-opacity:1"
                 inkscape:connector-curvature="0"
                 id="path7-04"
                 d="m 214.5,263.35 c -4.7,-5.5 -13,-6.101 -18.5,-1.399 -5.5,4.699 -6.1,13 -1.4,18.5 l 12.1,14.1 c 2.6,3 6.3,4.6 10,4.6 3,0 6,-1 8.5,-3.1 5.5,-4.7 6.1,-13 1.4,-18.5 L 214.5,263.35 Z" />
              <path
                 style="fill:#0d3a52;fill-opacity:1"
                 inkscape:connector-curvature="0"
                 id="path9"
                 d="m 273,261.85 c -5.5,-4.7 -13.8,-4.101 -18.5,1.399 l -12.1,14.101 c -4.7,5.5 -4.1,13.8 1.4,18.5 2.5,2.101 5.5,3.101 8.5,3.101 3.699,0 7.399,-1.601 10,-4.601 l 12.1,-14.101 c 4.8,-5.399 4.1,-13.699 -1.4,-18.399 z" />
              <circle
                 style="fill:#0d3a52;fill-opacity:1"
                 id="circle11"
                 r="21.299999"
                 cy="199.25"
                 cx="191.2" />
              <circle
                 style="fill:#0d3a52;fill-opacity:1"
                 id="circle13"
                 r="21.299999"
                 cy="199.25"
                 cx="277.80099" />
            </g>
          </g>
        </g>
      </g>
    </g>
  </g>
</svg>
