<?xml version="1.0" encoding="UTF-8" standalone="no"?>
<!-- Created with Inkscape (http://www.inkscape.org/) -->

<svg
   xmlns:dc="http://purl.org/dc/elements/1.1/"
   xmlns:cc="http://creativecommons.org/ns#"
   xmlns:rdf="http://www.w3.org/1999/02/22-rdf-syntax-ns#"
   xmlns:svg="http://www.w3.org/2000/svg"
   xmlns="http://www.w3.org/2000/svg"
   xmlns:xlink="http://www.w3.org/1999/xlink"
   xmlns:sodipodi="http://sodipodi.sourceforge.net/DTD/sodipodi-0.dtd"
   xmlns:inkscape="http://www.inkscape.org/namespaces/inkscape"
   width="16"
   height="16"
   id="svg2"
   version="1.1"
   inkscape:version="0.91 r13725"
   viewBox="0 0 16 16"
   sodipodi:docname="text-x-po.svg">
  <defs
     id="defs4">
    <linearGradient
       inkscape:collect="always"
       id="linearGradient4307">
      <stop
         style="stop-color:#1b92f4;stop-opacity:1"
         offset="0"
         id="stop4309" />
      <stop
         style="stop-color:#20bbfa;stop-opacity:1"
         offset="1"
         id="stop4311" />
    </linearGradient>
    <linearGradient
       inkscape:collect="always"
       xlink:href="#linearGradient4307"
       id="linearGradient4181"
       x1="314.65924"
       y1="533.49127"
       x2="366.81555"
       y2="533.49127"
       gradientUnits="userSpaceOnUse" />
    <linearGradient
       inkscape:collect="always"
       xlink:href="#linearGradient4307"
       id="linearGradient4197"
       x1="339.17172"
       y1="545.95947"
       x2="367.96722"
       y2="545.95947"
       gradientUnits="userSpaceOnUse" />
  </defs>
  <sodipodi:namedview
     id="base"
     pagecolor="#ffffff"
     bordercolor="#666666"
     borderopacity="1.0"
     inkscape:pageopacity="0.0"
     inkscape:pageshadow="2"
     inkscape:zoom="20.8"
     inkscape:cx="0.68048584"
     inkscape:cy="7.222252"
     inkscape:document-units="px"
     inkscape:current-layer="g4275"
     showgrid="true"
     inkscape:showpageshadow="false"
     borderlayer="true"
     units="px"
     inkscape:window-width="1366"
     inkscape:window-height="702"
     inkscape:window-x="0"
     inkscape:window-y="0"
     inkscape:window-maximized="1">
    <inkscape:grid
       type="xygrid"
       id="grid4062" />
    <sodipodi:guide
       position="2,14.000017"
       orientation="12,0"
       id="guide4066" />
    <sodipodi:guide
       position="2,2.0000174"
       orientation="0,12"
       id="guide4068" />
    <sodipodi:guide
       position="14,2.0000174"
       orientation="-12,0"
       id="guide4070" />
    <sodipodi:guide
       position="14,14.000017"
       orientation="0,-12"
       id="guide4072" />
  </sodipodi:namedview>
  <metadata
     id="metadata7">
    <rdf:RDF>
      <cc:Work
         rdf:about="">
        <dc:format>image/svg+xml</dc:format>
        <dc:type
           rdf:resource="http://purl.org/dc/dcmitype/StillImage" />
        <dc:title />
      </cc:Work>
    </rdf:RDF>
  </metadata>
  <g
     inkscape:label="Capa 1"
     inkscape:groupmode="layer"
     id="layer1"
     transform="translate(0,-1036.3622)">
    <g
       inkscape:transform-center-y="-6.6711786"
       inkscape:transform-center-x="3.8409737"
       inkscape:label="Capa 1"
       id="layer1-53"
       transform="matrix(0.7027867,0,0,0.7027867,-323.08608,658.78507)">
      <g
         id="layer1-3-7"
         inkscape:label="Capa 1"
         transform="translate(0.41988239,0.03484499)">
        <g
           inkscape:label="Capa 1"
           id="layer1-89"
           transform="matrix(0.55457159,0,0,0.55457159,218.49891,265.57476)">
          <g
             style="fill:#0c3e6a;fill-opacity:1"
             inkscape:label="Capa 1"
             id="layer1-86"
             transform="translate(0.24086989,-3.2143302)">
            <g
               style="fill:#0c3e6a;fill-opacity:1"
               id="layer1-2"
               inkscape:label="Capa 1"
               transform="translate(0.80041,-4.19993)">
              <g
                 style="fill:#0c3e6a;fill-opacity:1"
                 id="g4414"
                 transform="matrix(0.83374987,0,0,0.83374987,123.04604,82.951066)">
                <g
                   transform="matrix(0.73502267,0,0,0.73367993,145.56273,129.8268)"
                   style="fill:#0c3e6a;fill-opacity:1;stroke:none;stroke-opacity:1"
                   id="g4275">
                  <path
                     style="fill:url(#linearGradient4181);fill-opacity:1;stroke:none;stroke-opacity:1"
                     sodipodi:nodetypes="csssccccccccscscc"
                     inkscape:connector-curvature="0"
                     id="path3"
                     d="m 358.77104,516.99793 c -4.8234,-3.92542 -11.22786,-6.08712 -18.03349,-6.08712 -6.80575,0 -13.21022,2.16185 -18.03349,6.08712 -4.86535,3.9595 -7.54482,9.23646 -7.54482,14.859 0,5.36635 2.44243,10.41704 6.89488,14.30854 -0.0803,0.18057 -0.144,0.37054 -0.18468,0.57028 l -1.46301,7.19633 c -0.17395,0.85525 0.0599,1.36523 0.28634,1.64263 0.26189,0.3204 0.65007,0.49697 1.09314,0.49697 l 0,0 c 0.33452,0 0.69405,-0.0987 1.06868,-0.29345 l 8.50944,-4.42073 c 2.94612,0.94828 6.11338,1.44552 9.37335,1.44552 6.80578,0 13.21008,-2.16181 18.03351,-6.08708 4.8652,-3.95938 7.54467,-9.23635 7.54467,-14.85888 0,-5.62267 -2.67934,-10.89963 -7.54454,-14.85913 z" />
                  <path
                     style="fill:url(#linearGradient4197);fill-opacity:1.0;stroke:#ffffff;stroke-opacity:1"
                     sodipodi:nodetypes="csssccccccccscscc"
                     inkscape:connector-curvature="0"
                     id="path3-6"
                     d="m 343.77102,536.99793 c 2.62077,-2.13286 6.1006,-3.30741 9.79839,-3.30741 3.69786,0 7.1777,1.17463 9.79839,3.30741 2.64355,2.15136 4.09943,5.01857 4.09943,8.07354 0,2.91578 -1.32708,5.66003 -3.7463,7.77445 0.0437,0.0981 0.0783,0.20134 0.10032,0.30987 l 0.79491,3.91008 c 0.0945,0.4647 -0.0325,0.74179 -0.15558,0.89252 -0.1423,0.17408 -0.35322,0.27002 -0.59395,0.27002 l 0,0 c -0.18177,0 -0.37711,-0.0536 -0.58066,-0.15945 l -4.62356,-2.40197 c -1.60075,0.51525 -3.32166,0.78541 -5.09295,0.78541 -3.69788,0 -7.17762,-1.1746 -9.79839,-3.30738 -2.64348,-2.1513 -4.09936,-5.01851 -4.09936,-8.07348 0,-3.05504 1.4558,-5.92225 4.09928,-8.07361 z" />
                </g>
              </g>
            </g>
          </g>
        </g>
      </g>
    </g>
  </g>
</svg>
