<?xml version="1.0" encoding="UTF-8" standalone="no"?>
<svg
   xmlns:osb="http://www.openswatchbook.org/uri/2009/osb"
   xmlns:dc="http://purl.org/dc/elements/1.1/"
   xmlns:cc="http://creativecommons.org/ns#"
   xmlns:rdf="http://www.w3.org/1999/02/22-rdf-syntax-ns#"
   xmlns:svg="http://www.w3.org/2000/svg"
   xmlns="http://www.w3.org/2000/svg"
   xmlns:xlink="http://www.w3.org/1999/xlink"
   xmlns:sodipodi="http://sodipodi.sourceforge.net/DTD/sodipodi-0.dtd"
   xmlns:inkscape="http://www.inkscape.org/namespaces/inkscape"
   viewBox="0 0 64 64"
   id="svg2"
   version="1.1"
   inkscape:version="0.91 r13725"
   sodipodi:docname="application-x-perl.svg"
   width="64"
   height="64">
  <metadata
     id="metadata84">
    <rdf:RDF>
      <cc:Work
         rdf:about="">
        <dc:format>image/svg+xml</dc:format>
        <dc:type
           rdf:resource="http://purl.org/dc/dcmitype/StillImage" />
        <dc:title />
      </cc:Work>
    </rdf:RDF>
  </metadata>
  <sodipodi:namedview
     pagecolor="#ffffff"
     bordercolor="#666666"
     borderopacity="1"
     objecttolerance="10"
     gridtolerance="10"
     guidetolerance="10"
     inkscape:pageopacity="0"
     inkscape:pageshadow="2"
     inkscape:window-width="1366"
     inkscape:window-height="702"
     id="namedview82"
     showgrid="false"
     inkscape:showpageshadow="false"
     inkscape:zoom="7.4642639"
     inkscape:cx="2.8568879"
     inkscape:cy="34.602385"
     inkscape:window-x="0"
     inkscape:window-y="0"
     inkscape:window-maximized="1"
     inkscape:current-layer="g7239"
     showguides="true"
     inkscape:snap-bbox="true"
     inkscape:snap-bbox-edge-midpoints="false"
     inkscape:bbox-nodes="true"
     inkscape:guide-bbox="true">
    <inkscape:grid
       type="xygrid"
       id="grid3413" />
    <sodipodi:guide
       position="0,64"
       orientation="64,0"
       id="guide3482" />
    <sodipodi:guide
       position="0,0"
       orientation="0,64"
       id="guide3484" />
    <sodipodi:guide
       position="64,0"
       orientation="-64,0"
       id="guide3486" />
    <sodipodi:guide
       position="10,61"
       orientation="58,0"
       id="guide3492" />
    <sodipodi:guide
       position="10,3"
       orientation="0,44"
       id="guide3494" />
    <sodipodi:guide
       position="54,3"
       orientation="-58,0"
       id="guide3496" />
    <sodipodi:guide
       position="54,61"
       orientation="0,-44"
       id="guide3498" />
    <sodipodi:guide
       position="54,47"
       orientation="-14,0"
       id="guide4310" />
    <sodipodi:guide
       position="54,61"
       orientation="0,-14"
       id="guide4312" />
    <sodipodi:guide
       position="21,43"
       orientation="22,0"
       id="guide4250" />
    <sodipodi:guide
       position="21,21"
       orientation="0,22"
       id="guide4252" />
    <sodipodi:guide
       position="43,21"
       orientation="-22,0"
       id="guide4254" />
    <sodipodi:guide
       position="43,43"
       orientation="0,-22"
       id="guide4256" />
    <sodipodi:guide
       position="25.052705,61"
       orientation="0,1"
       id="guide6551" />
  </sodipodi:namedview>
  <defs
     id="defs4">
    <linearGradient
       inkscape:collect="always"
       xlink:href="#linearGradient4422"
       id="linearGradient4190-9"
       x1="375.57144"
       y1="543.79797"
       x2="375.57144"
       y2="517.79797"
       gradientUnits="userSpaceOnUse"
       gradientTransform="matrix(2.1937939,0,0,2.2303048,-398.02626,-639.90393)" />
    <linearGradient
       id="linearGradient4422">
      <stop
         id="stop4424"
         offset="0"
         style="stop-color:#2698d8;stop-opacity:1" />
      <stop
         id="stop4426"
         offset="1"
         style="stop-color:#19bdfd;stop-opacity:1" />
    </linearGradient>
    <linearGradient
       id="linearGradient4207"
       osb:paint="gradient">
      <stop
         style="stop-color:#3498db;stop-opacity:1;"
         offset="0"
         id="stop3371" />
      <stop
         style="stop-color:#3498db;stop-opacity:0;"
         offset="1"
         id="stop3373" />
    </linearGradient>
  </defs>
  <rect
     style="opacity:1;fill:#ffffff;fill-opacity:0.40983605;stroke:none"
     id="rect4236-8"
     width="44"
     height="1"
     x="10"
     y="3" />
  <g
     transform="translate(-392.98822,-511.27795)"
     id="layer1"
     inkscape:label="Capa 1"
     inkscape:transform-center-x="5.4653607"
     inkscape:transform-center-y="-9.4924686">
    <g
       transform="translate(0.41988239,0.03484499)"
       inkscape:label="Capa 1"
       id="layer1-3">
      <rect
         style="opacity:0.997;fill:url(#linearGradient4190-9);fill-opacity:1.0;stroke:none;stroke-width:0.104;stroke-linecap:round;stroke-linejoin:round;stroke-miterlimit:4;stroke-dasharray:none;stroke-opacity:1"
         id="rect4182-2"
         width="46.069672"
         height="57.987926"
         x="401.76834"
         y="514.94318"
         ry="1.7192465" />
      <path
         style="opacity:0.56499999;fill:#000000;fill-opacity:1;fill-rule:evenodd;stroke:none;stroke-width:1px;stroke-linecap:butt;stroke-linejoin:miter;stroke-opacity:1"
         d="m 401.76839,563.18111 -4e-5,7.90428 c 0,0 -0.0224,1.83572 1.81022,1.83572 l 42.46177,0 c 0,0 1.93884,-0.0444 1.91466,-2.52819 l -0.0702,-7.21181 z"
         id="path4302"
         inkscape:connector-curvature="0"
         sodipodi:nodetypes="ccccccc" />
      <text
         xml:space="preserve"
         style="font-style:normal;font-weight:normal;font-size:7.8266716px;line-height:125%;font-family:sans-serif;letter-spacing:0px;word-spacing:0px;fill:#ffffff;fill-opacity:1;stroke:none;stroke-width:1px;stroke-linecap:butt;stroke-linejoin:miter;stroke-opacity:1"
         x="417.72305"
         y="570.44653"
         id="text4304"
         sodipodi:linespacing="125%"><tspan
           sodipodi:role="line"
           id="tspan4306"
           x="417.72305"
           y="570.44653"
           style="font-style:normal;font-variant:normal;font-weight:normal;font-stretch:normal;font-family:'Product Sans';-inkscape-font-specification:'Product Sans';fill:#ffffff;fill-opacity:1">perl</tspan></text>
      <g
         id="g7239"
         transform="translate(342.78116,509.88415)">
        <rect
           y="3"
           x="10"
           height="1"
           width="44"
           id="rect4236"
           style="opacity:1;fill:#ffffff;fill-opacity:0.40983605;stroke:none" />
        <path
           inkscape:connector-curvature="0"
           id="rect4323"
           d="m -7,21 -12,4 0,13.544922 L -15,37 -15,26 -7,24.285156 -7,40.333984 -19,39 l 12,4 6,-2 0,-18 -6,-2 z"
           style="opacity:1;fill:none;fill-opacity:1;stroke:none" />
        <path
           d="m 95.244456,18.548474 c -0.878436,-0.04563 -1.031673,-1.207404 -1.890875,-1.261834 -0.451537,-0.02808 -1.306342,-0.06763 -2.049392,0.202641 -0.828028,-0.566059 -1.890874,-1.25958 -0.337647,1.442105 -0.337521,1.822358 -1.463348,6.933709 -2.656929,6.955078 -1.192954,0.02214 -1.980504,-2.160006 -2.993948,-2.137637 -1.013445,0.0216 -1.013445,0.0216 -1.013445,0.0216 -1.192955,0 -1.977991,-2.110113 -4.389793,-2.182645 -1.508476,-0.04522 -2.701681,2.610037 -6.056406,2.902557 -0.900059,0.06777 -2.285468,0.418361 -2.425756,2.494023 0,0 -1.97799,1.849384 -1.046758,6.121514 0.232432,-2.126824 0.348333,-3.910223 1.046758,-5.074132 -0.05204,1.161276 0.310369,2.288102 0,3.491241 -0.310244,1.201748 -1.296661,3.257552 -1.296661,3.257552 0,0 -0.21609,0.426906 0.327088,1.900938 0.542799,1.473276 1.628903,5.123662 1.628903,5.123662 0.05544,0.640725 0.145568,0.978373 0.595722,1.271527 -0.112882,0.426258 -0.492643,1.282069 0.857946,1.282069 0.578626,5e-4 0,0 1.309609,0 0.915016,0 0.617218,-0.78641 -0.860585,-1.507848 0.04501,-0.53991 -0.292394,-1.103323 -0.517785,-1.216205 -0.539784,-1.373218 -1.237831,-4.003869 -1.237831,-4.003869 0,0 -0.24827,-2.297539 0.607539,-3.063714 0.855557,-0.76442 1.889241,-1.483846 2.587539,-4.027885 0.022,-0.180771 1.19308,0.900927 3.534863,1.575602 2.341281,0.676552 4.137122,-0.04563 4.398717,0.06736 0.26147,0.113396 0.824383,1.485466 0.824383,2.814946 0,1.327833 -0.472656,2.20577 -0.472656,2.723554 0,0.517785 0.382777,1.418212 0.382777,1.418212 0,0 0.224889,2.476163 -0.06751,3.872519 -0.202764,0.877046 -0.540287,1.322676 0.810681,1.324688 1.350715,0.0027 3.196713,0.294652 0.788305,-1.302697 0.20201,-0.495538 0.04463,-1.17209 -0.180766,-1.418212 -0.04525,-1.215962 0.09089,-2.410043 0.314895,-2.904325 0.225265,-0.496037 0.06825,-1.91325 0.113004,-2.633176 0.04525,-0.72029 0.697921,-3.308958 1.41822,-4.231523 0.720422,-0.924321 3.917135,-3.646998 4.457924,-6.303163 0.540411,-2.657056 1.1257,-5.35974 2.701807,-5.335981 0.94506,0 1.10257,0.539897 1.507848,0.517785 0.405403,-0.02389 1.125825,-0.695924 1.125825,-1.05644 0,-0.359774 -0.0895,-1.097803 -1.84562,-1.119928 z"
           id="path3"
           inkscape:connector-curvature="0"
           style="fill:#11435e;fill-opacity:1" />
      </g>
    </g>
  </g>
</svg>
