<?xml version="1.0" encoding="UTF-8" standalone="no"?>
<svg
   xmlns:osb="http://www.openswatchbook.org/uri/2009/osb"
   xmlns:dc="http://purl.org/dc/elements/1.1/"
   xmlns:cc="http://creativecommons.org/ns#"
   xmlns:rdf="http://www.w3.org/1999/02/22-rdf-syntax-ns#"
   xmlns:svg="http://www.w3.org/2000/svg"
   xmlns="http://www.w3.org/2000/svg"
   xmlns:xlink="http://www.w3.org/1999/xlink"
   xmlns:sodipodi="http://sodipodi.sourceforge.net/DTD/sodipodi-0.dtd"
   xmlns:inkscape="http://www.inkscape.org/namespaces/inkscape"
   viewBox="0 0 64 64"
   id="svg2"
   version="1.1"
   inkscape:version="0.91 r13725"
   sodipodi:docname="application-x-rpm.svg"
   width="64"
   height="64">
  <metadata
     id="metadata84">
    <rdf:RDF>
      <cc:Work
         rdf:about="">
        <dc:format>image/svg+xml</dc:format>
        <dc:type
           rdf:resource="http://purl.org/dc/dcmitype/StillImage" />
        <dc:title />
      </cc:Work>
    </rdf:RDF>
  </metadata>
  <sodipodi:namedview
     pagecolor="#ffffff"
     bordercolor="#666666"
     borderopacity="1"
     objecttolerance="10"
     gridtolerance="10"
     guidetolerance="10"
     inkscape:pageopacity="0"
     inkscape:pageshadow="2"
     inkscape:window-width="1366"
     inkscape:window-height="702"
     id="namedview82"
     showgrid="false"
     inkscape:showpageshadow="false"
     inkscape:zoom="7.4642639"
     inkscape:cx="-14.286566"
     inkscape:cy="34.602385"
     inkscape:window-x="0"
     inkscape:window-y="0"
     inkscape:window-maximized="1"
     inkscape:current-layer="g11472"
     showguides="false"
     inkscape:snap-bbox="true"
     inkscape:snap-bbox-edge-midpoints="false"
     inkscape:bbox-nodes="true">
    <inkscape:grid
       type="xygrid"
       id="grid3413" />
    <sodipodi:guide
       position="0,64"
       orientation="64,0"
       id="guide3482" />
    <sodipodi:guide
       position="0,0"
       orientation="0,64"
       id="guide3484" />
    <sodipodi:guide
       position="64,0"
       orientation="-64,0"
       id="guide3486" />
    <sodipodi:guide
       position="10,61"
       orientation="58,0"
       id="guide3492" />
    <sodipodi:guide
       position="10,3"
       orientation="0,44"
       id="guide3494" />
    <sodipodi:guide
       position="54,3"
       orientation="-58,0"
       id="guide3496" />
    <sodipodi:guide
       position="54,61"
       orientation="0,-44"
       id="guide3498" />
    <sodipodi:guide
       position="54,47"
       orientation="-14,0"
       id="guide4310" />
    <sodipodi:guide
       position="54,61"
       orientation="0,-14"
       id="guide4312" />
    <sodipodi:guide
       position="21,43"
       orientation="22,0"
       id="guide4250" />
    <sodipodi:guide
       position="21,21"
       orientation="0,22"
       id="guide4252" />
    <sodipodi:guide
       position="43,21"
       orientation="-22,0"
       id="guide4254" />
    <sodipodi:guide
       position="43,43"
       orientation="0,-22"
       id="guide4256" />
  </sodipodi:namedview>
  <defs
     id="defs4">
    <linearGradient
       inkscape:collect="always"
       xlink:href="#linearGradient4422"
       id="linearGradient4190-9"
       x1="375.57144"
       y1="543.79797"
       x2="375.57144"
       y2="517.79797"
       gradientUnits="userSpaceOnUse"
       gradientTransform="matrix(2.1937939,0,0,2.2303048,-398.02626,-639.90393)" />
    <linearGradient
       id="linearGradient4422">
      <stop
         id="stop4424"
         offset="0"
         style="stop-color:#d0111f;stop-opacity:1" />
      <stop
         id="stop4426"
         offset="1"
         style="stop-color:#f6331b;stop-opacity:1" />
    </linearGradient>
    <linearGradient
       id="linearGradient4207"
       osb:paint="gradient">
      <stop
         style="stop-color:#3498db;stop-opacity:1;"
         offset="0"
         id="stop3371" />
      <stop
         style="stop-color:#3498db;stop-opacity:0;"
         offset="1"
         id="stop3373" />
    </linearGradient>
  </defs>
  <rect
     style="opacity:1;fill:#ffffff;fill-opacity:0.40983605;stroke:none"
     id="rect4236-8"
     width="44"
     height="1"
     x="10"
     y="3" />
  <g
     transform="translate(-392.98822,-511.27795)"
     id="layer1"
     inkscape:label="Capa 1"
     inkscape:transform-center-x="5.4653607"
     inkscape:transform-center-y="-9.4924686">
    <g
       transform="translate(0.41988239,0.03484499)"
       inkscape:label="Capa 1"
       id="layer1-3">
      <rect
         style="opacity:0.997;fill:url(#linearGradient4190-9);fill-opacity:1.0;stroke:none;stroke-width:0.104;stroke-linecap:round;stroke-linejoin:round;stroke-miterlimit:4;stroke-dasharray:none;stroke-opacity:1"
         id="rect4182-2"
         width="46.069672"
         height="57.987926"
         x="401.76834"
         y="514.94318"
         ry="1.7192465" />
      <path
         style="opacity:0.56499999;fill:#000000;fill-opacity:1;fill-rule:evenodd;stroke:none;stroke-width:1px;stroke-linecap:butt;stroke-linejoin:miter;stroke-opacity:1"
         d="m 401.76839,563.18111 -4e-5,7.90428 c 0,0 -0.0224,1.83572 1.81022,1.83572 l 42.46177,0 c 0,0 1.93884,-0.0444 1.91466,-2.52819 l -0.0702,-7.21181 z"
         id="path4302"
         inkscape:connector-curvature="0"
         sodipodi:nodetypes="ccccccc" />
      <text
         xml:space="preserve"
         style="font-style:normal;font-weight:normal;font-size:7.8266716px;line-height:125%;font-family:sans-serif;letter-spacing:0px;word-spacing:0px;fill:#ffffff;fill-opacity:1;stroke:none;stroke-width:1px;stroke-linecap:butt;stroke-linejoin:miter;stroke-opacity:1"
         x="417.92303"
         y="570.04785"
         id="text4304"
         sodipodi:linespacing="125%"><tspan
           sodipodi:role="line"
           id="tspan4306"
           x="417.92303"
           y="570.04785"
           style="font-style:normal;font-variant:normal;font-weight:normal;font-stretch:normal;font-family:'Product Sans';-inkscape-font-specification:'Product Sans';fill:#ffffff;fill-opacity:1">rpm</tspan></text>
      <g
         transform="matrix(1.8038299,0,0,1.8038299,-589.54623,-575.79303)"
         id="layer1-34"
         inkscape:label="Capa 1"
         style="fill:#104563;fill-opacity:1" />
      <g
         transform="translate(-37.930796,37.016448)"
         id="layer1-6"
         inkscape:label="Capa 1">
        <g
           transform="translate(-51.525445,5.4558218)"
           inkscape:label="Capa 1"
           id="layer1-4-4">
          <g
             id="layer1-3-0"
             inkscape:label="Capa 1"
             transform="translate(-34.965532,2.4832225)" />
        </g>
        <g
           transform="translate(51.385479,-6.0099446)"
           id="g4403" />
      </g>
      <g
         id="g11472"
         transform="translate(340.8745,508.94635)">
        <path
           id="path4165"
           d="M 83.837474,19.322038 A 11.669858,11.669858 0 0 0 72.167615,30.991897 11.669858,11.669858 0 0 0 83.837474,42.661755 11.669858,11.669858 0 0 0 95.507332,30.991897 11.669858,11.669858 0 0 0 83.837474,19.322038 Z m 0,1.060896 A 10.608962,10.608962 0 0 1 94.446436,30.991897 10.608962,10.608962 0 0 1 83.837474,41.600859 10.608962,10.608962 0 0 1 73.228511,30.991897 10.608962,10.608962 0 0 1 83.837474,20.382934 Z m 0,1.060897 a 9.548066,9.548066 0 0 0 -2.538277,0.354322 l 0.256935,1.031888 a 8.4871698,8.4871698 0 0 1 2.281342,-0.325314 8.4871698,8.4871698 0 0 1 8.487169,8.48717 8.4871698,8.4871698 0 0 1 -0.07459,1.060896 l 1.06504,0 a 9.548066,9.548066 0 0 0 0.07044,-1.060896 9.548066,9.548066 0 0 0 -9.548066,-9.548066 z m -5.221599,1.566479 a 9.548066,9.548066 0 0 0 -3.646831,4.450791 l 0.953149,0.493152 a 8.4871698,8.4871698 0 0 1 3.226202,-4.023947 l -0.53252,-0.919996 z m 7.49258,1.678371 -2.258549,8.425008 a 2.1217924,2.1217924 0 0 0 -0.01243,0 2.1217924,2.1217924 0 0 0 -2.121793,2.121792 2.1217924,2.1217924 0 0 0 2.121793,2.121793 2.1217924,2.1217924 0 0 0 2.121792,-2.121793 2.1217924,2.1217924 0 0 0 -1.127202,-1.873144 2.1217924,2.1217924 0 0 1 0.04352,0.02279 l 2.258543,-8.422938 -1.025671,-0.273512 z m -11.758957,5.331418 a 9.548066,9.548066 0 0 0 -0.06009,0.971798 9.548066,9.548066 0 0 0 0.06424,1.060896 l 1.073329,0 a 8.4871698,8.4871698 0 0 1 -0.07667,-1.060896 8.4871698,8.4871698 0 0 1 0.0373,-0.750087 l -1.038105,-0.221711 z m 9.668245,3.103951 a 2.1217924,2.1217924 0 0 1 0.105676,0.01243 2.1217924,2.1217924 0 0 0 -0.105676,-0.01243 z m 0.615403,0.147116 a 2.1217924,2.1217924 0 0 1 0.107746,0.04766 2.1217924,2.1217924 0 0 0 -0.107746,-0.04766 z m -0.795672,0.903419 a 1.0608962,1.0608962 0 0 1 1.060896,1.060896 1.0608962,1.0608962 0 0 1 -1.060896,1.060897 1.0608962,1.0608962 0 0 1 -1.060897,-1.060897 1.0608962,1.0608962 0 0 1 1.060897,-1.060896 z"
           style="opacity:1;fill:#5c090d;fill-opacity:1;stroke:none;stroke-opacity:1"
           inkscape:connector-curvature="0" />
      </g>
    </g>
  </g>
</svg>
