<?xml version="1.0" encoding="UTF-8" standalone="no"?>
<svg
   xmlns:osb="http://www.openswatchbook.org/uri/2009/osb"
   xmlns:dc="http://purl.org/dc/elements/1.1/"
   xmlns:cc="http://creativecommons.org/ns#"
   xmlns:rdf="http://www.w3.org/1999/02/22-rdf-syntax-ns#"
   xmlns:svg="http://www.w3.org/2000/svg"
   xmlns="http://www.w3.org/2000/svg"
   xmlns:xlink="http://www.w3.org/1999/xlink"
   xmlns:sodipodi="http://sodipodi.sourceforge.net/DTD/sodipodi-0.dtd"
   xmlns:inkscape="http://www.inkscape.org/namespaces/inkscape"
   viewBox="0 0 64 64"
   id="svg2"
   version="1.1"
   inkscape:version="0.91 r13725"
   sodipodi:docname="application-x-java-archive.svg"
   width="64"
   height="64">
  <metadata
     id="metadata84">
    <rdf:RDF>
      <cc:Work
         rdf:about="">
        <dc:format>image/svg+xml</dc:format>
        <dc:type
           rdf:resource="http://purl.org/dc/dcmitype/StillImage" />
        <dc:title />
      </cc:Work>
    </rdf:RDF>
  </metadata>
  <sodipodi:namedview
     pagecolor="#ffffff"
     bordercolor="#666666"
     borderopacity="1"
     objecttolerance="10"
     gridtolerance="10"
     guidetolerance="10"
     inkscape:pageopacity="0"
     inkscape:pageshadow="2"
     inkscape:window-width="1366"
     inkscape:window-height="702"
     id="namedview82"
     showgrid="false"
     inkscape:showpageshadow="false"
     inkscape:zoom="7.4642639"
     inkscape:cx="-22.076842"
     inkscape:cy="34.602385"
     inkscape:window-x="0"
     inkscape:window-y="0"
     inkscape:window-maximized="1"
     inkscape:current-layer="layer1-3"
     showguides="true"
     inkscape:snap-bbox="true"
     inkscape:snap-bbox-edge-midpoints="false"
     inkscape:bbox-nodes="true"
     inkscape:guide-bbox="true">
    <inkscape:grid
       type="xygrid"
       id="grid3413" />
    <sodipodi:guide
       position="0,64"
       orientation="64,0"
       id="guide3482" />
    <sodipodi:guide
       position="0,0"
       orientation="0,64"
       id="guide3484" />
    <sodipodi:guide
       position="64,0"
       orientation="-64,0"
       id="guide3486" />
    <sodipodi:guide
       position="10,61"
       orientation="58,0"
       id="guide3492" />
    <sodipodi:guide
       position="10,3"
       orientation="0,44"
       id="guide3494" />
    <sodipodi:guide
       position="54,3"
       orientation="-58,0"
       id="guide3496" />
    <sodipodi:guide
       position="54,61"
       orientation="0,-44"
       id="guide3498" />
    <sodipodi:guide
       position="54,47"
       orientation="-14,0"
       id="guide4310" />
    <sodipodi:guide
       position="54,61"
       orientation="0,-14"
       id="guide4312" />
    <sodipodi:guide
       position="21,43"
       orientation="22,0"
       id="guide4250" />
    <sodipodi:guide
       position="21,21"
       orientation="0,22"
       id="guide4252" />
    <sodipodi:guide
       position="43,21"
       orientation="-22,0"
       id="guide4254" />
    <sodipodi:guide
       position="43,43"
       orientation="0,-22"
       id="guide4256" />
    <sodipodi:guide
       position="25.052705,61"
       orientation="0,1"
       id="guide6551" />
  </sodipodi:namedview>
  <defs
     id="defs4">
    <linearGradient
       inkscape:collect="always"
       xlink:href="#linearGradient4422"
       id="linearGradient4190-9"
       x1="375.57144"
       y1="543.79797"
       x2="375.57144"
       y2="517.79797"
       gradientUnits="userSpaceOnUse"
       gradientTransform="matrix(2.1937939,0,0,2.2303048,-398.02626,-639.90393)" />
    <linearGradient
       id="linearGradient4422">
      <stop
         id="stop4424"
         offset="0"
         style="stop-color:#14b59e;stop-opacity:1" />
      <stop
         id="stop4426"
         offset="1"
         style="stop-color:#33d6b6;stop-opacity:1" />
    </linearGradient>
    <linearGradient
       id="linearGradient4207"
       osb:paint="gradient">
      <stop
         style="stop-color:#3498db;stop-opacity:1;"
         offset="0"
         id="stop3371" />
      <stop
         style="stop-color:#3498db;stop-opacity:0;"
         offset="1"
         id="stop3373" />
    </linearGradient>
  </defs>
  <rect
     style="opacity:1;fill:#ffffff;fill-opacity:0.40983605;stroke:none"
     id="rect4236-8"
     width="44"
     height="1"
     x="10"
     y="3" />
  <g
     transform="translate(-392.98822,-511.27795)"
     id="layer1"
     inkscape:label="Capa 1"
     inkscape:transform-center-x="5.4653607"
     inkscape:transform-center-y="-9.4924686">
    <g
       transform="translate(0.41988239,0.03484499)"
       inkscape:label="Capa 1"
       id="layer1-3">
      <rect
         style="opacity:0.997;fill:url(#linearGradient4190-9);fill-opacity:1.0;stroke:none;stroke-width:0.104;stroke-linecap:round;stroke-linejoin:round;stroke-miterlimit:4;stroke-dasharray:none;stroke-opacity:1"
         id="rect4182-2"
         width="46.069672"
         height="57.987926"
         x="401.76834"
         y="514.94318"
         ry="1.7192465" />
      <path
         style="opacity:0.56499999;fill:#000000;fill-opacity:1;fill-rule:evenodd;stroke:none;stroke-width:1px;stroke-linecap:butt;stroke-linejoin:miter;stroke-opacity:1"
         d="m 401.76839,563.18111 -4e-5,7.90428 c 0,0 -0.0224,1.83572 1.81022,1.83572 l 42.46177,0 c 0,0 1.93884,-0.0444 1.91466,-2.52819 l -0.0702,-7.21181 z"
         id="path4302"
         inkscape:connector-curvature="0"
         sodipodi:nodetypes="ccccccc" />
      <text
         xml:space="preserve"
         style="font-style:normal;font-weight:normal;font-size:7.8266716px;line-height:125%;font-family:sans-serif;letter-spacing:0px;word-spacing:0px;fill:#ffffff;fill-opacity:1;stroke:none;stroke-width:1px;stroke-linecap:butt;stroke-linejoin:miter;stroke-opacity:1"
         x="420.82318"
         y="570.14728"
         id="text4304"
         sodipodi:linespacing="125%"><tspan
           sodipodi:role="line"
           id="tspan4306"
           x="420.82318"
           y="570.14728"
           style="font-style:normal;font-variant:normal;font-weight:normal;font-stretch:normal;font-family:'Product Sans';-inkscape-font-specification:'Product Sans';fill:#ffffff;fill-opacity:1">jar</tspan></text>
      <path
         id="cup-3"
         style="fill:#0a5045;fill-opacity:1"
         d="m 434.06936,544.40458 c 0.058,10e-4 0.11073,0.003 0.19374,0.003 1.12909,0 3.92625,-0.20182 5.52036,-2.07093 2.04128,-2.39412 2.37845,-5.34492 0.7692,-6.71813 -0.51857,-0.4423 -1.18992,-0.67584 -1.94113,-0.67584 -0.60857,0 -1.25689,0.16256 -1.90046,0.44989 -1.46431,-2.60579 -10.52325,-2.74982 -12.46748,-2.74982 -2.11694,6e-5 -12.67331,0.16883 -12.67525,3.5 l 0,5.4e-4 c 0,0 0,0 0,5.5e-4 l 0,5.5e-4 c 0,3.88984 1.66898,7.37853 4.29544,9.77405 -2.43703,0.65062 -4.28645,1.6925 -4.28645,3.30819 0,3.35809 7.96748,4.25448 12.6752,4.25448 4.70747,0 12.67409,-0.89639 12.67409,-4.25448 0,-1.61569 -1.84954,-2.65757 -4.28644,-3.30819 0.51261,-0.46728 0.99527,-0.96792 1.42918,-1.5142 z m 5.15658,-7.23135 c 0.62255,0.53006 0.32823,2.28449 -0.99648,3.83825 -0.69153,0.80949 -1.86066,1.13468 -2.78422,1.26583 0.73127,-1.41217 1.21593,-2.97766 1.40062,-4.63686 0.66722,-0.44485 1.30684,-0.65421 1.76573,-0.65421 0.26224,0 0.4685,0.0628 0.61435,0.18699 z m -14.98247,-2.48691 c 5.78472,0 9.34324,0.86472 10.40049,1.45786 -1.05719,0.59259 -4.61571,1.45732 -10.40049,1.45732 -5.78606,0 -9.34427,-0.86473 -10.40158,-1.45732 1.05737,-0.59314 4.61552,-1.45786 10.40158,-1.45786 z m 10.64297,14.51847 c -0.19538,0.63598 -3.64505,2.23344 -10.63391,2.23344 -6.98917,0 -10.43975,-1.59746 -10.63429,-2.19005 0.11578,-0.37867 1.39479,-1.09627 3.87782,-1.61709 -0.0429,0.12726 -0.0721,0.25981 -0.0721,0.4045 0,1.86516 3.71294,2.25648 6.82855,2.25648 3.1142,0 6.82714,-0.39132 6.82714,-2.25648 0,-0.14548 -0.0297,-0.27918 -0.0726,-0.4076 2.48382,0.51645 3.76368,1.2242 3.87939,1.5768 z"
         inkscape:connector-curvature="0" />
    </g>
  </g>
</svg>
