<?xml version="1.0" encoding="UTF-8" standalone="no"?>
<svg
   xmlns:osb="http://www.openswatchbook.org/uri/2009/osb"
   xmlns:dc="http://purl.org/dc/elements/1.1/"
   xmlns:cc="http://creativecommons.org/ns#"
   xmlns:rdf="http://www.w3.org/1999/02/22-rdf-syntax-ns#"
   xmlns:svg="http://www.w3.org/2000/svg"
   xmlns="http://www.w3.org/2000/svg"
   xmlns:xlink="http://www.w3.org/1999/xlink"
   xmlns:sodipodi="http://sodipodi.sourceforge.net/DTD/sodipodi-0.dtd"
   xmlns:inkscape="http://www.inkscape.org/namespaces/inkscape"
   viewBox="0 0 64 64"
   id="svg2"
   version="1.1"
   inkscape:version="0.91 r13725"
   sodipodi:docname="application-x-python-bytecode.svg"
   width="64"
   height="64">
  <metadata
     id="metadata84">
    <rdf:RDF>
      <cc:Work
         rdf:about="">
        <dc:format>image/svg+xml</dc:format>
        <dc:type
           rdf:resource="http://purl.org/dc/dcmitype/StillImage" />
        <dc:title />
      </cc:Work>
    </rdf:RDF>
  </metadata>
  <sodipodi:namedview
     pagecolor="#ffffff"
     bordercolor="#666666"
     borderopacity="1"
     objecttolerance="10"
     gridtolerance="10"
     guidetolerance="10"
     inkscape:pageopacity="0"
     inkscape:pageshadow="2"
     inkscape:window-width="1366"
     inkscape:window-height="702"
     id="namedview82"
     showgrid="false"
     inkscape:showpageshadow="false"
     inkscape:zoom="7.4642639"
     inkscape:cx="-18.874811"
     inkscape:cy="35.779975"
     inkscape:window-x="0"
     inkscape:window-y="0"
     inkscape:window-maximized="1"
     inkscape:current-layer="layer1-3"
     showguides="true"
     inkscape:snap-bbox="true"
     inkscape:snap-bbox-edge-midpoints="false"
     inkscape:bbox-nodes="true"
     inkscape:guide-bbox="true">
    <inkscape:grid
       type="xygrid"
       id="grid3413" />
    <sodipodi:guide
       position="0,64"
       orientation="64,0"
       id="guide3482" />
    <sodipodi:guide
       position="0,0"
       orientation="0,64"
       id="guide3484" />
    <sodipodi:guide
       position="64,0"
       orientation="-64,0"
       id="guide3486" />
    <sodipodi:guide
       position="10,61"
       orientation="58,0"
       id="guide3492" />
    <sodipodi:guide
       position="10,3"
       orientation="0,44"
       id="guide3494" />
    <sodipodi:guide
       position="54,3"
       orientation="-58,0"
       id="guide3496" />
    <sodipodi:guide
       position="54,61"
       orientation="0,-44"
       id="guide3498" />
    <sodipodi:guide
       position="54,47"
       orientation="-14,0"
       id="guide4310" />
    <sodipodi:guide
       position="54,61"
       orientation="0,-14"
       id="guide4312" />
    <sodipodi:guide
       position="21,43"
       orientation="22,0"
       id="guide4250" />
    <sodipodi:guide
       position="21,21"
       orientation="0,22"
       id="guide4252" />
    <sodipodi:guide
       position="43,43"
       orientation="0,-22"
       id="guide4256" />
    <sodipodi:guide
       position="25.052705,61"
       orientation="0,1"
       id="guide6551" />
  </sodipodi:namedview>
  <defs
     id="defs4">
    <linearGradient
       inkscape:collect="always"
       xlink:href="#linearGradient4422"
       id="linearGradient4190-9"
       x1="375.57144"
       y1="543.79797"
       x2="375.57144"
       y2="517.79797"
       gradientUnits="userSpaceOnUse"
       gradientTransform="matrix(2.1937939,0,0,2.2303048,-398.02626,-639.90393)" />
    <linearGradient
       id="linearGradient4422">
      <stop
         id="stop4424"
         offset="0"
         style="stop-color:#f4a01c;stop-opacity:1" />
      <stop
         id="stop4426"
         offset="1"
         style="stop-color:#fac632;stop-opacity:1" />
    </linearGradient>
    <linearGradient
       id="linearGradient4207"
       osb:paint="gradient">
      <stop
         style="stop-color:#3498db;stop-opacity:1;"
         offset="0"
         id="stop3371" />
      <stop
         style="stop-color:#3498db;stop-opacity:0;"
         offset="1"
         id="stop3373" />
    </linearGradient>
  </defs>
  <rect
     style="opacity:1;fill:#ffffff;fill-opacity:0.40983605;stroke:none"
     id="rect4236-8"
     width="44"
     height="1"
     x="10"
     y="3" />
  <g
     transform="translate(-392.98822,-511.27795)"
     id="layer1"
     inkscape:label="Capa 1"
     inkscape:transform-center-x="5.4653607"
     inkscape:transform-center-y="-9.4924686">
    <g
       transform="translate(0.41988239,0.03484499)"
       inkscape:label="Capa 1"
       id="layer1-3">
      <rect
         style="opacity:0.997;fill:url(#linearGradient4190-9);fill-opacity:1.0;stroke:none;stroke-width:0.104;stroke-linecap:round;stroke-linejoin:round;stroke-miterlimit:4;stroke-dasharray:none;stroke-opacity:1"
         id="rect4182-2"
         width="46.069672"
         height="57.987926"
         x="401.76834"
         y="514.94318"
         ry="1.7192465" />
      <path
         style="opacity:0.56499999;fill:#000000;fill-opacity:1;fill-rule:evenodd;stroke:none;stroke-width:1px;stroke-linecap:butt;stroke-linejoin:miter;stroke-opacity:1"
         d="m 401.76839,563.18111 -4e-5,7.90428 c 0,0 -0.0224,1.83572 1.81022,1.83572 l 42.46177,0 c 0,0 1.93884,-0.0444 1.91466,-2.52819 l -0.0702,-7.21181 z"
         id="path4302"
         inkscape:connector-curvature="0"
         sodipodi:nodetypes="ccccccc" />
      <text
         xml:space="preserve"
         style="font-style:normal;font-weight:normal;font-size:7.8266716px;line-height:125%;font-family:sans-serif;letter-spacing:0px;word-spacing:0px;fill:#ffffff;fill-opacity:1;stroke:none;stroke-width:1px;stroke-linecap:butt;stroke-linejoin:miter;stroke-opacity:1"
         x="413.02335"
         y="570.24652"
         id="text4304"
         sodipodi:linespacing="125%"><tspan
           sodipodi:role="line"
           id="tspan4306"
           x="413.02335"
           y="570.24652"
           style="font-style:normal;font-variant:normal;font-weight:normal;font-stretch:normal;font-family:'Product Sans';-inkscape-font-specification:'Product Sans';fill:#ffffff;fill-opacity:1">python</tspan></text>
      <g
         id="g138566"
         transform="translate(346.53155,511.24311)"
         style="fill:#6b470d;fill-opacity:1">
        <path
           id="rect4270"
           d="m 75.623397,16.694814 c -1.886114,0 -3.404538,1.518424 -3.404538,3.404538 l 0,2.269691 5.674229,0 0,1.134846 -5.674229,0 -2.269692,0 c -2.514818,0 -4.539383,2.024565 -4.539383,4.539384 l 0,2.269691 c 0,2.514819 2.024565,4.539384 4.539383,4.539384 l 0,-2.269692 c 0,-2.08943 1.405155,-3.822825 3.320311,-4.355415 0.166643,-0.04635 0.33748,-0.08205 0.509794,-0.113042 0.232462,-0.03642 0.466278,-0.07093 0.709279,-0.07093 l 4.539383,0 3.659434,0 c 0.541527,-0.602464 0.87995,-1.392119 0.87995,-2.269692 l 0,-5.674229 c 0,-1.886114 -1.518424,-3.404538 -3.404538,-3.404538 l -4.539383,0 z m -1.134846,2.269692 c 0.628704,0 1.134846,0.506141 1.134846,1.134846 0,0.628704 -0.506142,1.134846 -1.134846,1.134846 -0.628705,0 -1.134846,-0.506142 -1.134846,-1.134846 0,-0.628705 0.506141,-1.134846 1.134846,-1.134846 z m 11.348458,4.539383 0,2.269692 c 0,2.08943 -1.405154,3.822825 -3.32031,4.355415 -0.166643,0.04635 -0.337481,0.08205 -0.509794,0.113042 -0.232462,0.03642 -0.466278,0.07093 -0.709279,0.07093 l -4.539383,0 -3.659435,0 c -0.541527,0.602464 -0.879949,1.392119 -0.879949,2.269692 l 0,5.674229 c 0,1.886114 1.518424,3.404538 3.404538,3.404538 l 4.539383,0 c 1.886114,0 3.404538,-1.518424 3.404538,-3.404538 l 0,-2.269691 -5.67423,0 0,-1.134846 5.67423,0 2.269691,0 c 2.514819,0 4.539384,-2.024565 4.539384,-4.539384 l 0,-2.269691 c 0,-2.514819 -2.024565,-4.539384 -4.539384,-4.539384 z m -4.539383,13.61815 c 0.628705,0 1.134846,0.506142 1.134846,1.134846 0,0.628705 -0.506141,1.134846 -1.134846,1.134846 -0.628705,0 -1.134846,-0.506141 -1.134846,-1.134846 0,-0.628704 0.506141,-1.134846 1.134846,-1.134846 z"
           style="opacity:1;fill:#6b470d;fill-opacity:1;stroke:none"
           inkscape:connector-curvature="0" />
      </g>
    </g>
  </g>
</svg>
