<?xml version="1.0" encoding="UTF-8" standalone="no"?>
<svg
   xmlns:dc="http://purl.org/dc/elements/1.1/"
   xmlns:cc="http://creativecommons.org/ns#"
   xmlns:rdf="http://www.w3.org/1999/02/22-rdf-syntax-ns#"
   xmlns:svg="http://www.w3.org/2000/svg"
   xmlns="http://www.w3.org/2000/svg"
   xmlns:xlink="http://www.w3.org/1999/xlink"
   xmlns:sodipodi="http://sodipodi.sourceforge.net/DTD/sodipodi-0.dtd"
   xmlns:inkscape="http://www.inkscape.org/namespaces/inkscape"
   viewBox="0 0 64 64"
   id="svg2"
   version="1.1"
   inkscape:version="0.91 r13725"
   sodipodi:docname="message-news.svg"
   width="64"
   height="64">
  <metadata
     id="metadata84">
    <rdf:RDF>
      <cc:Work
         rdf:about="">
        <dc:format>image/svg+xml</dc:format>
        <dc:type
           rdf:resource="http://purl.org/dc/dcmitype/StillImage" />
        <dc:title />
      </cc:Work>
    </rdf:RDF>
  </metadata>
  <sodipodi:namedview
     pagecolor="#ffffff"
     bordercolor="#666666"
     borderopacity="1"
     objecttolerance="10"
     gridtolerance="10"
     guidetolerance="10"
     inkscape:pageopacity="0"
     inkscape:pageshadow="2"
     inkscape:window-width="1366"
     inkscape:window-height="702"
     id="namedview82"
     showgrid="false"
     inkscape:showpageshadow="false"
     inkscape:zoom="7.4642639"
     inkscape:cx="-17.626041"
     inkscape:cy="29.310504"
     inkscape:window-x="0"
     inkscape:window-y="0"
     inkscape:window-maximized="1"
     inkscape:current-layer="layer1-3"
     showguides="false"
     inkscape:snap-bbox="true"
     inkscape:snap-bbox-edge-midpoints="false"
     inkscape:bbox-nodes="true">
    <inkscape:grid
       type="xygrid"
       id="grid3413" />
    <sodipodi:guide
       position="0,64"
       orientation="64,0"
       id="guide3482" />
    <sodipodi:guide
       position="0,0"
       orientation="0,64"
       id="guide3484" />
    <sodipodi:guide
       position="64,0"
       orientation="-64,0"
       id="guide3486" />
    <sodipodi:guide
       position="10,61"
       orientation="58,0"
       id="guide3492" />
    <sodipodi:guide
       position="10,3"
       orientation="0,44"
       id="guide3494" />
    <sodipodi:guide
       position="54,3"
       orientation="-58,0"
       id="guide3496" />
    <sodipodi:guide
       position="54,61"
       orientation="0,-44"
       id="guide3498" />
    <sodipodi:guide
       position="54,47"
       orientation="-14,0"
       id="guide4310" />
    <sodipodi:guide
       position="54,61"
       orientation="0,-14"
       id="guide4312" />
    <sodipodi:guide
       position="21,43"
       orientation="22,0"
       id="guide4250" />
    <sodipodi:guide
       position="21,21"
       orientation="0,22"
       id="guide4252" />
    <sodipodi:guide
       position="43,21"
       orientation="-22,0"
       id="guide4254" />
    <sodipodi:guide
       position="43,43"
       orientation="0,-22"
       id="guide4256" />
  </sodipodi:namedview>
  <defs
     id="defs4">
    <linearGradient
       inkscape:collect="always"
       xlink:href="#linearGradient4422"
       id="linearGradient4190-9"
       x1="375.57144"
       y1="543.79797"
       x2="375.57144"
       y2="517.79797"
       gradientUnits="userSpaceOnUse"
       gradientTransform="matrix(2.1937939,0,0,2.2303048,-398.02626,-639.90393)" />
    <linearGradient
       id="linearGradient4422">
      <stop
         id="stop4424"
         offset="0"
         style="stop-color:#5f6c7a;stop-opacity:1" />
      <stop
         id="stop4426"
         offset="1"
         style="stop-color:#aeb6be;stop-opacity:1" />
    </linearGradient>
  </defs>
  <rect
     style="opacity:1;fill:#ffffff;fill-opacity:0.40983605;stroke:none"
     id="rect4236-8"
     width="44"
     height="1"
     x="10"
     y="3" />
  <g
     transform="translate(-392.98822,-511.27795)"
     id="layer1"
     inkscape:label="Capa 1"
     inkscape:transform-center-x="5.4653607"
     inkscape:transform-center-y="-9.4924686">
    <g
       transform="translate(0.41988239,0.03484499)"
       inkscape:label="Capa 1"
       id="layer1-3">
      <rect
         style="opacity:0.997;fill:url(#linearGradient4190-9);fill-opacity:1.0;stroke:none;stroke-width:0.104;stroke-linecap:round;stroke-linejoin:round;stroke-miterlimit:4;stroke-dasharray:none;stroke-opacity:1"
         id="rect4182-2"
         width="46.069672"
         height="57.987926"
         x="401.76834"
         y="514.94318"
         ry="1.7192465" />
      <path
         style="opacity:0.56499999;fill:#000000;fill-opacity:1;fill-rule:evenodd;stroke:none;stroke-width:1px;stroke-linecap:butt;stroke-linejoin:miter;stroke-opacity:1"
         d="m 401.76839,563.18111 -4e-5,7.90428 c 0,0 -0.0224,1.83572 1.81022,1.83572 l 42.46177,0 c 0,0 1.93884,-0.0444 1.91466,-2.52819 l -0.0702,-7.21181 z"
         id="path4302"
         inkscape:connector-curvature="0"
         sodipodi:nodetypes="ccccccc" />
      <text
         xml:space="preserve"
         style="font-style:normal;font-weight:normal;font-size:7.8266716px;line-height:125%;font-family:sans-serif;letter-spacing:0px;word-spacing:0px;fill:#ffffff;fill-opacity:1;stroke:none;stroke-width:1px;stroke-linecap:butt;stroke-linejoin:miter;stroke-opacity:1"
         x="416.12305"
         y="570.24713"
         id="text4304"
         sodipodi:linespacing="125%"><tspan
           sodipodi:role="line"
           id="tspan4306"
           x="416.12305"
           y="570.24713"
           style="font-style:normal;font-variant:normal;font-weight:normal;font-stretch:normal;font-family:'Product Sans';-inkscape-font-specification:'Product Sans';fill:#ffffff;fill-opacity:1">news</tspan></text>
      <g
         transform="matrix(0.18800064,0,0,-0.18800064,404.82712,685.85227)"
         id="g4"
         style="fill:#2c3137;fill-opacity:1">
        <g
           transform="translate(-216,-15084)"
           id="g6"
           style="fill:#2c3137;fill-opacity:1">
          <path
             d="m 305.03,15894.46 c -6.61,-0.47 -12.21,-6.03 -12.21,-13.87 l 0,-37.3 c 0,-1.35 -1,-2.51 -2.46,-2.51 l -11.65,0 c -25.22,-0.03 -22.98,32.2 -1.51,32.24 l 12.88,0 0,9.37 -13.35,0 c -8.55,0 -14.89,-3.19 -19.17,-7.95 -4.28,-4.76 -6.43,-11.17 -6.44,-17.56 -0.01,-6.39 2.11,-12.76 6.49,-17.52 4.38,-4.75 11,-7.95 20.07,-7.95 l 21.97,0 c 1.45,0 2.65,1.25 2.65,2.7 l 0,45.49 c -0.01,2.34 1.31,4.16 3.03,4.69 1.72,0.53 3.74,-0.14 4.92,-1.85 l 0.05,-0.05 c 6.25,-10.22 31.06,-50.02 31.1,-50.09 0.68,-0.97 1.49,-1.14 2.08,-0.95 0.59,0.2 1.19,0.84 1.18,2.42 l 0,45.83 c -0.01,2.34 1.31,4.16 3.03,4.69 1.72,0.53 3.69,-0.14 4.88,-1.85 l 0,-0.05 0.09,0 c 6.25,-10.22 31.06,-50.02 31.1,-50.09 0.67,-0.96 1.46,-1.15 2.08,-0.95 0.62,0.2 1.24,0.8 1.23,2.37 l 0,60.5 -9.42,0 0,-35.31 c 0,0 -5.62,9.6 -15.24,26.13 -9.43,16.19 -27.22,9.49 -27.22,-4.45 l 0,-21.68 c 0,0 -5.52,9.6 -15.15,26.13 -4.12,7.08 -9.87,9.79 -15.01,9.42 z m -26.65,-0.24 c -52.43,0 -51.92,-74.71 0.71,-74.75 l 20.59,0 c 8.85,0 14.5,5.24 14.49,14.91 l 0,18.94 c 0,0 11.56,-19.11 16.1,-26.6 7.7,-12.73 26.32,-10.22 26.27,5.68 l 0,20.92 c 0,0 11.52,-19.11 16.05,-26.6 7.7,-12.73 26.37,-10.22 26.32,5.68 l 0,61.83 -9.42,0 0,-60.5 c 0.01,-2.32 -1.21,-4.04 -2.89,-4.59 -1.68,-0.55 -3.61,0.14 -4.78,1.8 l -0.05,0 0,0.09 c 0,0 -24.82,39.69 -31.15,50.04 -0.02,0.02 -0.03,-0.02 -0.05,0 -0.01,0 0.01,0.05 0,0.05 -0.65,0.87 -1.49,1.06 -2.18,0.85 -0.71,-0.22 -1.38,-0.83 -1.37,-2.37 l 0,-45.82 c 0.01,-2.31 -1.18,-4.13 -2.84,-4.69 -1.66,-0.56 -3.57,0.18 -4.73,1.85 l 0,0.05 -0.05,0 c 0,0 -24.84,39.77 -31.15,50.09 -0.66,0.94 -1.51,1.17 -2.22,0.95 -0.71,-0.22 -1.38,-0.83 -1.37,-2.37 l 0,-0.05 0,-45.49 c 0,-2.76 -2.27,-5.07 -5.02,-5.07 l -21.97,0 c -9.64,0 -16.95,3.47 -21.78,8.71 -4.83,5.24 -7.21,12.19 -7.2,19.13 0.01,6.93 2.39,13.93 7.1,19.17 4.71,5.24 11.78,8.7 20.92,8.71 l 13.35,0 0,9.47 -11.69,0 z"
             id="path8"
             inkscape:connector-curvature="0"
             style="fill:#2c3137;fill-opacity:1" />
        </g>
      </g>
    </g>
  </g>
</svg>
