<?xml version="1.0" encoding="UTF-8" standalone="no"?>
<svg
   xmlns:osb="http://www.openswatchbook.org/uri/2009/osb"
   xmlns:dc="http://purl.org/dc/elements/1.1/"
   xmlns:cc="http://creativecommons.org/ns#"
   xmlns:rdf="http://www.w3.org/1999/02/22-rdf-syntax-ns#"
   xmlns:svg="http://www.w3.org/2000/svg"
   xmlns="http://www.w3.org/2000/svg"
   xmlns:xlink="http://www.w3.org/1999/xlink"
   xmlns:sodipodi="http://sodipodi.sourceforge.net/DTD/sodipodi-0.dtd"
   xmlns:inkscape="http://www.inkscape.org/namespaces/inkscape"
   viewBox="0 0 64 64"
   id="svg2"
   version="1.1"
   inkscape:version="0.91 r13725"
   sodipodi:docname="text-html.svg"
   width="64"
   height="64">
  <metadata
     id="metadata84">
    <rdf:RDF>
      <cc:Work
         rdf:about="">
        <dc:format>image/svg+xml</dc:format>
        <dc:type
           rdf:resource="http://purl.org/dc/dcmitype/StillImage" />
        <dc:title />
      </cc:Work>
    </rdf:RDF>
  </metadata>
  <sodipodi:namedview
     pagecolor="#ffffff"
     bordercolor="#666666"
     borderopacity="1"
     objecttolerance="10"
     gridtolerance="10"
     guidetolerance="10"
     inkscape:pageopacity="0"
     inkscape:pageshadow="2"
     inkscape:window-width="1366"
     inkscape:window-height="702"
     id="namedview82"
     showgrid="false"
     inkscape:showpageshadow="false"
     inkscape:zoom="7.4642639"
     inkscape:cx="-15.797548"
     inkscape:cy="29.176532"
     inkscape:window-x="0"
     inkscape:window-y="0"
     inkscape:window-maximized="1"
     inkscape:current-layer="layer1-3"
     showguides="false"
     inkscape:snap-bbox="true"
     inkscape:snap-bbox-edge-midpoints="false"
     inkscape:bbox-nodes="true">
    <inkscape:grid
       type="xygrid"
       id="grid3413" />
    <sodipodi:guide
       position="0,64"
       orientation="64,0"
       id="guide3482" />
    <sodipodi:guide
       position="0,0"
       orientation="0,64"
       id="guide3484" />
    <sodipodi:guide
       position="64,0"
       orientation="-64,0"
       id="guide3486" />
    <sodipodi:guide
       position="10,61"
       orientation="58,0"
       id="guide3492" />
    <sodipodi:guide
       position="10,3"
       orientation="0,44"
       id="guide3494" />
    <sodipodi:guide
       position="54,3"
       orientation="-58,0"
       id="guide3496" />
    <sodipodi:guide
       position="54,61"
       orientation="0,-44"
       id="guide3498" />
    <sodipodi:guide
       position="54,47"
       orientation="-14,0"
       id="guide4310" />
    <sodipodi:guide
       position="54,61"
       orientation="0,-14"
       id="guide4312" />
    <sodipodi:guide
       position="21,43"
       orientation="22,0"
       id="guide4250" />
    <sodipodi:guide
       position="21,21"
       orientation="0,22"
       id="guide4252" />
    <sodipodi:guide
       position="43,21"
       orientation="-22,0"
       id="guide4254" />
    <sodipodi:guide
       position="43,43"
       orientation="0,-22"
       id="guide4256" />
  </sodipodi:namedview>
  <defs
     id="defs4">
    <linearGradient
       id="linearGradient4531"
       inkscape:collect="always">
      <stop
         id="stop4533"
         offset="0"
         style="stop-color:#0dbea2;stop-opacity:1" />
      <stop
         id="stop4535"
         offset="1"
         style="stop-color:#34d6b6;stop-opacity:1" />
    </linearGradient>
    <linearGradient
       inkscape:collect="always"
       xlink:href="#linearGradient4531"
       id="linearGradient4190-9"
       x1="375.57144"
       y1="543.79797"
       x2="375.57144"
       y2="517.79797"
       gradientUnits="userSpaceOnUse"
       gradientTransform="matrix(2.1937939,0,0,2.2303048,-398.02626,-639.90393)" />
    <linearGradient
       osb:paint="gradient"
       id="linearGradient4207">
      <stop
         id="stop3371"
         offset="0"
         style="stop-color:#3498db;stop-opacity:1;" />
      <stop
         id="stop3373"
         offset="1"
         style="stop-color:#3498db;stop-opacity:0;" />
    </linearGradient>
  </defs>
  <rect
     style="opacity:1;fill:#ffffff;fill-opacity:0.40983605;stroke:none"
     id="rect4236-8"
     width="44"
     height="1"
     x="10"
     y="3" />
  <g
     transform="translate(-392.98822,-511.27795)"
     id="layer1"
     inkscape:label="Capa 1"
     inkscape:transform-center-x="5.4653607"
     inkscape:transform-center-y="-9.4924686">
    <g
       transform="translate(0.41988239,0.03484499)"
       inkscape:label="Capa 1"
       id="layer1-3">
      <rect
         style="opacity:0.997;fill:url(#linearGradient4190-9);fill-opacity:1.0;stroke:none;stroke-width:0.104;stroke-linecap:round;stroke-linejoin:round;stroke-miterlimit:4;stroke-dasharray:none;stroke-opacity:1"
         id="rect4182-2"
         width="46.069672"
         height="57.987926"
         x="401.76834"
         y="514.94318"
         ry="1.7192465" />
      <path
         style="opacity:0.56499999;fill:#000000;fill-opacity:1;fill-rule:evenodd;stroke:none;stroke-width:1px;stroke-linecap:butt;stroke-linejoin:miter;stroke-opacity:1"
         d="m 401.76839,563.18111 -4e-5,7.90428 c 0,0 -0.0224,1.83572 1.81022,1.83572 l 42.46177,0 c 0,0 1.93884,-0.0444 1.91466,-2.52819 l -0.0702,-7.21181 z"
         id="path4302"
         inkscape:connector-curvature="0"
         sodipodi:nodetypes="ccccccc" />
      <text
         xml:space="preserve"
         style="font-style:normal;font-weight:normal;font-size:7.8266716px;line-height:125%;font-family:sans-serif;letter-spacing:0px;word-spacing:0px;fill:#ffffff;fill-opacity:1;stroke:none;stroke-width:1px;stroke-linecap:butt;stroke-linejoin:miter;stroke-opacity:1"
         x="417.92303"
         y="570.54785"
         id="text4304"
         sodipodi:linespacing="125%"><tspan
           sodipodi:role="line"
           id="tspan4306"
           x="417.92303"
           y="570.54785"
           style="font-style:normal;font-variant:normal;font-weight:normal;font-stretch:normal;font-family:'Product Sans';-inkscape-font-specification:'Product Sans';fill:#ffffff;fill-opacity:1">web</tspan></text>
      <g
         id="g8884"
         transform="translate(337.92712,508.81238)">
        <rect
           y="3"
           x="10"
           height="1"
           width="44"
           id="rect4236"
           style="opacity:1;fill:#ffffff;fill-opacity:0.40983605;stroke:none" />
        <path
           id="path26"
           d="m 87.047048,19.445071 c -6.539322,0 -11.80383,5.264508 -11.80383,11.80383 0,6.539322 5.264508,11.80383 11.80383,11.80383 6.539322,0 11.80383,-5.264508 11.80383,-11.80383 0,-6.539322 -5.264508,-11.80383 -11.80383,-11.80383 z m 0,1.073075 c 1.783047,0 3.456959,0.437711 4.933632,1.200923 0.0046,0.04264 0.0034,0.07403 0,0.121559 0.06223,0.02789 0.09814,0.143275 0.203297,0.201202 0.03863,0.02146 0.06412,0.03099 0.100601,0.0503 0.06223,0.03433 0.113481,0.09082 0.100601,0.150901 -0.01717,0.08796 -0.141115,0.08445 -0.201202,0.148806 0.0086,0.124433 -0.06841,0.119626 -0.100601,0.203297 0.01932,0.05364 0.09203,0.03624 0.100601,0.100601 -0.01077,0.06865 -0.126355,0.07801 -0.100601,0.148805 0.115881,0.09011 0.242659,0.01502 0.352103,0 0.240349,-0.03003 0.453436,0.01526 0.60151,-0.100601 -0.01932,-0.113703 0.163777,-0.148521 0.150901,-0.251502 -0.01077,-0.07724 -0.143261,-0.09517 -0.201202,-0.148805 -0.013,-0.01207 -0.02964,-0.04229 -0.04402,-0.06498 0.177074,0.116341 0.346075,0.242519 0.515578,0.36887 -0.04176,0.03396 -0.07628,0.07689 -0.119463,0.09641 -0.04507,0.0193 -0.110126,0.02456 -0.150902,0.05029 -0.06009,0.04077 -0.08223,0.103745 -0.150901,0.148805 -0.04935,0.03433 -0.199998,0.150902 -0.251502,0.150902 -0.06223,0 -0.156136,-0.06323 -0.201201,-0.0482 -0.06437,0.0193 -0.02764,0.12306 -0.100601,0.148806 -0.141634,0.05149 -0.403347,-0.111797 -0.452704,0.100601 0.06009,0.122289 0.244804,0.0844 0.352103,0.150901 0.06653,0.0429 0.184034,0.228858 0.201202,0.301802 0.01717,0.06008 0.02575,0.287741 0,0.352103 -0.06653,0.171634 -0.255274,0.155191 -0.452704,0.150901 -0.05365,0 -0.101545,0.0043 -0.150901,0 -0.332626,-0.02146 -0.652493,-0.137543 -0.802711,0.100601 0.01077,0.18236 0.04078,0.293943 0,0.452704 -0.03005,0.115858 -0.157339,0.200969 -0.150902,0.301802 0.0021,0.05149 0.08772,0.130404 0.100601,0.201202 0.0086,0.03862 -0.01717,0.116579 0,0.150901 0.05579,0.105119 0.203088,-0.01716 0.301803,0 0.09442,0.01502 0.203298,0.146377 0.203298,0.251502 0,0.07508 -0.05549,0.228858 -0.102693,0.301803 -0.09442,0.141597 -0.267208,0.123967 -0.402403,0.201201 -0.111596,0.06436 -0.134678,0.192336 -0.201202,0.303899 -0.07081,0.120143 -0.128502,0.180469 -0.100601,0.352102 -0.09657,0.190942 -0.204923,0.31015 -0.404499,0.402404 -0.05794,0.02574 -0.147552,0.06198 -0.201202,0.100601 -0.04291,0.03004 -0.09081,0.08224 -0.150901,0.150901 -0.0751,0.08368 -0.160429,0.13684 -0.201201,0.201202 -0.03005,0.04934 -0.01812,0.134693 -0.0503,0.201201 -0.04722,0.09011 -0.141115,0.161395 -0.201202,0.251502 -0.0279,0.0429 -0.07055,0.09512 -0.100601,0.150901 -0.06867,0.124434 -0.163776,0.242687 -0.150901,0.352103 0.01077,0.105119 0.144464,0.108951 0.150901,0.201202 0.0064,0.05149 -0.05245,0.09302 -0.0503,0.148806 0.0021,0.08152 0.04386,0.138935 0.0503,0.203297 0.01502,0.158761 -0.07057,0.192386 -0.100601,0.301802 -0.01502,0.05149 0.01288,0.11014 0,0.150902 -0.02575,0.07937 -0.148756,0.155007 -0.150901,0.249406 -0.0021,0.0665 0.09416,0.108903 0.100601,0.203297 0.0043,0.06436 -0.06108,0.14113 -0.0482,0.201202 0.0236,0.115857 0.261971,0.261995 0.352103,0.352103 0.12232,0.12229 0.248152,0.223378 0.301803,0.352103 0.04507,0.109418 0.06722,0.270577 0.150901,0.352103 0.06223,0.06007 0.172102,0.08659 0.251502,0.148805 0.0751,0.05792 0.170006,0.08868 0.249406,0.150901 0.130905,0.102983 0.294845,0.316822 0.503004,0.301803 0.109442,-0.0086 0.229783,-0.07914 0.352103,-0.100601 0.126612,-0.02146 0.273644,-0.06108 0.402404,-0.0482 0.09872,0.01077 0.20089,0.05464 0.303898,0.0482 0.107297,-0.0064 0.229783,-0.04696 0.352103,-0.100601 0.21245,-0.09225 0.543991,-0.246256 0.853011,-0.201201 0.236056,0.03433 0.239259,0.297277 0.404499,0.402403 0.188846,0.01716 0.350691,-0.03647 0.500908,0 0.113739,0.0279 0.240774,0.21379 0.251502,0.303898 0.01077,0.09225 -0.08772,0.191481 -0.1006,0.249406 -0.03005,0.124435 -0.02885,0.272724 -0.05029,0.352103 -0.01717,0.06222 -0.05036,0.138984 -0.0482,0.201202 0,0.05578 0.09297,0.178558 0.150901,0.251502 0.07081,0.09011 0.163568,0.152813 0.249407,0.251502 0.156657,0.180216 0.242658,0.415764 0.352102,0.653905 0.0279,0.06007 -0.02575,0.0758 0,0.150902 -0.04721,0.36043 -0.166346,0.606959 -0.402403,1.006008 -0.111584,0.128724 -0.253648,0.291797 -0.251502,0.452704 -0.0086,0.386175 0.21837,0.580308 0.201202,0.953611 -0.03863,0.502028 -0.0097,0.586928 -0.0482,0.855108 0.169531,0.08581 0.09758,0.322839 0.0482,0.500907 -0.07297,0.212398 -0.160429,0.262902 -0.201202,0.4045 0.132921,0.05751 0.278897,0.04345 0.427554,0.0063 -1.95507,2.083838 -4.729836,3.388963 -7.82592,3.388963 -1.317432,0 -2.572775,-0.246355 -3.736902,-0.67696 -0.04275,-0.01692 -0.08991,-0.02661 -0.132038,-0.0503 -0.06653,-0.03862 -0.109185,-0.119676 -0.100601,-0.201201 0.111597,-0.0472 0.322953,0.106309 0.404499,-0.0503 0.04078,-0.07509 -0.05365,-0.226714 0,-0.301802 0.03863,-0.05149 0.272702,-0.08772 0.352103,-0.100601 0.113738,-0.0193 0.237422,-0.0095 0.301802,-0.05029 0.07081,-0.04506 0.163777,-0.168786 0.150902,-0.301802 -0.0064,-0.06222 -0.05125,-0.09512 -0.100601,-0.150902 -0.04078,-0.0472 -0.02241,-0.105901 -0.0503,-0.148805 -0.05151,-0.07508 -0.129442,-0.09178 -0.150902,-0.201202 0.15451,-0.03003 0.380424,0.162816 0.603605,0.100601 0.105162,-0.03003 0.252446,-0.253413 0.301803,-0.352103 0.01502,-0.03004 -0.01717,-0.114425 0,-0.150901 0.01931,-0.04077 0.09625,-0.07914 0.102693,-0.100601 0.01502,-0.05792 -0.01288,-0.06413 0,-0.100601 0.03863,-0.109418 0.136822,-0.172122 0.201202,-0.251502 0.04935,-0.06008 0.105848,-0.138983 0.1509,-0.201201 0.05151,-0.0665 0.06627,-0.09297 0.100601,-0.150902 0.03219,-0.195234 -0.09752,-0.329274 -0.0503,-0.500908 0.05151,-0.193088 0.316304,-0.316537 0.503004,-0.404499 0.06437,-0.03003 0.14755,-0.08129 0.201202,-0.100601 0.128758,-0.04506 0.282227,-0.05769 0.402403,-0.100601 0.201721,-0.07294 0.253387,-0.268198 0.352102,-0.452703 0.04722,-0.08581 0.09412,-0.189287 0.102693,-0.251502 0.0086,-0.05578 -0.01077,-0.08445 0,-0.148806 0.01077,-0.06436 0.03104,-0.132498 0.0482,-0.203297 0.02361,-0.09226 0.0503,-0.247028 0.0503,-0.350008 0,-0.08581 -0.04816,-0.126062 -0.0503,-0.203297 -0.01502,-0.278905 0.09821,-0.300379 0.201201,-0.452704 0.05151,-0.07508 0.06412,-0.19577 0.100601,-0.249406 0.173824,-0.25745 0.474163,-0.366135 0.452703,-0.756602 -0.0086,-0.128726 -0.05437,-0.41194 -0.148805,-0.452704 -0.05365,-0.0236 -0.172102,-0.01817 -0.251502,-0.0482 -0.253225,-0.0944 -0.440252,-0.383044 -0.704206,-0.404499 -0.05579,-0.0021 -0.08867,0.0021 -0.150901,0 -0.103004,-0.0021 -0.234125,-0.08772 -0.350007,-0.100601 -0.07297,-0.0086 -0.208582,0.02146 -0.251502,0 -0.06653,-0.03218 -0.04696,-0.164729 -0.100601,-0.201202 -0.04291,-0.03003 -0.136772,-0.0267 -0.203297,-0.05029 -0.105162,-0.04075 -0.179481,-0.09202 -0.301803,-0.1006 -0.03863,-0.0021 -0.107981,0.0064 -0.150901,0 -0.06653,-0.01077 -0.138969,-0.06198 -0.201202,-0.100601 -0.07726,-0.04721 -0.118712,-0.08231 -0.150901,-0.148806 0.07081,-0.231706 -0.153989,-0.269337 -0.201202,-0.404499 -0.02146,-0.06222 0.02146,-0.14542 0,-0.201202 -0.0279,-0.07937 -0.113218,-0.134693 -0.201201,-0.201201 -0.15451,-0.120145 -0.28197,-0.223612 -0.503004,-0.251502 -0.09872,-0.01077 -0.234075,0.0086 -0.352103,0 -0.124466,-0.0086 -0.25768,-0.09393 -0.352103,-0.201202 -0.09013,-0.105118 -0.121802,-0.202158 -0.201202,-0.251502 -0.0751,-0.0472 -0.199997,-0.05125 -0.251502,-0.100601 -0.0236,-0.02146 -0.02675,-0.05126 -0.0482,-0.100601 -0.03863,-0.07724 -0.09752,-0.108904 -0.0503,-0.203297 -0.08585,-0.0429 -0.05653,0.06746 -0.148806,0.05029 -0.0837,-0.117997 -0.163257,-0.187375 -0.352103,-0.150901 -0.08585,0.01716 -0.150642,0.148756 -0.251502,0.150901 -0.08369,0.0021 -0.142057,-0.135885 -0.251502,-0.150901 -0.08369,-0.01077 -0.193561,0.06318 -0.251502,0.0503 -0.09228,-0.01716 -0.117509,-0.09512 -0.201202,-0.150901 -0.06223,-0.04077 -0.166866,-0.150951 -0.201201,-0.148806 -0.107297,0.0021 -0.204032,0.228185 -0.352103,0.148806 -0.07297,-0.09226 0.13405,-0.11539 0.0482,-0.201202 -0.06437,-0.06436 -0.09731,0.01598 -0.148805,0.05029 -0.06009,0.04077 -0.134678,0.077 -0.201202,0.100601 -0.148072,0.05578 -0.23622,0.04053 -0.352103,0.100601 -0.107296,0.05578 -0.141065,0.142086 -0.203297,0.251502 -0.04935,0.09011 -0.126093,0.245116 -0.201202,0.249405 -0.09013,0.0064 -0.169954,-0.114482 -0.251502,-0.148804 -0.246787,-0.107276 -0.397642,0.04607 -0.601509,0.0482 -0.188845,0.0021 -0.461288,-0.274633 -0.452704,-0.452702 0.0064,-0.109419 0.08772,-0.267243 0.100601,-0.402404 0.01077,-0.107275 0.09847,-0.205209 0.100601,-0.303899 0.0021,-0.130871 -0.218059,-0.234385 -0.303898,-0.249406 -0.20172,-0.03647 -0.47249,0.09011 -0.70211,0 -0.04291,-0.07294 0.07485,-0.132499 0.100601,-0.203298 0.01502,-0.04076 -0.01502,-0.05554 0,-0.100601 0.02575,-0.06865 0.116617,-0.128257 0.148805,-0.201201 0.0236,-0.05578 0.02671,-0.132548 0.05029,-0.201202 0.0279,-0.07724 0.09416,-0.145421 0.100601,-0.201202 0.0086,-0.07294 -0.04266,-0.156098 -0.100601,-0.203297 -0.178115,0.01077 -0.301492,0.0031 -0.404499,0.05029 -0.231765,0.105119 -0.168493,0.430061 -0.402403,0.503004 -0.07941,0.02574 -0.211672,0.03319 -0.301803,0.0482 -0.03924,0.0076 -0.08385,0.01408 -0.127847,0.02515 0.149875,-0.77905 0.381875,-1.527907 0.689535,-2.236273 0.05161,-1.4e-5 0.105118,-0.0069 0.140422,0 0.08154,0.01502 0.132481,0.09416 0.203298,0.1006 0.19743,0.01502 0.23931,-0.165686 0.402403,-0.251502 0.167386,0.0236 0.252134,-0.01716 0.404499,0 0.103005,0.01077 0.220255,0.144465 0.301803,0.150902 0.06867,0.0021 0.08653,-0.06105 0.150901,-0.05029 0.06438,0.01077 0.190471,0.123965 0.201201,0.201201 0.01077,0.09655 -0.0782,0.196627 -0.0503,0.303898 0.100859,0.102983 0.308924,0.14113 0.452704,0.201202 0.09442,-0.07724 0.01502,-0.240542 0,-0.352103 -0.0021,-0.04934 0.0064,-0.105837 0,-0.150901 -0.01077,-0.07724 -0.0482,-0.134694 -0.0482,-0.201202 0,-0.306795 0.24669,-0.433161 0.452703,-0.553304 0.08798,-0.0515 0.174247,-0.162585 0.251502,-0.201202 0.109442,-0.05364 0.161372,-0.0491 0.251502,-0.100601 0.163094,-0.09225 0.326092,-0.198772 0.452704,-0.303898 0.05795,-0.139453 -0.0064,-0.315397 0,-0.452704 0.05795,-0.03647 0.08657,0.0064 0.148806,0 0.09872,-0.02146 0.147502,-0.14542 0.203297,-0.201201 0.03219,-0.03218 0.110182,-0.06842 0.148805,-0.100601 0.09872,-0.07724 0.115361,-0.166874 0.201202,-0.201202 0.03004,-0.01077 0.103691,-0.03743 0.150901,-0.0503 0.06439,-0.01716 0.148496,-0.06413 0.251502,-0.100601 0.06653,-0.0236 0.225751,-0.02246 0.251502,-0.0482 0.03219,-0.03218 -0.0086,-0.153953 0,-0.203298 0.05151,-0.242432 0.437163,-0.268481 0.653906,-0.350007 0.150216,-0.05792 0.285319,-0.183083 0.452704,-0.150901 -0.03219,0.115858 -0.178799,0.112048 -0.150902,0.251502 0.03647,0.195232 0.283432,-0.07271 0.352103,-0.100601 0.130905,-0.05578 0.381628,-0.08868 0.553305,-0.150901 0.150219,-0.05363 0.393136,-0.128023 0.251502,-0.301802 -0.118029,-0.0086 -0.148496,0.105901 -0.251502,0.148805 -0.07081,0.01077 -0.08871,-0.04392 -0.148806,-0.0482 -0.05795,-0.0021 -0.09297,0.05894 -0.150901,0.0482 -0.05795,-0.01077 -0.142318,-0.132548 -0.150901,-0.201202 -0.02361,-0.180216 0.178539,-0.219087 0.251502,-0.352102 -0.04935,-0.163053 -0.265063,-0.03624 -0.402403,-0.100601 0.01502,-0.09655 0.08747,-0.181893 0.201201,-0.201202 0.09228,-0.01502 0.296309,0.0031 0.352103,0.0482 0.03219,0.02789 -0.0012,0.105837 0.0482,0.150901 0.05579,0.04934 0.130334,0.01077 0.203297,0 0.02575,-0.12229 -0.172362,-0.07152 -0.150901,-0.150901 0.145925,-0.0944 0.425489,-0.02461 0.603605,-0.0482 0.103004,-0.01502 0.209525,-0.101556 0.301802,-0.150901 0.08585,-0.04934 0.161372,-0.129736 0.251502,-0.0482 0.02575,0.08796 -0.05125,0.156149 -0.100601,0.201202 -0.16524,0.14589 -0.323946,0.283216 -0.452703,0.452704 0.07941,0.07724 0.219052,0.03318 0.352103,0.0482 0.05151,0.0064 0.09515,0.04172 0.148805,0.0503 0.06438,0.01077 0.151793,-0.01077 0.203297,0 0.09013,0.02146 0.111065,0.150901 0.201202,0.150901 0.145927,0 0.131905,-0.152812 0.0482,-0.251502 0.02575,-0.100837 0.0868,-0.180701 0.0503,-0.251502 -0.06653,-0.133015 -0.339226,0.01859 -0.352103,-0.150901 -0.0086,-0.107275 0.112279,-0.119675 0.150901,-0.201202 -0.01717,-0.205959 0.170266,-0.215751 0.148806,-0.402403 -0.01077,-0.07724 -0.09515,-0.07796 -0.148806,-0.150901 -0.0279,-0.03862 -0.01811,-0.123011 -0.0503,-0.150901 -0.111585,-0.0944 -0.339227,-0.06919 -0.352103,-0.249407 -0.0064,-0.107275 0.01502,-0.188045 0,-0.303898 -0.01502,-0.109418 -0.106782,-0.43125 -0.201202,-0.452704 -0.120173,-0.02574 -0.208322,0.184994 -0.352102,0.251502 -0.07725,0.03647 -0.222402,0.06532 -0.301803,0.0503 -0.05151,-0.01077 -0.144465,-0.05221 -0.150901,-0.150902 -0.01077,-0.113703 0.07915,-0.131357 0.100601,-0.251502 0.92452,-0.258024 1.895813,-0.406598 2.904846,-0.406598 z m -4.327931,0.909599 c -0.03089,0.441359 -0.424598,0.670045 -0.888641,0.658098 -0.09872,0.0944 -0.04696,0.271531 -0.100601,0.402403 -0.04507,0.109417 -0.192358,0.21188 -0.301802,0.203298 -0.07941,-0.0064 -0.201202,-0.128209 -0.201202,-0.203298 0,-0.09226 0.127613,-0.144281 0.0482,-0.249406 0.0033,-0.02204 0.0322,-0.04424 0.05449,-0.06707 0.443744,-0.279375 0.90471,-0.531054 1.389549,-0.744028 z m 8.957665,0.511388 c -0.03947,0.0073 -0.06144,0.02765 -0.0964,0.0482 -0.08154,0.04934 -0.08867,0.127303 -0.150902,0.150901 -0.08798,0.03218 -0.188325,0.02123 -0.201201,0.100601 -0.01077,0.06651 0.05245,0.08873 0.05029,0.148805 -0.03219,0.07939 -0.08343,0.104647 -0.100601,0.201202 0.109442,0.178069 0.365713,-0.0097 0.500908,-0.0482 0.06009,-0.01716 0.118712,-0.0031 0.150902,-0.0503 0.03647,-0.05792 0.02031,-0.167879 0.0482,-0.249406 0.03004,-0.09011 0.111339,-0.07152 0.100601,-0.150901 -0.0086,-0.07939 -0.168753,-0.163774 -0.301802,-0.150901 z M 79.92954,23.219697 c 0.104389,0.05347 0.280577,0.295066 0.07964,0.381446 -0.02146,0.01077 -0.3006,0.05894 -0.352103,0.0482 -0.04156,-0.006 -0.07611,-0.04414 -0.111079,-0.08174 0.12336,-0.120468 0.254474,-0.233485 0.38354,-0.347912 z m 0.379349,0.479951 c 0.05151,0.0021 0.09081,0.09631 0.150901,0.1006 0.05795,0.0043 0.116563,-0.06104 0.150901,-0.05029 0.09013,0.0236 0.13405,0.184994 0.0482,0.251502 -0.07082,0.0086 -0.09731,-0.05893 -0.148806,-0.0482 -0.145925,0.02574 -0.194454,0.310385 -0.303898,0.301802 -0.103005,-0.01077 -0.153364,-0.226711 -0.0482,-0.301802 0.0021,-0.06436 -0.05461,-0.08653 -0.05029,-0.150901 0.03219,-0.04077 0.115361,-0.10704 0.201202,-0.100601 l 0,-0.0021 z m -0.500909,0.0503 c 0.03005,0 0.03748,-0.01288 0.0482,0 -0.01502,0.113703 -0.06081,0.14966 -0.148806,0.203297 -0.152364,0.09225 -0.25454,0.205025 -0.303898,0.402403 -0.01502,0.05793 -0.176444,0.21622 -0.249406,0.201202 -0.169532,-0.03647 0.06197,-0.353059 0.1006,-0.402403 0.04291,-0.05363 0.09944,-0.09083 0.148806,-0.150902 0.04935,-0.06008 0.0534,-0.166874 0.100601,-0.201201 0.05151,-0.03647 0.213767,-0.0546 0.303898,-0.05029 l 0,-0.0021 z m 15.182342,0.287131 c 0.06777,0.07463 0.137635,0.147714 0.203297,0.224256 -0.06766,-0.07918 -0.178092,-0.109538 -0.203297,-0.224256 z m -0.656001,0.02096 c 0.169532,-0.01077 0.274849,0.198823 0.352103,0.301803 0.06438,0.08368 0.24695,0.193574 0.352103,0.251502 0.06009,0.03218 0.134675,0.07056 0.201201,0.100601 0.139488,0.06222 0.395965,0.265096 0.402403,0.402403 0.0021,0.06865 -0.05894,0.138934 -0.0482,0.203297 0.105151,0.01716 0.199054,-0.146376 0.201202,-0.251502 0,-0.02494 -0.0085,-0.04046 -0.01887,-0.05658 0.303721,0.424936 0.577372,0.87085 0.817381,1.339249 -0.0946,0.02776 -0.175482,0.07343 -0.190722,0.165572 -0.02146,0.120145 0.07966,0.280348 -0.100601,0.301802 -0.113737,0.01502 -0.247844,-0.11658 -0.404499,-0.150901 -0.06437,-0.01502 -0.149697,0.01716 -0.201202,0 -0.118028,-0.04077 -0.100343,-0.178608 -0.201201,-0.249406 -0.05795,-0.04077 -0.211622,-0.08987 -0.303899,-0.100601 -0.05795,-0.0064 -0.08871,0.0086 -0.148805,0 -0.07297,-0.0086 -0.191415,-0.01384 -0.251502,-0.0503 -0.05795,-0.03647 -0.18618,-0.101556 -0.201202,-0.150901 -0.0236,-0.07938 0.144513,-0.182901 0.148806,-0.249407 0.0043,-0.0515 -0.03748,-0.07367 -0.0482,-0.150901 -0.0086,-0.0472 0.01077,-0.120865 0,-0.150901 -0.01502,-0.05578 -0.115314,-0.09844 -0.203297,-0.100601 -0.07726,0 -0.134678,0.05029 -0.201202,0.05029 -0.09442,0.0021 -0.284374,-0.06103 -0.402403,-0.05029 -0.07081,0.0064 -0.136773,0.04602 -0.203297,0.05029 -0.186701,0.01502 -0.306779,-0.01077 -0.452704,0 -0.105162,0.0064 -0.303689,0.05554 -0.402403,0.100601 -0.04935,0.0236 -0.08653,0.06842 -0.150902,0.100601 -0.03003,0.01502 -0.06197,0.03104 -0.100601,0.0482 -0.06009,0.0279 -0.14326,0.08767 -0.201201,0.102694 -0.08369,0.02146 -0.199738,-0.0064 -0.352103,0 -0.109442,0.0064 -0.299656,-0.02002 -0.301803,-0.150902 -0.0021,-0.199524 0.364459,-0.116578 0.553305,-0.150901 0.07081,-0.01502 0.115361,-0.09946 0.201202,-0.148805 0.04078,-0.0236 0.06197,-0.02455 0.1006,-0.0503 0.06439,-0.04506 0.190472,-0.149712 0.201202,-0.201202 0.0086,-0.04719 -0.05464,-0.116579 -0.0482,-0.150901 0.0086,-0.04506 0.09087,-0.09089 0.148805,-0.148806 0.09013,-0.09011 0.139913,-0.193576 0.251502,-0.251502 0.07511,-0.04077 0.217166,-0.04053 0.251502,-0.100601 0.0086,-0.06865 -0.0021,-0.08868 0,-0.150901 0.04722,-0.0429 0.06197,-0.09202 0.100601,-0.100601 0.11588,-0.02574 0.216906,0.05464 0.352103,0.0482 0.05795,-0.0021 0.138969,-0.0074 0.201202,-0.0482 0.05151,-0.03432 0.09941,-0.07485 0.150901,-0.100601 0.05579,-0.03004 0.08223,-0.09631 0.150901,-0.1006 z m -13.428115,0.102694 0.0021,0 c 0.04935,-0.0021 0.09725,0 0.150901,0 0.05365,0 0.127345,-0.02146 0.148805,0 -0.03434,0.141598 -0.341112,0.0997 -0.452703,0.0482 0.0064,-0.05363 0.08223,-0.04176 0.150901,-0.0482 z m 14.287413,0.102693 c 0.0613,0.07149 0.125003,0.140667 0.184435,0.213777 -0.01,-0.0056 -0.02484,-0.008 -0.03353,-0.01467 -0.05969,-0.04689 -0.0916,-0.126541 -0.150901,-0.199106 z m -14.790417,0.148805 c 0.03647,0 0.06406,-0.01502 0.102694,0 -0.09872,0.08367 -0.232821,0.147568 -0.404499,0.201202 -0.08154,0.02574 -0.186181,0.0398 -0.201202,-0.0503 -0.01717,-0.11156 0.07795,-0.08987 0.150901,-0.100601 0.09442,-0.01077 0.240563,-0.04606 0.350007,-0.0482 l 0.0021,-0.0021 z m 13.981419,0.0021 c -0.07081,0.0236 -0.105161,0.181892 0,0.201201 0.04935,-0.03004 0.06318,-0.111092 0.0503,-0.201201 -0.0279,-0.03004 -0.02886,-0.0086 -0.0503,0 z m -0.0482,0.301802 c -0.03434,0.01077 -0.06413,0.0097 -0.100601,0.0482 0.0021,0.120142 0.02361,0.198772 0,0.303898 0.06867,0.133015 0.215071,0.03981 0.249406,-0.05029 0.04078,-0.223123 -0.0458,-0.329692 -0.148805,-0.301803 z m 0.953612,0.603605 c -0.09442,-0.0043 -0.193611,0.0031 -0.249407,0.0482 0.07941,0.128724 0.224288,0.169022 0.402404,0.201202 0.06437,-0.0472 0.07055,-0.16788 0.100601,-0.249406 -0.07725,0 -0.157079,0.0043 -0.251503,0 l -0.0021,0 z m -18.85637,4.420112 c 0.120975,0.109922 0.205229,0.293037 0.350007,0.364678 0.05365,0.02789 0.13253,0.03529 0.201202,0.05029 0.05579,0.01077 0.09725,0.03104 0.150901,0.0482 0.113739,0.03862 0.261973,0.06194 0.352103,0.102694 0.137343,0.06007 0.234074,0.281353 0.352103,0.350007 0.0064,0.06865 -0.02146,0.151807 0,0.203297 0.05579,0.07508 0.16137,0.09946 0.251502,0.148806 0.109442,0.06007 0.1464,0.204303 0.249406,0.251502 0.03647,0.01502 0.09511,-0.01716 0.150902,0 0.141634,0.0429 0.181578,0.237674 0.303898,0.201201 0.07941,-0.0236 0.08772,-0.123965 0.100601,-0.201201 0.05365,-0.05793 0.117509,-0.150901 0.201201,-0.150901 0.133051,-0.0021 0.151844,0.173028 0.201202,0.303898 0.0279,0.07295 0.08128,0.123966 0.100601,0.201201 0.03219,0.133016 0.0279,0.524225 0,0.603605 -0.03434,0.09869 -0.169955,0.142137 -0.251502,0.249407 -0.03863,0.0515 -0.07055,0.116579 -0.100601,0.150901 -0.05151,0.06436 -0.110172,0.09298 -0.148806,0.150901 -0.02146,0.03218 -0.03099,0.103745 -0.0503,0.148806 -0.06438,0.137305 -0.154252,0.239302 -0.100601,0.404499 0.02146,0.0665 0.100601,0.121822 0.100601,0.201201 0,0.0944 -0.186179,0.148523 -0.201201,0.251502 -0.01077,0.07509 0.07699,0.200967 0.1006,0.301803 0.01717,0.07508 0.156137,0.151857 0.201202,0.201202 0.07511,0.08368 0.134626,0.196628 0.203297,0.303898 0.135196,0.208106 0.216957,0.450091 0.350008,0.653905 0.07081,0.105119 0.204291,0.19024 0.251502,0.301803 0.0236,0.05578 -0.02146,0.149712 0,0.201201 0.07725,0.173779 0.42978,0.366888 0.603605,0.452704 0.08154,0.04076 0.176392,0.05978 0.251502,0.102693 0.113738,0.06436 0.344461,0.200967 0.402403,0.301803 0.05151,0.09011 0.07485,0.308961 0.100601,0.452703 0.03219,0.188797 -0.0086,0.34949 0,0.553305 0.0064,0.111561 0.05029,0.19024 0.05029,0.301802 0,0.03862 0.0021,0.112283 0,0.150902 -0.0021,0.133015 0.01077,0.267242 0,0.402403 -0.0064,0.07295 -0.0043,0.141079 0,0.203297 0.0064,0.0665 0.04392,0.09088 0.0482,0.148806 0.0043,0.06222 -0.05464,0.153951 -0.0482,0.203297 0.01502,0.135161 0.125149,0.225573 0.150901,0.350007 0.02146,0.09869 0.06108,0.334707 0.0482,0.452704 -0.0086,0.06222 -0.03963,0.134644 -0.0482,0.203298 -0.0064,0.05363 0.0086,0.09946 0,0.148805 -0.0069,0.04793 -0.01866,0.08834 -0.03144,0.129943 -2.985284,-1.901532 -4.965067,-5.231294 -4.965067,-9.047773 0,-0.513909 0.04818,-1.014768 0.117368,-1.509012 z m 4.174934,1.175772 c 0.103005,-0.04719 0.08369,0.138028 0,0.150901 -0.07941,0.01077 -0.07726,-0.114425 0,-0.150901 z"
           style="color:#000000;fill:#075347;fill-opacity:1;fill-rule:nonzero"
           inkscape:connector-curvature="0" />
      </g>
    </g>
  </g>
</svg>
