<?xml version="1.0" encoding="UTF-8" standalone="no"?>
<svg
   xmlns:osb="http://www.openswatchbook.org/uri/2009/osb"
   xmlns:dc="http://purl.org/dc/elements/1.1/"
   xmlns:cc="http://creativecommons.org/ns#"
   xmlns:rdf="http://www.w3.org/1999/02/22-rdf-syntax-ns#"
   xmlns:svg="http://www.w3.org/2000/svg"
   xmlns="http://www.w3.org/2000/svg"
   xmlns:xlink="http://www.w3.org/1999/xlink"
   xmlns:sodipodi="http://sodipodi.sourceforge.net/DTD/sodipodi-0.dtd"
   xmlns:inkscape="http://www.inkscape.org/namespaces/inkscape"
   viewBox="0 0 64 64"
   id="svg2"
   version="1.1"
   inkscape:version="0.91 r13725"
   sodipodi:docname="text-x-po.svg"
   width="64"
   height="64">
  <metadata
     id="metadata84">
    <rdf:RDF>
      <cc:Work
         rdf:about="">
        <dc:format>image/svg+xml</dc:format>
        <dc:type
           rdf:resource="http://purl.org/dc/dcmitype/StillImage" />
        <dc:title />
      </cc:Work>
    </rdf:RDF>
  </metadata>
  <sodipodi:namedview
     pagecolor="#ffffff"
     bordercolor="#666666"
     borderopacity="1"
     objecttolerance="10"
     gridtolerance="10"
     guidetolerance="10"
     inkscape:pageopacity="0"
     inkscape:pageshadow="2"
     inkscape:window-width="1366"
     inkscape:window-height="702"
     id="namedview82"
     showgrid="false"
     inkscape:showpageshadow="false"
     inkscape:zoom="7.4642639"
     inkscape:cx="-14.009984"
     inkscape:cy="28.073725"
     inkscape:window-x="0"
     inkscape:window-y="0"
     inkscape:window-maximized="1"
     inkscape:current-layer="g4414"
     showguides="false"
     inkscape:snap-bbox="true"
     inkscape:snap-bbox-edge-midpoints="false"
     inkscape:bbox-nodes="true">
    <inkscape:grid
       type="xygrid"
       id="grid3413" />
    <sodipodi:guide
       position="0,64"
       orientation="64,0"
       id="guide3482" />
    <sodipodi:guide
       position="0,0"
       orientation="0,64"
       id="guide3484" />
    <sodipodi:guide
       position="64,0"
       orientation="-64,0"
       id="guide3486" />
    <sodipodi:guide
       position="10,61"
       orientation="58,0"
       id="guide3492" />
    <sodipodi:guide
       position="10,3"
       orientation="0,44"
       id="guide3494" />
    <sodipodi:guide
       position="54,3"
       orientation="-58,0"
       id="guide3496" />
    <sodipodi:guide
       position="54,61"
       orientation="0,-44"
       id="guide3498" />
    <sodipodi:guide
       position="54,47"
       orientation="-14,0"
       id="guide4310" />
    <sodipodi:guide
       position="54,61"
       orientation="0,-14"
       id="guide4312" />
    <sodipodi:guide
       position="21,43"
       orientation="22,0"
       id="guide4250" />
    <sodipodi:guide
       position="21,21"
       orientation="0,22"
       id="guide4252" />
    <sodipodi:guide
       position="43,21"
       orientation="-22,0"
       id="guide4254" />
    <sodipodi:guide
       position="43,43"
       orientation="0,-22"
       id="guide4256" />
  </sodipodi:namedview>
  <defs
     id="defs4">
    <linearGradient
       id="linearGradient4531"
       inkscape:collect="always">
      <stop
         id="stop4533"
         offset="0"
         style="stop-color:#1a89f3;stop-opacity:1" />
      <stop
         id="stop4535"
         offset="1"
         style="stop-color:#20bbfa;stop-opacity:1" />
    </linearGradient>
    <linearGradient
       inkscape:collect="always"
       xlink:href="#linearGradient4531"
       id="linearGradient4190-9"
       x1="375.57144"
       y1="543.79797"
       x2="375.57144"
       y2="517.79797"
       gradientUnits="userSpaceOnUse"
       gradientTransform="matrix(2.1937939,0,0,2.2303048,-398.02626,-639.90393)" />
    <linearGradient
       osb:paint="gradient"
       id="linearGradient4207">
      <stop
         id="stop3371"
         offset="0"
         style="stop-color:#3498db;stop-opacity:1;" />
      <stop
         id="stop3373"
         offset="1"
         style="stop-color:#3498db;stop-opacity:0;" />
    </linearGradient>
  </defs>
  <rect
     style="opacity:1;fill:#ffffff;fill-opacity:0.40983605;stroke:none"
     id="rect4236-8"
     width="44"
     height="1"
     x="10"
     y="3" />
  <g
     transform="translate(-392.98822,-511.27795)"
     id="layer1"
     inkscape:label="Capa 1"
     inkscape:transform-center-x="5.4653607"
     inkscape:transform-center-y="-9.4924686">
    <g
       transform="translate(0.41988239,0.03484499)"
       inkscape:label="Capa 1"
       id="layer1-3">
      <rect
         style="opacity:0.997;fill:url(#linearGradient4190-9);fill-opacity:1.0;stroke:none;stroke-width:0.104;stroke-linecap:round;stroke-linejoin:round;stroke-miterlimit:4;stroke-dasharray:none;stroke-opacity:1"
         id="rect4182-2"
         width="46.069672"
         height="57.987926"
         x="401.76834"
         y="514.94318"
         ry="1.7192465" />
      <path
         style="opacity:0.56499999;fill:#000000;fill-opacity:1;fill-rule:evenodd;stroke:none;stroke-width:1px;stroke-linecap:butt;stroke-linejoin:miter;stroke-opacity:1"
         d="m 401.76839,563.18111 -4e-5,7.90428 c 0,0 -0.0224,1.83572 1.81022,1.83572 l 42.46177,0 c 0,0 1.93884,-0.0444 1.91466,-2.52819 l -0.0702,-7.21181 z"
         id="path4302"
         inkscape:connector-curvature="0"
         sodipodi:nodetypes="ccccccc" />
      <text
         xml:space="preserve"
         style="font-style:normal;font-weight:normal;font-size:7.8266716px;line-height:125%;font-family:sans-serif;letter-spacing:0px;word-spacing:0px;fill:#ffffff;fill-opacity:1;stroke:none;stroke-width:1px;stroke-linecap:butt;stroke-linejoin:miter;stroke-opacity:1"
         x="420.02335"
         y="569.54755"
         id="text4304"
         sodipodi:linespacing="125%"><tspan
           sodipodi:role="line"
           id="tspan4306"
           x="420.02335"
           y="569.54755"
           style="font-style:normal;font-variant:normal;font-weight:normal;font-stretch:normal;font-family:'Product Sans';-inkscape-font-specification:'Product Sans';fill:#ffffff;fill-opacity:1">po</tspan></text>
      <g
         transform="translate(-29.887931,29.62611)"
         id="layer1-89"
         inkscape:label="Capa 1">
        <g
           transform="translate(0.24086989,-3.2143302)"
           id="layer1-86"
           inkscape:label="Capa 1"
           style="fill:#0c3e6a;fill-opacity:1">
          <g
             transform="translate(0.80041,-4.19993)"
             inkscape:label="Capa 1"
             id="layer1-2"
             style="fill:#0c3e6a;fill-opacity:1">
            <g
               transform="matrix(0.83374987,0,0,0.83374987,123.04604,82.951066)"
               id="g4414"
               style="fill:#0c3e6a;fill-opacity:1">
              <g
                 id="g4275"
                 style="fill:#0c3e6a;fill-opacity:1;stroke:none;stroke-opacity:1"
                 transform="matrix(0.73502267,0,0,0.73367993,145.56273,129.8268)">
                <path
                   d="m 358.77104,516.99793 c -4.8234,-3.92542 -11.22786,-6.08712 -18.03349,-6.08712 -6.80575,0 -13.21022,2.16185 -18.03349,6.08712 -4.86535,3.9595 -7.54482,9.23646 -7.54482,14.859 0,5.36635 2.44243,10.41704 6.89488,14.30854 -0.0803,0.18057 -0.144,0.37054 -0.18468,0.57028 l -1.46301,7.19633 c -0.17395,0.85525 0.0599,1.36523 0.28634,1.64263 0.26189,0.3204 0.65007,0.49697 1.09314,0.49697 l 0,0 c 0.33452,0 0.69405,-0.0987 1.06868,-0.29345 l 8.50944,-4.42073 c 2.94612,0.94828 6.11338,1.44552 9.37335,1.44552 6.80578,0 13.21008,-2.16181 18.03351,-6.08708 4.8652,-3.95938 7.54467,-9.23635 7.54467,-14.85888 0,-5.62267 -2.67934,-10.89963 -7.54454,-14.85913 z"
                   id="path3"
                   inkscape:connector-curvature="0"
                   sodipodi:nodetypes="csssccccccccscscc"
                   style="fill:#0c3e6a;fill-opacity:1;stroke:#0b3d6a;stroke-opacity:1" />
                <path
                   d="m 343.77102,536.99793 c 2.62077,-2.13286 6.1006,-3.30741 9.79839,-3.30741 3.69786,0 7.1777,1.17463 9.79839,3.30741 2.64355,2.15136 4.09943,5.01857 4.09943,8.07354 0,2.91578 -1.32708,5.66003 -3.7463,7.77445 0.0437,0.0981 0.0783,0.20134 0.10032,0.30987 l 0.79491,3.91008 c 0.0945,0.4647 -0.0325,0.74179 -0.15558,0.89252 -0.1423,0.17408 -0.35322,0.27002 -0.59395,0.27002 l 0,0 c -0.18177,0 -0.37711,-0.0536 -0.58066,-0.15945 l -4.62356,-2.40197 c -1.60075,0.51525 -3.32166,0.78541 -5.09295,0.78541 -3.69788,0 -7.17762,-1.1746 -9.79839,-3.30738 -2.64348,-2.1513 -4.09936,-5.01851 -4.09936,-8.07348 0,-3.05504 1.4558,-5.92225 4.09928,-8.07361 z"
                   id="path3-6"
                   inkscape:connector-curvature="0"
                   sodipodi:nodetypes="csssccccccccscscc"
                   style="fill:#0c3e6a;fill-opacity:1;stroke:#1eaef8;stroke-opacity:1" />
              </g>
            </g>
          </g>
        </g>
      </g>
    </g>
  </g>
</svg>
