<?xml version="1.0" encoding="UTF-8" standalone="no"?>
<svg
   xmlns:osb="http://www.openswatchbook.org/uri/2009/osb"
   xmlns:dc="http://purl.org/dc/elements/1.1/"
   xmlns:cc="http://creativecommons.org/ns#"
   xmlns:rdf="http://www.w3.org/1999/02/22-rdf-syntax-ns#"
   xmlns:svg="http://www.w3.org/2000/svg"
   xmlns="http://www.w3.org/2000/svg"
   xmlns:xlink="http://www.w3.org/1999/xlink"
   xmlns:sodipodi="http://sodipodi.sourceforge.net/DTD/sodipodi-0.dtd"
   xmlns:inkscape="http://www.inkscape.org/namespaces/inkscape"
   viewBox="0 0 64 64"
   id="svg2"
   version="1.1"
   inkscape:version="0.91 r13725"
   sodipodi:docname="video-x-matroska.svg"
   width="64"
   height="64">
  <metadata
     id="metadata84">
    <rdf:RDF>
      <cc:Work
         rdf:about="">
        <dc:format>image/svg+xml</dc:format>
        <dc:type
           rdf:resource="http://purl.org/dc/dcmitype/StillImage" />
        <dc:title />
      </cc:Work>
    </rdf:RDF>
  </metadata>
  <sodipodi:namedview
     pagecolor="#ffffff"
     bordercolor="#666666"
     borderopacity="1"
     objecttolerance="10"
     gridtolerance="10"
     guidetolerance="10"
     inkscape:pageopacity="0"
     inkscape:pageshadow="2"
     inkscape:window-width="1366"
     inkscape:window-height="702"
     id="namedview82"
     showgrid="false"
     inkscape:showpageshadow="false"
     inkscape:zoom="7.4642639"
     inkscape:cx="-17.560361"
     inkscape:cy="34.535399"
     inkscape:window-x="0"
     inkscape:window-y="0"
     inkscape:window-maximized="1"
     inkscape:current-layer="layer1-3"
     showguides="false"
     inkscape:snap-bbox="true"
     inkscape:snap-bbox-edge-midpoints="false"
     inkscape:bbox-nodes="true">
    <inkscape:grid
       type="xygrid"
       id="grid3413" />
    <sodipodi:guide
       position="0,64"
       orientation="64,0"
       id="guide3482" />
    <sodipodi:guide
       position="0,0"
       orientation="0,64"
       id="guide3484" />
    <sodipodi:guide
       position="64,0"
       orientation="-64,0"
       id="guide3486" />
    <sodipodi:guide
       position="10,61"
       orientation="58,0"
       id="guide3492" />
    <sodipodi:guide
       position="10,3"
       orientation="0,44"
       id="guide3494" />
    <sodipodi:guide
       position="54,3"
       orientation="-58,0"
       id="guide3496" />
    <sodipodi:guide
       position="54,61"
       orientation="0,-44"
       id="guide3498" />
    <sodipodi:guide
       position="54,47"
       orientation="-14,0"
       id="guide4310" />
    <sodipodi:guide
       position="54,61"
       orientation="0,-14"
       id="guide4312" />
    <sodipodi:guide
       position="21,43"
       orientation="22,0"
       id="guide4250" />
    <sodipodi:guide
       position="21,21"
       orientation="0,22"
       id="guide4252" />
    <sodipodi:guide
       position="43,21"
       orientation="-22,0"
       id="guide4254" />
    <sodipodi:guide
       position="43,43"
       orientation="0,-22"
       id="guide4256" />
  </sodipodi:namedview>
  <defs
     id="defs4">
    <linearGradient
       id="linearGradient4531"
       inkscape:collect="always">
      <stop
         id="stop4533"
         offset="0"
         style="stop-color:#2fb67d;stop-opacity:1" />
      <stop
         id="stop4535"
         offset="1"
         style="stop-color:#45d88d;stop-opacity:1" />
    </linearGradient>
    <linearGradient
       inkscape:collect="always"
       xlink:href="#linearGradient4531"
       id="linearGradient4190-9"
       x1="375.57144"
       y1="543.79797"
       x2="375.57144"
       y2="517.79797"
       gradientUnits="userSpaceOnUse"
       gradientTransform="matrix(2.1937939,0,0,2.2303048,-398.02626,-639.90393)" />
    <linearGradient
       osb:paint="gradient"
       id="linearGradient4207">
      <stop
         id="stop3371"
         offset="0"
         style="stop-color:#3498db;stop-opacity:1;" />
      <stop
         id="stop3373"
         offset="1"
         style="stop-color:#3498db;stop-opacity:0;" />
    </linearGradient>
  </defs>
  <rect
     style="opacity:1;fill:#ffffff;fill-opacity:0.40983605;stroke:none"
     id="rect4236-8"
     width="44"
     height="1"
     x="10"
     y="3" />
  <g
     transform="translate(-392.98822,-511.27795)"
     id="layer1"
     inkscape:label="Capa 1"
     inkscape:transform-center-x="5.4653607"
     inkscape:transform-center-y="-9.4924686">
    <g
       transform="translate(0.41988239,0.03484499)"
       inkscape:label="Capa 1"
       id="layer1-3">
      <rect
         style="opacity:0.997;fill:url(#linearGradient4190-9);fill-opacity:1.0;stroke:none;stroke-width:0.104;stroke-linecap:round;stroke-linejoin:round;stroke-miterlimit:4;stroke-dasharray:none;stroke-opacity:1"
         id="rect4182-2"
         width="46.069672"
         height="57.987926"
         x="401.76834"
         y="514.94318"
         ry="1.7192465" />
      <path
         style="opacity:0.56499999;fill:#000000;fill-opacity:1;fill-rule:evenodd;stroke:none;stroke-width:1px;stroke-linecap:butt;stroke-linejoin:miter;stroke-opacity:1"
         d="m 401.76839,563.18111 -4e-5,7.90428 c 0,0 -0.0224,1.83572 1.81022,1.83572 l 42.46177,0 c 0,0 1.93884,-0.0444 1.91466,-2.52819 l -0.0702,-7.21181 z"
         id="path4302"
         inkscape:connector-curvature="0"
         sodipodi:nodetypes="ccccccc" />
      <text
         xml:space="preserve"
         style="font-style:normal;font-weight:normal;font-size:7.8266716px;line-height:125%;font-family:sans-serif;letter-spacing:0px;word-spacing:0px;fill:#ffffff;fill-opacity:1;stroke:none;stroke-width:1px;stroke-linecap:butt;stroke-linejoin:miter;stroke-opacity:1"
         x="415.52304"
         y="570.54785"
         id="text4304"
         sodipodi:linespacing="125%"><tspan
           sodipodi:role="line"
           id="tspan4306"
           x="415.52304"
           y="570.54785"
           style="font-style:normal;font-variant:normal;font-weight:normal;font-stretch:normal;font-family:'Product Sans';-inkscape-font-specification:'Product Sans';fill:#ffffff;fill-opacity:1">video</tspan></text>
      <g
         id="g8884"
         transform="translate(337.92712,508.81238)"
         style="fill:#155137;fill-opacity:1">
        <g
           transform="translate(32.081072,-981.7279)"
           id="layer1-34"
           inkscape:label="Capa 1"
           style="fill:#155137;fill-opacity:1">
          <g
             style="fill:#155137;fill-opacity:1;stroke:#4f96d1;stroke-opacity:1"
             inkscape:label="Capa 1"
             id="layer1-0"
             transform="matrix(0.90537551,0,0,0.90537551,-365.91682,562.06022)" />
          <g
             inkscape:label="Capa 1"
             id="layer1-00"
             transform="translate(-401.01229,510.63371)"
             style="fill:#155137;fill-opacity:1">
            <g
               inkscape:label="Capa 1"
               id="layer1-4"
               transform="translate(5.05585,-5.251147)"
               style="fill:#155137;fill-opacity:1">
              <g
                 style="fill:#155137;fill-opacity:1;stroke:#000000;stroke-opacity:0.8"
                 inkscape:label="Capa 1"
                 id="layer1-9"
                 transform="translate(-11.317,5.8824915)">
                <g
                   inkscape:label="Capa 1"
                   id="layer1-79"
                   transform="translate(1.8733025,-0.28410538)"
                   style="fill:#155137;fill-opacity:1">
                  <g
                     inkscape:label="Capa 1"
                     id="layer1-2"
                     transform="translate(-2.0518724,-0.97858527)"
                     style="fill:#155137;fill-opacity:1">
                    <path
                       id="path14795"
                       d="m 472.46517,492.17042 -1.09633,0 c -0.26036,0 -0.4714,0.21106 -0.4714,0.4714 l 0,0.58667 c 0,0.26032 -0.21105,0.47139 -0.47141,0.47139 l -1.02223,0 c -0.26034,0 -0.4714,-0.21107 -0.4714,-0.47139 l 0,-0.58667 c 0,-0.26034 -0.21101,-0.4714 -0.4714,-0.4714 l -12.30814,0 c -0.26036,0 -0.4714,0.21106 -0.4714,0.4714 l 0,0.58667 c 0,0.26032 -0.21105,0.47139 -0.47139,0.47139 l -1.02225,0 c -0.26034,0 -0.4714,-0.21107 -0.4714,-0.47139 l 0,-0.58667 c 0,-0.26034 -0.21103,-0.4714 -0.47139,-0.4714 l -1.05947,0 c -0.26037,0 -0.4714,0.21106 -0.4714,0.4714 l 0,21.21304 c 0,0.26037 0.21103,0.4714 0.4714,0.4714 l 1.05947,0 c 0.26036,0 0.47139,-0.21103 0.47139,-0.4714 l 0,-0.43098 c 0,-0.26034 0.21106,-0.47139 0.4714,-0.47139 l 1.02225,0 c 0.26034,0 0.47139,0.21105 0.47139,0.47139 l 0,0.43098 c 0,0.26037 0.21104,0.4714 0.4714,0.4714 l 12.30814,0 c 0.26039,0 0.4714,-0.21103 0.4714,-0.4714 l 0,-0.43098 c 0,-0.26034 0.21106,-0.47139 0.4714,-0.47139 l 1.02223,0 c 0.26036,0 0.47141,0.21105 0.47141,0.47139 l 0,0.43098 c 0,0.26037 0.21104,0.4714 0.4714,0.4714 l 1.09633,0 c 0.26036,0 0.47141,-0.21103 0.47141,-0.4714 l 0,-21.21304 c 0,-0.26032 -0.21105,-0.4714 -0.47141,-0.4714 z m -16.78371,18.0398 c 0,0.26034 -0.21105,0.47139 -0.47139,0.47139 l -1.02225,0 c -0.26034,0 -0.4714,-0.21105 -0.4714,-0.47139 l 0,-1.02226 c 0,-0.26032 0.21106,-0.47139 0.4714,-0.47139 l 1.02225,0 c 0.26034,0 0.47139,0.21107 0.47139,0.47139 l 0,1.02226 z m 0,-4.23592 c 0,0.26032 -0.21105,0.47139 -0.47139,0.47139 l -1.02225,0 c -0.26034,0 -0.4714,-0.21107 -0.4714,-0.47139 l 0,-1.02227 c 0,-0.26032 0.21106,-0.4714 0.4714,-0.4714 l 1.02225,0 c 0.26034,0 0.47139,0.21108 0.47139,0.4714 l 0,1.02227 z m 0,-4.23594 c 0,0.26036 -0.21105,0.4714 -0.47139,0.4714 l -1.02225,0 c -0.26034,0 -0.4714,-0.21104 -0.4714,-0.4714 l 0,-1.02225 c 0,-0.26034 0.21106,-0.47139 0.4714,-0.47139 l 1.02225,0 c 0.26034,0 0.47139,0.21105 0.47139,0.47139 l 0,1.02225 z m 0,-4.23591 c 0,0.26034 -0.21105,0.47139 -0.47139,0.47139 l -1.02225,0 c -0.26034,0 -0.4714,-0.21105 -0.4714,-0.47139 l 0,-1.02223 c 0,-0.26035 0.21106,-0.47142 0.4714,-0.47142 l 1.02225,0 c 0.26034,0 0.47139,0.21107 0.47139,0.47142 l 0,1.02223 z m 11.21262,14.33168 c 0,0.26038 -0.21103,0.4714 -0.47139,0.4714 l -8.19465,0 c -0.26036,0 -0.4714,-0.21102 -0.4714,-0.4714 l 0,-3.78823 c 0,-0.26034 0.21104,-0.47139 0.4714,-0.47139 l 8.19465,0 c 0.26036,0 0.47139,0.21105 0.47139,0.47139 l 0,3.78823 0,0 z m 0,-6.69166 c 0,0.26034 -0.21103,0.47139 -0.47139,0.47139 l -8.19465,0 c -0.26036,0 -0.4714,-0.21105 -0.4714,-0.47139 l 0,-3.78823 c 0,-0.26035 0.21104,-0.4714 0.4714,-0.4714 l 8.19465,0 c 0.26036,0 0.47139,0.21105 0.47139,0.4714 l 0,3.78823 0,0 z m 0,-6.69171 c 0,0.26036 -0.21103,0.47139 -0.47139,0.47139 l -8.19465,0 c -0.26036,0 -0.4714,-0.21103 -0.4714,-0.47139 l 0,-3.78823 c 0,-0.26032 0.21104,-0.4714 0.4714,-0.4714 l 8.19465,0 c 0.26036,0 0.47139,0.21108 0.47139,0.4714 l 0,3.78823 0,0 z m 4.00338,11.75946 c 0,0.26034 -0.21105,0.47139 -0.47139,0.47139 l -1.02225,0 c -0.26034,0 -0.4714,-0.21105 -0.4714,-0.47139 l 0,-1.02226 c 0,-0.26032 0.21106,-0.47139 0.4714,-0.47139 l 1.02225,0 c 0.26034,0 0.47139,0.21107 0.47139,0.47139 l 0,1.02226 z m 0,-4.23592 c 0,0.26032 -0.21105,0.47139 -0.47139,0.47139 l -1.02225,0 c -0.26034,0 -0.4714,-0.21107 -0.4714,-0.47139 l 0,-1.02227 c 0,-0.26032 0.21106,-0.4714 0.4714,-0.4714 l 1.02225,0 c 0.26034,0 0.47139,0.21108 0.47139,0.4714 l 0,1.02227 z m 0,-4.23594 c 0,0.26036 -0.21105,0.4714 -0.47139,0.4714 l -1.02225,0 c -0.26034,0 -0.4714,-0.21104 -0.4714,-0.4714 l 0,-1.02225 c 0,-0.26034 0.21106,-0.47139 0.4714,-0.47139 l 1.02225,0 c 0.26034,0 0.47139,0.21105 0.47139,0.47139 l 0,1.02225 z m 0,-4.23591 c 0,0.26034 -0.21105,0.47139 -0.47139,0.47139 l -1.02225,0 c -0.26034,0 -0.4714,-0.21105 -0.4714,-0.47139 l 0,-1.02223 c 0,-0.26035 0.21106,-0.47142 0.4714,-0.47142 l 1.02225,0 c 0.26034,0 0.47139,0.21107 0.47139,0.47142 l 0,1.02223 z"
                       inkscape:connector-curvature="0"
                       style="display:inline;fill:#155137;fill-opacity:1;stroke:none;stroke-width:46.76432037;stroke-miterlimit:4;stroke-dasharray:none;stroke-opacity:1" />
                  </g>
                </g>
              </g>
            </g>
          </g>
        </g>
      </g>
    </g>
  </g>
</svg>
