<?xml version="1.0" encoding="UTF-8" standalone="no"?>
<!-- Created with Inkscape (http://www.inkscape.org/) -->

<svg
   xmlns:sketch="http://www.bohemiancoding.com/sketch/ns"
   xmlns:dc="http://purl.org/dc/elements/1.1/"
   xmlns:cc="http://creativecommons.org/ns#"
   xmlns:rdf="http://www.w3.org/1999/02/22-rdf-syntax-ns#"
   xmlns:svg="http://www.w3.org/2000/svg"
   xmlns="http://www.w3.org/2000/svg"
   xmlns:sodipodi="http://sodipodi.sourceforge.net/DTD/sodipodi-0.dtd"
   xmlns:inkscape="http://www.inkscape.org/namespaces/inkscape"
   width="32"
   height="32"
   id="svg5453"
   version="1.1"
   inkscape:version="0.91 r13725"
   sodipodi:docname="folder-private.svg">
  <defs
     id="defs5455">
    <linearGradient
       id="linearGradient5263">
      <stop
         offset="0"
         style="stop-color:#a0d5ff;stop-opacity:1"
         id="stop5265" />
      <stop
         offset="1"
         style="stop-color:#a0d5ff;stop-opacity:1"
         id="stop5267" />
    </linearGradient>
  </defs>
  <sodipodi:namedview
     id="base"
     pagecolor="#ffffff"
     bordercolor="#666666"
     borderopacity="1.0"
     inkscape:pageopacity="0"
     inkscape:pageshadow="2"
     inkscape:zoom="15"
     inkscape:cx="-23.574025"
     inkscape:cy="16.914865"
     inkscape:document-units="px"
     inkscape:current-layer="g4187"
     showgrid="true"
     fit-margin-top="0"
     fit-margin-left="0"
     fit-margin-right="0"
     fit-margin-bottom="0"
     inkscape:window-width="1366"
     inkscape:window-height="702"
     inkscape:window-x="0"
     inkscape:window-y="0"
     inkscape:window-maximized="1"
     inkscape:showpageshadow="false"
     borderlayer="true"
     showguides="true"
     inkscape:guide-bbox="true"
     inkscape:object-nodes="true"
     inkscape:snap-bbox="true">
    <inkscape:grid
       type="xygrid"
       id="grid4063" />
    <sodipodi:guide
       position="2.0000117,30.000026"
       orientation="28,0"
       id="guide4167" />
    <sodipodi:guide
       position="17,5"
       orientation="0,28"
       id="guide4169" />
    <sodipodi:guide
       position="30.000012,2.0000264"
       orientation="-28,0"
       id="guide4171" />
    <sodipodi:guide
       position="30.000012,30.000026"
       orientation="0,-28"
       id="guide4173" />
    <sodipodi:guide
       position="2.0000117,30.000026"
       orientation="28,0"
       id="guide4181" />
    <sodipodi:guide
       position="16.000012,30.000026"
       orientation="0,-14"
       id="guide4187" />
    <sodipodi:guide
       position="5.0000117,30.000026"
       orientation="28,0"
       id="guide4143" />
    <sodipodi:guide
       position="5.0000117,2.0000264"
       orientation="0,22"
       id="guide4145" />
    <sodipodi:guide
       position="27.000012,2.0000264"
       orientation="-28,0"
       id="guide4147" />
    <sodipodi:guide
       position="27.000012,30.000026"
       orientation="0,-22"
       id="guide4149" />
    <sodipodi:guide
       position="27,30"
       orientation="0,-7"
       id="guide4155" />
    <sodipodi:guide
       position="27.00001,23"
       orientation="-7,-1e-05"
       id="guide4162" />
    <sodipodi:guide
       position="24,27"
       orientation="0,1"
       id="guide3378" />
  </sodipodi:namedview>
  <metadata
     id="metadata5458">
    <rdf:RDF>
      <cc:Work
         rdf:about="">
        <dc:format>image/svg+xml</dc:format>
        <dc:type
           rdf:resource="http://purl.org/dc/dcmitype/StillImage" />
        <dc:title />
      </cc:Work>
    </rdf:RDF>
  </metadata>
  <g
     inkscape:label="Capa 1"
     inkscape:groupmode="layer"
     id="layer1"
     transform="translate(-384.57143,-515.798)">
    <path
       style="fill:#ffffff;fill-opacity:0.23529412;fill-rule:evenodd;stroke:none;stroke-width:1px;stroke-linecap:butt;stroke-linejoin:miter;stroke-opacity:1"
       d="m 386.57144,526.798 0,1 6.99999,0 1,-3 -1,2 z"
       id="path4224"
       inkscape:connector-curvature="0"
       sodipodi:nodetypes="cccccc" />
    <g
       id="g4187"
       transform="matrix(0.7863692,0,0,0.78394543,93.325829,112.35451)">
      <g
         transform="matrix(0.10752924,0,0,0.10752924,446.17455,491.51412)"
         id="g4956"
         style="stroke:#608be7;stroke-opacity:1;stroke-width:4.73780576;stroke-miterlimit:4;stroke-dasharray:none">
        <g
           style="fill:#bddef8;fill-opacity:1;stroke:#608be7;stroke-width:1.81468021;stroke-miterlimit:4;stroke-dasharray:none;stroke-opacity:1"
           transform="matrix(2.6108213,0,0,2.6108213,-768.22476,390.2786)"
           id="layer1-7-5-6">
          <path
             sodipodi:nodetypes="scccssccccs"
             d="m 43.886832,-36.6986 c -1.108,0 -1.999909,0.892 -1.999909,2 l 0,81.609112 110.999917,0.239943 0,-70.041215 c 0,-1.108 -0.892,-2.000005 -2,-2.000005 l -60.173559,0 c -2.038523,0.180281 -2.301118,-0.09046 -3.308458,-1.435069 -1.428506,-1.911776 -3.585547,-7.064534 -4.99187,-8.929393 -1.128792,-1.632735 -1.311871,-1.443378 -3.183935,-1.443378 z"
             inkscape:connector-curvature="0"
             id="rect8678-4-5-5-1"
             style="color:#000000;display:inline;overflow:visible;visibility:visible;fill:#bddef8;fill-opacity:1;fill-rule:nonzero;stroke:#608be7;stroke-width:1.81468021;stroke-miterlimit:4;stroke-dasharray:none;stroke-opacity:1;marker:none;enable-background:accumulate" />
        </g>
      </g>
      <path
         inkscape:connector-curvature="0"
         d="m 382.93693,532.16089 c 0.24608,0.22261 0.56653,0.34523 0.90224,0.34523 0.21458,0 0.4274,-0.052 0.61572,-0.15011 0.0691,-0.036 0.13586,-0.0786 0.19855,-0.12689 l 0.38271,-0.29442 1.023,0.95854 c 0.0265,0.0249 0.0613,0.0385 0.0972,0.0385 0.004,0 0.009,0 0.0136,-5.2e-4 0.0407,-0.004 0.0776,-0.0251 0.10156,-0.0581 0.25807,-0.35552 0.56319,-0.68309 0.90695,-0.97348 0.0311,-0.0263 0.0496,-0.0646 0.0506,-0.10556 0.002,-0.0409 -0.0154,-0.0802 -0.0451,-0.10807 l -1.04722,-0.98109 0.24357,-0.39794 c 0.33883,-0.55338 0.2356,-1.27103 -0.24553,-1.70643 -0.24608,-0.22247 -0.56662,-0.34493 -0.90264,-0.34493 -0.2148,0 -0.42762,0.0518 -0.61571,0.15004 -0.14231,0.0741 -0.26953,0.17303 -0.3783,0.29412 -0.17464,0.19428 -0.28789,0.43411 -0.32759,0.69344 l -0.0567,0.37097 -0.36183,0.0951 c -0.25267,0.0664 -0.47871,0.20456 -0.65397,0.39961 -0.24,0.26724 -0.36205,0.61225 -0.3433,0.97172 0.0185,0.35901 0.17571,0.68948 0.44227,0.93044 z m 4.58227,8.58755 0,-1.04317 c 0,-0.039 -0.0159,-0.0763 -0.044,-0.10326 -0.0281,-0.027 -0.0655,-0.0413 -0.10474,-0.0395 -0.10565,0.004 -0.21032,-0.0124 -0.3096,-0.0505 -0.0508,-0.0194 -0.10839,-0.008 -0.14817,0.0289 l -1.73981,1.63035 -0.38262,-0.29406 c -0.0632,-0.0486 -0.13002,-0.0914 -0.19848,-0.12703 -0.18847,-0.0983 -0.40168,-0.15027 -0.61649,-0.15027 -0.33563,0 -0.65579,0.12247 -0.90148,0.34485 -0.26671,0.24097 -0.42376,0.57158 -0.44228,0.93076 -0.0187,0.35939 0.1033,0.70478 0.34369,0.97277 0.17473,0.19467 0.40052,0.33245 0.65298,0.3984 l 0.36258,0.0948 0.0567,0.37174 c 0.0395,0.25879 0.15286,0.49885 0.32812,0.69426 0.10816,0.1205 0.23537,0.2192 0.37785,0.29353 0.18822,0.0982 0.40121,0.15004 0.61585,0.15004 0.33573,0 0.65595,-0.12247 0.90165,-0.34486 0.26657,-0.24104 0.42376,-0.57181 0.44274,-0.9315 0.0143,-0.27463 -0.0535,-0.54234 -0.19606,-0.7741 l -0.24509,-0.39824 1.25048,-1.17178 c 0.0383,-0.0358 0.0538,-0.0899 0.0406,-0.14068 -0.0294,-0.11226 -0.0443,-0.22711 -0.0443,-0.34141 z m 11.90832,-10.4898 c -0.17519,-0.19504 -0.4013,-0.33319 -0.6539,-0.39961 l -0.3619,-0.0951 -0.0568,-0.37097 c -0.0397,-0.2594 -0.15301,-0.49916 -0.32759,-0.69344 -0.10885,-0.12109 -0.23606,-0.22003 -0.37829,-0.29413 -0.18808,-0.0982 -0.40092,-0.15004 -0.61565,-0.15004 -0.33602,0 -0.65655,0.12247 -0.90262,0.34494 -0.48114,0.4354 -0.58444,1.15313 -0.24554,1.70643 l 0.24356,0.39793 -1.04707,0.98125 c -0.0298,0.0278 -0.0463,0.0671 -0.0451,0.10807 0.002,0.0409 0.0194,0.0793 0.0506,0.10556 0.34375,0.2904 0.64888,0.61795 0.90695,0.97347 0.0239,0.0332 0.061,0.0541 0.10148,0.0581 0.004,5.2e-4 0.009,5.2e-4 0.0136,5.2e-4 0.0358,0 0.0707,-0.0136 0.0972,-0.0384 l 1.023,-0.95855 0.38269,0.29444 c 0.0627,0.0482 0.12949,0.0909 0.19856,0.12688 0.18824,0.0982 0.40115,0.15012 0.61571,0.15012 0.33572,0 0.65618,-0.12263 0.90225,-0.34524 0.26657,-0.24098 0.42369,-0.57142 0.44228,-0.93052 0.0186,-0.35956 -0.1033,-0.70455 -0.3433,-0.9718 z m -0.23584,10.68605 c -0.24569,-0.2223 -0.56584,-0.34484 -0.90148,-0.34484 -0.2148,0 -0.42793,0.052 -0.61648,0.15027 -0.0686,0.0356 -0.13533,0.0784 -0.19848,0.12702 l -0.3827,0.29407 -1.73966,-1.63029 c -0.0399,-0.0374 -0.0975,-0.0484 -0.14824,-0.0289 -0.0993,0.0382 -0.20395,0.0555 -0.3096,0.0505 -0.0392,-0.002 -0.0767,0.0125 -0.10475,0.0394 -0.0281,0.0268 -0.044,0.0643 -0.044,0.10328 l 0,1.04316 c 0,0.11423 -0.0149,0.22909 -0.0442,0.34143 -0.0133,0.0508 0.003,0.10478 0.0406,0.14067 l 1.25048,1.17179 -0.24508,0.39823 c -0.14254,0.23168 -0.21032,0.49939 -0.19606,0.77409 0.019,0.3597 0.17617,0.69046 0.44274,0.93151 0.24576,0.22239 0.56592,0.34485 0.90164,0.34485 0.21465,0 0.42763,-0.0518 0.61587,-0.15003 0.14246,-0.0743 0.26952,-0.17303 0.37775,-0.29352 0.17519,-0.19543 0.28866,-0.4354 0.32813,-0.69428 l 0.0566,-0.37173 0.36266,-0.0948 c 0.25245,-0.066 0.47826,-0.2038 0.65298,-0.39839 0.24038,-0.26801 0.36236,-0.61339 0.34369,-0.97278 -0.0185,-0.35926 -0.17557,-0.68986 -0.44229,-0.93084 z m -4.35546,-1.9544 c 0.0603,0.009 0.12105,-0.0118 0.16371,-0.0552 0.8517,-0.866 1.32061,-1.98137 1.32061,-3.14036 0,-2.58792 -2.3175,-4.69899 -5.18789,-4.75017 -2.8703,0.0511 -5.18782,2.16218 -5.18782,4.75009 0,1.159 0.46901,2.27444 1.32056,3.14037 0.0427,0.0434 0.10344,0.0639 0.16379,0.0552 0.0602,-0.009 0.11271,-0.0457 0.14147,-0.0995 l 0.46619,-0.8731 c 0.0136,-0.0256 0.0435,-0.0389 0.0719,-0.0319 0.0284,0.007 0.0482,0.0326 0.0482,0.0621 l 0,2.70065 c 0,0.30234 0.17435,0.58437 0.44447,0.71864 0.52251,0.25864 1.37732,0.5645 2.53118,0.59358 1.15386,-0.0291 2.00867,-0.33487 2.53118,-0.59358 0.27013,-0.13427 0.44448,-0.4163 0.44448,-0.71864 l 0,-2.70065 c 0,-0.0294 0.0199,-0.055 0.0484,-0.0621 0.0283,-0.007 0.0582,0.006 0.0719,0.0319 l 0.46619,0.8731 c 0.0288,0.0539 0.0813,0.0909 0.14148,0.0996 z m -5.47131,-1.96438 c -0.72791,0 -1.32009,-0.70638 -1.32009,-1.57461 0,-0.19962 0.16204,-0.36207 0.36129,-0.36207 l 1.91659,0 c 0.1994,0 0.36175,0.1629 0.36206,0.36373 -1.7e-4,0.86716 -0.59218,1.57295 -1.31985,1.57295 l 0,0 z m 2.66953,1.75814 -0.36918,0.31948 c -0.0194,0.0168 -0.0485,0.0203 -0.0713,0.008 l -0.39712,-0.20899 c -0.0522,-0.0274 -0.076,-0.0274 -0.12812,0 l -0.39712,0.20899 c -0.0228,0.0119 -0.052,0.009 -0.0713,-0.008 l -0.36919,-0.31948 c -0.0267,-0.0231 -0.0297,-0.0636 -0.006,-0.0904 l 0.72836,-0.84842 c 0.10914,-0.12764 0.25077,-0.12764 0.36,0 l 0.72836,0.84842 c 0.0231,0.0268 0.0201,0.0673 -0.006,0.0904 l 0,0 z m 0.86612,-1.75814 c -0.72759,0 -1.31978,-0.70579 -1.31985,-1.57302 2.5e-4,-0.20083 0.16258,-0.36374 0.36205,-0.36374 l 1.91652,0 c 0.19925,0 0.36129,0.16246 0.36129,0.36207 0,0.86822 -0.59211,1.57469 -1.32001,1.57469 l 0,0 z"
         id="Skull"
         sketch:type="MSShapeGroup"
         style="fill:#608be7;fill-opacity:1" />
    </g>
  </g>
</svg>
