<?xml version="1.0" encoding="UTF-8" standalone="no"?>
<!-- Created with Inkscape (http://www.inkscape.org/) -->

<svg
   xmlns:sketch="http://www.bohemiancoding.com/sketch/ns"
   xmlns:dc="http://purl.org/dc/elements/1.1/"
   xmlns:cc="http://creativecommons.org/ns#"
   xmlns:rdf="http://www.w3.org/1999/02/22-rdf-syntax-ns#"
   xmlns:svg="http://www.w3.org/2000/svg"
   xmlns="http://www.w3.org/2000/svg"
   xmlns:sodipodi="http://sodipodi.sourceforge.net/DTD/sodipodi-0.dtd"
   xmlns:inkscape="http://www.inkscape.org/namespaces/inkscape"
   width="32"
   height="32"
   id="svg5453"
   version="1.1"
   inkscape:version="0.91 r13725"
   sodipodi:docname="folder-development.svg">
  <defs
     id="defs5455">
    <linearGradient
       id="linearGradient5263">
      <stop
         offset="0"
         style="stop-color:#a0d5ff;stop-opacity:1"
         id="stop5265" />
      <stop
         offset="1"
         style="stop-color:#a0d5ff;stop-opacity:1"
         id="stop5267" />
    </linearGradient>
  </defs>
  <sodipodi:namedview
     id="base"
     pagecolor="#ffffff"
     bordercolor="#666666"
     borderopacity="1.0"
     inkscape:pageopacity="0"
     inkscape:pageshadow="2"
     inkscape:zoom="15"
     inkscape:cx="-12.407358"
     inkscape:cy="16.914865"
     inkscape:document-units="px"
     inkscape:current-layer="g4187"
     showgrid="true"
     fit-margin-top="0"
     fit-margin-left="0"
     fit-margin-right="0"
     fit-margin-bottom="0"
     inkscape:window-width="1366"
     inkscape:window-height="702"
     inkscape:window-x="0"
     inkscape:window-y="0"
     inkscape:window-maximized="1"
     inkscape:showpageshadow="false"
     borderlayer="true"
     showguides="true"
     inkscape:guide-bbox="true"
     inkscape:object-nodes="true"
     inkscape:snap-bbox="true">
    <inkscape:grid
       type="xygrid"
       id="grid4063" />
    <sodipodi:guide
       position="2.0000117,30.000026"
       orientation="28,0"
       id="guide4167" />
    <sodipodi:guide
       position="17,5"
       orientation="0,28"
       id="guide4169" />
    <sodipodi:guide
       position="30.000012,2.0000264"
       orientation="-28,0"
       id="guide4171" />
    <sodipodi:guide
       position="30.000012,30.000026"
       orientation="0,-28"
       id="guide4173" />
    <sodipodi:guide
       position="2.0000117,30.000026"
       orientation="28,0"
       id="guide4181" />
    <sodipodi:guide
       position="16.000012,30.000026"
       orientation="0,-14"
       id="guide4187" />
    <sodipodi:guide
       position="5.0000117,30.000026"
       orientation="28,0"
       id="guide4143" />
    <sodipodi:guide
       position="5.0000117,2.0000264"
       orientation="0,22"
       id="guide4145" />
    <sodipodi:guide
       position="27.000012,2.0000264"
       orientation="-28,0"
       id="guide4147" />
    <sodipodi:guide
       position="27.000012,30.000026"
       orientation="0,-22"
       id="guide4149" />
    <sodipodi:guide
       position="27,30"
       orientation="0,-7"
       id="guide4155" />
    <sodipodi:guide
       position="27.00001,23"
       orientation="-7,-1e-05"
       id="guide4162" />
    <sodipodi:guide
       position="24,27"
       orientation="0,1"
       id="guide3378" />
  </sodipodi:namedview>
  <metadata
     id="metadata5458">
    <rdf:RDF>
      <cc:Work
         rdf:about="">
        <dc:format>image/svg+xml</dc:format>
        <dc:type
           rdf:resource="http://purl.org/dc/dcmitype/StillImage" />
        <dc:title />
      </cc:Work>
    </rdf:RDF>
  </metadata>
  <g
     inkscape:label="Capa 1"
     inkscape:groupmode="layer"
     id="layer1"
     transform="translate(-384.57143,-515.798)">
    <path
       style="fill:#ffffff;fill-opacity:0.23529412;fill-rule:evenodd;stroke:none;stroke-width:1px;stroke-linecap:butt;stroke-linejoin:miter;stroke-opacity:1"
       d="m 386.57144,526.798 0,1 6.99999,0 1,-3 -1,2 z"
       id="path4224"
       inkscape:connector-curvature="0"
       sodipodi:nodetypes="cccccc" />
    <g
       id="g4187"
       transform="matrix(0.7863692,0,0,0.78394543,93.325829,112.35451)">
      <g
         transform="matrix(0.10752924,0,0,0.10752924,446.17455,491.51412)"
         id="g4956"
         style="stroke:#608be7;stroke-opacity:1;stroke-width:4.73780576;stroke-miterlimit:4;stroke-dasharray:none">
        <g
           style="fill:#bddef8;fill-opacity:1;stroke:#608be7;stroke-width:1.81468021;stroke-miterlimit:4;stroke-dasharray:none;stroke-opacity:1"
           transform="matrix(2.6108213,0,0,2.6108213,-768.22476,390.2786)"
           id="layer1-7-5-6">
          <path
             sodipodi:nodetypes="scccssccccs"
             d="m 43.886832,-36.6986 c -1.108,0 -1.999909,0.892 -1.999909,2 l 0,81.609112 110.999917,0.239943 0,-70.041215 c 0,-1.108 -0.892,-2.000005 -2,-2.000005 l -60.173559,0 c -2.038523,0.180281 -2.301118,-0.09046 -3.308458,-1.435069 -1.428506,-1.911776 -3.585547,-7.064534 -4.99187,-8.929393 -1.128792,-1.632735 -1.311871,-1.443378 -3.183935,-1.443378 z"
             inkscape:connector-curvature="0"
             id="rect8678-4-5-5-1"
             style="color:#000000;display:inline;overflow:visible;visibility:visible;fill:#bddef8;fill-opacity:1;fill-rule:nonzero;stroke:#608be7;stroke-width:1.81468021;stroke-miterlimit:4;stroke-dasharray:none;stroke-opacity:1;marker:none;enable-background:accumulate" />
        </g>
      </g>
      <path
         inkscape:connector-curvature="0"
         d="m 389.41454,529.04989 0.11317,0.0239 c 1.31626,-0.43834 4.27042,1.28819 3.61229,2.82686 -0.16677,0.24153 -0.13847,0.67094 0.0625,0.94079 l -3.69419,3.70057 c -0.20697,-0.20724 -0.66707,-0.20277 -0.87851,0 l -6.10934,5.8714 c -0.55689,0.53526 -0.11912,0.99 0.11614,1.23005 l 1.0959,1.09735 c 0.23973,0.23854 0.87255,0.56059 1.32223,0.0835 l 5.76538,-6.08461 c 0.20101,-0.21172 0.2025,-0.66647 0,-0.8752 0,0 0.002,-0.003 0,-0.003 l 3.70908,-3.71249 c 0.39161,0.35336 0.76145,0.3839 1.11228,0.28776 0.67758,-0.18569 1.05529,0.4781 1.46071,0.96316 l -0.18315,0.1804 c -0.271,0.27434 -0.24568,0.73654 0.0581,1.04069 0.30375,0.30416 0.76683,0.32951 1.03783,0.0582 l 1.21204,-1.21217 c 0.27099,-0.27433 0.24568,-0.73654 -0.0596,-1.0392 -0.27397,-0.27582 -0.67153,-0.31161 -0.94849,-0.1148 -0.83086,-0.93334 -0.39458,-1.07349 -1.49048,-2.28862 l -2.05333,-2.10077 c -1.47856,-1.45219 -3.39937,-1.4507 -5.26061,-0.8737 l 0,0 z"
         id="Developer"
         sketch:type="MSShapeGroup"
         style="fill:#608be7;fill-opacity:1" />
    </g>
  </g>
</svg>
