<?xml version="1.0" encoding="UTF-8" standalone="no"?>
<!-- Created with Inkscape (http://www.inkscape.org/) -->

<svg
   xmlns:sketch="http://www.bohemiancoding.com/sketch/ns"
   xmlns:dc="http://purl.org/dc/elements/1.1/"
   xmlns:cc="http://creativecommons.org/ns#"
   xmlns:rdf="http://www.w3.org/1999/02/22-rdf-syntax-ns#"
   xmlns:svg="http://www.w3.org/2000/svg"
   xmlns="http://www.w3.org/2000/svg"
   xmlns:sodipodi="http://sodipodi.sourceforge.net/DTD/sodipodi-0.dtd"
   xmlns:inkscape="http://www.inkscape.org/namespaces/inkscape"
   width="32"
   height="32"
   id="svg5453"
   version="1.1"
   inkscape:version="0.91 r13725"
   sodipodi:docname="folder-camera.svg">
  <defs
     id="defs5455">
    <linearGradient
       id="linearGradient5263">
      <stop
         offset="0"
         style="stop-color:#a0d5ff;stop-opacity:1"
         id="stop5265" />
      <stop
         offset="1"
         style="stop-color:#a0d5ff;stop-opacity:1"
         id="stop5267" />
    </linearGradient>
  </defs>
  <sodipodi:namedview
     id="base"
     pagecolor="#ffffff"
     bordercolor="#666666"
     borderopacity="1.0"
     inkscape:pageopacity="0"
     inkscape:pageshadow="2"
     inkscape:zoom="15"
     inkscape:cx="-12.407358"
     inkscape:cy="16.914865"
     inkscape:document-units="px"
     inkscape:current-layer="g4187"
     showgrid="true"
     fit-margin-top="0"
     fit-margin-left="0"
     fit-margin-right="0"
     fit-margin-bottom="0"
     inkscape:window-width="1366"
     inkscape:window-height="702"
     inkscape:window-x="0"
     inkscape:window-y="0"
     inkscape:window-maximized="1"
     inkscape:showpageshadow="false"
     borderlayer="true"
     showguides="true"
     inkscape:guide-bbox="true"
     inkscape:object-nodes="true"
     inkscape:snap-bbox="true">
    <inkscape:grid
       type="xygrid"
       id="grid4063" />
    <sodipodi:guide
       position="2.0000117,30.000026"
       orientation="28,0"
       id="guide4167" />
    <sodipodi:guide
       position="17,5"
       orientation="0,28"
       id="guide4169" />
    <sodipodi:guide
       position="30.000012,2.0000264"
       orientation="-28,0"
       id="guide4171" />
    <sodipodi:guide
       position="30.000012,30.000026"
       orientation="0,-28"
       id="guide4173" />
    <sodipodi:guide
       position="2.0000117,30.000026"
       orientation="28,0"
       id="guide4181" />
    <sodipodi:guide
       position="16.000012,30.000026"
       orientation="0,-14"
       id="guide4187" />
    <sodipodi:guide
       position="5.0000117,30.000026"
       orientation="28,0"
       id="guide4143" />
    <sodipodi:guide
       position="5.0000117,2.0000264"
       orientation="0,22"
       id="guide4145" />
    <sodipodi:guide
       position="27.000012,2.0000264"
       orientation="-28,0"
       id="guide4147" />
    <sodipodi:guide
       position="27.000012,30.000026"
       orientation="0,-22"
       id="guide4149" />
    <sodipodi:guide
       position="27,30"
       orientation="0,-7"
       id="guide4155" />
    <sodipodi:guide
       position="27.00001,23"
       orientation="-7,-1e-05"
       id="guide4162" />
    <sodipodi:guide
       position="24,27"
       orientation="0,1"
       id="guide3378" />
  </sodipodi:namedview>
  <metadata
     id="metadata5458">
    <rdf:RDF>
      <cc:Work
         rdf:about="">
        <dc:format>image/svg+xml</dc:format>
        <dc:type
           rdf:resource="http://purl.org/dc/dcmitype/StillImage" />
        <dc:title />
      </cc:Work>
    </rdf:RDF>
  </metadata>
  <g
     inkscape:label="Capa 1"
     inkscape:groupmode="layer"
     id="layer1"
     transform="translate(-384.57143,-515.798)">
    <path
       style="fill:#ffffff;fill-opacity:0.23529412;fill-rule:evenodd;stroke:none;stroke-width:1px;stroke-linecap:butt;stroke-linejoin:miter;stroke-opacity:1"
       d="m 386.57144,526.798 0,1 6.99999,0 1,-3 -1,2 z"
       id="path4224"
       inkscape:connector-curvature="0"
       sodipodi:nodetypes="cccccc" />
    <g
       id="g4187"
       transform="matrix(0.7863692,0,0,0.78394543,93.325829,112.35451)">
      <g
         transform="matrix(0.10752924,0,0,0.10752924,446.17455,491.51412)"
         id="g4956"
         style="stroke:#608be7;stroke-opacity:1;stroke-width:4.73780576;stroke-miterlimit:4;stroke-dasharray:none">
        <g
           style="fill:#bddef8;fill-opacity:1;stroke:#608be7;stroke-width:1.81468021;stroke-miterlimit:4;stroke-dasharray:none;stroke-opacity:1"
           transform="matrix(2.6108213,0,0,2.6108213,-768.22476,390.2786)"
           id="layer1-7-5-6">
          <path
             sodipodi:nodetypes="scccssccccs"
             d="m 43.886832,-36.6986 c -1.108,0 -1.999909,0.892 -1.999909,2 l 0,81.609112 110.999917,0.239943 0,-70.041215 c 0,-1.108 -0.892,-2.000005 -2,-2.000005 l -60.173559,0 c -2.038523,0.180281 -2.301118,-0.09046 -3.308458,-1.435069 -1.428506,-1.911776 -3.585547,-7.064534 -4.99187,-8.929393 -1.128792,-1.632735 -1.311871,-1.443378 -3.183935,-1.443378 z"
             inkscape:connector-curvature="0"
             id="rect8678-4-5-5-1"
             style="color:#000000;display:inline;overflow:visible;visibility:visible;fill:#bddef8;fill-opacity:1;fill-rule:nonzero;stroke:#608be7;stroke-width:1.81468021;stroke-miterlimit:4;stroke-dasharray:none;stroke-opacity:1;marker:none;enable-background:accumulate" />
        </g>
      </g>
      <path
         inkscape:connector-curvature="0"
         d="m 398.2032,532.72647 c -0.42228,-0.4126 -0.93162,-0.61895 -1.52845,-0.61895 l -1.89163,0 -0.43056,-1.12246 c -0.10697,-0.26957 -0.30255,-0.50207 -0.58698,-0.69748 -0.28431,-0.19533 -0.57567,-0.29308 -0.87408,-0.29308 l -4.32381,0 c -0.29841,0 -0.58978,0.0978 -0.8741,0.29308 -0.2843,0.19541 -0.4799,0.42791 -0.58687,0.69748 l -0.43067,1.12246 -1.89163,0 c -0.59683,0 -1.10627,0.20635 -1.52854,0.61895 -0.42217,0.41272 -0.63331,0.91063 -0.63331,1.49394 l 0,7.39521 c 0,0.58331 0.21114,1.08133 0.63331,1.49383 0.42227,0.41272 0.93171,0.61907 1.52854,0.61907 l 11.89024,0 c 0.59681,0 1.10616,-0.20635 1.52844,-0.61907 0.42216,-0.4125 0.63331,-0.91052 0.63331,-1.49383 l 0,-7.39521 c 7e-5,-0.58331 -0.21104,-1.08122 -0.63321,-1.49394 l 0,0 z m -4.80092,7.80387 c -0.74027,0.72362 -1.63116,1.08538 -2.67274,1.08538 -1.04159,0 -1.93237,-0.36176 -2.67275,-1.08538 -0.74039,-0.72352 -1.11051,-1.59431 -1.11051,-2.61222 0,-1.018 0.37023,-1.88862 1.11051,-2.61223 0.74027,-0.72362 1.63116,-1.08538 2.67275,-1.08538 1.04158,0 1.93237,0.36186 2.67274,1.08538 0.74038,0.72351 1.11053,1.59423 1.11053,2.61223 0,1.01791 -0.37025,1.8886 -1.11053,2.61222 z m -2.67274,-4.98933 c -0.67,0 -1.24278,0.23249 -1.71854,0.69749 -0.47576,0.46498 -0.71363,1.02478 -0.71363,1.67962 0,0.65482 0.23787,1.21463 0.71363,1.67961 0.47576,0.46489 1.04854,0.69739 1.71854,0.69739 0.66989,0 1.24278,-0.2325 1.71854,-0.69739 0.47575,-0.46498 0.71363,-1.02479 0.71363,-1.67961 0,-0.65484 -0.23788,-1.21464 -0.71363,-1.67962 -0.47576,-0.465 -1.04865,-0.69749 -1.71854,-0.69749 z"
         id="Camera"
         sketch:type="MSShapeGroup"
         style="fill:#608be7;fill-opacity:1" />
    </g>
  </g>
</svg>
