<?xml version="1.0" encoding="UTF-8" standalone="no"?>
<!-- Created with Inkscape (http://www.inkscape.org/) -->

<svg
   xmlns:sketch="http://www.bohemiancoding.com/sketch/ns"
   xmlns:dc="http://purl.org/dc/elements/1.1/"
   xmlns:cc="http://creativecommons.org/ns#"
   xmlns:rdf="http://www.w3.org/1999/02/22-rdf-syntax-ns#"
   xmlns:svg="http://www.w3.org/2000/svg"
   xmlns="http://www.w3.org/2000/svg"
   xmlns:sodipodi="http://sodipodi.sourceforge.net/DTD/sodipodi-0.dtd"
   xmlns:inkscape="http://www.inkscape.org/namespaces/inkscape"
   width="32"
   height="32"
   id="svg5453"
   version="1.1"
   inkscape:version="0.91 r13725"
   sodipodi:docname="folder-wifi.svg">
  <defs
     id="defs5455">
    <linearGradient
       id="linearGradient5263">
      <stop
         offset="0"
         style="stop-color:#a0d5ff;stop-opacity:1"
         id="stop5265" />
      <stop
         offset="1"
         style="stop-color:#a0d5ff;stop-opacity:1"
         id="stop5267" />
    </linearGradient>
  </defs>
  <sodipodi:namedview
     id="base"
     pagecolor="#ffffff"
     bordercolor="#666666"
     borderopacity="1.0"
     inkscape:pageopacity="0"
     inkscape:pageshadow="2"
     inkscape:zoom="15"
     inkscape:cx="0.061755333"
     inkscape:cy="16.914865"
     inkscape:document-units="px"
     inkscape:current-layer="g4187"
     showgrid="true"
     fit-margin-top="0"
     fit-margin-left="0"
     fit-margin-right="0"
     fit-margin-bottom="0"
     inkscape:window-width="1366"
     inkscape:window-height="702"
     inkscape:window-x="0"
     inkscape:window-y="0"
     inkscape:window-maximized="1"
     inkscape:showpageshadow="false"
     borderlayer="true"
     showguides="true"
     inkscape:guide-bbox="true"
     inkscape:object-nodes="true"
     inkscape:snap-bbox="true">
    <inkscape:grid
       type="xygrid"
       id="grid4063" />
    <sodipodi:guide
       position="2.0000117,30.000026"
       orientation="28,0"
       id="guide4167" />
    <sodipodi:guide
       position="17,5"
       orientation="0,28"
       id="guide4169" />
    <sodipodi:guide
       position="30.000012,2.0000264"
       orientation="-28,0"
       id="guide4171" />
    <sodipodi:guide
       position="30.000012,30.000026"
       orientation="0,-28"
       id="guide4173" />
    <sodipodi:guide
       position="2.0000117,30.000026"
       orientation="28,0"
       id="guide4181" />
    <sodipodi:guide
       position="16.000012,30.000026"
       orientation="0,-14"
       id="guide4187" />
    <sodipodi:guide
       position="5.0000117,30.000026"
       orientation="28,0"
       id="guide4143" />
    <sodipodi:guide
       position="5.0000117,2.0000264"
       orientation="0,22"
       id="guide4145" />
    <sodipodi:guide
       position="27.000012,2.0000264"
       orientation="-28,0"
       id="guide4147" />
    <sodipodi:guide
       position="27.000012,30.000026"
       orientation="0,-22"
       id="guide4149" />
    <sodipodi:guide
       position="27,30"
       orientation="0,-7"
       id="guide4155" />
    <sodipodi:guide
       position="27.00001,23"
       orientation="-7,-1e-05"
       id="guide4162" />
    <sodipodi:guide
       position="24,27"
       orientation="0,1"
       id="guide3378" />
  </sodipodi:namedview>
  <metadata
     id="metadata5458">
    <rdf:RDF>
      <cc:Work
         rdf:about="">
        <dc:format>image/svg+xml</dc:format>
        <dc:type
           rdf:resource="http://purl.org/dc/dcmitype/StillImage" />
        <dc:title />
      </cc:Work>
    </rdf:RDF>
  </metadata>
  <g
     inkscape:label="Capa 1"
     inkscape:groupmode="layer"
     id="layer1"
     transform="translate(-384.57143,-515.798)">
    <path
       style="fill:#ffffff;fill-opacity:0.23529412;fill-rule:evenodd;stroke:none;stroke-width:1px;stroke-linecap:butt;stroke-linejoin:miter;stroke-opacity:1"
       d="m 386.57144,526.798 0,1 6.99999,0 1,-3 -1,2 z"
       id="path4224"
       inkscape:connector-curvature="0"
       sodipodi:nodetypes="cccccc" />
    <g
       id="g4187"
       transform="matrix(0.7863692,0,0,0.78394543,93.325829,112.35451)">
      <g
         transform="matrix(0.10752924,0,0,0.10752924,446.17455,491.51412)"
         id="g4956"
         style="stroke:#608be7;stroke-opacity:1;stroke-width:4.73780576;stroke-miterlimit:4;stroke-dasharray:none">
        <g
           style="fill:#bddef8;fill-opacity:1;stroke:#608be7;stroke-width:1.81468021;stroke-miterlimit:4;stroke-dasharray:none;stroke-opacity:1"
           transform="matrix(2.6108213,0,0,2.6108213,-768.22476,390.2786)"
           id="layer1-7-5-6">
          <path
             sodipodi:nodetypes="scccssccccs"
             d="m 43.886832,-36.6986 c -1.108,0 -1.999909,0.892 -1.999909,2 l 0,81.609112 110.999917,0.239943 0,-70.041215 c 0,-1.108 -0.892,-2.000005 -2,-2.000005 l -60.173559,0 c -2.038523,0.180281 -2.301118,-0.09046 -3.308458,-1.435069 -1.428506,-1.911776 -3.585547,-7.064534 -4.99187,-8.929393 -1.128792,-1.632735 -1.311871,-1.443378 -3.183935,-1.443378 z"
             inkscape:connector-curvature="0"
             id="rect8678-4-5-5-1"
             style="color:#000000;display:inline;overflow:visible;visibility:visible;fill:#bddef8;fill-opacity:1;fill-rule:nonzero;stroke:#608be7;stroke-width:1.81468021;stroke-miterlimit:4;stroke-dasharray:none;stroke-opacity:1;marker:none;enable-background:accumulate" />
        </g>
      </g>
      <g
         id="g10822-9-7"
         transform="matrix(-0.0129682,0,0,0.01300829,435.16386,563.40582)"
         style="fill:#299cf7;fill-opacity:1">
        <g
           transform="matrix(-7.0732846,0,0,7.0017718,2712.2317,-7878.2911)"
           id="g5043"
           style="display:inline;fill:#60abe7;fill-opacity:1">
          <g
             id="g6727"
             transform="matrix(0.11770342,0,0,0.11770342,-131.56937,724.00624)"
             style="fill:#bddef8;fill-opacity:1">
            <path
               id="path10826-1-0"
               d="M 123.18099,740.61715 C 71.781952,730.2871 38.387452,679.81816 48.601972,627.87685 c 10.21989,-51.94134 60.189888,-85.67094 111.600358,-75.34087 51.42187,10.33004 84.82175,60.79888 74.59614,112.74023 -10.2256,51.94134 -60.18989,85.67094 -111.61748,75.34094 z"
               inkscape:connector-curvature="0"
               style="fill:#bddef8;fill-opacity:1" />
            <path
               id="path10828-6-8"
               d="m 410.33762,764.48187 c 3.84749,0.71336 7.57609,1.94614 11.09579,3.67541 l 95.09807,46.6108 c 21.53029,10.55264 30.51862,36.74308 20.0727,58.4875 -7.49112,15.59783 -22.93683,24.67803 -39.01561,24.67803 -6.34419,0 -12.79048,-1.4154 -18.88615,-4.40602 l -89.79903,-44.00827 -39.83475,-7.37943 30.64289,145.66518 c 0.61599,2.92775 1.05658,5.84416 1.35616,8.75484 l 55.51756,144.28399 116.97898,99.1058 c 21.82953,18.4914 24.68257,51.3649 6.37241,73.4118 -10.20277,12.2934 -24.82397,18.6284 -39.5523,18.6284 -11.69427,0 -23.45672,-3.9951 -33.1228,-12.1849 L 360.1473,1212.1098 c -6.64948,-5.6329 -11.79032,-12.8754 -14.93152,-21.0481 l -39.59193,-102.8896 c -0.86413,0.075 -1.7229,0.097 -2.58167,0.1371 l -77.72593,68.7206 -22.19695,147.1319 c -3.89249,25.7909 -25.87483,44.2652 -50.9359,44.2652 -2.58739,0 -5.20331,-0.1942 -7.83604,-0.5998 -28.16263,-4.3374 -47.517961,-30.9158 -43.22446,-59.3663 l 25.0389,-165.9543 c 1.83609,-12.1564 7.86391,-23.2626 17.02185,-31.3612 l 75.53955,-66.7915 c -0.14676,-0.6335 -0.35026,-1.2441 -0.48026,-1.8833 l -29.3885,-139.69549 -39.13416,30.87606 c -4.10172,3.23598 -8.75122,5.70149 -13.71709,7.27096 L 24.549599,956.19872 c -4.31062,1.364 -8.67767,2.01464 -12.9658,2.01464 -18.4340898,0 -35.52949,-11.98518 -41.33733,-30.69909 -7.15224,-23.06856 5.55931,-47.6324 28.3943802,-54.85773 L 102.57511,839.76018 206.59937,757.68475 c 0.86448,-0.67913 1.76254,-1.28414 2.66094,-1.88335 9.63249,-7.68196 21.05573,-13.37775 33.87443,-16.12293 12.51374,-2.69377 24.93143,-2.26577 36.5864,0.59358 l 130.61648,24.20996 z"
               inkscape:connector-curvature="0"
               style="fill:#bddef8;fill-opacity:1" />
          </g>
          <path
             inkscape:connector-curvature="0"
             d="m -67.446998,887.52751 c -3.547248,0 -7.085708,-1.5396 -9.659132,-4.56329 -6.598678,-7.7725 -15.996998,-12.21518 -25.7952,-12.21518 -9.96335,0 -19.11829,4.31289 -25.77787,12.15025 -4.83384,5.70417 -13.07578,6.14018 -18.42266,0.96469 -5.33812,-5.16623 -5.74675,-13.9591 -0.90382,-19.64458 11.4935,-13.53233 27.93394,-21.29557 45.10458,-21.29557 17.144627,0 33.585077,7.78185 45.113384,21.34191 4.842528,5.6949 4.433891,14.4876 -0.903821,19.65382 -2.486489,2.42074 -5.625021,3.60795 -8.754844,3.60795 z m 28.933627,-34.80915 c -3.329784,0 -6.659664,-1.35422 -9.198271,-4.05315 -14.762465,-15.66555 -34.358758,-24.29131 -55.189688,-24.29131 -20.87435,0 -40.47935,8.60716 -55.21586,24.23555 -5.10334,5.41664 -13.36267,5.38884 -18.4399,-0.0554 -5.0774,-5.44442 -5.05999,-14.25573 0.0549,-19.67244 19.6485,-20.85023 45.7915,-32.33267 73.60371,-32.33267 27.768795,0 53.903018,11.50106 73.586245,32.38834 5.112121,5.41671 5.129591,14.22794 0.05495,19.68163 -2.547317,2.7177 -5.903208,4.09955 -9.250408,4.09955 z m 28.8728953,-34.75357 c -3.2428653,0 -6.4944223,-1.28929 -9.0243393,-3.86761 -22.769702,-23.28038 -52.677162,-36.09851 -84.236515,-36.09851 -31.62018,0 -61.54512,12.79952 -84.25391,36.06129 -5.19034,5.31464 -13.44961,5.13844 -18.43998,-0.40781 -4.99038,-5.54659 -4.81652,-14.35781 0.37312,-19.67237 27.59492,-28.25172 63.92727,-43.806 102.32014,-43.806 38.314577,0 74.638214,15.57281 102.28518979,43.83371 5.19912551,5.3148 5.37298651,14.12595 0.3919424,19.67245 -2.56472469,2.84741 -5.99022159,4.28501 -9.41557689,4.28501 z M -104.53581,921.18818 c 8.700372,0 15.75354,-7.13867 15.75354,-15.94461 0,-8.80584 -7.053168,-15.94452 -15.75354,-15.94452 -8.70043,0 -15.75361,7.13868 -15.75361,15.94452 0,8.80594 7.05318,15.94461 15.75361,15.94461 z"
             id="Remote-5"
             sketch:type="MSShapeGroup"
             style="fill:#608be7;fill-opacity:1" />
        </g>
      </g>
    </g>
  </g>
</svg>
