<?xml version="1.0" encoding="UTF-8" standalone="no"?>
<!-- Created with Inkscape (http://www.inkscape.org/) -->

<svg
   xmlns:dc="http://purl.org/dc/elements/1.1/"
   xmlns:cc="http://creativecommons.org/ns#"
   xmlns:rdf="http://www.w3.org/1999/02/22-rdf-syntax-ns#"
   xmlns:svg="http://www.w3.org/2000/svg"
   xmlns="http://www.w3.org/2000/svg"
   xmlns:sodipodi="http://sodipodi.sourceforge.net/DTD/sodipodi-0.dtd"
   xmlns:inkscape="http://www.inkscape.org/namespaces/inkscape"
   width="16"
   height="16"
   id="svg2"
   version="1.1"
   inkscape:version="0.91 r13725"
   viewBox="0 0 16 16"
   sodipodi:docname="drive-removable-media.svg">
  <defs
     id="defs4">
    <linearGradient
       id="linearGradient4737">
      <stop
         style="stop-color:#9e9e9e;stop-opacity:1"
         offset="0"
         id="stop4739" />
      <stop
         style="stop-color:#969696;stop-opacity:1;"
         offset="1"
         id="stop4741" />
    </linearGradient>
    <linearGradient
       id="linearGradient3923">
      <stop
         id="stop3925"
         offset="0"
         style="stop-color:#c8c8c8;stop-opacity:1;" />
      <stop
         id="stop3927"
         offset="1"
         style="stop-color:#969696;stop-opacity:1;" />
    </linearGradient>
    <linearGradient
       id="linearGradient3911">
      <stop
         id="stop3913"
         offset="0"
         style="stop-color:#828282;stop-opacity:1;" />
      <stop
         id="stop3915"
         offset="1"
         style="stop-color:#c8c8c8;stop-opacity:1;" />
    </linearGradient>
    <linearGradient
       id="linearGradient3781">
      <stop
         style="stop-color:#dcdcdc;stop-opacity:1;"
         offset="0"
         id="stop3783" />
      <stop
         style="stop-color:#f0f0f0;stop-opacity:1;"
         offset="1"
         id="stop3785" />
    </linearGradient>
    <linearGradient
       id="linearGradient3780">
      <stop
         id="stop3782"
         offset="0"
         style="stop-color:#b2b2b2;stop-opacity:1" />
      <stop
         id="stop3784"
         offset="1"
         style="stop-color:#afafaf;stop-opacity:1" />
    </linearGradient>
    <linearGradient
       id="linearGradient3687">
      <stop
         style="stop-color:#2c2c2c;stop-opacity:1"
         offset="0"
         id="stop3689" />
      <stop
         id="stop3691"
         offset="0.11054216"
         style="stop-color:#414141;stop-opacity:1" />
      <stop
         id="stop3693"
         offset="0.29001436"
         style="stop-color:#474747;stop-opacity:1" />
      <stop
         id="stop3695"
         offset="0.5118711"
         style="stop-color:#4e4e4e;stop-opacity:1" />
      <stop
         id="stop3699"
         offset="0.75173318"
         style="stop-color:#3c3c3c;stop-opacity:1;" />
      <stop
         style="stop-color:#323232;stop-opacity:1"
         offset="0.89659214"
         id="stop3701" />
      <stop
         style="stop-color:#272727;stop-opacity:1"
         offset="1"
         id="stop3703" />
    </linearGradient>
  </defs>
  <sodipodi:namedview
     id="base"
     pagecolor="#ffffff"
     bordercolor="#666666"
     borderopacity="1.0"
     inkscape:pageopacity="0.0"
     inkscape:pageshadow="2"
     inkscape:zoom="18.194143"
     inkscape:cx="-16.724471"
     inkscape:cy="9.5778231"
     inkscape:document-units="px"
     inkscape:current-layer="layer1-3"
     showgrid="false"
     inkscape:showpageshadow="false"
     borderlayer="true"
     units="px"
     inkscape:window-width="1366"
     inkscape:window-height="702"
     inkscape:window-x="0"
     inkscape:window-y="0"
     inkscape:window-maximized="1">
    <inkscape:grid
       type="xygrid"
       id="grid4062" />
    <sodipodi:guide
       position="2,14.000017"
       orientation="12,0"
       id="guide4066" />
    <sodipodi:guide
       position="2,2.0000174"
       orientation="0,12"
       id="guide4068" />
    <sodipodi:guide
       position="14,2.0000174"
       orientation="-12,0"
       id="guide4070" />
    <sodipodi:guide
       position="14,14.000017"
       orientation="0,-12"
       id="guide4072" />
  </sodipodi:namedview>
  <metadata
     id="metadata7">
    <rdf:RDF>
      <cc:Work
         rdf:about="">
        <dc:format>image/svg+xml</dc:format>
        <dc:type
           rdf:resource="http://purl.org/dc/dcmitype/StillImage" />
        <dc:title></dc:title>
      </cc:Work>
    </rdf:RDF>
  </metadata>
  <g
     inkscape:label="Capa 1"
     inkscape:groupmode="layer"
     id="layer1"
     transform="translate(0,-1036.3622)">
    <g
       id="g4164"
       transform="matrix(0.33041456,0,0,0.33041456,1.9623858,1038.6839)">
      <g
         id="g4399"
         transform="matrix(1.1483543,0,0,1.1483543,-2.2928463,-1.978147)">
        <g
           style="fill:#4d4d4d;fill-opacity:1"
           id="g4140">
          <path
             sodipodi:nodetypes="sccccccss"
             style="opacity:1;fill:#4d4d4d;fill-opacity:1"
             inkscape:connector-curvature="0"
             d="m 4.8,32.019455 c -0.5,0 -0.9,-0.343969 -1,-0.77393 L 3.1,26 l 8.1,0 13.6,0 8.1,0 -0.7,5.245525 c -0.1,0.429961 -0.5,0.77393 -1,0.77393 z"
             id="path4142" />
          <g
             transform="matrix(1,0,0,0.82171911,0,4.4570224)"
             style="fill:#4d4d4d;fill-opacity:1"
             id="g4144">
            <path
               style="fill:#4d4d4d;fill-opacity:1"
               sodipodi:nodetypes="cccccccccccsscc"
               inkscape:connector-curvature="0"
               d="m 31.8,27 -0.5,5 -26.5,0 -0.5,-5 6.4,0 14.8,0 6.3,0 M 34,25 24,25 2,25 2.4967786,32.2 c 0.1,1 0.6978671,1.8 1.6978671,1.8 l 27.7106433,0 c 1,0 1.597867,-0.8 1.697867,-1.8 z"
               id="path4146" />
          </g>
        </g>
        <path
           sodipodi:nodetypes="cccccsscccc"
           style="fill-opacity:0.12000002;stroke:#4d4d4d;stroke-width:2;stroke-linejoin:round;stroke-miterlimit:10;stroke-opacity:1;fill:none"
           inkscape:connector-curvature="0"
           stroke-miterlimit="10"
           d="M 25,26 11,26 3.2,26 3,25 5.7,3.7 C 5.8,2.7 6.3966837,2 7.3966837,2 L 28.603376,2 C 29.603376,2 30.1,2.7 30.3,3.7 L 33,25 32.4,26 Z"
           id="path4148" />
      </g>
    </g>
    <g
       transform="translate(-415.54483,508.82119)"
       id="layer1-6"
       inkscape:label="Capa 1">
      <g
         transform="translate(396.18792,-508.13499)"
         id="layer1-3"
         inkscape:label="Capa 1">
        <g
           inkscape:label="Capa 1"
           id="layer1-6-1"
           transform="translate(-396.09825,508.10667)">
          <g
             style="fill:#4d4d4d;fill-opacity:1;stroke:none;stroke-width:4.8738122;stroke-miterlimit:4;stroke-dasharray:none"
             transform="matrix(0.00927984,-0.0066577,0.00924792,0.00668069,419.12343,534.38095)"
             id="g4782">
            <path
               style="fill:#4d4d4d;fill-opacity:1;stroke:none;stroke-width:4.8738122;stroke-miterlimit:4;stroke-dasharray:none"
               inkscape:connector-curvature="0"
               d="M 481.095,209.443 433.14,161.464 c -1.832,-1.823 -4.301,-2.852 -6.881,-2.852 -2.582,0 -5.051,1.02 -6.883,2.844 l -47.971,47.986 c -3.809,3.791 -3.809,9.956 0,13.749 l 6.691,6.683 -36.563,36.548 -84.964,-16.617 139.673,-139.672 17.684,17.684 c 1.897,1.897 4.65,2.669 7.248,2.031 2.614,-0.638 4.7,-2.581 5.514,-5.139 L 459.221,22.19 c 0.859,-2.732 0.127,-5.727 -1.898,-7.759 -2.039,-2.023 -5.018,-2.757 -7.757,-1.888 l -102.52,32.525 c -2.55,0.813 -4.509,2.9 -5.146,5.504 -0.638,2.614 0.143,5.361 2.039,7.257 l 17.699,17.701 -193.456,193.449 -17.923,-91.67 29.027,-29.027 c 14.099,2.868 29.314,-1.141 40.244,-12.069 17.35,-17.334 17.35,-45.444 -0.017,-62.794 -17.317,-17.334 -45.422,-17.31 -62.771,0.024 -10.945,10.929 -14.943,26.151 -12.075,40.251 l -38.221,38.219 c -5.768,5.761 -8.284,14.004 -6.707,22.003 l 26.75,136.765 -59.664,59.655 c -17.699,-5.313 -37.631,-1.202 -51.618,12.785 -20.265,20.282 -20.282,53.14 -0.017,73.422 20.297,20.296 53.164,20.296 73.444,0.016 13.989,-13.98 18.082,-33.895 12.777,-51.603 l 113.448,-113.44 130.066,25.441 c 1.562,0.304 3.139,0.455 4.7,0.455 6.42,0 12.667,-2.533 17.301,-7.17 l 45.756,-45.756 6.692,6.692 c 1.832,1.823 4.301,2.843 6.883,2.843 2.58,0 5.049,-1.027 6.881,-2.852 l 47.955,-47.978 c 3.809,-3.799 3.809,-9.949 0.002,-13.748 z"
               id="path4744" />
            <g
               style="fill:#4d4d4d;fill-opacity:1;stroke:none;stroke-width:4.8738122;stroke-miterlimit:4;stroke-dasharray:none"
               id="g4746" />
            <g
               style="fill:#4d4d4d;fill-opacity:1;stroke:none;stroke-width:4.8738122;stroke-miterlimit:4;stroke-dasharray:none"
               id="g4748" />
            <g
               style="fill:#4d4d4d;fill-opacity:1;stroke:none;stroke-width:4.8738122;stroke-miterlimit:4;stroke-dasharray:none"
               id="g4750" />
            <g
               style="fill:#4d4d4d;fill-opacity:1;stroke:none;stroke-width:4.8738122;stroke-miterlimit:4;stroke-dasharray:none"
               id="g4752" />
            <g
               style="fill:#4d4d4d;fill-opacity:1;stroke:none;stroke-width:4.8738122;stroke-miterlimit:4;stroke-dasharray:none"
               id="g4754" />
            <g
               style="fill:#4d4d4d;fill-opacity:1;stroke:none;stroke-width:4.8738122;stroke-miterlimit:4;stroke-dasharray:none"
               id="g4756" />
            <g
               style="fill:#4d4d4d;fill-opacity:1;stroke:none;stroke-width:4.8738122;stroke-miterlimit:4;stroke-dasharray:none"
               id="g4758" />
            <g
               style="fill:#4d4d4d;fill-opacity:1;stroke:none;stroke-width:4.8738122;stroke-miterlimit:4;stroke-dasharray:none"
               id="g4760" />
            <g
               style="fill:#4d4d4d;fill-opacity:1;stroke:none;stroke-width:4.8738122;stroke-miterlimit:4;stroke-dasharray:none"
               id="g4762" />
            <g
               style="fill:#4d4d4d;fill-opacity:1;stroke:none;stroke-width:4.8738122;stroke-miterlimit:4;stroke-dasharray:none"
               id="g4764" />
            <g
               style="fill:#4d4d4d;fill-opacity:1;stroke:none;stroke-width:4.8738122;stroke-miterlimit:4;stroke-dasharray:none"
               id="g4766" />
            <g
               style="fill:#4d4d4d;fill-opacity:1;stroke:none;stroke-width:4.8738122;stroke-miterlimit:4;stroke-dasharray:none"
               id="g4768" />
            <g
               style="fill:#4d4d4d;fill-opacity:1;stroke:none;stroke-width:4.8738122;stroke-miterlimit:4;stroke-dasharray:none"
               id="g4770" />
            <g
               style="fill:#4d4d4d;fill-opacity:1;stroke:none;stroke-width:4.8738122;stroke-miterlimit:4;stroke-dasharray:none"
               id="g4772" />
            <g
               style="fill:#4d4d4d;fill-opacity:1;stroke:none;stroke-width:4.8738122;stroke-miterlimit:4;stroke-dasharray:none"
               id="g4774" />
          </g>
        </g>
      </g>
    </g>
  </g>
</svg>
