<?xml version="1.0" encoding="UTF-8" standalone="no"?>
<!-- Created with Inkscape (http://www.inkscape.org/) -->

<svg
   xmlns:dc="http://purl.org/dc/elements/1.1/"
   xmlns:cc="http://creativecommons.org/ns#"
   xmlns:rdf="http://www.w3.org/1999/02/22-rdf-syntax-ns#"
   xmlns:svg="http://www.w3.org/2000/svg"
   xmlns="http://www.w3.org/2000/svg"
   xmlns:sodipodi="http://sodipodi.sourceforge.net/DTD/sodipodi-0.dtd"
   xmlns:inkscape="http://www.inkscape.org/namespaces/inkscape"
   width="16"
   height="16"
   id="svg2"
   version="1.1"
   inkscape:version="0.91 r13725"
   viewBox="0 0 16 16"
   sodipodi:docname="drive-harddisk.svg">
  <defs
     id="defs4">
    <linearGradient
       id="linearGradient4737">
      <stop
         style="stop-color:#9e9e9e;stop-opacity:1"
         offset="0"
         id="stop4739" />
      <stop
         style="stop-color:#969696;stop-opacity:1;"
         offset="1"
         id="stop4741" />
    </linearGradient>
    <linearGradient
       id="linearGradient3923">
      <stop
         id="stop3925"
         offset="0"
         style="stop-color:#c8c8c8;stop-opacity:1;" />
      <stop
         id="stop3927"
         offset="1"
         style="stop-color:#969696;stop-opacity:1;" />
    </linearGradient>
    <linearGradient
       id="linearGradient3911">
      <stop
         id="stop3913"
         offset="0"
         style="stop-color:#828282;stop-opacity:1;" />
      <stop
         id="stop3915"
         offset="1"
         style="stop-color:#c8c8c8;stop-opacity:1;" />
    </linearGradient>
    <linearGradient
       id="linearGradient3781">
      <stop
         style="stop-color:#dcdcdc;stop-opacity:1;"
         offset="0"
         id="stop3783" />
      <stop
         style="stop-color:#f0f0f0;stop-opacity:1;"
         offset="1"
         id="stop3785" />
    </linearGradient>
    <linearGradient
       id="linearGradient3780">
      <stop
         id="stop3782"
         offset="0"
         style="stop-color:#b2b2b2;stop-opacity:1" />
      <stop
         id="stop3784"
         offset="1"
         style="stop-color:#afafaf;stop-opacity:1" />
    </linearGradient>
    <linearGradient
       id="linearGradient3687">
      <stop
         style="stop-color:#2c2c2c;stop-opacity:1"
         offset="0"
         id="stop3689" />
      <stop
         id="stop3691"
         offset="0.11054216"
         style="stop-color:#414141;stop-opacity:1" />
      <stop
         id="stop3693"
         offset="0.29001436"
         style="stop-color:#474747;stop-opacity:1" />
      <stop
         id="stop3695"
         offset="0.5118711"
         style="stop-color:#4e4e4e;stop-opacity:1" />
      <stop
         id="stop3699"
         offset="0.75173318"
         style="stop-color:#3c3c3c;stop-opacity:1;" />
      <stop
         style="stop-color:#323232;stop-opacity:1"
         offset="0.89659214"
         id="stop3701" />
      <stop
         style="stop-color:#272727;stop-opacity:1"
         offset="1"
         id="stop3703" />
    </linearGradient>
  </defs>
  <sodipodi:namedview
     id="base"
     pagecolor="#ffffff"
     bordercolor="#666666"
     borderopacity="1.0"
     inkscape:pageopacity="0.0"
     inkscape:pageshadow="2"
     inkscape:zoom="18.194143"
     inkscape:cx="-7.1884355"
     inkscape:cy="9.5778231"
     inkscape:document-units="px"
     inkscape:current-layer="layer1-9"
     showgrid="false"
     inkscape:showpageshadow="false"
     borderlayer="true"
     units="px"
     inkscape:window-width="1366"
     inkscape:window-height="702"
     inkscape:window-x="0"
     inkscape:window-y="0"
     inkscape:window-maximized="1">
    <inkscape:grid
       type="xygrid"
       id="grid4062" />
    <sodipodi:guide
       position="2,14.000017"
       orientation="12,0"
       id="guide4066" />
    <sodipodi:guide
       position="2,2.0000174"
       orientation="0,12"
       id="guide4068" />
    <sodipodi:guide
       position="14,2.0000174"
       orientation="-12,0"
       id="guide4070" />
    <sodipodi:guide
       position="14,14.000017"
       orientation="0,-12"
       id="guide4072" />
  </sodipodi:namedview>
  <metadata
     id="metadata7">
    <rdf:RDF>
      <cc:Work
         rdf:about="">
        <dc:format>image/svg+xml</dc:format>
        <dc:type
           rdf:resource="http://purl.org/dc/dcmitype/StillImage" />
        <dc:title />
      </cc:Work>
    </rdf:RDF>
  </metadata>
  <g
     inkscape:label="Capa 1"
     inkscape:groupmode="layer"
     id="layer1"
     transform="translate(0,-1036.3622)">
    <g
       id="g4164"
       transform="matrix(0.33041456,0,0,0.33041456,1.9623858,1038.6839)">
      <g
         id="g4399"
         transform="matrix(1.1483543,0,0,1.1483543,-2.2928463,-1.978147)">
        <g
           style="fill:#4d4d4d;fill-opacity:1"
           id="g4140">
          <path
             sodipodi:nodetypes="sccccccss"
             style="opacity:1;fill:#4d4d4d;fill-opacity:1"
             inkscape:connector-curvature="0"
             d="m 4.8,32.019455 c -0.5,0 -0.9,-0.343969 -1,-0.77393 L 3.1,26 l 8.1,0 13.6,0 8.1,0 -0.7,5.245525 c -0.1,0.429961 -0.5,0.77393 -1,0.77393 z"
             id="path4142" />
          <g
             transform="matrix(1,0,0,0.82171911,0,4.4570224)"
             style="fill:#4d4d4d;fill-opacity:1"
             id="g4144">
            <path
               style="fill:#4d4d4d;fill-opacity:1"
               sodipodi:nodetypes="cccccccccccsscc"
               inkscape:connector-curvature="0"
               d="m 31.8,27 -0.5,5 -26.5,0 -0.5,-5 6.4,0 14.8,0 6.3,0 M 34,25 24,25 2,25 2.4967786,32.2 c 0.1,1 0.6978671,1.8 1.6978671,1.8 l 27.7106433,0 c 1,0 1.597867,-0.8 1.697867,-1.8 z"
               id="path4146" />
          </g>
        </g>
        <path
           sodipodi:nodetypes="cccccsscccc"
           style="fill-opacity:0.12000002;stroke:#4d4d4d;stroke-width:2;stroke-linejoin:round;stroke-miterlimit:10;stroke-opacity:1;fill:none"
           inkscape:connector-curvature="0"
           stroke-miterlimit="10"
           d="M 25,26 11,26 3.2,26 3,25 5.7,3.7 C 5.8,2.7 6.3966837,2 7.3966837,2 L 28.603376,2 C 29.603376,2 30.1,2.7 30.3,3.7 L 33,25 32.4,26 Z"
           id="path4148" />
      </g>
    </g>
    <g
       transform="translate(-415.54483,508.82119)"
       id="layer1-6"
       inkscape:label="Capa 1">
      <g
         transform="translate(400.14523,-508.46478)"
         id="layer1-9"
         inkscape:label="Capa 1">
        <g
           inkscape:label="Capa 1"
           id="layer1-6-2"
           transform="translate(-400.1003,508.43645)">
          <g
             inkscape:label="Capa 1"
             id="layer1-5"
             transform="matrix(0.81923526,0,0,0.81923526,84.164129,91.100876)">
            <path
               inkscape:connector-curvature="0"
               id="path4245"
               d="m 412.90001,538.24488 a 0.42358572,0.36659098 0 0 0 -0.42359,0.3666 0.42358572,0.36659098 0 0 0 0.42359,0.36658 0.42358572,0.36659098 0 0 0 0.42358,-0.36658 0.42358572,0.36659098 0 0 0 -0.42358,-0.3666 z m 2.11792,0 -0.84716,0.73318 1.69434,1.46638 -1.69434,1.46636 0.84716,0.73318 2.54152,-2.19954 -2.54152,-2.19956 z m -3.38869,2.19956 a 0.84716723,0.73317827 0 0 0 -0.84716,0.73318 0.84716723,0.73317827 0 0 0 0.84716,0.73318 0.84716723,0.73317827 0 0 0 0.84718,-0.73318 0.84716723,0.73317827 0 0 0 -0.84718,-0.73318 z m 1.69435,2.19954 a 0.84716723,0.73317827 0 0 0 -0.84717,0.73317 0.84716723,0.73317827 0 0 0 0.84717,0.73319 0.84716723,0.73317827 0 0 0 0.84718,-0.73319 0.84716723,0.73317827 0 0 0 -0.84718,-0.73317 z"
               style="opacity:1;fill:#4d4d4d;fill-opacity:1;stroke:none;stroke-width:3.77952743;stroke-linecap:butt;stroke-linejoin:miter;stroke-miterlimit:4;stroke-dasharray:none;stroke-dashoffset:0;stroke-opacity:1" />
          </g>
        </g>
      </g>
    </g>
  </g>
</svg>
