<?xml version="1.0" encoding="UTF-8" standalone="no"?>
<!-- Created with Inkscape (http://www.inkscape.org/) -->

<svg
   xmlns:dc="http://purl.org/dc/elements/1.1/"
   xmlns:cc="http://creativecommons.org/ns#"
   xmlns:rdf="http://www.w3.org/1999/02/22-rdf-syntax-ns#"
   xmlns:svg="http://www.w3.org/2000/svg"
   xmlns="http://www.w3.org/2000/svg"
   xmlns:sodipodi="http://sodipodi.sourceforge.net/DTD/sodipodi-0.dtd"
   xmlns:inkscape="http://www.inkscape.org/namespaces/inkscape"
   width="16"
   height="16"
   id="svg2"
   version="1.1"
   inkscape:version="0.91 r13725"
   viewBox="0 0 16 16"
   sodipodi:docname="kdeconnect.svg">
  <defs
     id="defs4">
    <linearGradient
       id="linearGradient5263">
      <stop
         offset="0"
         style="stop-color:#a0d5ff;stop-opacity:1"
         id="stop5265" />
      <stop
         offset="1"
         style="stop-color:#a0d5ff;stop-opacity:1"
         id="stop5267" />
    </linearGradient>
    <clipPath
       id="clipPath4458">
      <path
         d="m 69.626,12.145 -0.052,0 c -22.727,-0.292 -46.472,4.077 -46.709,4.122 -2.424,0.451 -4.946,2.974 -5.397,5.397 -0.044,0.237 -4.414,23.983 -4.122,46.71 -0.292,22.777 4.078,46.523 4.122,46.761 0.451,2.423 2.974,4.945 5.398,5.398 0.237,0.044 23.982,4.413 46.709,4.121 22.779,0.292 46.524,-4.077 46.761,-4.121 2.423,-0.452 4.946,-2.976 5.398,-5.399 0.044,-0.236 4.413,-23.981 4.121,-46.709 0.292,-22.777 -4.077,-46.523 -4.121,-46.761 -0.453,-2.423 -2.976,-4.946 -5.398,-5.397 -0.238,-0.045 -23.984,-4.414 -46.71,-4.122 z"
         id="use4460"
         inkscape:connector-curvature="0" />
    </clipPath>
    <linearGradient
       id="linearGradient4237">
      <stop
         offset="0"
         style="stop-color:#ff594d;stop-opacity:1"
         id="stop4239" />
      <stop
         offset="1"
         style="stop-color:#ff7f76;stop-opacity:1"
         id="stop4241" />
    </linearGradient>
    <linearGradient
       id="linearGradient4210">
      <stop
         id="stop4212"
         style="stop-color:#ff584c;stop-opacity:1"
         offset="0" />
      <stop
         id="stop4214"
         style="stop-color:#ff8077;stop-opacity:1"
         offset="1" />
    </linearGradient>
    <linearGradient
       id="linearGradient4179">
      <stop
         offset="0"
         style="stop-color:#ffee5e;stop-opacity:1"
         id="stop4181" />
      <stop
         offset="1"
         style="stop-color:#feff8b;stop-opacity:1"
         id="stop4183" />
    </linearGradient>
    <linearGradient
       id="linearGradient4210-3">
      <stop
         offset="0"
         style="stop-color:#ffce69;stop-opacity:1"
         id="stop4212-1" />
      <stop
         offset="1"
         style="stop-color:#ffce54;stop-opacity:1"
         id="stop4214-6" />
    </linearGradient>
    <linearGradient
       id="linearGradient4237-0">
      <stop
         id="stop4239-8"
         style="stop-color:#ffee5e;stop-opacity:1"
         offset="0" />
      <stop
         id="stop4241-9"
         style="stop-color:#feff9f;stop-opacity:1"
         offset="1" />
    </linearGradient>
    <linearGradient
       id="linearGradient4237-2">
      <stop
         id="stop4239-7"
         style="stop-color:#ffa0a6;stop-opacity:1"
         offset="0" />
      <stop
         id="stop4241-2"
         style="stop-color:#ffa0a5;stop-opacity:1"
         offset="1" />
    </linearGradient>
    <linearGradient
       id="linearGradient8311">
      <stop
         offset="0"
         style="stop-color:#ce89ff;stop-opacity:1"
         id="stop8313" />
      <stop
         offset="1"
         style="stop-color:#e898ff;stop-opacity:1"
         id="stop8315" />
    </linearGradient>
    <linearGradient
       id="linearGradient4237-8">
      <stop
         id="stop4239-2"
         style="stop-color:#cf8aff;stop-opacity:1"
         offset="0" />
      <stop
         id="stop4241-3"
         style="stop-color:#eaa0ff;stop-opacity:1"
         offset="1" />
    </linearGradient>
    <linearGradient
       id="linearGradient8311-3">
      <stop
         offset="0"
         style="stop-color:#ffcc6b;stop-opacity:1"
         id="stop8313-0" />
      <stop
         offset="1"
         style="stop-color:#ffcf98;stop-opacity:1"
         id="stop8315-1" />
    </linearGradient>
    <linearGradient
       id="linearGradient4237-3">
      <stop
         id="stop4239-0"
         style="stop-color:#ffcc6e;stop-opacity:1"
         offset="0" />
      <stop
         id="stop4241-7"
         style="stop-color:#ffe4a0;stop-opacity:1"
         offset="1" />
    </linearGradient>
    <linearGradient
       id="linearGradient8311-31">
      <stop
         offset="0"
         style="stop-color:#f089ff;stop-opacity:1"
         id="stop8313-2" />
      <stop
         offset="1"
         style="stop-color:#ffadea;stop-opacity:1"
         id="stop8315-6" />
    </linearGradient>
    <linearGradient
       id="linearGradient4237-6">
      <stop
         id="stop4239-22"
         style="stop-color:#f18bfe;stop-opacity:1"
         offset="0" />
      <stop
         id="stop4241-0"
         style="stop-color:#fcc3ff;stop-opacity:1"
         offset="1" />
    </linearGradient>
    <linearGradient
       id="linearGradient8467">
      <stop
         id="stop8469"
         style="stop-color:#b9b9b9;stop-opacity:1"
         offset="0" />
      <stop
         id="stop8471"
         style="stop-color:#d1d1d1;stop-opacity:1"
         offset="1" />
    </linearGradient>
    <linearGradient
       id="linearGradient8311-5">
      <stop
         offset="0"
         style="stop-color:#b9b9b9;stop-opacity:1"
         id="stop8313-7" />
      <stop
         offset="1"
         style="stop-color:#d2d2d2;stop-opacity:1"
         id="stop8315-3" />
    </linearGradient>
    <linearGradient
       id="linearGradient4237-4">
      <stop
         id="stop4239-9"
         style="stop-color:#bababa;stop-opacity:1"
         offset="0" />
      <stop
         id="stop4241-37"
         style="stop-color:#c8c8c8;stop-opacity:1"
         offset="1" />
    </linearGradient>
    <linearGradient
       id="linearGradient8467-7">
      <stop
         id="stop8469-4"
         style="stop-color:#3ec896;stop-opacity:1"
         offset="0" />
      <stop
         id="stop8471-7"
         style="stop-color:#66d9af;stop-opacity:1"
         offset="1" />
    </linearGradient>
    <linearGradient
       id="linearGradient8311-1">
      <stop
         offset="0"
         style="stop-color:#494949;stop-opacity:1"
         id="stop8313-9" />
      <stop
         offset="1"
         style="stop-color:#616774;stop-opacity:1"
         id="stop8315-5" />
    </linearGradient>
    <linearGradient
       id="linearGradient-1"
       y2="116.69431"
       x2="209.95714"
       y1="0"
       x1="209.95714"
       gradientTransform="scale(1.1288018,0.8858951)"
       gradientUnits="userSpaceOnUse">
      <stop
         id="stop4884"
         offset="0%"
         stop-color="#A7A7A7" />
      <stop
         id="stop4886"
         offset="100%"
         stop-color="#8D8D8D" />
    </linearGradient>
    <linearGradient
       id="linearGradient-2"
       y2="105.40025"
       x2="192.9998"
       y1="411.58424"
       x1="192.9998"
       gradientTransform="scale(1.2279807,0.81434507)"
       gradientUnits="userSpaceOnUse">
      <stop
         id="stop4889"
         offset="0%"
         stop-color="#707070" />
      <stop
         id="stop4891"
         offset="100%"
         stop-color="#ABABAB" />
    </linearGradient>
    <linearGradient
       id="linearGradient-3"
       y2="457.4228"
       x2="192.99978"
       y1="70.608888"
       x1="192.99978"
       gradientTransform="scale(1.2279807,0.81434507)"
       gradientUnits="userSpaceOnUse">
      <stop
         id="stop4894"
         offset="0%"
         stop-opacity="0"
         stop-color="#000000" />
      <stop
         id="stop4896"
         offset="100%"
         stop-opacity="0.19"
         stop-color="#000000" />
    </linearGradient>
    <linearGradient
       id="linearGradient4232">
      <stop
         style="stop-color:#333333;stop-opacity:1"
         offset="0"
         id="stop4234" />
      <stop
         style="stop-color:#353535;stop-opacity:1"
         offset="1"
         id="stop4236" />
    </linearGradient>
    <linearGradient
       id="linearGradient4172">
      <stop
         id="stop4174"
         offset="0"
         style="stop-color:#3dc796;stop-opacity:1" />
      <stop
         id="stop4176"
         offset="1"
         style="stop-color:#57d68d;stop-opacity:1" />
    </linearGradient>
    <linearGradient
       id="linearGradient4233">
      <stop
         style="stop-color:#212121;stop-opacity:1"
         offset="0"
         id="stop4235" />
      <stop
         style="stop-color:#1d2022;stop-opacity:0"
         offset="1"
         id="stop4237" />
    </linearGradient>
    <linearGradient
       id="linearGradient8467-6">
      <stop
         id="stop8469-5"
         style="stop-color:#56d8d1;stop-opacity:1"
         offset="0" />
      <stop
         id="stop8471-8"
         style="stop-color:#9df7ee;stop-opacity:1"
         offset="1" />
    </linearGradient>
    <linearGradient
       id="linearGradient8311-10">
      <stop
         offset="0"
         style="stop-color:#55d8d1;stop-opacity:1"
         id="stop8313-3" />
      <stop
         offset="1"
         style="stop-color:#66efe7;stop-opacity:1"
         id="stop8315-8" />
    </linearGradient>
    <linearGradient
       id="linearGradient8467-8">
      <stop
         id="stop8469-9"
         style="stop-color:#dea679;stop-opacity:1"
         offset="0" />
      <stop
         id="stop8471-2"
         style="stop-color:#f7d19d;stop-opacity:1"
         offset="1" />
    </linearGradient>
    <linearGradient
       id="linearGradient8311-0">
      <stop
         offset="0"
         style="stop-color:#dda579;stop-opacity:1"
         id="stop8313-90" />
      <stop
         offset="1"
         style="stop-color:#f3bc87;stop-opacity:1"
         id="stop8315-88" />
    </linearGradient>
    <linearGradient
       id="linearGradient8467-2">
      <stop
         id="stop8469-6"
         style="stop-color:#5fa4d5;stop-opacity:1"
         offset="0" />
      <stop
         id="stop8471-5"
         style="stop-color:#9dc9f7;stop-opacity:1"
         offset="1" />
    </linearGradient>
    <linearGradient
       id="linearGradient8311-06">
      <stop
         offset="0"
         style="stop-color:#5fa3d4;stop-opacity:1"
         id="stop8313-6" />
      <stop
         offset="1"
         style="stop-color:#6bb9ff;stop-opacity:1"
         id="stop8315-2" />
    </linearGradient>
    <clipPath
       id="clipPath4458-7">
      <path
         inkscape:connector-curvature="0"
         id="use4460-2"
         d="m 69.626,12.145 -0.052,0 c -22.727,-0.292 -46.472,4.077 -46.709,4.122 -2.424,0.451 -4.946,2.974 -5.397,5.397 -0.044,0.237 -4.414,23.983 -4.122,46.71 -0.292,22.777 4.078,46.523 4.122,46.761 0.451,2.423 2.974,4.945 5.398,5.398 0.237,0.044 23.982,4.413 46.709,4.121 22.779,0.292 46.524,-4.077 46.761,-4.121 2.423,-0.452 4.946,-2.976 5.398,-5.399 0.044,-0.236 4.413,-23.981 4.121,-46.709 0.292,-22.777 -4.077,-46.523 -4.121,-46.761 -0.453,-2.423 -2.976,-4.946 -5.398,-5.397 -0.238,-0.045 -23.984,-4.414 -46.71,-4.122 z" />
    </clipPath>
  </defs>
  <sodipodi:namedview
     id="base"
     pagecolor="#ffffff"
     bordercolor="#666666"
     borderopacity="1.0"
     inkscape:pageopacity="0.0"
     inkscape:pageshadow="2"
     inkscape:zoom="31.648162"
     inkscape:cx="6.392264"
     inkscape:cy="7.5851152"
     inkscape:document-units="px"
     inkscape:current-layer="layer1"
     showgrid="true"
     inkscape:showpageshadow="false"
     borderlayer="true"
     units="px"
     inkscape:window-width="1366"
     inkscape:window-height="702"
     inkscape:window-x="0"
     inkscape:window-y="0"
     inkscape:window-maximized="1">
    <inkscape:grid
       type="xygrid"
       id="grid4062" />
    <sodipodi:guide
       position="2,14.000017"
       orientation="12,0"
       id="guide4066" />
    <sodipodi:guide
       position="2,2.0000174"
       orientation="0,12"
       id="guide4068" />
    <sodipodi:guide
       position="14,2.0000174"
       orientation="-12,0"
       id="guide4070" />
    <sodipodi:guide
       position="14,14.000017"
       orientation="0,-12"
       id="guide4072" />
  </sodipodi:namedview>
  <metadata
     id="metadata7">
    <rdf:RDF>
      <cc:Work
         rdf:about="">
        <dc:format>image/svg+xml</dc:format>
        <dc:type
           rdf:resource="http://purl.org/dc/dcmitype/StillImage" />
        <dc:title />
      </cc:Work>
    </rdf:RDF>
  </metadata>
  <g
     inkscape:label="Capa 1"
     inkscape:groupmode="layer"
     id="layer1"
     transform="translate(0,-1036.3622)">
    <g
       id="g4235"
       transform="matrix(1.1974827,0,0,1.1974827,-1.5589308,-206.1013)">
      <path
         sodipodi:nodetypes="cccccccccccccccccc"
         inkscape:connector-curvature="0"
         id="rect4148"
         transform="translate(0,1036.3622)"
         d="M 4,2.8995843 4,13.00111 C 4,14 5,13.999983 4.9560609,14 l 6.0924821,0 C 11.048543,14 12,13.993635 12,13.032677 L 12,3.0574206 C 12.044209,1.9721096 11.016976,2 11.016976,2 L 4.9876282,2 C 4.9876282,2 4,1.999983 4,2.8995843 Z M 5,3 l 2,0 2,0 2,0 0,10 -2,0 -2,0 -2,0 z"
         style="opacity:1;fill:#4d4d4d;fill-opacity:1;stroke:none" />
      <path
         inkscape:connector-curvature="0"
         id="path5692_1_"
         style="display:inline;fill:#4d4d4d;fill-opacity:1;stroke:none;stroke-opacity:0.8"
         d="m 8.2175799,1042.2866 -0.77159,0.075 0,3.1787 0.7633465,-0.1155 0,-1.3551 1.0271381,1.5036 0.8045635,-0.2555 -1.0518681,-1.446 1.0601121,-1.3634 -0.821051,-0.188 -1.0188946,1.3634 0.00824,-1.3964 z m -1.7492671,0.7749 c -0.00873,8e-4 -0.018162,0 -0.024731,0.011 l -0.3033601,0.3034 c -0.012741,0.012 -0.014297,0.033 -0.00494,0.048 l 0.3544698,0.5853 c -0.062941,0.1063 -0.1140504,0.2194 -0.1500313,0.3397 l -0.6512352,0.1351 c -0.018122,0 -0.031326,0.019 -0.031326,0.039 l 0,0.4287 c 0,0.018 0.013783,0.034 0.031326,0.038 l 0.6314508,0.1534 c 0.033765,0.1393 0.08593,0.2726 0.1549775,0.394 l -0.3660106,0.5573 c -0.010211,0.016 -0.00822,0.036 0.00494,0.05 l 0.3033602,0.3034 c 0.01278,0.012 0.032381,0.015 0.047812,0 l 0.5737465,-0.348 c 0.1125324,0.066 0.2343662,0.117 0.3627131,0.1518 l 0.1335444,0.6429 c 0.00374,0.018 0.019363,0.032 0.037921,0.032 l 0.4286612,0 c 0.01799,0 0.033647,-0.012 0.037919,-0.029 l 0.158275,-0.6463 c 0.1323697,-0.036 0.2571708,-0.088 0.3726054,-0.1566 l 0.5655029,0.3709 c 0.01559,0.011 0.036245,0.011 0.04946,0 l 0.3017119,-0.3034 c 0.01282,-0.012 0.015985,-0.033 0.00659,-0.048 l -0.2060849,-0.3395 -0.067596,0.021 c -0.00976,0 -0.020576,0 -0.026379,-0.011 -10e-8,0 -0.1301819,-0.1915 -0.3000627,-0.4402 -0.203171,0.3976 -0.6175124,0.6693 -1.0947347,0.6693 -0.6781248,0 -1.2282789,-0.5501 -1.2282789,-1.2282 0,-0.4988 0.2982845,-0.9272 0.7254265,-1.1194 l 0,-0.3167 c -0.077739,0.027 -0.1528411,0.06 -0.2242228,0.1 -1.32e-4,-10e-5 1.321e-4,0 0,0 l -0.578692,-0.3792 c -0.00778,0 -0.016005,-0.011 -0.024731,0 z" />
      <rect
         ry="0.089136086"
         y="1039.9608"
         x="6.0146255"
         height="0.30485696"
         width="3.9590394"
         id="rect4444"
         style="opacity:1;fill:#4d4d4d;fill-opacity:1;stroke:none;stroke-width:29.50009918;stroke-linecap:round;stroke-linejoin:round;stroke-miterlimit:4;stroke-dasharray:none;stroke-opacity:1" />
    </g>
  </g>
</svg>
